<?xml version="1.0" encoding="UTF-8"?>
<svg xmlns="http://www.w3.org/2000/svg" version="1.1" viewBox="214 172 184 184">
  <defs>
    <style>
      .cls-1 {
        fill: #231f20;
      }
    </style>
  </defs>
  <!-- Generator: Adobe Illustrator 28.7.4, SVG Export Plug-In . SVG Version: 1.2.0 Build 166)  -->
  <g>
    <g id="Layer_1">
      <!-- Right side lightbulb connector lines -->
      <path class="cls-1" d="M305.99,302.12v3.85h11.77c1.06,0,1.92-.86,1.92-1.92s-.86-1.92-1.92-1.92h-11.77Z"/>
      <path class="cls-1" d="M305.99,319.67v4.58h5.2s1.16-2.2,1.16-2.2c.6.05,2.11.08,2.99-.86.14-.15.58-.62.36-1.07-.22-.47-.95-.45-1.14-.44-4.19,0-6.38,0-8.57,0Z"/>
      <path class="cls-1" d="M305.99,308.22v3.85h11.77c1.06,0,1.92-.86,1.92-1.92s-.86-1.92-1.92-1.92h-11.77Z"/>
      <path class="cls-1" d="M305.99,314.27v3.85h11.77c1.06,0,1.92-.86,1.92-1.92s-.86-1.92-1.92-1.92h-11.77Z"/>
      <path class="cls-1" d="M306,355.76c-50.78,0-92.09-41.31-92.09-92.09s41.31-92.09,92.09-92.09,92.09,41.31,92.09,92.09-41.31,92.09-92.09,92.09h0ZM305.99,350.8h0c48.04,0,87.13-39.09,87.13-87.13s-39.09-87.13-87.13-87.13h0v174.26ZM305.99,225.33c-16.28,0-29.53,13.25-29.53,29.54,0,7.58,2.87,14.49,7.57,19.73h0c4.65,5.5,5.28,13.66,5.66,18.54.48,6.16,5.23,6.28,5.56,6.28h10.75v-74.08ZM305.99,324.24v-4.58c-2.17,0-4.35,0-8.51,0-.19-.01-.91-.03-1.14.44-.22.45.22.92.36,1.07.88.94,2.39.91,2.99.86l1.16,2.21h5.14ZM296.92,216.74s-5.56-18.18-5.72-18.71c-.25-.81-4.78.57-4.54,1.37.16.52,5.72,18.72,5.72,18.72,0,0,.8-.33,2.22-.76,1.41-.43,2.31-.63,2.31-.63h0ZM277.29,228.31s-14.86-12.04-15.25-12.35c-.6-.49-3.6,3.18-3,3.67.37.3,15.27,12.36,15.27,12.36,0,0,.48-.72,1.41-1.87.93-1.15,1.57-1.81,1.57-1.81h0ZM267.48,248.89s-19.41-1.7-19.73-1.73c-.57-.05-.97,4.67-.4,4.72.33.03,19.72,1.73,19.72,1.73,0,0,0-.87.13-2.34.13-1.47.29-2.38.29-2.38h0ZM270.85,271.42s-17.2,9.54-17.41,9.65c-.38.21,1.91,4.36,2.29,4.15.19-.11,17.42-9.65,17.42-9.65,0,0-.49-.72-1.2-2.01-.72-1.29-1.09-2.13-1.09-2.13h0ZM306,305.97v-3.85h-11.77c-1.06,0-1.92.86-1.92,1.92s.86,1.92,1.92,1.92h11.77ZM306,312.06v-3.85h-11.77c-1.06,0-1.92.86-1.92,1.92s.86,1.92,1.92,1.92h11.77ZM306,318.12v-3.85h-11.77c-1.06,0-1.92.86-1.92,1.92s.86,1.92,1.92,1.92h11.77Z"/>
      <!-- Right side Lightbulb lines -->
      <path class="cls-1" d="M319.67,218.13s-.85-.34-2.27-.78c-1.41-.43-2.26-.61-2.26-.61,0,0,5.56-18.18,5.72-18.71.26-.85,4.79.54,4.53,1.39-.16.53-5.72,18.71-5.72,18.71h0Z"/>
      <path class="cls-1" d="M337.75,232s-.52-.76-1.45-1.91c-.93-1.15-1.54-1.77-1.54-1.77,0,0,14.81-11.99,15.22-12.33.65-.53,3.64,3.15,2.99,3.68-.41.33-15.23,12.33-15.23,12.33h0Z"/>
      <path class="cls-1" d="M344.99,253.61s0-.92-.13-2.39c-.13-1.47-.28-2.33-.28-2.33,0,0,19.25-1.68,19.65-1.72.65-.06,1.08,4.66.43,4.72-.39.03-19.66,1.72-19.66,1.72h0Z"/>
      <path class="cls-1" d="M338.9,275.57s.51-.76,1.23-2.06c.72-1.29,1.07-2.09,1.07-2.09,0,0,17.14,9.5,17.37,9.63.42.23-1.87,4.38-2.29,4.15-.23-.13-17.38-9.63-17.38-9.63h0Z"/>
      <path class="cls-1" d="M305.99,299.41h10.75c.35,0,5.1-.12,5.57-6.28.38-4.88,1.01-13.05,5.66-18.53h0c4.71-5.24,7.57-12.16,7.57-19.74,0-16.29-13.25-29.54-29.54-29.54h0v74.08Z"/>
    </g>
  </g>
</svg>
