<?xml version="1.0" encoding="UTF-8"?>
<svg xmlns="http://www.w3.org/2000/svg" version="1.1" viewBox="0 0 612 792">
  <defs>
    <style>
      .cls-1 {
        fill: #231f20;
      }

      .cls-2 {
        fill-rule: evenodd;
      }
    </style>
  </defs>
  <!-- Generator: Adobe Illustrator 28.7.4, SVG Export Plug-In . SVG Version: 1.2.0 Build 166)  -->
  <g>
    <g id="Layer_1">
      <path class="cls-2" d="M306.44,212c-101.34,0-183.78,82.44-183.78,183.78s82.44,183.78,183.78,183.78,183.78-82.44,183.78-183.78-82.44-183.78-183.78-183.78h0ZM306.44,582.55c-102.99,0-186.78-83.79-186.78-186.78s83.79-186.78,186.78-186.78,186.78,83.79,186.78,186.78-83.79,186.78-186.78,186.78h0Z"/>
      <path class="cls-2" d="M306.44,204.36c-105.55,0-191.42,85.87-191.42,191.42s85.87,191.42,191.42,191.42,191.42-85.87,191.42-191.42-85.87-191.42-191.42-191.42h0ZM306.44,590.19c-107.2,0-194.42-87.21-194.42-194.42s87.22-194.42,194.42-194.42,194.42,87.22,194.42,194.42-87.22,194.42-194.42,194.42h0Z"/>
      <path class="cls-2" d="M306.44,153.97c-133.33,0-241.8,108.47-241.8,241.8s108.47,241.8,241.8,241.8,241.8-108.47,241.8-241.8-108.47-241.8-241.8-241.8h0ZM306.44,640.58c-65.39,0-126.86-25.46-173.1-71.7-46.24-46.24-71.7-107.71-71.7-173.1s25.46-126.86,71.7-173.1c46.23-46.23,107.72-71.7,173.1-71.7,0,0,0,0,0,0,65.39,0,126.86,25.46,173.1,71.7,46.24,46.24,71.7,107.71,71.7,173.1s-25.46,126.86-71.7,173.1c-46.24,46.24-107.71,71.7-173.1,71.7h0Z"/>
      <path class="cls-2" d="M306.68,386.84s.02-.03.02-.03c2.19-3.39,4.78-4.33,6.54-7.45,1.76-3.13-.31-6.56-2.94-6.56-2.42,0-3.45,2.45-3.6,2.84,0,.02-.02.05-.02.05l-.02-.05c-.15-.4-1.18-2.84-3.6-2.84-2.63,0-4.71,3.44-2.94,6.56,1.76,3.12,4.35,4.06,6.54,7.45,0,0,.02.03.02.03h0ZM318.74,381.93c.19.8,1.21,2.47,1.73,3.35.51.88,1.14,1.62.93,2.27s-.37.72-1.95,1.16c0,0-.39.12-.14.6.26.49.56,1.04.42,1.32s-.56.44-.65.46-.25.26-.07.35c.19.09.42.53.12.77-.3.23-1,.67-.56,1.6.44.93.49,1.86-.14,2.72s-1.58,1.23-2.81.84c-1.23-.39-2.48-.51-3.11.12-.63.63-.44,2.21-.09,3.74.35,1.53,1.3,5.25,1.39,9.8,0,0,3.25,6.53,3.59,7.37.34.84.26,1.59-.51,1.95s-1.26-.24-1.97-1.53c-.71-1.29-3.54-6.05-3.54-6.05,0,0-.32-.58-.72-.44-.39.14-.32.51-.21,1.53.12,1.02.7,9.09.7,9.33s.12,1.65-1.21,1.86c-1.21.18-1.36-1.61-1.39-1.89-.03-.28-1.11-9.07-1.11-9.07,0,0-.09-.65-.53-.65-.34,0-.53.8-.53,1.21s-1.08,10.18-1.27,10.96c-.19.77-.96,1.36-1.49,1.3-.53-.06-1.15-.15-.99-2.1s.53-10.59.53-10.8-.03-.49-.34-.59c-.31-.09-.62.74-.74,1.14-.12.4-2.91,7.52-3.78,9.04s-2.2.62-2.35.22c-.15-.4-.03-1.05.28-1.86s2.38-7.37,2.57-8.17c.19-.8,1.05-3.87.74-4.77-.31-.9-1.21-2.07-2.48-1.76-1.13.28-1.7,1.21-1.86,1.45-.15.25-2.4,3.28-4.12,2.51-1.61-.72-.43-1.86-.22-2.07s8.27-9.07,8.7-9.94c.43-.87.87-5.2-.12-7.62-.99-2.41-3.71-7.06-4.4-8.54s-1.92-6.5,1.67-11.39,13.19-3.96,17.15-1.98c3.96,1.98,5.01,5.82,5.14,10.03,0,0,.02.26.14.53.09.19.12.58-.08.84-.38.48-.37.68-.32.87h0Z"/>
      <path class="cls-2" d="M448.32,397.49h22.48v-3.63h-22.48c-.97-76.75-63-138.79-139.75-139.76v-22.47h-3.63v22.47c-76.76.96-138.81,63-139.78,139.76h-22.45v3.63h22.45c.97,76.76,63.02,138.81,139.78,139.76v22.47h3.63v-22.47c76.75-.97,138.78-63.01,139.75-139.76ZM390.52,397.49h31.69c-.96,62.33-51.31,112.68-113.64,113.65v-31.69c44.83-.96,81-37.13,81.95-81.96ZM422.21,393.85h-31.69c-.95-44.83-37.12-81-81.95-81.97v-31.69c62.33.97,112.68,51.32,113.64,113.65ZM364.22,393.85h-39.41v3.63h39.41c-.94,30.31-25.34,54.72-55.65,55.66v-22.31h-3.63v22.31c-30.32-.93-54.74-25.34-55.68-55.67h41.93v-3.63h-41.93c.94-30.32,25.36-54.73,55.68-55.67v25.27h3.63v-25.27c30.31.95,54.71,25.35,55.65,55.67ZM191.26,397.49h31.69c.95,44.84,37.13,81.02,81.98,81.96v31.69c-62.35-.95-112.71-51.31-113.67-113.65ZM222.95,393.85h-31.69c.96-62.34,51.32-112.7,113.67-113.65v31.69c-44.85.95-81.03,37.12-81.98,81.97Z"/>
      <g>
        <path class="cls-1" d="M87.84,330.99l20.99,5.83c1.04.29,1.46.18,2.39-1.94.21-.44.46-.56.86-.45.16.04.55.2.73.3-.63,1.79-1.33,4.02-1.77,5.59-.45,1.61-.98,3.84-1.36,5.66-.22.03-.63-.04-.79-.08-.36-.1-.62-.26-.53-.88.3-2.16.02-2.55-1.01-2.84l-20.99-5.83-1.04,3.74c-.87,3.14-.09,4.5,2.32,6.64.24.2.25.48.18.74-.09.34-.41.85-.59,1.03-1.17-.74-2-1.29-2.92-1.73-1.18-.56-2.19-.93-2.54-1.21-.2-.19-.26-.44-.17-.78.18-.64.96-2.52,1.68-5.11l3.64-13.07c.71-2.55,1.01-4.57,1.2-5.25.08-.3.27-.52.55-.58.45-.06,1.5.19,2.8.28,1,.1,1.99.1,3.39.03.05.29.07.84-.03,1.18-.08.3-.22.49-.55.58-3.17.58-4.54,1.34-5.41,4.44l-1.04,3.74Z"/>
        <path class="cls-1" d="M123.13,300.3c.98.44,1.41.39,2.74-1.77.15-.22.48-.27.82-.11.15.07.51.28.68.4-.85,1.7-1.9,3.74-2.56,5.22-.68,1.53-1.52,3.71-2.22,5.47-.22,0-.6-.17-.75-.24-.34-.15-.55-.39-.46-.69.71-2.39.47-2.78-.51-3.22l-8.88-3.98-4.86,10.86,8.88,3.98c.98.44,1.41.39,2.74-1.77.15-.22.48-.27.82-.11.15.07.51.28.68.4-.85,1.7-1.93,3.82-2.6,5.3-.67,1.49-1.49,3.63-2.19,5.39-.22,0-.6-.17-.75-.24-.34-.15-.55-.39-.46-.69.71-2.39.47-2.78-.51-3.22l-18.94-8.48c-.98-.44-1.43-.35-2.74,1.77-.2.25-.52.25-.82.11-.15-.07-.53-.24-.72-.42.89-1.68,1.9-3.74,2.56-5.22.67-1.49,1.56-3.69,2.22-5.47.25.06.64.19.79.26.3.14.5.41.46.69-.72,2.43-.47,2.78.51,3.22l8.05,3.6,4.86-10.86-8.05-3.6c-.98-.44-1.43-.35-2.74,1.77-.2.25-.52.25-.82.11-.15-.07-.53-.24-.72-.42.89-1.68,1.92-3.78,2.6-5.3.67-1.49,1.53-3.61,2.19-5.39.25.06.64.19.79.26.3.14.5.41.46.69-.72,2.43-.47,2.78.51,3.22l18.94,8.48Z"/>
        <path class="cls-1" d="M112.5,275.51l8.44,5.33,3.32-5.25c.59-.93.06-1.57-1.42-2.87-.33-.26-.24-.62,0-1,.09-.15.39-.54.52-.66.98.77,2.58,1.89,3.56,2.51.84.53,2.02,1.22,3.55,1.98-.02.19-.25.62-.34.77-.26.41-.56.58-.94.4-1.97-.83-2.65-.84-3.17-.02l-3.32,5.25,7.84,4.95c.98.62,1.98-.42,3.91-3.47l.99-1.56c1.86-2.94.94-4.98-.51-7.57-.13-.19-.06-.45.08-.68.17-.26.58-.52.93-.77.28.33.56.67.8.98.38.56.96,1.12,1.25,1.52.8.82,2.12,2.07,2.34,2.42.14.24.09.48-.1.77-.47.74-2.22,3.13-3.05,4.43l-5.34,8.46c-.92,1.45-2.11,3.57-2.98,5.1-.22-.04-.61-.28-.75-.37-.35-.22-.46-.44-.33-.73.86-2.06,1.08-3.02.17-3.6l-17.54-11.08c-.95-.6-1.51-.17-3.18,1.69-.24.22-.52.2-.87-.03-.21-.13-.46-.29-.62-.49,1.48-2.03,2.55-3.65,3.3-4.84l4.82-7.64c1.41-2.23,2.28-4.08,2.66-4.68.17-.26.41-.42.69-.4.48.09,1.62.76,2.87,1.19.87.34,1.62.61,2.97.88-.04.29-.14.69-.33.99-.17.26-.35.4-.69.4-3.2-.36-4.7,0-6.42,2.72l-3.13,4.95Z"/>
        <path class="cls-1" d="M137.99,258.56c-4.83-4.41-7.21-12.79.18-20.89,2.02-2.21,3.93-3.75,6.56-5.46,1.16.94,3.32,2.38,5.36,3.4-.15.22-.47.76-.62.92-.3.33-.6.53-1.02.32-3.52-1.55-5.72-.92-8.48,2.1-4.28,4.68-3.48,10.07,1.48,14.59,5.32,4.86,12.24,5.33,16.13,1.07,3.21-3.51,3.11-5.87,1.46-9.34-.19-.41-.04-.87.22-1.17.18-.2.6-.53.9-.67.96,1.77,2.42,4.48,3.8,6.34-1.56,2.45-3.37,4.74-5.78,7.37-6.68,7.32-14.39,6.73-20.2,1.42Z"/>
        <path class="cls-1" d="M160.45,216.79c6.54-5.36,15.25-4.96,20.4,1.32,4.88,5.96,3.67,15.04-2.7,20.26-6.54,5.36-15.22,4.93-20.37-1.35-4.88-5.96-3.71-15.01,2.67-20.24ZM177.43,223.54c-4.99-6.09-11.2-8.65-16.24-4.52-3.2,2.63-3.93,7.78-.21,12.33,5.2,6.34,11.67,8.75,16.31,4.95,3.78-3.1,3.58-8.56.14-12.76Z"/>
        <path class="cls-1" d="M206.28,207.93l-7.48-12.65c-.61-1.03-1.5-.99-3.53-.08-.38.13-.7-.07-.89-.39-.08-.14-.25-.43-.3-.69,1.34-.6,2.49-1.23,4.09-2.18s2.67-1.63,3.72-2.44c.16.19.37.45.46.6.25.43.19.75-.05.95-1.54,1.2-1.82,1.85-1.26,2.81l12.33,20.85c-.17.15-.79.56-.94.65-.34.2-.84.31-1.59.08l-25.48-8.99,9.1,15.4c.55.93.88,1.06,3.26.14.25-.1.56-.09.86.41.08.14.21.45.28.65-1.29.67-2.34,1.14-3.82,2.02-1.44.85-2.8,1.75-3.84,2.51-.18-.13-.35-.42-.43-.56-.27-.46-.15-.78.05-.95,1.65-1.36,1.9-1.99,1.37-2.88l-10.66-18.04c-.44-.75-.98-.96-3-.05-.31.09-.6.02-.85-.41-.04-.07-.13-.21-.17-.38l-.13-.31c.7-.37,1.41-.74,2.07-1.08,1.12-.61,2.39-1.32,3.11-1.74,1.48-.87,1.77-.9,2.3-.78l21.44,7.53Z"/>
        <path class="cls-1" d="M226.26,186.65c-.73.31-1.16.09-1.41-.16-2.45-2.38-4.82-2.76-8.1-1.36-2.59,1.11-4.14,3.21-3.11,5.61,2.39,5.6,15.52-2.35,19.31,6.52,1.66,3.88.47,8.72-6.02,11.49-3.52,1.51-6.82,1.88-9.01,1.78-1.09-2.1-2.37-4.08-3.66-5.87.17-.16.58-.43.87-.55.65-.28,1.01-.21,1.46.28,3.12,3.26,5.62,4.08,9.55,2.4,3.32-1.42,3.94-3.89,3.06-5.95-2.78-6.51-14.81,2.23-18.7-6.88-1.72-4.04.15-8.62,5.62-10.96,2.23-.95,4.64-1.48,7.97-1.65.73,1.49,1.91,3.46,2.88,4.85-.21.18-.52.36-.72.44Z"/>
        <path class="cls-1" d="M261.37,186.26c1.65,6.03.41,11.01-8.09,13.33-10.11,2.77-13.01-1.29-14.56-6.97l-3.63-13.26c-.31-1.12-.91-1.34-3.27-.95-.31.04-.55-.19-.67-.63-.04-.16-.13-.48-.11-.74,1.69-.33,3.41-.72,5.96-1.42,1.96-.54,4.27-1.25,5.94-1.84.11.23.24.54.28.7.12.44.03.77-.26.89-2.23.87-2.8,1.45-2.5,2.53l3.39,12.38c1.51,5.51,4.27,7.93,9.58,6.48,5.44-1.49,6.83-4.57,5.17-10.65l-3.35-12.26c-.29-1.08-1.04-1.3-3.32-.94-.36.01-.61-.22-.72-.62-.04-.16-.09-.49-.11-.74,1.66-.28,2.99-.6,4.56-1.03,1.83-.5,3.13-.9,4.45-1.43.11.23.24.54.28.7.1.36-.03.74-.3.9-2.03.77-2.59,1.4-2.29,2.47l3.58,13.1Z"/>
        <path class="cls-1" d="M294.13,166.08c.22-.52.37-.82,2.43-1.01.97-.09,3.9-.44,5.42-.71.11.24.14.57.16.73.04.41-.07.71-.41.83-2.29.54-2.53.9-2.44,1.8.03.37,2.78,19.21,3.06,20.77.14,1.07.57,1.4,2.84,1.53.31.01.51.24.55.74.01.17,0,.5-.02.71-2.07.11-3.53.12-5.63.31-1.93.18-4.38.53-5.82.74-.06-.2-.14-.53-.15-.69-.05-.58.19-.81.37-.82,2.38-.63,2.78-1.05,2.68-2.16-.04-.45-2.18-15.52-2.41-16.66l-7.19,20.5c-.22.52-.37.78-.72.81-.13.01-.39.04-.53,0l-12.28-22c.07,2.2.82,19.02.86,19.51.09,1.03.39,1.34,2.84,1.53.31.01.5.2.55.74.02.17,0,.46-.02.71-1.59.02-2.91.06-4.23.18-1.14.1-3.15.41-4.54.62-.11-.2-.14-.53-.15-.69-.05-.58.15-.76.41-.83,1.76-.54,2.52-1.02,2.51-2.02-.04-1.37-.83-20.64-.86-20.97-.08-.91-.55-1.2-2.73-1.33-.35,0-.51-.29-.55-.74-.01-.17-.04-.5.02-.75,1.55-.02,5.85-.33,6.95-.43,2.06-.19,2.31.08,2.57.55l9.86,17.77,6.64-19.28Z"/>
        <path class="cls-1" d="M337.8,167.91c.31-.47.52-.74,2.58-.54.96.09,3.91.3,5.46.33.06.26.03.59.02.75-.04.41-.2.69-.56.74-2.36.1-2.65.41-2.74,1.31-.04.37-.88,19.39-.9,20.97-.06,1.08.3,1.49,2.5,2.03.3.07.45.34.41.83-.02.16-.09.49-.16.69-2.05-.28-3.49-.55-5.59-.75-1.93-.19-4.4-.31-5.85-.36-.02-.21-.04-.54-.02-.71.06-.58.34-.76.51-.74,2.45-.18,2.93-.5,3.04-1.62.04-.45.78-15.65.76-16.82l-10.91,18.78c-.31.47-.51.7-.86.66-.13-.01-.4-.04-.52-.09l-7.93-23.91c-.34,2.17-2.77,18.83-2.82,19.32-.1,1.03.13,1.39,2.5,2.03.3.07.46.29.41.83-.02.16-.09.45-.16.69-1.57-.28-2.87-.49-4.19-.62-1.14-.11-3.17-.19-4.58-.24-.07-.21-.04-.54-.02-.71.06-.58.29-.72.56-.74,1.83-.19,2.66-.53,2.85-1.51.22-1.35,3.06-20.42,3.09-20.75.09-.91-.32-1.28-2.43-1.82-.35-.08-.45-.38-.41-.83.02-.17.05-.49.16-.73,1.52.27,5.81.78,6.91.88,2.06.2,2.25.51,2.42,1.03l6.35,19.3,10.14-17.69Z"/>
        <path class="cls-1" d="M365.18,191.22l-8.93-2.44-3.72,4.95c-.25.23-.39.58-.43.74-.15.56.21,1.09,1.93,1.81.33.13.53.4.39.92-.04.16-.17.47-.27.66-1.5-.54-3.26-1.1-4.88-1.54-1.15-.31-2.35-.6-3.92-.86-.03-.22.06-.54.1-.7.13-.48.33-.72.77-.65,1.83.16,2.54.05,3.21-.71l16.52-20.21c.39-.41.82-.51,1.21-.4.25.07.54.19.87.32l3.77,26.52c.12.89,1.09,1.54,2.19,2.01.4.2.56.45.42.97-.04.16-.18.51-.28.7-1.75-.61-3.56-1.19-5.09-1.6-1.57-.43-4.84-1.19-6.47-1.55-.03-.22.06-.54.1-.7.13-.48.45-.65.67-.63,1.51.15,2.32.03,2.51-.65.04-.16.06-.37.04-.63l-.7-6.33ZM364.92,189l-1.16-9.97-6.15,7.98,7.31,1.99Z"/>
        <path class="cls-1" d="M394.63,184.97l-8.21,20.18c-.41,1-.34,1.43,1.65,2.6.42.26.5.52.35.9-.06.15-.26.52-.38.7-1.71-.83-3.84-1.79-5.35-2.4-1.55-.63-3.7-1.42-5.46-2,0-.23.11-.63.17-.78.14-.35.33-.58.93-.42,2.11.54,2.53.32,2.94-.68l8.21-20.18-3.59-1.46c-3.02-1.23-4.46-.61-6.86,1.55-.23.22-.51.2-.75.1-.33-.13-.79-.5-.95-.7.87-1.08,1.51-1.84,2.05-2.7.69-1.11,1.18-2.07,1.5-2.39.22-.18.47-.21.79-.08.61.25,2.4,1.24,4.88,2.26l12.57,5.11c2.45,1,4.42,1.53,5.07,1.8.29.12.48.33.51.61,0,.45-.36,1.46-.6,2.75-.21.99-.33,1.97-.42,3.36-.29.02-.84-.03-1.17-.16-.29-.12-.46-.28-.51-.61-.21-3.22-.81-4.67-3.79-5.88l-3.59-1.46Z"/>
        <path class="cls-1" d="M417.26,196.04l-4.97,8.66,5.39,3.09c.96.55,1.58,0,2.81-1.54.24-.34.61-.27.99-.05.15.09.55.36.68.49-.73,1.01-1.78,2.66-2.36,3.66-.5.86-1.14,2.07-1.83,3.63-.19-.02-.63-.22-.79-.31-.42-.24-.61-.54-.44-.92.75-2.01.73-2.69-.11-3.17l-5.39-3.09-4.62,8.05c-.58,1.01.5,1.96,3.63,3.76l1.6.92c3.02,1.73,5.02.73,7.54-.83.18-.14.45-.08.68.06.27.15.55.55.81.89-.32.29-.64.59-.94.84-.54.41-1.08,1-1.46,1.31-.79.84-1.98,2.21-2.32,2.44-.24.15-.47.11-.78-.06-.76-.44-3.22-2.09-4.56-2.85l-8.67-4.98c-1.49-.85-3.65-1.95-5.22-2.76.03-.22.25-.62.34-.76.21-.36.42-.47.71-.36,2.1.77,3.06.95,3.6.01l10.33-18c.56-.97.11-1.51-1.83-3.1-.23-.23-.22-.51-.01-.87.12-.22.27-.47.47-.64,2.1,1.39,3.76,2.39,4.98,3.1l7.83,4.5c2.29,1.32,4.17,2.11,4.79,2.46.27.15.43.39.43.67-.07.48-.7,1.65-1.07,2.92-.3.88-.54,1.65-.76,3-.29-.02-.7-.11-1-.29-.27-.15-.42-.33-.43-.67.22-3.22-.2-4.7-2.99-6.3l-5.08-2.92Z"/>
        <path class="cls-1" d="M445.23,234.83l-7.07-5.97-5.46,2.92c-.32.11-.6.36-.7.49-.37.44-.27,1.07.98,2.46.24.26.31.59-.04,1-.11.13-.35.35-.52.48-1.13-1.12-2.49-2.37-3.77-3.45-.91-.77-1.88-1.53-3.2-2.43.07-.21.28-.47.39-.59.32-.38.61-.52.97-.26,1.59.91,2.29,1.12,3.21.7l23.5-11.38c.52-.21.96-.11,1.26.14.2.17.41.4.65.66l-7.75,25.65c-.26.86.34,1.85,1.14,2.75.28.35.32.65-.03,1.06-.11.13-.38.38-.55.51-1.33-1.29-2.73-2.57-3.94-3.6-1.25-1.05-3.89-3.12-5.22-4.13.07-.21.28-.47.39-.59.32-.38.68-.4.88-.29,1.31.78,2.09,1.01,2.54.47.11-.13.21-.31.3-.56l2.03-6.03ZM445.92,232.71l3.15-9.54-8.94,4.65,5.79,4.89Z"/>
        <path class="cls-1" d="M465.37,250.51l-1.26-1.42-6.48,5.74c-.96.85-.54,1.89,1.03,4.15.23.32.19.65-.21,1.01-.12.11-.43.32-.62.43-1.02-1.34-2.74-3.4-4.72-5.64-1.4-1.58-2.78-3.01-4.01-4.22.1-.2.34-.42.47-.53.4-.36.7-.33.91-.16,1.95,1.57,2.46,1.71,3.26,1l15.53-13.76c.84-.74.71-1.51-.71-3.49-.11-.25-.1-.56.3-.91.16-.14.4-.36.59-.4.99,1.3,2.53,3.17,3.64,4.42l4.41,4.98c4.15,4.68,4.37,9.49,1.05,12.43-2.17,1.92-5.47,2.14-8.58.43l-2.51,11.47c-.38,1.75.33,3.12.9,4.2.14.23.17.5-.21.83-.16.14-.4.36-.65.46-.81-1.04-3.15-3.86-4.26-5.12-.82-.92-.86-2.59-.44-4.49l2.57-11.4ZM466.54,248.71c2.4,2.7,4.84,3.72,7.88,1.02,2.54-2.25,3.13-4.83.18-8.17l-.88-.99-8.06,7.14.88.99Z"/>
        <path class="cls-1" d="M496.25,269.37l-18.02,12.24c-.89.6-1.08,1-.06,3.08.2.45.13.71-.21.94-.14.09-.5.29-.7.37-.96-1.64-2.21-3.62-3.12-4.96-.94-1.39-2.3-3.23-3.44-4.7.12-.19.44-.46.58-.55.31-.21.6-.3,1.01.16,1.45,1.62,1.93,1.67,2.83,1.06l18.02-12.24-2.18-3.21c-1.83-2.7-3.38-2.98-6.56-2.52-.31.05-.53-.12-.68-.34-.2-.29-.38-.86-.4-1.11,1.32-.42,2.28-.7,3.2-1.11,1.19-.54,2.12-1.07,2.57-1.16.28-.03.51.08.7.37.37.55,1.3,2.36,2.81,4.59l7.62,11.23c1.49,2.19,2.83,3.72,3.23,4.31.17.26.22.54.09.79-.24.38-1.11,1.02-2.02,1.96-.72.7-1.36,1.46-2.21,2.57-.25-.15-.69-.49-.88-.79-.17-.25-.23-.48-.09-.79,1.61-2.8,1.91-4.33.11-7l-2.18-3.21Z"/>
        <path class="cls-1" d="M489.32,300.57c-.95.51-1.17.88-.29,3.25.09.25-.08.54-.41.72-.15.08-.53.23-.74.29-.82-1.71-1.81-3.83-2.57-5.27-.79-1.48-2-3.48-2.94-5.07.14-.18.51-.37.65-.45.33-.18.65-.19.83.06,1.45,2.02,1.91,2.08,2.86,1.57l18.31-9.76c.95-.51,1.16-.92.29-3.25-.07-.31.12-.56.41-.72.15-.08.51-.27.77-.31.76,1.69,1.79,3.79,2.57,5.27.77,1.44,1.94,3.46,2.94,5.07-.2.16-.54.39-.69.47-.29.16-.63.14-.83-.06-1.47-2.06-1.91-2.08-2.86-1.57l-18.31,9.76Z"/>
        <path class="cls-1" d="M515.02,316.24c-.31-.73-.08-1.16.17-1.41,2.39-2.43,2.8-4.8,1.42-8.09-1.09-2.6-3.18-4.16-5.58-3.16-5.62,2.35,2.23,15.54-6.67,19.26-3.9,1.63-8.72.4-11.44-6.1-1.48-3.54-1.82-6.83-1.71-9.03,2.11-1.07,4.1-2.33,5.9-3.61.16.17.42.59.54.87.27.65.2,1.02-.29,1.46-3.29,3.09-4.12,5.59-2.48,9.54,1.39,3.33,3.86,3.97,5.92,3.11,6.53-2.73-2.12-14.83,7.02-18.65,4.05-1.69,8.62.22,10.91,5.7.94,2.24,1.45,4.65,1.59,7.98-1.49.72-3.48,1.88-4.87,2.85-.18-.21-.35-.52-.44-.72Z"/>
        <path class="cls-1" d="M526.32,336.38l-20.99,5.83c-1.04.29-1.34.6-1.04,2.9.05.49-.1.71-.5.83-.16.04-.57.11-.78.13-.39-1.86-.93-4.13-1.37-5.7-.45-1.61-1.14-3.8-1.76-5.55.18-.14.56-.29.72-.34.36-.1.66-.09.91.48.86,2,1.3,2.2,2.34,1.91l20.99-5.83-1.04-3.74c-.87-3.14-2.25-3.9-5.42-4.48-.31-.05-.46-.28-.54-.54-.09-.34-.09-.94-.03-1.18,1.38.03,2.38.07,3.39-.03,1.3-.13,2.36-.33,2.8-.28.28.06.45.24.55.58.18.64.48,2.66,1.2,5.25l3.63,13.07c.71,2.55,1.49,4.43,1.68,5.11.08.3.03.59-.17.78-.35.28-1.38.61-2.54,1.21-.91.44-1.76.95-2.92,1.73-.19-.22-.49-.69-.59-1.03-.08-.3-.06-.53.17-.78,2.42-2.13,3.2-3.5,2.34-6.59l-1.04-3.74Z"/>
      </g>
      <g>
        <path class="cls-1" d="M177.38,556.21c.4-.21.64-.33,1.65.52.47.4,1.95,1.56,2.76,2.11-.09.2-.27.41-.36.52-.23.27-.45.4-.66.31-1.31-.75-1.62-.64-2.12-.05-.2.24-10.09,12.91-10.89,13.98-.57.71-.58,1.12.33,2.25.13.15.08.39-.19.71-.09.11-.29.3-.43.42-.96-.9-1.6-1.58-2.62-2.45-.94-.8-2.2-1.73-2.96-2.27.09-.15.25-.38.34-.49.32-.37.56-.4.64-.33,1.4.73,1.82.67,2.43-.05.25-.29,8.18-10.4,8.75-11.2l-15.17,9.03c-.4.21-.62.3-.79.15-.06-.05-.19-.16-.23-.24l7.62-19.05c-1.26,1.36-10.83,11.88-11.1,12.2-.57.67-.62.99.33,2.25.13.15.1.36-.2.71-.09.11-.27.28-.43.42-.7-.73-1.3-1.33-1.94-1.87-.56-.47-1.61-1.22-2.33-1.75.07-.17.25-.38.34-.49.32-.37.51-.39.66-.31,1.08.5,1.69.56,2.28-.04.79-.84,11.77-12.86,11.96-13.08.5-.59.46-.98-.4-2.08-.15-.17-.05-.41.19-.71.09-.11.27-.32.45-.44.68.71,2.73,2.54,3.26,2.99,1,.85.95,1.13.79,1.54l-6.18,15.36,14.21-8.55Z"/>
        <path class="cls-1" d="M179.46,575.01l1.92-9.73c.17-.9-.1-1.39-.74-2.01-.15-.14-.11-.37.1-.66.03-.05.1-.15.19-.23l.14-.16c.54.49,1.52,1.24,2.62,2,.78.54,2.29,1.52,2.94,1.86-.16.32-.23.42-.27.47-.22.32-.41.37-.57.3-.79-.4-1.13-.38-1.34-.09-.09.12-.16.32-.22.62l-1.57,7.38,6.06-3.68c.4-.23.65-.46.77-.63.27-.39.11-.73-.53-1.39-.15-.14-.16-.33.06-.65.03-.05.17-.21.37-.4.52.47,1.47,1.21,2.13,1.66.64.44,1.37.92,2.14,1.3-.11.25-.23.42-.27.47-.19.27-.39.39-.57.3-1.09-.54-1.51-.5-2.17-.12l-8.59,5.14-3.4,4.9c-.5.71-.37,1.1.69,2.12.11.11.16.29-.08.64-.03.05-.12.13-.19.23l-.14.16c-.43-.3-.8-.59-1.16-.88-.62-.5-1.37-1.06-1.84-1.38-.49-.34-1.21-.8-1.84-1.17-.37-.22-.73-.44-1.08-.68l.1-.19c.05-.11.12-.21.15-.26.24-.34.43-.36.57-.3,1.36.54,1.73.62,2.23-.1l3.37-4.85Z"/>
        <path class="cls-1" d="M203.83,590.53l-5.18-2.78-3.58,3.6c-.21.16-.39.43-.46.55-.23.43-.12.89.81,1.63.18.14.25.37.03.77-.07.12-.22.36-.33.5-.84-.57-1.84-1.19-2.78-1.69-.67-.36-1.37-.7-2.33-1.05.03-.18.17-.43.23-.55.2-.37.39-.55.65-.44,1.14.3,1.63.28,2.24-.27l15.48-14.57c.35-.29.65-.33.87-.21.15.08.3.2.49.34l-3.89,21.51c-.13.72.33,1.33.93,1.81.21.19.25.41.04.82-.07.12-.24.39-.35.53-.99-.65-2.01-1.28-2.9-1.76-.91-.49-2.84-1.4-3.81-1.85.03-.18.17-.43.23-.55.2-.37.45-.48.59-.44.94.27,1.49.24,1.77-.28.07-.12.12-.29.17-.5l1.06-5.11ZM204.19,588.74l1.63-8.06-5.87,5.79,4.24,2.28Z"/>
        <path class="cls-1" d="M218.2,596.33l-.99-.43-2.48,5.76c-.37.85.08,1.34,1.41,2.17.2.12.24.33.08.69-.05.11-.18.35-.26.48-.84-.46-2.21-1.12-3.78-1.79-1.1-.47-2.16-.86-3.09-1.17.01-.16.11-.38.16-.49.15-.36.33-.45.48-.42,1.4.28,1.72.18,2.03-.53l5.94-13.81c.32-.74.09-1.17-1.1-1.88-.11-.11-.17-.3-.02-.66.06-.14.15-.36.25-.45.81.45,2.05,1.05,2.93,1.42l3.47,1.49c3.26,1.4,4.35,4.26,3.08,7.21-.83,1.93-2.63,3.21-4.72,3.26l.89,7.86c.14,1.2.81,1.79,1.35,2.25.13.09.19.25.05.58-.06.14-.15.36-.27.5-.67-.35-2.54-1.26-3.41-1.63-.64-.28-1-1.28-1.15-2.58l-.84-7.84ZM218.5,594.83c1.88.81,3.46.57,4.62-2.13.97-2.26.79-4.04-1.53-5.04l-.69-.3-3.08,7.17.69.3Z"/>
        <path class="cls-1" d="M238.79,594.35l-5.18,14.91c-.26.74-.23,1.03.92,1.68.24.15.29.32.19.61-.04.11-.16.39-.23.52-.99-.44-2.22-.93-3.09-1.23-.9-.31-2.15-.68-3.17-.94,0-.16.08-.45.12-.56.09-.25.21-.44.56-.38,1.23.2,1.48,0,1.74-.73l5.18-14.9-2.08-.72c-1.75-.61-2.6-.05-4.05,1.67-.14.17-.3.18-.44.13-.19-.07-.46-.29-.54-.41.53-.83.92-1.43,1.25-2.07.42-.84.73-1.56.92-1.81.13-.15.28-.19.47-.12.35.12,1.38.67,2.82,1.17l7.28,2.52c1.42.49,2.56.7,2.94.83.17.06.28.19.29.39,0,.32-.24,1.06-.4,1.99-.14.71-.23,1.41-.31,2.4-.17.04-.49.05-.68-.01-.17-.06-.26-.15-.29-.39-.07-2.25-.39-3.22-2.12-3.81l-2.08-.72Z"/>
        <path class="cls-1" d="M248.22,613.66c-.21.75-.16,1.05,1.16,1.65.14.07.18.3.11.56-.03.12-.13.4-.2.54-1.02-.34-2.28-.78-3.17-1.02-.92-.25-2.22-.51-3.25-.73,0-.16.07-.45.1-.56.07-.26.2-.44.38-.43,1.41.14,1.63-.08,1.83-.84l3.95-14.5c.21-.75.13-1.05-1.16-1.65-.15-.1-.17-.33-.11-.56.03-.12.11-.41.21-.57.99.36,2.25.77,3.17,1.02.89.24,2.19.53,3.25.73-.02.18-.08.48-.11.59-.06.23-.21.41-.38.43-1.44-.14-1.63.08-1.83.84l-3.95,14.5Z"/>
        <path class="cls-1" d="M266.83,605.27c-.44-.09-.56-.39-.58-.64-.27-2.39-1.2-3.53-3.19-3.95-1.57-.33-3.01.35-3.4,2.2-.9,4.32,7.86,4.55,6.43,11.4-.62,3-2.88,5.47-6.79,4.65-2.13-.44-3.75-1.49-4.71-2.39.25-1.7.38-3.39.42-4.97.13-.03.42-.04.59,0,.39.08.53.26.56.73.26,3.18,1.1,4.64,3.47,5.14,2.01.42,3.16-.84,3.5-2.43,1.05-5.02-7.49-4.35-6.03-11.38.65-3.11,3.12-5.17,6.43-4.48,1.35.28,2.62.88,4.19,2.07-.2,1.19-.36,2.84-.41,4.05-.16.03-.36.02-.48,0Z"/>
        <path class="cls-1" d="M280.65,603.86l-2.02,15.65c-.1.77-.01,1.06,1.25,1.46.26.09.34.26.31.55-.02.12-.08.41-.12.56-1.05-.23-2.36-.46-3.28-.57-.94-.12-2.24-.23-3.29-.27-.03-.16-.02-.46,0-.58.04-.27.11-.47.47-.48,1.24-.05,1.45-.3,1.55-1.07l2.02-15.65-2.18-.28c-1.83-.24-2.56.49-3.62,2.47-.1.2-.26.24-.41.22-.2-.03-.5-.19-.62-.29.35-.92.61-1.58.8-2.29.24-.91.39-1.67.53-1.96.1-.17.23-.24.43-.22.37.05,1.49.37,3,.57l7.64.99c1.49.19,2.65.16,3.05.21.17.02.31.13.36.32.06.31-.01,1.09.01,2.03,0,.73.07,1.43.19,2.42-.16.07-.47.15-.67.12-.17-.02-.29-.1-.36-.32-.52-2.19-1.04-3.07-2.85-3.3l-2.18-.28Z"/>
        <path class="cls-1" d="M306.82,602.44l-.3,18.4c-.01.91.12,1.23,1.57,1.53.31.07.42.25.41.6,0,.14-.04.49-.07.66-1.2-.12-2.69-.22-3.72-.24-1.06-.02-2.52.03-3.7.11-.05-.18-.08-.53-.07-.67,0-.31.07-.56.46-.62,1.38-.22,1.58-.53,1.59-1.44l.3-18.4-2.46-.04c-2.07-.03-2.79.9-3.72,3.33-.09.24-.26.31-.42.31-.22,0-.59-.15-.72-.26.27-1.12.48-1.92.6-2.75.16-1.08.23-1.99.35-2.34.09-.21.23-.31.45-.31.42,0,1.7.24,3.41.27l8.62.14c1.68.03,2.97-.16,3.42-.15.2,0,.36.11.44.32.11.35.12,1.26.27,2.35.1.84.25,1.65.52,2.77-.17.1-.51.24-.73.23-.2,0-.33-.08-.44-.32-.86-2.46-1.54-3.42-3.58-3.45l-2.46-.04Z"/>
        <path class="cls-1" d="M320.85,614.72l-4.63-8.78c-.43-.81-.95-1.01-1.83-1.1-.2-.01-.32-.22-.34-.58,0-.06-.01-.18,0-.3v-.21c.74.04,1.96,0,3.31-.09.95-.07,2.74-.26,3.46-.4.08.36.08.48.09.54.03.39-.09.55-.26.59-.86.18-1.12.41-1.1.77,0,.15.08.36.22.62l3.42,6.73,2.4-6.67c.17-.43.22-.77.21-.98-.04-.48-.37-.63-1.28-.75-.2-.01-.34-.16-.37-.54,0-.06,0-.27.04-.54.71.04,1.91.01,2.7-.05.77-.06,1.64-.15,2.48-.33.07.27.09.47.09.53.02.33-.06.55-.26.59-1.18.27-1.49.56-1.76,1.27l-3.45,9.4.43,5.96c.06.87.41,1.08,1.87,1.22.15.02.31.13.34.55,0,.06-.01.18,0,.3v.21c-.53.04-1.01.04-1.46.05-.8,0-1.73.04-2.3.08-.6.04-1.44.13-2.16.25-.42.06-.84.12-1.27.15l-.04-.21c-.04-.12-.04-.24-.05-.3-.03-.42.11-.55.26-.59,1.4-.43,1.73-.61,1.67-1.48l-.43-5.89Z"/>
        <path class="cls-1" d="M336.92,613.11l.82,5.7c.13.92.77,1.1,2.34,1.12.23,0,.38.16.43.54.02.12.03.39.03.54-.95.05-2.47.21-4.15.45-1.19.17-2.29.39-3.25.62-.07-.14-.11-.38-.12-.5-.05-.39.05-.55.19-.6,1.34-.5,1.56-.74,1.45-1.51l-2.15-14.88c-.12-.8-.53-1.04-1.92-1.03-.16-.04-.3-.17-.36-.55-.02-.15-.06-.39-.02-.51.93-.04,2.3-.18,3.24-.32l3.74-.54c3.52-.51,5.91,1.21,6.4,4.59.45,3.09-1.22,6.09-4.78,6.6l-1.88.27ZM337.45,611.52c2.03-.29,3.2-1.61,2.78-4.52-.38-2.64-1.42-4.07-3.97-3.7l-.74.11,1.19,8.23.74-.11Z"/>
        <path class="cls-1" d="M349.75,600.94l1.53,7.06,3.45-.75c.61-.13.64-.72.51-2.14-.04-.3.14-.43.38-.48.1-.02.37-.05.48-.04.12.9.37,2.28.54,3.1.15.7.39,1.67.74,2.85-.08.08-.35.17-.45.19-.27.06-.46-.02-.55-.31-.52-1.45-.8-1.82-1.34-1.7l-3.45.75,1.42,6.57c.18.82,1,.86,3.01.42l1.03-.22c1.93-.42,2.33-1.89,2.71-3.9.02-.16.15-.25.3-.28.17-.04.45.06.69.13,0,.31-.02.62-.04.9-.05.47-.03,1.05-.06,1.39.03.82.1,2.13.06,2.41-.04.19-.14.28-.34.32-.49.11-2.16.31-3.01.5l-5.54,1.2c-.95.21-2.28.58-3.24.86-.08-.14-.15-.46-.18-.58-.06-.29-.02-.46.14-.52,1.17-.53,1.63-.87,1.46-1.64l-3.18-14.69c-.17-.79-.57-.89-2.01-.88-.18-.02-.29-.18-.36-.47-.04-.18-.08-.38-.07-.57,1.42-.18,2.5-.39,3.28-.56l5.01-1.08c1.47-.32,2.55-.74,2.94-.82.17-.04.34.02.45.18.17.3.39,1.23.76,2.11.24.62.46,1.16.92,2.01-.13.12-.33.25-.52.3-.17.04-.3,0-.45-.18-1.23-1.88-2-2.51-3.79-2.13l-3.25.7Z"/>
        <path class="cls-1" d="M372.02,599.03c1.81-.58,3.78.47,4.37,2.32.6,1.86-.39,3.86-2.2,4.44-1.83.59-3.77-.47-4.37-2.32s.36-3.85,2.2-4.44Z"/>
        <path class="cls-1" d="M400.81,596.89c.03.06.07.21.15.46.19.64.72,2.19,1.59,4.64l.12.34c-1.61.6-3.43,1.34-5.44,2.22-1.08.47-2.09.94-3.02,1.4-.93.46-1.33.66-1.21.61-.41.18-.66.18-.74,0-.06-.15.13-.78.59-1.9,1.09-2.71,1.78-4.82,2.08-6.35.51-2.65.17-5.35-1.04-8.11-.81-1.85-1.75-3.12-2.8-3.79-.81-.52-1.66-.59-2.54-.2-.87.38-1.42,1-1.64,1.86-.18.67-.16,1.25.05,1.75.14.31.41.39.83.22,1.09-.41,1.87-.09,2.34.97.44,1.01.22,1.71-.67,2.09-.56.25-1.11.23-1.63-.04-.52-.27-.94-.78-1.26-1.51-.59-1.36-.67-2.62-.24-3.79.43-1.17,1.3-2.04,2.6-2.61,1.3-.57,2.59-.54,3.88.07,1.5.72,2.65,2,3.46,3.86.89,2.03,1.14,4.15.77,6.36-.38,2.21-1.46,4.9-3.25,8.09.99-.48,2.25-1.05,3.78-1.72,1.27-.55,2.06-.93,2.38-1.12.31-.19.56-.44.74-.73.14-.26.06-.95-.26-2.08-.21-.78-.22-1.21-.02-1.3.15-.07.29.04.41.31Z"/>
        <path class="cls-1" d="M411.58,580.83c3.01-1.71,6.88-.25,9.05,3.58,2.07,3.64,1.37,7.94-1.56,9.6-3.01,1.71-6.86.24-9.04-3.59-2.07-3.64-1.38-7.93,1.55-9.59ZM419.02,586.6c-2.11-3.72-4.83-5.88-7.14-4.56-1.47.83-1.89,3.27-.31,6.05,2.2,3.87,5.04,5.99,7.16,4.78,1.74-.99,1.75-3.71.29-6.27Z"/>
        <path class="cls-1" d="M420.32,577.92c-.3-.47-.57-.52-1.6-.12-.13.03-.25-.05-.37-.24-.07-.11-.16-.25-.2-.38.91-.48,1.59-.89,2.06-1.19l3.1-2c.92-.59,1.55-1.16,1.77-1.3.12-.08.23-.07.35.01.19.17.61.75,1.08,1.28.33.38.64.69,1.16,1.18-.04.11-.15.26-.28.34-.09.06-.21.08-.34-.02-1.34-1.01-2.03-1.26-3.15-.54l-2,1.29,3.08,4.79,2.09-1.34c.33-.21.19-.71-.24-1.61-.09-.21,0-.34.13-.43.06-.04.24-.13.31-.15.34.59.86,1.51,1.2,2.04.29.45.71,1.07,1.27,1.8-.04.08-.18.19-.24.23-.18.12-.32.1-.47-.07-.59-.75-1.02-1.08-1.35-.87l-2.09,1.34,2.73,4.24c.32.49,1.01.24,1.82-.1.15-.07.26,0,.39.21.05.08.18.31.23.42-.29.18-.57.34-.87.51-.54.29-1.17.67-1.76,1.05-.54.35-1.39.97-1.95,1.39-.09-.08-.22-.28-.27-.36-.11-.17-.15-.3-.04-.4.54-.62.88-.99.55-1.5l-6.1-9.48Z"/>
        <path class="cls-1" d="M449.15,573.01c.11.14.02.32-.27.55l-.24.18-.75.58c-.5.39-1,.78-1.52,1.17-.91.7-1.48,1.15-1.73,1.34s-.45.35-.59.46c-.32.24-.53.3-.64.15-.11-.14-.07-.28.11-.43.29-.22.59-.47.91-.74.4-.33.52-.63.38-.88-.14-.25-.51-.76-1.1-1.52l-8.62-11.12c-.39-.5-.64-.79-.74-.87-.1-.08-.23-.05-.39.07-.07.05-.47.43-1.2,1.12-.15.14-.25.23-.3.27-.16.12-.28.13-.37.02-.1-.13-.07-.26.07-.4.55-.56,1-1.26,1.34-2.12.34-.86.51-1.69.49-2.49.04-.25.08-.4.13-.44.1-.08.22-.04.34.12l.35.45c.1.13.21.27.33.43l10.99,14.18c.44.57.72.88.84.94.12.06.32,0,.61-.21l.46-.35.34-.26.3-.23c.18-.14.34-.13.46.02Z"/>
        <path class="cls-1" d="M456.17,553.96c1.19,1.33,2.14,2.73,2.87,4.2.72,1.47,1.12,2.82,1.19,4.05.08,1.32-.35,2.4-1.29,3.25-1.29,1.16-3.04,1.35-5.24.58-2.2-.77-4.36-2.34-6.48-4.71-2.45-2.74-3.79-5.43-4.03-8.07-.14-1.59.3-2.84,1.33-3.76,1.22-1.09,2.78-1.29,4.69-.61,2.36.84,4.68,2.54,6.96,5.08ZM453.44,554.96c-1.99-2.22-3.83-3.87-5.54-4.95-1.3-.83-2.34-.89-3.12-.19-1.57,1.4-.12,4.6,4.35,9.59,4.68,5.23,7.85,7.11,9.5,5.63.77-.69.64-1.94-.38-3.76-.93-1.66-2.53-3.77-4.81-6.32Z"/>
      </g>
    </g>
  </g>
</svg>