<?xml version="1.0" encoding="UTF-8"?>
<svg xmlns="http://www.w3.org/2000/svg" version="1.1" viewBox="106 195 400 400">
  <defs>
    <style>
      .cls-2 {
        fill: #231f20;
        fill-rule: evenodd;
      }
    </style>
  </defs>
  <g>
    <g id="Layer_1">
      <path class="cls-2" d="M306.23,212.08c-101.34,0-183.78,82.44-183.78,183.78s82.44,183.78,183.78,183.78,183.78-82.44,183.78-183.78-82.44-183.78-183.78-183.78M306.23,582.64c-102.99,0-186.78-83.79-186.78-186.78s83.79-186.78,186.78-186.78,186.78,83.79,186.78,186.78-83.79,186.78-186.78,186.78"/>
      <!-- <path class="cls-2" d="M306.23,204.44c-105.55,0-191.42,85.87-191.42,191.42s85.87,191.42,191.42,191.42,191.42-85.87,191.42-191.42-85.87-191.42-191.42-191.42M306.23,590.28c-107.2,0-194.42-87.21-194.42-194.42s87.22-194.42,194.42-194.42,194.42,87.22,194.42,194.42-87.22,194.42-194.42,194.42"/> -->
      <!-- <path class="cls-2" d="M306.23,154.06c-133.33,0-241.8,108.47-241.8,241.8s108.47,241.8,241.8,241.8,241.8-108.47,241.8-241.8-108.47-241.8-241.8-241.8M306.23,640.66c-65.39,0-126.86-25.46-173.1-71.7-46.24-46.24-71.7-107.71-71.7-173.1s25.46-126.86,71.7-173.1c46.24-46.23,107.72-71.7,173.1-71.7,0,0,0,0,0,0,65.39,0,126.86,25.46,173.1,71.7,46.24,46.24,71.7,107.71,71.7,173.1s-25.46,126.86-71.7,173.1c-46.24,46.24-107.71,71.7-173.1,71.7"/> -->
      <path class="cls-2" d="M328.61,269.5c-5.77,7-13.59,11.31-22.21,11.31s-16.45-4.3-22.21-11.31c5.77-7,13.59-11.3,22.21-11.3s16.45,4.3,22.21,11.3M303.74,277.24c-3.2-1.1-5.51-4.14-5.51-7.72s2.39-6.73,5.69-7.78c-7.18.53-13.7,3.37-18.78,7.76,5.04,4.35,11.49,7.17,18.6,7.74M308.87,261.75c.99.32,1.9.82,2.69,1.46-1.42.14-2.53,1.34-2.53,2.8,0,1.55,1.26,2.81,2.81,2.81,1.04,0,1.95-.57,2.44-1.41.18.68.28,1.39.28,2.12,0,3.58-2.3,6.62-5.51,7.72,7.11-.57,13.56-3.39,18.6-7.74-5.08-4.38-11.6-7.22-18.78-7.76"/>
      <line class="cls-1" x1="285.14" y1="269.5" x2="285.14" y2="269.5"/>
      <polyline class="cls-2" points="327.64 269.5 327.64 269.5 327.65 269.5 327.64 269.5"/>
      <path class="cls-2" d="M306.29,465.63c-16.89,0-30.58,11.54-30.58,25.78s13.69,25.79,30.58,25.79,30.58-11.54,30.58-25.79-13.69-25.78-30.58-25.78M344.04,491.41c0,17.58-16.81,31.83-37.54,31.83s-37.54-14.25-37.54-31.83,16.81-31.83,37.54-31.83,37.54,14.25,37.54,31.83"/>
      <path class="cls-2" d="M167.1,418.71h-7.26s0,18.4,48.6,18.4c45.85,0,46.13-18.4,46.13-18.4h-7.33c-11.17-29.25-31.8-83.26-34.54-90.43,15.41,1.19,38.82-6.89,46.47-9.33,6.86-2.19,21.03-6.09,35.77-5.79l-1.57,18.09c3.77-2.29,8.19-3.6,12.92-3.6s9.15,1.32,12.92,3.6l-1.57-18.09c14.71-.28,28.84,3.6,35.69,5.79,7.65,2.44,31.06,10.52,46.47,9.33-2.74,7.17-23.37,61.18-34.54,90.43h-7.33s.28,18.4,46.13,18.4c48.6,0,48.6-18.4,48.6-18.4h-7.26c-11.37-29.72-32.71-85.47-35.76-93.43,8.56-6.1,3.18-19.33,3.18-19.33-5.49,22.51-36.61,10.62-39.36,9.34-2.75-1.28-17.39-9.52-34.96-13.36-8.45-1.85-16.23-1.92-22.02-1.49-1.03-4.68-5.2-8.18-10.19-8.18s-9.16,3.5-10.19,8.18c-5.8-.43-13.61-.37-22.11,1.49-17.57,3.84-32.21,12.08-34.96,13.36-2.74,1.28-33.86,13.18-39.35-9.34,0,0-5.38,13.23,3.18,19.33-3.05,7.96-24.38,63.71-35.76,93.43M240.55,418.71h-66.76l33.42-87.31,33.35,87.31ZM438.7,418.71h-66.76l33.35-87.31,33.42,87.31Z"/>
      <path class="cls-2" d="M316.66,296.93c.04-.39.07-.79.07-1.19,0-5.76-4.67-10.43-10.43-10.43s-10.43,4.67-10.43,10.43c0,.4.02.8.07,1.19h0c.63-4.2,5.03-7.46,10.36-7.46s9.73,3.26,10.36,7.46h.01Z"/>
      <path class="cls-2" d="M324.73,347.47c-1.45-8.88-9.16-15.66-18.45-15.66s-17,6.78-18.45,15.66c3.06-7.17,10.17-12.19,18.45-12.19s15.39,5.02,18.45,12.19"/>
      <path class="cls-2" d="M279.98,409.25l6.91-51.1c1.81-15.02,8.68-19.4,19.4-19.4s18.45,7.42,20.03,19.26l6.73,51.45c-7.07-6.41-16.46-10.32-26.76-10.32s-19.23,3.7-26.31,10.12"/>
      <path class="cls-2" d="M335.93,429.52c-3.33-13.27-15.34-23.1-29.65-23.1s-26.3,9.82-29.64,23.08l-.02.08c5.38-10.95,16.64-18.48,29.66-18.48s24.28,7.53,29.66,18.48v-.06Z"/>
      <path class="cls-2" d="M340.68,466.91c-8.56-9.24-20.8-15.02-34.39-15.02s-25.78,5.76-34.34,14.97l3.32-24.84c2.71-16.56,14.55-29,31.02-29s28.96,12.47,31.02,29l3.37,24.89Z"/>
      <path class="cls-2" d="M342.3,476.66c-7.79-11.45-20.95-18.98-35.88-18.98s-28.1,7.53-35.88,18.99h-.03c6.77-13.19,20.3-22.19,35.9-22.19s29.13,9,35.9,22.19h0Z"/>
      <path class="cls-2" d="M277.19,483.79c-.06.61-.08,1.24-.08,1.86,0,13.59,13.06,24.6,29.18,24.6s29.18-11.02,29.18-24.6c0-.62-.03-1.24-.08-1.86h0c-1.13,10.93-13.73,19.54-29.1,19.54s-27.97-8.61-29.1-19.54"/>
      
    </g>
  </g>
</svg>
