<?xml version="1.0" encoding="UTF-8"?>
<svg xmlns="http://www.w3.org/2000/svg" version="1.1" viewBox="106 160 400 400">
  <defs>
    <style>
      .cls-1 {
        fill: #231f20;
      }

      .cls-2 {
        fill-rule: evenodd;
      }
    </style>
  </defs>
  <!-- Generator: Adobe Illustrator 28.7.4, SVG Export Plug-In . SVG Version: 1.2.0 Build 166)  -->
  <g>
    <g id="Layer_1">
      <path class="cls-2" d="M310.93,182.89c-101.34,0-183.78,82.44-183.78,183.78s82.44,183.78,183.78,183.78,183.78-82.44,183.78-183.78-82.44-183.78-183.78-183.78h0ZM310.93,553.45c-102.99,0-186.78-83.79-186.78-186.78s83.79-186.78,186.78-186.78,186.78,83.79,186.78,186.78-83.79,186.78-186.78,186.78h0Z"/>
      <!-- <path class="cls-2" d="M310.93,175.25c-105.55,0-191.42,85.87-191.42,191.42s85.87,191.42,191.42,191.42,191.42-85.87,191.42-191.42-85.87-191.42-191.42-191.42h0ZM310.93,561.09c-107.2,0-194.42-87.21-194.42-194.42s87.22-194.42,194.42-194.42,194.42,87.22,194.42,194.42-87.22,194.42-194.42,194.42h0Z"/> -->
      <!-- <path class="cls-2" d="M310.93,124.87c-133.33,0-241.8,108.47-241.8,241.8s108.47,241.8,241.8,241.8,241.8-108.47,241.8-241.8-108.47-241.8-241.8-241.8h0ZM310.93,611.47c-65.39,0-126.86-25.46-173.1-71.7-46.24-46.24-71.7-107.71-71.7-173.1s25.46-126.86,71.7-173.1c46.23-46.23,107.72-71.7,173.1-71.7,0,0,0,0,0,0,65.39,0,126.86,25.46,173.1,71.7,46.24,46.24,71.7,107.71,71.7,173.1s-25.46,126.86-71.7,173.1c-46.24,46.24-107.71,71.7-173.1,71.7h0Z"/> -->
      <path class="cls-2" d="M298.02,404.38c0,2.03-1.65,3.68-3.68,3.68s-3.68-1.65-3.68-3.68,1.65-3.68,3.68-3.68,3.68,1.65,3.68,3.68h0ZM290.33,399.2c0-1.5-1.21-2.71-2.71-2.71s-2.71,1.21-2.71,2.71,1.21,2.71,2.71,2.71,2.71-1.21,2.71-2.71h0ZM292.59,410.8c0-1.24-1.01-2.25-2.25-2.25s-2.25,1.01-2.25,2.25,1.01,2.25,2.25,2.25,2.25-1.01,2.25-2.25h0ZM353.89,375.52c0-2.81-2.28-5.09-5.09-5.09s-5.09,2.28-5.09,5.09,2.28,5.09,5.09,5.09,5.09-2.28,5.09-5.09h0ZM271.91,301.42l-3.61-1.35,1.72-6.02,3.83.78c.94-1.72,2.16-3.22,3.59-4.46l-1.64-3.59,5.47-3.03,2.19,3.32c1.8-.53,3.7-.76,5.63-.63l1.4-3.74,6.02,1.72-.8,3.91c1.71.92,3.2,2.11,4.44,3.52l3.62-1.65,3.03,5.47-3.29,2.18c.56,1.81.8,3.73.68,5.68l3.66,1.36-1.72,6.02-3.78-.77c-.92,1.76-2.15,3.29-3.59,4.56l1.59,3.47-5.47,3.03-2.09-3.16c-1.85.57-3.82.81-5.82.68l-1.32,3.53-6.02-1.72.75-3.69c-1.77-.94-3.31-2.19-4.58-3.66l-3.44,1.57-3.03-5.47,3.19-2.11c-.55-1.84-.77-3.79-.62-5.77ZM296.81,305.11c1.39-4.84-1.41-9.89-6.25-11.28-4.84-1.39-9.89,1.41-11.28,6.25-1.39,4.84,1.41,9.89,6.25,11.28,4.84,1.39,9.89-1.41,11.28-6.25h0ZM304.5,249.13l23.95,22.23,4.5-15.21,17.33,27.91,2.91-15.74,27.91,51.99-25.53-25-2.91,13.76-19.31-27.65-3.17,14.82-25.67-47.1h0ZM351.51,501.6h-129.12s25.05-26.81,29.28-38.1c4.23-11.29,1.06-51.15-8.82-67.74-9.88-16.58-35.05-50.65-34.61-83.9.5-37.4,26.02-82.91,94.94-79.8,65.93,2.97,84.32,31.04,89.61,52.57,5.29,21.52,7.32,35.98,7.32,38.1s.58,6.53-2.04,8.35c-2.5,1.74-4.31,7.79-.87,13.08,3.44,5.29,16.52,25.39,17.44,26.81,1.96,3.04,4.48,12.49-2.28,14.55-6.81,2.08-9.6,3.09-10.66,3.35-1.06.26-2.77,1.58-1.32,4.06,1.74,2.98,4.67,7.21,4.76,9,.06,1.25-1.18,3.31-3.06,4.27-1.64.83-3.97,1.12-4.07,2.38-.08.97-.08,1.51,2.02,3.32,1.83,1.58-.87,3.84-1.16,4.19-.43.52-5.37,4.19-5.28,7.19.09,3,1.15,4.59,2.56,6.97,1.41,2.38,3.97,10.5-.88,17.64-4.85,7.14-11.5,8.52-14.98,8.61-4.12.1-12.36-2.44-14.47-3.23-2.12-.79-8.03-2.03-12.44-.09-4.41,1.94-9,5.73-7.94,14.38,1.06,8.64,3.53,27.61,6.09,34.04h0ZM285.07,420.69c-1.48,0-2.67-1.2-2.67-2.67s1.2-2.68,2.67-2.68h15.59c1.48,0,2.67,1.2,2.67,2.68s-1.2,2.67-2.67,2.67h-1.31v26.04c2.07,3.05,16.26,24.02,19.91,30.56,1.74,3.13,2.06,5.7.95,7.64-1.6,2.81-5.53,2.94-5.69,2.95h-43.32c-.2,0-4.12-.14-5.73-2.95-1.11-1.94-.79-4.51.95-7.64,3.64-6.54,17.84-27.51,19.91-30.56v-26.04h-1.26ZM301.79,455.12c-2.73.09-5.81,1.15-8.82,2.18-2.43.83-4.73,1.62-6.46,1.74-2.8.2-4.03-.59-4.51-1.07,3.71-5.56,6.71-9.98,6.78-10.08l.23-.34v-6.48h4.58v-2.01h-4.58v-4.68h4.58v-2.01h-4.58v-4.68h4.58v-2.01h-4.58v-5h7.67v26.86l.23.34c.06.08,2.09,3.08,4.87,7.23ZM280.88,459.65c.84.7,2.31,1.43,4.81,1.43.3,0,.62-.01.95-.03,2-.14,4.42-.97,6.98-1.85,3.26-1.12,6.91-2.37,9.55-2.01,5,7.48,11.52,17.38,13.76,21.4.86,1.54,1.73,3.67.97,5-.7,1.25-2.73,1.58-3.41,1.61h-43.25c-.67-.02-2.72-.35-3.44-1.6-.76-1.34.11-3.46.97-5.01,2-3.59,7.42-11.88,12.12-18.94ZM348.8,340.92c4.65,0,8.66,6.15,10.96,15.62,9.35-2.74,16.68-2.34,19,1.69,2.33,4.03-.99,10.57-8.04,17.3,7.05,6.73,10.37,13.27,8.04,17.3-2.33,4.03-9.65,4.43-19.01,1.69-1.34,5.52-3.26,9.91-5.55,12.61.18.37.28.79.28,1.22,0,1.57-1.27,2.84-2.84,2.84-.91,0-1.72-.43-2.24-1.09-.2.02-.4.03-.6.03-4.65,0-8.66-6.15-10.96-15.62-9.35,2.74-16.68,2.34-19.01-1.69-2.32-4.03,1-10.57,8.04-17.3-4.32-4.12-7.23-8.17-8.31-11.62-1.28-.28-2.24-1.41-2.24-2.78,0-1.44,1.07-2.63,2.47-2.82.02-.03.03-.06.05-.09,2.32-4.03,9.65-4.42,19-1.68,2.3-9.47,6.31-15.62,10.96-15.62ZM369.71,374.58c-2.37-2.16-5.11-4.32-8.16-6.42-.29-3.69-.8-7.15-1.48-10.28,8.68-2.55,15.56-2.41,17.54,1.01,1.97,3.42-1.35,9.45-7.9,15.69ZM360.11,367.19c-1.53-1.01-3.13-2-4.79-2.96-1.66-.96-3.32-1.85-4.96-2.67,2.89-1.32,5.71-2.42,8.39-3.27.6,2.74,1.06,5.74,1.36,8.9ZM348.8,360.79c-3.34-1.59-6.59-2.88-9.64-3.85,2.13-8.79,5.69-14.68,9.64-14.68s7.51,5.89,9.64,14.68c-3.05.97-6.3,2.26-9.64,3.85ZM327.89,376.47c2.37,2.16,5.11,4.32,8.16,6.42.29,3.69.8,7.15,1.48,10.27-8.68,2.55-15.56,2.41-17.54-1.01-1.97-3.42,1.35-9.45,7.9-15.69ZM337.49,383.86c1.53,1.01,3.13,2,4.79,2.96,1.66.96,3.32,1.85,4.96,2.67-2.89,1.32-5.71,2.42-8.39,3.27-.6-2.74-1.06-5.74-1.36-8.9ZM348.8,390.25c3.34,1.59,6.59,2.88,9.64,3.85-1.27,5.22-3.04,9.42-5.09,11.97-.48-.36-1.07-.57-1.71-.57-1.57,0-2.84,1.27-2.84,2.84,0,.15.01.3.03.44-.01,0-.02,0-.03,0-3.94,0-7.51-5.89-9.64-14.68,3.05-.97,6.3-2.26,9.64-3.85ZM320.25,358.5c2.26-3.03,8.94-3.06,17.28-.61-.69,3.13-1.19,6.58-1.48,10.27-3.05,2.1-5.79,4.26-8.16,6.42-4.03-3.84-6.84-7.6-7.94-10.72,1.19-.34,2.06-1.43,2.06-2.73,0-1.18-.72-2.2-1.75-2.63ZM338.85,358.29c2.67.85,5.5,1.95,8.39,3.27-1.64.82-3.29,1.71-4.96,2.67-1.66.96-3.26,1.95-4.79,2.96.3-3.16.76-6.16,1.36-8.9ZM348.8,362.29c1.94.93,3.9,1.97,5.85,3.1,1.95,1.13,3.83,2.31,5.61,3.52.16,2.14.24,4.36.24,6.61s-.08,4.47-.24,6.62c-.14.1-.29.19-.43.29-.52-.61-1.3-1.01-2.17-1.01-1.57,0-2.84,1.27-2.84,2.84,0,.41.09.8.24,1.15-.14.08-.27.16-.41.24-1.95,1.13-3.91,2.16-5.85,3.1-1.94-.93-3.9-1.97-5.85-3.1-1.95-1.13-3.83-2.31-5.61-3.52-.16-2.15-.24-4.36-.24-6.62s.08-4.47.24-6.61c1.78-1.21,3.65-2.39,5.61-3.52,1.95-1.13,3.91-2.16,5.85-3.1ZM361.67,369.89c2.59,1.84,4.95,3.74,7.03,5.63-2.08,1.89-4.44,3.79-7.03,5.63.11-1.83.16-3.71.16-5.63s-.06-3.8-.16-5.63ZM369.71,376.47c6.55,6.24,9.87,12.27,7.9,15.69-1.97,3.42-8.86,3.56-17.54,1.01.69-3.13,1.19-6.59,1.48-10.28,3.05-2.1,5.79-4.26,8.16-6.42ZM358.75,392.76c-2.68-.85-5.5-1.95-8.39-3.27,1.64-.82,3.29-1.71,4.96-2.67.19-.11.38-.22.56-.33.49.39,1.1.62,1.77.62.9,0,1.7-.42,2.22-1.06-.29,2.36-.67,4.61-1.13,6.71ZM335.92,381.15c-2.59-1.84-4.95-3.74-7.03-5.63,2.08-1.89,4.44-3.79,7.03-5.63-.11,1.83-.16,3.71-.16,5.63s.06,3.8.16,5.63ZM246.28,345.45l-5.17-1.17,1.25-8.51,5.35.37c.96-2.51,2.35-4.77,4.07-6.73l-2.89-4.59,6.9-5.13,3.59,4.12c2.35-1.05,4.9-1.71,7.55-1.89l1.22-5.35,8.51,1.25-.37,5.48c2.49.93,4.74,2.29,6.69,3.98l4.63-2.91,5.13,6.9-4.08,3.56c1.09,2.36,1.77,4.94,1.97,7.61l5.23,1.19-1.25,8.51-5.29-.36c-.94,2.56-2.32,4.88-4.05,6.87l2.8,4.44-6.9,5.13-3.42-3.92c-2.42,1.12-5.06,1.81-7.8,1.99l-1.15,5.04-8.51-1.25.35-5.16c-2.58-.96-4.9-2.38-6.9-4.15l-4.4,2.77-5.13-6.9,3.95-3.45c-1.08-2.41-1.74-5.02-1.9-7.74ZM280.86,345.92c1-6.84-3.73-13.21-10.57-14.21s-13.21,3.73-14.21,10.57,3.73,13.21,10.57,14.21,13.21-3.73,14.21-10.57h0ZM259.41,271.23l1.31-2.99,4.83,1.68-.83,3.16c1.35.82,2.52,1.87,3.47,3.07l3.03-1.19,2.23,4.6-2.78,1.63c.37,1.5.48,3.08.3,4.67l2.93,1.28-1.68,4.83-3.05-.8c-.83,1.39-1.9,2.59-3.13,3.56l1.14,2.91-4.6,2.23-1.56-2.67c-1.54.38-3.16.49-4.78.29l-1.23,2.82-4.83-1.68.78-2.98c-1.4-.85-2.6-1.94-3.57-3.19l-2.88,1.13-2.23-4.6,2.69-1.57c-.36-1.53-.46-3.13-.25-4.74l-2.89-1.26,1.68-4.83,3.09.81c.84-1.36,1.91-2.53,3.13-3.48l-1.18-3,4.6-2.23,1.64,2.81c1.49-.35,3.05-.45,4.63-.26ZM264.87,286.8c1.35-3.89-.71-8.13-4.59-9.48-3.89-1.35-8.13.71-9.48,4.6s.71,8.13,4.59,9.48,8.13-.71,9.48-4.59h0ZM281.34,461.34s-9.87,15.2-10.47,16.21c-.6,1.01-2.14,3.64-1.92,4.97.23,1.33,2.74,1.48,2.74,1.48h41.06c2.11,0,3.81-.32,3.98-1.8.16-1.48-2.27-5.31-2.27-5.31l-12.12-18.54c-3.25.08-7.75,1.87-12.64,3.39-4.89,1.51-8.36-.39-8.36-.39h0Z"/>
      <!-- <g>
        <path class="cls-1" d="M143.82,211.23l16.17,14.59c.8.72,1.22.81,3-.67.39-.3.66-.3.97-.02.12.11.4.42.52.59-1.36,1.32-2.99,3-4.08,4.21-1.12,1.24-2.59,3-3.74,4.46-.21-.07-.55-.32-.67-.43-.28-.25-.43-.51-.08-1.02,1.23-1.8,1.16-2.28.36-3l-16.17-14.59-2.6,2.88c-2.18,2.42-2.09,3.99-.88,6.98.13.29.01.54-.17.74-.24.26-.74.58-.98.66-.72-1.18-1.22-2.05-1.84-2.85-.81-1.02-1.55-1.81-1.74-2.22-.1-.26-.04-.51.2-.77.44-.49,1.98-1.83,3.78-3.82l9.09-10.08c1.77-1.96,2.94-3.63,3.42-4.16.21-.23.48-.34.75-.27.43.15,1.25.84,2.38,1.5.86.53,1.74.98,3.02,1.54-.08.28-.32.78-.55,1.04-.21.23-.42.34-.75.27-3.1-.9-4.67-.83-6.82,1.56l-2.6,2.88Z"/>
        <path class="cls-1" d="M189.08,199.47c.69.83,1.09.98,3.24-.36.23-.14.55-.02.79.26.11.13.33.48.43.66-1.52,1.14-3.36,2.5-4.62,3.54-1.29,1.06-3.02,2.65-4.43,3.91-.2-.1-.46-.42-.57-.55-.24-.29-.32-.6-.11-.82,1.69-1.82,1.66-2.28.98-3.11l-6.19-7.51-9.18,7.56,6.19,7.51c.69.83,1.09.98,3.24-.36.23-.14.55-.02.79.26.11.13.33.48.43.66-1.52,1.14-3.43,2.56-4.69,3.59s-2.95,2.59-4.36,3.86c-.2-.1-.46-.42-.57-.55-.24-.29-.32-.6-.11-.82,1.69-1.82,1.66-2.28.98-3.11l-13.19-16.02c-.68-.83-1.13-.95-3.24.36-.29.13-.58,0-.79-.26-.11-.13-.37-.45-.46-.7,1.54-1.11,3.36-2.5,4.62-3.54,1.26-1.04,3.04-2.61,4.43-3.91.19.16.49.46.59.58.21.26.26.59.11.82-1.73,1.85-1.66,2.28-.98,3.11l5.61,6.81,9.18-7.56-5.61-6.81c-.69-.83-1.13-.95-3.24.36-.29.13-.58,0-.79-.26-.11-.13-.37-.45-.46-.7,1.54-1.11,3.4-2.53,4.69-3.59,1.26-1.04,2.97-2.56,4.36-3.86.19.16.49.46.59.58.21.26.26.59.11.82-1.73,1.85-1.66,2.28-.98,3.11l13.19,16.02Z"/>
        <path class="cls-1" d="M190.57,172.53l5.19,8.52,5.31-3.23c.94-.57.76-1.38,0-3.21-.18-.38.06-.67.43-.9.15-.09.59-.31.76-.36.53,1.13,1.47,2.84,2.07,3.83.52.85,1.27,1.99,2.3,3.35-.11.16-.5.45-.65.54-.41.25-.76.27-1.02-.06-1.4-1.62-2-1.93-2.83-1.43l-5.31,3.23,4.83,7.92c.6.99,1.96.5,5.04-1.37l1.58-.96c2.97-1.81,3.06-4.04,2.9-7.01-.03-.22.15-.43.38-.57.26-.16.75-.21,1.17-.28.1.42.21.85.29,1.23.1.67.36,1.43.44,1.91.36,1.09.98,2.8,1.02,3.21.02.28-.13.47-.43.65-.75.46-3.38,1.82-4.7,2.62l-8.54,5.2c-1.47.89-3.47,2.26-4.93,3.25-.18-.13-.42-.52-.51-.66-.21-.35-.21-.6.03-.79,1.69-1.46,2.3-2.23,1.75-3.15l-10.79-17.72c-.58-.96-1.28-.82-3.6.11-.31.09-.55-.05-.76-.41-.13-.21-.28-.46-.33-.72,2.23-1.17,3.91-2.14,5.11-2.87l7.71-4.7c2.26-1.38,3.86-2.64,4.46-3.01.26-.16.55-.19.8-.05.39.3,1.11,1.41,2.05,2.34.62.69,1.18,1.27,2.27,2.11-.16.24-.43.56-.74.74-.26.16-.5.2-.8.05-2.71-1.74-4.21-2.09-6.96-.42l-5,3.05Z"/>
        <path class="cls-1" d="M231.58,152.34l7.85,20.32c.39,1,.73,1.27,2.98.76.48-.1.72.03.87.42.06.15.17.56.2.77-1.81.57-4.02,1.33-5.54,1.92-1.56.6-3.67,1.51-5.35,2.29-.16-.16-.35-.53-.41-.69-.13-.35-.16-.65.39-.95,1.91-1.05,2.06-1.51,1.67-2.51l-7.85-20.32-3.62,1.4c-3.04,1.17-3.67,2.61-3.93,5.83-.02.32-.24.49-.48.59-.33.13-.92.18-1.17.14-.11-1.38-.16-2.38-.36-3.37-.26-1.28-.56-2.31-.55-2.76.03-.28.19-.47.52-.6.62-.24,2.6-.74,5.1-1.7l12.66-4.89c2.47-.95,4.27-1.91,4.92-2.17.29-.11.58-.09.79.09.31.32.74,1.31,1.45,2.41.52.86,1.11,1.66,2,2.73-.2.21-.63.56-.96.68-.29.11-.52.11-.79-.09-2.36-2.2-3.79-2.84-6.79-1.68l-3.62,1.4Z"/>
        <path class="cls-1" d="M255.64,144.89l2.31,9.71,6.04-1.44c1.07-.26,1.15-1.08,1-3.05-.05-.41.26-.62.69-.72.17-.04.65-.11.83-.11.16,1.24.52,3.15.79,4.28.23.97.59,2.29,1.15,3.9-.15.12-.61.27-.79.31-.47.11-.81.02-.95-.37-.83-1.97-1.31-2.46-2.25-2.23l-6.04,1.44,2.15,9.02c.27,1.13,1.71,1.08,5.22.25l1.8-.43c3.39-.81,4.15-2.91,4.92-5.77.04-.22.28-.36.53-.42.3-.07.78.03,1.2.1-.03.43-.07.87-.11,1.26-.11.67-.1,1.47-.17,1.96,0,1.15.07,2.96-.01,3.37-.07.27-.27.4-.61.49-.86.2-3.78.69-5.28,1.04l-9.73,2.32c-1.67.4-4,1.08-5.7,1.57-.13-.18-.24-.62-.28-.79-.1-.4-.02-.63.28-.75,2.06-.87,2.88-1.41,2.63-2.46l-4.81-20.18c-.26-1.09-.96-1.18-3.46-1.01-.32,0-.51-.22-.6-.62-.06-.24-.12-.52-.1-.79,2.48-.42,4.38-.83,5.75-1.16l8.79-2.09c2.57-.61,4.49-1.32,5.17-1.49.3-.07.59-.01.77.2.28.4.63,1.68,1.22,2.86.38.85.74,1.57,1.5,2.71-.23.18-.58.4-.93.48-.3.07-.53.04-.77-.2-2.04-2.49-3.36-3.29-6.49-2.54l-5.7,1.36Z"/>
        <path class="cls-1" d="M275.58,152.01c-.67-6.51,3.12-14.36,14.03-15.48,2.98-.31,5.43-.19,8.53.28.24,1.47.9,3.99,1.74,6.11-.26.07-.86.26-1.08.28-.44.05-.8,0-.98-.44-1.6-3.5-3.65-4.49-7.73-4.07-6.31.65-9.29,5.21-8.6,11.88.74,7.17,5.6,12.12,11.34,11.53,4.73-.49,6.23-2.31,7.31-6,.13-.43.55-.68.94-.72.26-.03.8,0,1.12.09-.46,1.96-1.17,4.95-1.37,7.26-2.8.79-5.67,1.29-9.22,1.66-9.86,1.02-15.22-4.55-16.03-12.37Z"/>
        <path class="cls-1" d="M331.37,160.6c-.05,1.08.16,1.46,2.65,1.9.26.05.43.35.41.72,0,.17-.07.58-.12.78-1.89-.16-4.17-.39-5.8-.45-1.67-.07-4.01-.05-5.91-.04-.08-.21-.06-.62-.05-.79.02-.37.16-.66.47-.68,2.48-.23,2.76-.59,2.81-1.66l.42-9.72-11.89-.51-.42,9.72c-.05,1.08.16,1.46,2.65,1.9.26.05.43.35.41.72,0,.17-.07.58-.12.78-1.89-.16-4.26-.39-5.89-.46-1.63-.07-3.92-.04-5.82-.04-.08-.21-.06-.62-.05-.79.02-.37.16-.66.47-.68,2.48-.23,2.76-.59,2.81-1.66l.89-20.73c.05-1.08-.2-1.46-2.65-1.9-.3-.1-.42-.39-.41-.72,0-.17.02-.58.12-.82,1.89.21,4.17.39,5.8.45,1.63.07,4.01.09,5.91.04.03.25.06.67.05.83-.01.33-.2.61-.47.69-2.52.22-2.76.59-2.81,1.66l-.38,8.81,11.89.51.38-8.81c.05-1.08-.2-1.46-2.65-1.9-.3-.1-.42-.39-.41-.72,0-.17.02-.58.12-.82,1.89.21,4.22.39,5.89.46,1.63.07,3.92.08,5.82.04.03.25.06.67.05.83-.01.33-.2.61-.47.69-2.52.22-2.76.59-2.8,1.66l-.89,20.73Z"/>
        <path class="cls-1" d="M363.97,160.55l-8.99-2.18-3.58,5.06c-.24.24-.37.59-.41.75-.14.56.24,1.08,1.98,1.76.33.12.54.39.41.91-.04.16-.16.47-.25.66-1.51-.49-3.29-1.01-4.92-1.4-1.16-.28-2.37-.53-3.95-.74-.04-.22.04-.54.08-.71.12-.48.31-.73.75-.67,1.83.1,2.54-.02,3.19-.8l15.93-20.69c.37-.42.81-.53,1.19-.44.26.06.55.18.88.3l4.53,26.41c.15.89,1.13,1.51,2.25,1.95.41.18.57.44.45.96-.04.16-.17.51-.26.7-1.77-.56-3.59-1.08-5.13-1.46-1.58-.38-4.87-1.05-6.51-1.37-.04-.22.04-.54.08-.71.12-.48.43-.66.66-.65,1.51.11,2.32-.03,2.49-.72.04-.16.04-.37.02-.64l-.88-6.31ZM363.65,158.34l-1.45-9.94-5.92,8.15,7.36,1.78Z"/>
        <path class="cls-1" d="M389.04,165.61l-1.76-.71-3.24,8.02c-.48,1.19.36,1.93,2.77,3.26.35.19.46.5.26,1-.06.15-.24.48-.36.66-1.51-.74-3.97-1.83-6.74-2.95-1.96-.79-3.83-1.46-5.47-1.99,0-.23.12-.53.18-.69.2-.5.48-.61.74-.55,2.44.54,2.96.44,3.36-.56l7.77-19.23c.42-1.04-.04-1.67-2.19-2.81-.21-.18-.34-.45-.14-.95.08-.19.2-.5.35-.62,1.46.73,3.68,1.71,5.23,2.34l6.17,2.49c5.8,2.34,8.14,6.55,6.48,10.66-1.09,2.69-3.94,4.35-7.5,4.21l2.86,11.38c.44,1.74,1.69,2.65,2.68,3.36.23.14.37.37.19.83-.08.19-.2.5-.38.7-1.19-.57-4.54-2.06-6.09-2.69-1.14-.46-1.92-1.94-2.4-3.83l-2.78-11.35ZM389.29,163.48c3.35,1.35,5.99,1.17,7.51-2.59,1.27-3.15.65-5.72-3.48-7.39l-1.23-.5-4.04,9.98,1.23.5Z"/>
        <path class="cls-1" d="M425.1,168.79l-10.71,18.97c-.53.94-.52,1.37,1.31,2.79.38.31.43.58.23.94-.08.14-.32.48-.46.64-1.59-1.04-3.58-2.26-5-3.06-1.46-.82-3.49-1.88-5.17-2.68.03-.22.19-.61.27-.75.18-.32.4-.53.98-.3,2.02.81,2.47.64,3-.3l10.71-18.97-3.38-1.91c-2.84-1.6-4.35-1.17-7,.66-.26.19-.53.13-.76,0-.31-.17-.72-.6-.86-.82,1-.96,1.73-1.64,2.38-2.42.82-1.01,1.43-1.9,1.79-2.18.24-.15.49-.15.8.02.58.33,2.22,1.54,4.56,2.86l11.82,6.67c2.3,1.3,4.19,2.08,4.8,2.43.27.15.44.39.43.67-.05.45-.54,1.41-.94,2.65-.33.95-.57,1.91-.84,3.28-.29-.02-.83-.14-1.14-.31-.27-.15-.42-.33-.43-.67.2-3.22-.21-4.73-3.01-6.31l-3.38-1.91Z"/>
        <path class="cls-1" d="M432.74,199.81c-.63.88-.66,1.31,1.19,3.04.19.19.17.53-.05.83-.1.13-.37.45-.53.59-1.49-1.17-3.32-2.63-4.65-3.58-1.36-.97-3.33-2.23-4.89-3.24.05-.22.29-.56.39-.69.22-.3.49-.46.77-.32,2.2,1.17,2.63,1.02,3.26.14l12.07-16.88c.63-.88.63-1.33-1.19-3.04-.2-.25-.14-.56.05-.83.1-.13.34-.47.55-.62,1.43,1.18,3.28,2.6,4.65,3.58,1.33.95,3.27,2.24,4.89,3.24-.11.23-.31.59-.41.73-.19.27-.5.4-.77.32-2.24-1.19-2.63-1.02-3.26-.14l-12.07,16.88Z"/>
        <path class="cls-1" d="M462.71,202.41c-.6-.52-.59-1-.47-1.34,1.06-3.25.37-5.54-2.33-7.88-2.13-1.85-4.7-2.31-6.41-.34-3.98,4.6,8.92,12.92,2.6,20.22-2.76,3.19-7.63,4.24-12.96-.38-2.9-2.51-4.67-5.31-5.55-7.32,1.41-1.9,2.63-3.91,3.67-5.86.22.08.64.34.88.54.53.46.63.82.39,1.43-1.57,4.23-1.2,6.84,2.03,9.64,2.73,2.36,5.23,1.84,6.69.15,4.63-5.35-8.49-12.34-2.02-19.82,2.87-3.32,7.81-3.64,12.31.25,1.83,1.59,3.37,3.52,4.97,6.44-1.02,1.31-2.28,3.23-3.09,4.72-.25-.11-.55-.31-.71-.45Z"/>
        <path class="cls-1" d="M481.8,215.38l-16.17,14.59c-.8.72-.93,1.13.36,3.06.26.42.23.68-.08.96-.12.11-.46.36-.64.46-1.18-1.49-2.68-3.28-3.77-4.49-1.12-1.24-2.72-2.89-4.05-4.18.09-.2.37-.51.5-.62.28-.25.55-.38,1.03.02,1.66,1.41,2.14,1.39,2.94.67l16.17-14.59-2.6-2.88c-2.18-2.42-3.75-2.49-6.85-1.59-.3.1-.54-.04-.72-.24-.24-.26-.5-.8-.55-1.04,1.25-.59,2.16-1,3.02-1.54,1.1-.7,1.96-1.35,2.38-1.5.27-.07.51.01.75.27.44.49,1.62,2.16,3.42,4.16l9.09,10.08c1.77,1.96,3.31,3.3,3.79,3.82.21.23.29.51.2.77-.19.41-.96,1.16-1.74,2.22-.62.8-1.15,1.63-1.84,2.85-.27-.11-.75-.39-.98-.66-.21-.23-.29-.45-.2-.77,1.21-2.99,1.3-4.56-.85-6.94l-2.6-2.88Z"/>
      </g> -->
      <!-- <g>
        <path class="cls-1" d="M181.99,527.12c.4-.21.64-.33,1.65.52.47.4,1.95,1.56,2.76,2.11-.09.2-.27.41-.36.52-.23.27-.45.4-.66.31-1.31-.75-1.62-.64-2.12-.05-.2.24-10.09,12.91-10.89,13.98-.57.71-.58,1.12.33,2.25.13.15.08.39-.19.71-.09.11-.29.3-.43.42-.96-.9-1.6-1.58-2.62-2.45-.94-.8-2.2-1.73-2.96-2.27.09-.15.25-.38.34-.49.32-.37.56-.4.64-.33,1.4.73,1.82.67,2.43-.05.25-.29,8.18-10.4,8.75-11.2l-15.17,9.03c-.4.21-.62.3-.79.15-.06-.05-.19-.16-.23-.24l7.62-19.05c-1.26,1.36-10.83,11.88-11.1,12.2-.57.67-.62.99.33,2.25.13.15.1.36-.2.71-.09.11-.27.28-.43.42-.7-.73-1.3-1.33-1.94-1.87-.56-.47-1.61-1.22-2.33-1.75.07-.17.25-.38.34-.49.32-.37.51-.39.66-.31,1.08.5,1.69.56,2.28-.04.79-.84,11.77-12.86,11.96-13.08.5-.59.46-.98-.4-2.08-.15-.17-.05-.41.19-.71.09-.11.27-.32.45-.44.68.71,2.73,2.54,3.26,2.99,1,.85.95,1.13.79,1.54l-6.18,15.36,14.21-8.55Z"/>
        <path class="cls-1" d="M184.07,545.93l1.92-9.73c.17-.9-.1-1.39-.74-2.01-.15-.14-.11-.37.1-.66.03-.05.1-.15.19-.23l.14-.16c.54.49,1.52,1.24,2.62,2,.78.54,2.29,1.52,2.94,1.86-.16.32-.23.42-.27.47-.22.32-.41.37-.57.3-.79-.4-1.13-.38-1.34-.09-.09.12-.16.32-.22.62l-1.57,7.38,6.06-3.68c.4-.23.65-.46.77-.63.27-.39.11-.73-.53-1.39-.15-.14-.16-.33.06-.65.03-.05.17-.21.37-.4.52.47,1.47,1.21,2.13,1.66.64.44,1.37.92,2.14,1.3-.11.25-.23.42-.27.47-.19.27-.39.39-.57.3-1.09-.54-1.51-.5-2.17-.12l-8.59,5.14-3.4,4.9c-.5.71-.37,1.1.69,2.12.11.11.16.29-.08.64-.03.05-.12.13-.19.23l-.14.16c-.43-.3-.8-.59-1.16-.88-.62-.5-1.37-1.06-1.84-1.38-.49-.34-1.21-.8-1.84-1.17-.37-.22-.73-.44-1.08-.68l.1-.19c.05-.11.12-.21.15-.26.24-.34.43-.36.57-.3,1.36.54,1.73.62,2.23-.1l3.37-4.85Z"/>
        <path class="cls-1" d="M208.43,561.45l-5.18-2.78-3.58,3.6c-.21.16-.39.43-.46.55-.23.43-.12.89.81,1.63.18.14.25.37.03.77-.07.12-.22.36-.33.5-.84-.57-1.84-1.19-2.78-1.69-.67-.36-1.37-.7-2.33-1.05.03-.18.17-.43.23-.55.2-.37.39-.55.65-.44,1.14.3,1.63.28,2.24-.27l15.48-14.57c.35-.29.65-.33.87-.21.15.08.3.2.49.34l-3.89,21.51c-.13.72.33,1.33.93,1.81.21.19.25.41.04.82-.07.12-.24.39-.35.53-.99-.65-2.01-1.28-2.9-1.76-.91-.49-2.84-1.4-3.81-1.85.03-.18.17-.43.23-.55.2-.37.45-.48.59-.44.94.27,1.49.24,1.77-.28.07-.12.12-.29.17-.5l1.06-5.11ZM208.79,559.66l1.63-8.06-5.87,5.79,4.24,2.28Z"/>
        <path class="cls-1" d="M222.81,567.25l-.99-.43-2.48,5.76c-.37.85.08,1.34,1.41,2.17.2.12.24.33.08.69-.05.11-.18.35-.26.48-.84-.46-2.21-1.12-3.78-1.79-1.1-.47-2.16-.86-3.09-1.17.01-.16.11-.38.16-.49.15-.36.33-.45.48-.42,1.4.28,1.72.18,2.03-.53l5.94-13.81c.32-.74.09-1.17-1.1-1.88-.11-.11-.17-.3-.02-.66.06-.14.15-.36.25-.45.81.45,2.05,1.05,2.93,1.42l3.47,1.49c3.26,1.4,4.35,4.26,3.08,7.21-.83,1.93-2.63,3.21-4.72,3.26l.89,7.86c.14,1.2.81,1.79,1.35,2.25.13.09.19.25.05.58-.06.14-.15.36-.27.5-.67-.35-2.54-1.26-3.41-1.63-.64-.28-1-1.28-1.15-2.58l-.84-7.84ZM223.1,565.74c1.88.81,3.46.57,4.62-2.13.97-2.26.79-4.04-1.53-5.04l-.69-.3-3.08,7.17.69.3Z"/>
        <path class="cls-1" d="M243.39,565.26l-5.18,14.91c-.26.74-.23,1.03.92,1.68.24.15.29.32.19.61-.04.11-.16.39-.23.52-.99-.44-2.22-.93-3.09-1.23-.9-.31-2.15-.68-3.17-.94,0-.16.08-.45.12-.56.09-.25.21-.44.56-.38,1.23.2,1.48,0,1.74-.73l5.18-14.9-2.08-.72c-1.75-.61-2.6-.05-4.05,1.67-.14.17-.3.18-.44.13-.19-.07-.46-.29-.54-.41.53-.83.92-1.43,1.25-2.07.42-.84.73-1.56.92-1.81.13-.15.28-.19.47-.12.35.12,1.38.67,2.82,1.17l7.28,2.52c1.42.49,2.56.7,2.94.83.17.06.28.19.29.39,0,.32-.24,1.06-.4,1.99-.14.71-.23,1.41-.31,2.4-.17.04-.49.05-.68-.01-.17-.06-.26-.15-.29-.39-.07-2.25-.39-3.22-2.12-3.81l-2.08-.72Z"/>
        <path class="cls-1" d="M252.82,584.58c-.21.75-.16,1.05,1.16,1.65.14.07.18.3.11.56-.03.12-.13.4-.2.54-1.02-.34-2.28-.78-3.17-1.02-.92-.25-2.22-.51-3.25-.73,0-.16.07-.45.1-.56.07-.26.2-.44.38-.43,1.41.14,1.63-.08,1.83-.84l3.95-14.5c.21-.75.13-1.05-1.16-1.65-.15-.1-.17-.33-.11-.56.03-.12.11-.41.21-.57.99.36,2.25.77,3.17,1.02.89.24,2.19.53,3.25.73-.02.18-.08.48-.11.59-.06.23-.21.41-.38.43-1.44-.14-1.63.08-1.83.84l-3.95,14.5Z"/>
        <path class="cls-1" d="M271.43,576.18c-.44-.09-.56-.39-.58-.64-.27-2.39-1.2-3.53-3.19-3.95-1.57-.33-3.01.35-3.4,2.2-.9,4.32,7.86,4.55,6.43,11.4-.62,3-2.88,5.47-6.79,4.65-2.13-.44-3.75-1.49-4.71-2.39.25-1.7.38-3.39.42-4.97.13-.03.42-.04.59,0,.39.08.53.26.56.73.26,3.18,1.1,4.64,3.47,5.14,2.01.42,3.16-.84,3.5-2.43,1.05-5.02-7.49-4.35-6.03-11.38.65-3.11,3.12-5.17,6.43-4.48,1.35.28,2.62.88,4.19,2.07-.2,1.19-.36,2.84-.41,4.05-.16.03-.36.02-.48,0Z"/>
        <path class="cls-1" d="M285.26,574.78l-2.02,15.65c-.1.77-.01,1.06,1.25,1.46.26.09.34.26.31.55-.02.12-.08.41-.12.56-1.05-.23-2.36-.46-3.28-.57-.94-.12-2.24-.23-3.29-.27-.03-.16-.02-.46,0-.58.04-.27.11-.47.47-.48,1.24-.05,1.45-.3,1.55-1.07l2.02-15.65-2.18-.28c-1.83-.24-2.56.49-3.62,2.47-.1.2-.26.24-.41.22-.2-.03-.5-.19-.62-.29.35-.92.61-1.58.8-2.29.24-.91.39-1.67.53-1.96.1-.17.23-.24.43-.22.37.05,1.49.37,3,.57l7.64.99c1.49.19,2.65.16,3.05.21.17.02.31.13.36.32.06.31-.01,1.09.01,2.03,0,.73.07,1.43.19,2.42-.16.07-.47.15-.67.12-.17-.02-.29-.1-.36-.32-.52-2.19-1.04-3.07-2.85-3.3l-2.18-.28Z"/>
        <path class="cls-1" d="M311.42,573.35l-.3,18.4c-.01.91.12,1.23,1.57,1.53.31.07.42.25.41.6,0,.14-.04.49-.07.66-1.2-.12-2.68-.22-3.72-.24-1.06-.02-2.52.03-3.7.11-.05-.18-.08-.53-.07-.67,0-.31.07-.56.46-.62,1.38-.22,1.58-.53,1.59-1.44l.3-18.4-2.46-.04c-2.07-.03-2.79.9-3.72,3.33-.09.24-.26.31-.42.31-.22,0-.59-.15-.72-.26.27-1.12.48-1.92.6-2.75.16-1.08.23-1.99.35-2.34.09-.21.23-.31.45-.31.42,0,1.7.24,3.41.27l8.62.14c1.68.03,2.97-.16,3.42-.15.2,0,.36.11.44.32.11.35.12,1.26.27,2.35.1.84.25,1.65.51,2.77-.17.1-.51.24-.73.23-.2,0-.33-.08-.44-.32-.86-2.46-1.54-3.42-3.58-3.45l-2.46-.04Z"/>
        <path class="cls-1" d="M325.45,585.64l-4.63-8.78c-.43-.81-.95-1.01-1.83-1.1-.2-.01-.32-.22-.34-.58,0-.06-.01-.18,0-.3v-.21c.74.04,1.96,0,3.31-.09.95-.07,2.74-.26,3.46-.4.08.36.08.48.09.54.03.39-.09.55-.26.59-.86.18-1.12.41-1.1.77.01.15.08.36.22.62l3.42,6.73,2.4-6.67c.17-.43.22-.77.2-.98-.04-.48-.37-.63-1.28-.75-.2-.01-.34-.16-.37-.54,0-.06,0-.27.04-.54.71.04,1.91.01,2.7-.05.77-.06,1.64-.15,2.48-.33.07.27.08.47.09.53.02.33-.06.55-.26.59-1.18.27-1.49.56-1.76,1.27l-3.45,9.4.43,5.96c.06.87.41,1.08,1.87,1.22.15.02.31.13.34.55,0,.06-.01.18,0,.3v.21c-.53.04-1.01.04-1.46.05-.8,0-1.73.04-2.3.08-.6.04-1.44.13-2.16.25-.42.06-.84.12-1.27.15l-.04-.21c-.03-.12-.04-.24-.05-.3-.03-.42.11-.55.26-.59,1.4-.43,1.74-.61,1.67-1.48l-.43-5.89Z"/>
        <path class="cls-1" d="M341.52,584.03l.82,5.7c.13.92.77,1.1,2.33,1.12.23,0,.38.16.43.54.02.12.03.39.03.54-.95.05-2.47.21-4.16.45-1.19.17-2.29.39-3.25.62-.07-.14-.11-.38-.12-.5-.06-.39.05-.55.19-.6,1.34-.5,1.56-.74,1.45-1.51l-2.15-14.88c-.12-.8-.53-1.04-1.92-1.03-.16-.04-.3-.17-.36-.55-.02-.15-.06-.39-.02-.51.93-.04,2.3-.18,3.24-.32l3.74-.54c3.51-.51,5.91,1.21,6.4,4.59.45,3.09-1.22,6.09-4.78,6.6l-1.88.27ZM342.05,582.44c2.03-.29,3.2-1.61,2.78-4.52-.38-2.64-1.42-4.07-3.97-3.7l-.74.11,1.19,8.23.74-.11Z"/>
        <path class="cls-1" d="M354.36,571.85l1.53,7.06,3.45-.75c.61-.13.64-.72.51-2.14-.04-.3.14-.43.38-.48.1-.02.37-.05.48-.04.12.9.37,2.28.54,3.1.15.7.39,1.67.74,2.85-.08.08-.35.17-.45.19-.27.06-.46-.02-.55-.31-.52-1.45-.8-1.82-1.34-1.7l-3.45.75,1.42,6.57c.18.82,1,.86,3.01.42l1.03-.22c1.93-.42,2.33-1.89,2.71-3.9.02-.16.15-.25.3-.28.17-.04.45.06.69.13,0,.31-.02.62-.04.9-.05.47-.03,1.05-.06,1.39.02.82.1,2.13.06,2.41-.04.19-.14.28-.34.32-.49.11-2.16.31-3.01.5l-5.54,1.2c-.95.21-2.28.58-3.24.86-.08-.14-.15-.46-.18-.58-.06-.29-.02-.46.14-.52,1.17-.53,1.63-.87,1.46-1.64l-3.18-14.69c-.17-.79-.58-.89-2.01-.88-.18-.02-.29-.18-.36-.47-.04-.18-.08-.38-.07-.57,1.42-.18,2.5-.39,3.28-.56l5.01-1.08c1.47-.32,2.55-.74,2.94-.82.17-.04.34.02.45.18.17.3.39,1.23.76,2.11.24.62.46,1.16.92,2.01-.13.12-.33.25-.52.3-.17.04-.31,0-.45-.18-1.23-1.88-2-2.51-3.79-2.13l-3.25.7Z"/>
        <path class="cls-1" d="M376.62,569.95c1.81-.58,3.78.47,4.37,2.32.6,1.86-.39,3.86-2.2,4.44-1.83.59-3.77-.47-4.37-2.32s.36-3.85,2.2-4.44Z"/>
        <path class="cls-1" d="M406.58,569.85c.08.18.04.31-.11.38-.14.06-.27,0-.4-.2-.13-.19-.44-.74-.92-1.64-.09-.13-.2-.22-.33-.25-.24-.05-.67.06-1.3.34-.17.07-.32.15-.47.24l1.89,4.31c.17.19.36.27.56.25.2-.02.65-.19,1.34-.49.34-.15.56-.2.65-.15.03.03.06.08.1.15.06.13-.22.33-.83.59-.61.27-2.31,1.03-5.11,2.3-.15.08-.31.17-.49.25-.31.13-.5.11-.57-.06s.11-.35.56-.53c.53-.21.98-.45,1.37-.73.17-.12.24-.26.22-.44-.02-.18-.15-.53-.38-1.07l-1.46-3.34c-.31.12-.67.26-1.07.43l-.94.41c-.21.09-.45.21-.7.34-.23.1-.38.16-.44.19l-2.94,1.19c-.22.08-.36.05-.42-.08-.04-.09.25-2.48.88-7.16.18-1.5.58-4.8,1.21-9.9.03-.21.11-.34.21-.39.15-.07.3.07.46.42l5.64,12.89.23-.1c.51-.22.9-.44,1.16-.64.26-.2.33-.45.2-.74-.5-1.15-.68-1.55-.52-1.18-.27-.67-.33-1.03-.17-1.1.22-.1.45.11.67.62l.54,1.24.87,1.98c.31.67.51,1.09.6,1.26.09.17.16.31.21.42ZM396.61,559.61c-.02.36-.09,1.06-.22,2.1-.18,1.41-.47,3.52-.85,6.34l-.47,3.38c.58-.21,1.8-.73,3.66-1.54.66-.29,1.27-.56,1.85-.81l-.85-1.95c-.4-.92-.92-2.16-1.56-3.74-.76-1.85-1.28-3.11-1.57-3.77Z"/>
        <path class="cls-1" d="M416.19,551.75c3.01-1.71,6.87-.25,9.05,3.58,2.07,3.64,1.36,7.94-1.56,9.6-3.01,1.71-6.86.24-9.04-3.59-2.07-3.64-1.38-7.93,1.55-9.59ZM423.62,557.51c-2.11-3.72-4.83-5.88-7.14-4.56-1.47.83-1.89,3.27-.31,6.05,2.2,3.87,5.04,5.99,7.17,4.78,1.74-.99,1.75-3.71.29-6.27Z"/>
        <path class="cls-1" d="M424.92,548.84c-.3-.47-.57-.52-1.6-.12-.13.03-.25-.05-.37-.24-.07-.11-.16-.25-.2-.38.91-.48,1.59-.89,2.06-1.19l3.1-2c.92-.59,1.55-1.16,1.77-1.3.12-.08.23-.07.35.01.19.17.61.75,1.08,1.28.33.38.64.69,1.16,1.18-.04.11-.15.26-.28.34-.09.06-.21.08-.34-.02-1.34-1.01-2.03-1.26-3.15-.54l-2,1.29,3.08,4.79,2.09-1.34c.33-.21.19-.71-.24-1.61-.09-.21,0-.34.13-.43.06-.04.24-.13.31-.15.33.59.86,1.51,1.2,2.04.29.45.71,1.07,1.27,1.8-.04.08-.17.19-.24.23-.18.12-.32.1-.47-.07-.59-.75-1.02-1.08-1.35-.87l-2.09,1.34,2.73,4.24c.32.49,1.01.24,1.82-.1.15-.07.25,0,.39.21.05.08.18.31.23.42-.29.18-.57.34-.87.51-.54.29-1.17.67-1.76,1.05-.54.35-1.39.97-1.95,1.39-.09-.08-.22-.28-.27-.36-.11-.17-.15-.3-.04-.4.54-.62.88-.99.55-1.5l-6.1-9.48Z"/>
        <path class="cls-1" d="M453.76,543.93c.11.14.02.32-.27.55l-.24.18-.75.58c-.5.39-1,.78-1.52,1.17-.91.7-1.48,1.15-1.73,1.34-.25.19-.45.35-.59.46-.32.24-.53.3-.64.15-.11-.14-.07-.28.11-.43.29-.22.59-.47.91-.74.4-.33.52-.63.38-.88-.14-.25-.51-.76-1.1-1.52l-8.63-11.12c-.39-.5-.64-.79-.74-.87-.1-.07-.23-.05-.39.07-.07.05-.47.43-1.2,1.12-.15.14-.25.23-.3.27-.16.12-.28.13-.37.02-.1-.13-.07-.26.07-.4.55-.56,1-1.26,1.34-2.12s.51-1.69.49-2.49c.03-.25.08-.4.13-.44.1-.08.22-.04.34.12l.35.45c.1.13.21.27.33.43l10.99,14.18c.44.57.72.88.84.94.12.06.32,0,.61-.21l.45-.35.34-.26.3-.23c.18-.14.34-.13.46.02Z"/>
        <path class="cls-1" d="M460.78,524.88c1.19,1.33,2.14,2.73,2.87,4.2.72,1.47,1.12,2.82,1.19,4.05.08,1.32-.35,2.4-1.29,3.25-1.29,1.16-3.04,1.35-5.24.58-2.2-.77-4.36-2.34-6.48-4.71-2.45-2.74-3.79-5.43-4.03-8.07-.14-1.59.3-2.84,1.33-3.76,1.22-1.09,2.78-1.29,4.69-.61,2.36.84,4.68,2.54,6.96,5.08ZM458.04,525.87c-1.99-2.22-3.83-3.87-5.53-4.95-1.3-.83-2.34-.89-3.12-.19-1.57,1.4-.12,4.6,4.35,9.59,4.68,5.23,7.84,7.11,9.5,5.63.77-.69.64-1.94-.38-3.76-.93-1.66-2.53-3.77-4.81-6.32Z"/>
      </g> -->
    </g>
  </g>
</svg>
