<?xml version="1.0" encoding="UTF-8"?>
<svg xmlns="http://www.w3.org/2000/svg" version="1.1" viewBox="106 160 400 400">
  <defs>
    <style>
      .cls-1 {
        fill: #231f20;
      }
    </style>
  </defs>
  <!-- Generator: Adobe Illustrator 28.7.4, SVG Export Plug-In . SVG Version: 1.2.0 Build 166)  -->
  <g>
    <g id="Layer_1">
      <path class="cls-1" d="M304.44,540.55c-102.99,0-186.78-83.79-186.78-186.78s83.79-186.78,186.78-186.78,186.78,83.79,186.78,186.78-83.79,186.78-186.78,186.78ZM304.44,170c-101.34,0-183.78,82.44-183.78,183.78s82.44,183.78,183.78,183.78,183.78-82.44,183.78-183.78-82.44-183.78-183.78-183.78Z"/>
      <!-- <path class="cls-1" d="M304.44,548.19c-107.2,0-194.42-87.22-194.42-194.42s87.22-194.42,194.42-194.42,194.42,87.22,194.42,194.42-87.22,194.42-194.42,194.42ZM304.44,162.36c-105.55,0-191.42,85.87-191.42,191.42s85.87,191.42,191.42,191.42,191.42-85.87,191.42-191.42-85.87-191.42-191.42-191.42Z"/> -->
      <!-- <path class="cls-1" d="M304.44,598.58c-65.39,0-126.86-25.46-173.1-71.7-46.24-46.24-71.7-107.71-71.7-173.1s25.46-126.86,71.7-173.1c46.23-46.23,107.72-71.7,173.1-71.7,0,0,0,0,0,0,65.39,0,126.86,25.46,173.1,71.7s71.7,107.71,71.7,173.1-25.46,126.86-71.7,173.1c-46.24,46.24-107.71,71.7-173.1,71.7ZM304.44,111.97c-133.33,0-241.8,108.47-241.8,241.8s108.47,241.8,241.8,241.8,241.8-108.47,241.8-241.8-108.47-241.8-241.8-241.8Z"/> -->
      <g>
        <polygon class="cls-1" points="244.65 248.86 252.22 272.18 276.75 272.18 256.91 286.6 264.49 309.92 244.65 295.5 224.81 309.92 232.38 286.6 212.54 272.18 237.07 272.18 244.65 248.86"/>
        <polygon class="cls-1" points="363.65 248.86 371.22 272.18 395.75 272.18 375.91 286.6 383.49 309.92 363.65 295.5 343.81 309.92 351.38 286.6 331.54 272.18 356.07 272.18 363.65 248.86"/>
        <polygon class="cls-1" points="216.17 356.46 223.75 379.78 248.27 379.78 228.43 394.19 236.01 417.52 216.17 403.1 196.33 417.52 203.9 394.19 184.06 379.78 208.59 379.78 216.17 356.46"/>
        <polygon class="cls-1" points="392.17 356.46 399.75 379.78 424.27 379.78 404.43 394.19 412.01 417.52 392.17 403.1 372.33 417.52 379.91 394.19 360.07 379.78 384.59 379.78 392.17 356.46"/>
        <polygon class="cls-1" points="304.17 423.73 311.75 447.06 336.27 447.06 316.43 461.47 324.01 484.8 304.17 470.38 284.33 484.8 291.91 461.47 272.07 447.06 296.59 447.06 304.17 423.73"/>
        <polygon class="cls-1" points="304.15 247.21 329.67 325.76 412.27 325.76 345.45 374.31 370.97 452.87 304.15 404.32 237.32 452.87 262.85 374.31 196.02 325.76 278.62 325.76 304.15 247.21"/>
        <rect class="cls-1" x="288.48" y="218.52" width="3.56" height="24.73" transform="translate(-80.37 216.96) rotate(-36.35)"/>
        <rect class="cls-1" x="305.69" y="229.1" width="24.73" height="3.56" transform="translate(-56.42 350.19) rotate(-53.65)"/>
        <rect class="cls-1" x="164.34" y="329.87" width="24.73" height="3.56" transform="translate(-90.81 67.73) rotate(-17.34)"/>
        <rect class="cls-1" x="183.98" y="293.01" width="3.56" height="24.73" transform="translate(-140.64 159.69) rotate(-34.63)"/>
        <polygon class="cls-1" points="239.76 486.05 236.2 486.04 236.26 461.34 239.82 461.32 239.82 461.35 239.76 486.05"/>
        <rect class="cls-1" x="203.3" y="455.38" width="24.73" height="3.56" transform="translate(-125.38 84.07) rotate(-17.18)"/>
        <rect class="cls-1" x="410.3" y="303.9" width="24.73" height="3.56" transform="translate(-69.48 478.55) rotate(-55.23)"/>
        <rect class="cls-1" x="429.88" y="319.61" width="3.56" height="24.73" transform="translate(-14.57 644.1) rotate(-72.53)"/>
        <rect class="cls-1" x="390.56" y="445.05" width="3.56" height="24.73" transform="translate(-161.18 695.7) rotate(-72.67)"/>
        <rect class="cls-1" x="368.17" y="461.51" width="3.56" height="24.73"/>
      </g>
      <!-- <g>
        <path class="cls-1" d="M87.29,284.6l20.86,6.26c1.03.31,1.45.21,2.43-1.89.22-.44.47-.55.86-.43.16.05.54.21.73.31-.66,1.78-1.41,3.99-1.88,5.55-.48,1.6-1.06,3.82-1.47,5.63-.22.02-.63-.05-.79-.1-.36-.11-.61-.27-.51-.89.34-2.15.07-2.55-.96-2.86l-20.86-6.26-1.11,3.71c-.94,3.12-.18,4.5,2.19,6.68.24.21.24.49.17.74-.1.34-.42.84-.61,1.01-1.15-.76-1.98-1.33-2.88-1.78-1.17-.58-2.17-.97-2.52-1.26-.2-.2-.25-.44-.15-.78.19-.63,1.01-2.5,1.78-5.08l3.9-13c.76-2.53,1.1-4.54,1.31-5.22.09-.3.28-.51.56-.57.45-.05,1.49.22,2.8.33,1,.12,1.99.14,3.39.1.04.29.05.84-.05,1.18-.09.3-.23.48-.56.57-3.18.52-4.57,1.25-5.49,4.33l-1.11,3.71Z"/>
        <path class="cls-1" d="M123.2,254.61c.97.46,1.4.42,2.78-1.71.15-.22.49-.26.83-.1.15.07.5.29.67.42-.88,1.68-1.97,3.7-2.67,5.17-.71,1.51-1.6,3.68-2.33,5.43-.22,0-.6-.19-.75-.26-.34-.16-.54-.4-.45-.7.75-2.37.53-2.77-.44-3.23l-8.8-4.16-5.08,10.76,8.8,4.16c.97.46,1.4.42,2.78-1.71.15-.22.49-.26.83-.1.15.07.5.29.67.42-.88,1.68-2.01,3.78-2.71,5.25s-1.56,3.6-2.3,5.35c-.22,0-.6-.19-.75-.26-.34-.16-.54-.4-.45-.7.75-2.37.53-2.77-.44-3.23l-18.76-8.86c-.97-.46-1.42-.38-2.78,1.71-.21.24-.53.24-.83.1-.15-.07-.52-.25-.71-.43.92-1.66,1.97-3.7,2.67-5.17.7-1.47,1.64-3.66,2.33-5.43.24.07.64.2.79.27.3.14.49.42.45.7-.77,2.41-.53,2.77.44,3.23l7.98,3.77,5.08-10.76-7.98-3.77c-.97-.46-1.42-.38-2.78,1.71-.21.24-.53.24-.82.1-.15-.07-.52-.25-.71-.43.92-1.66,1.99-3.74,2.71-5.25.7-1.47,1.6-3.58,2.3-5.35.24.07.64.2.79.27.3.14.49.42.45.7-.77,2.41-.53,2.77.44,3.23l18.76,8.86Z"/>
        <path class="cls-1" d="M113.08,229.61l8.33,5.5,3.42-5.18c.61-.92.1-1.57-1.36-2.9-.32-.26-.23-.63.01-1,.1-.15.4-.53.53-.65.96.79,2.54,1.94,3.51,2.58.83.55,1.99,1.26,3.51,2.05-.03.19-.26.62-.36.77-.27.4-.58.57-.95.38-1.96-.87-2.63-.9-3.17-.09l-3.42,5.18,7.74,5.11c.97.64,1.99-.38,3.98-3.39l1.02-1.54c1.92-2.9,1.04-4.96-.36-7.57-.12-.19-.05-.45.1-.67.17-.26.59-.51.94-.75.27.34.55.68.78.99.37.56.93,1.14,1.21,1.54.79.84,2.08,2.11,2.29,2.47.13.25.08.48-.11.77-.49.74-2.29,3.08-3.13,4.37l-5.51,8.34c-.95,1.43-2.18,3.52-3.08,5.04-.22-.04-.6-.29-.74-.38-.35-.23-.45-.45-.31-.73.9-2.04,1.14-3,.24-3.59l-17.32-11.44c-.93-.62-1.5-.2-3.21,1.63-.24.21-.52.19-.87-.04-.21-.14-.45-.3-.61-.51,1.52-2,2.62-3.6,3.4-4.77l4.98-7.54c1.46-2.21,2.37-4.03,2.75-4.62.17-.26.42-.41.7-.38.48.1,1.61.8,2.85,1.25.86.36,1.61.64,2.95.95-.04.29-.16.69-.35.98-.17.26-.36.4-.7.38-3.2-.42-4.7-.1-6.47,2.59l-3.23,4.89Z"/>
        <path class="cls-1" d="M136.96,198.73l7.27,6.84,4.26-4.52c.75-.8.36-1.53-.84-3.09-.27-.32-.12-.66.18-.98.12-.13.48-.45.63-.55.81.95,2.17,2.34,3.02,3.14.72.68,1.75,1.58,3.11,2.62-.06.19-.36.57-.48.69-.33.35-.66.46-1,.21-1.78-1.19-2.44-1.33-3.11-.62l-4.25,4.52,6.76,6.35c.84.79,2.02-.03,4.5-2.67l1.27-1.35c2.38-2.54,1.87-4.71.94-7.52-.09-.21.03-.46.21-.65.21-.22.66-.4,1.06-.58.21.38.42.76.6,1.11.27.62.72,1.29.94,1.73.63.96,1.69,2.43,1.84,2.82.09.27,0,.48-.24.74-.6.64-2.78,2.65-3.83,3.77l-6.85,7.28c-1.18,1.25-2.75,3.1-3.89,4.44-.21-.08-.54-.39-.66-.5-.3-.28-.36-.52-.18-.77,1.24-1.86,1.63-2.76.85-3.5l-15.11-14.21c-.82-.77-1.45-.45-3.44,1.06-.27.17-.54.09-.84-.19-.18-.17-.39-.37-.51-.6,1.84-1.72,3.2-3.1,4.17-4.13l6.19-6.58c1.81-1.93,3.02-3.57,3.5-4.08.21-.22.48-.33.75-.26.45.18,1.45,1.06,2.59,1.71.78.5,1.48.91,2.75,1.43-.09.28-.27.65-.51.91-.21.22-.42.33-.75.26-3.08-.96-4.62-.89-6.82,1.45l-4.01,4.27Z"/>
        <path class="cls-1" d="M178.87,182.08l-9.2-11.47c-.75-.94-1.63-.76-3.5.42-.36.18-.71.04-.94-.26-.1-.13-.31-.39-.4-.64,1.24-.78,2.29-1.58,3.74-2.73s2.41-1.99,3.34-2.95c.19.17.43.4.54.53.31.39.29.72.08.94-1.36,1.41-1.54,2.09-.84,2.96l15.17,18.9c-.15.17-.7.67-.84.78-.31.25-.79.42-1.57.3l-26.5-5.29,11.2,13.96c.67.84,1.03.93,3.25-.32.23-.13.54-.17.91.28.1.13.28.42.37.6-1.19.85-2.16,1.47-3.5,2.54-1.31,1.05-2.53,2.13-3.44,3.03-.2-.11-.41-.36-.51-.49-.34-.42-.26-.75-.08-.94,1.44-1.58,1.59-2.24.95-3.04l-13.12-16.35c-.54-.68-1.1-.81-2.98.37-.29.13-.59.1-.9-.28-.05-.06-.16-.19-.23-.35l-.17-.29c.64-.46,1.29-.93,1.9-1.36,1.02-.77,2.18-1.65,2.83-2.17,1.34-1.08,1.62-1.14,2.17-1.1l22.3,4.41Z"/>
        <path class="cls-1" d="M192,154.9l11.01,18.8c.54.93.92,1.14,3.07.27.46-.17.72-.08.93.27.08.14.25.52.32.72-1.7.85-3.75,1.96-5.16,2.78-1.44.85-3.38,2.08-4.91,3.12-.18-.13-.43-.47-.51-.61-.19-.32-.26-.62.23-1,1.72-1.34,1.79-1.82,1.25-2.75l-11.01-18.8-3.35,1.96c-2.81,1.65-3.2,3.17-2.95,6.38.03.32-.15.52-.38.66-.3.18-.88.32-1.14.33-.33-1.34-.54-2.32-.89-3.27-.46-1.22-.93-2.19-.98-2.64-.01-.28.12-.5.42-.68.57-.33,2.45-1.14,4.76-2.5l11.71-6.86c2.28-1.34,3.91-2.57,4.51-2.93.27-.16.56-.18.8-.03.36.27.94,1.17,1.82,2.15.66.77,1.36,1.46,2.42,2.38-.17.24-.54.65-.84.83-.27.16-.5.2-.8.03-2.68-1.79-4.2-2.2-6.97-.57l-3.35,1.96Z"/>
        <path class="cls-1" d="M214.57,143.67l3.84,9.21,5.73-2.39c1.02-.42.96-1.25.49-3.17-.12-.4.16-.65.57-.82.16-.07.63-.22.8-.25.36,1.2,1.02,3.03,1.47,4.1.38.92.95,2.16,1.77,3.66-.13.14-.56.37-.72.44-.45.19-.8.15-1-.21-1.14-1.81-1.69-2.21-2.58-1.84l-5.73,2.39,3.57,8.56c.45,1.07,1.86.79,5.19-.6l1.71-.71c3.21-1.34,3.63-3.54,3.93-6.49,0-.23.21-.4.46-.5.29-.12.77-.1,1.2-.1.04.43.07.87.1,1.26,0,.67.14,1.47.15,1.96.19,1.13.55,2.91.53,3.32-.03.28-.2.44-.52.58-.81.34-3.62,1.28-5.04,1.88l-9.23,3.85c-1.59.66-3.77,1.71-5.37,2.46-.16-.16-.34-.58-.4-.73-.16-.38-.12-.62.15-.78,1.89-1.19,2.62-1.85,2.2-2.85l-7.99-19.15c-.43-1.03-1.14-1.01-3.57-.44-.32.04-.53-.14-.69-.52-.1-.23-.21-.5-.22-.76,2.38-.81,4.19-1.52,5.49-2.07l8.34-3.48c2.44-1.02,4.21-2.03,4.87-2.3.29-.12.58-.11.79.07.34.35.89,1.56,1.67,2.62.51.77.98,1.43,1.92,2.43-.2.22-.51.48-.84.62-.29.12-.52.13-.79-.07-2.42-2.13-3.85-2.7-6.82-1.46l-5.41,2.26Z"/>
        <path class="cls-1" d="M247.16,145.79l-1.83.48,2.21,8.37c.33,1.24,1.44,1.33,4.17.96.39-.06.67.12.81.64.04.16.09.53.11.74-1.65.31-4.27.91-7.17,1.68-2.04.54-3.94,1.12-5.57,1.68-.14-.18-.22-.5-.26-.66-.14-.52.02-.78.27-.88,2.28-1.03,2.63-1.42,2.36-2.46l-5.29-20.06c-.29-1.08-1.03-1.31-3.44-.94-.28-.01-.54-.16-.68-.68-.05-.2-.14-.52-.09-.7,1.61-.3,3.97-.83,5.59-1.26l6.43-1.7c6.05-1.59,10.44.37,11.57,4.66.74,2.8-.56,5.84-3.49,7.86l9.11,7.41c1.39,1.13,2.94,1.11,4.16,1.09.27-.03.52.08.65.56.05.2.14.52.12.78-1.3.26-4.87,1.07-6.49,1.5-1.19.31-2.7-.4-4.21-1.63l-9.02-7.43ZM246.08,143.94c3.49-.92,5.5-2.65,4.46-6.57-.87-3.28-2.91-4.97-7.21-3.84l-1.28.34,2.75,10.41,1.28-.34Z"/>
        <path class="cls-1" d="M277.95,126.75l2.78,21.61c.14,1.07.4,1.41,2.72,1.45.49.02.69.2.75.61.02.16.03.58.01.79-1.9.12-4.22.33-5.84.54-1.66.21-3.92.59-5.74.95-.11-.19-.21-.6-.23-.76-.05-.37,0-.67.6-.83,2.1-.56,2.36-.97,2.22-2.04l-2.78-21.61-3.85.49c-3.23.42-4.18,1.67-5.21,4.72-.09.3-.35.42-.61.45-.35.04-.94-.05-1.17-.14.22-1.36.41-2.35.46-3.36.05-1.3,0-2.38.13-2.81.1-.26.3-.41.65-.46.66-.08,2.7-.1,5.36-.44l13.46-1.73c2.62-.34,4.6-.84,5.3-.93.31-.04.58.05.75.28.23.39.41,1.45.83,2.69.3.96.69,1.87,1.29,3.13-.25.16-.75.39-1.1.43-.31.04-.54-.01-.75-.28-1.77-2.7-3-3.66-6.19-3.25l-3.85.49Z"/>
        <path class="cls-1" d="M305.51,140.94l-9.25.15-2.2,5.79c-.17.29-.21.67-.21.83,0,.58.5.99,2.36,1.2.35.04.62.24.63.78,0,.17-.04.5-.08.71-1.59-.1-3.44-.15-5.11-.12-1.19.02-2.42.08-4.01.27-.09-.21-.1-.54-.1-.7,0-.5.12-.79.56-.84,1.8-.36,2.46-.66,2.88-1.58l10.23-24.03c.26-.5.65-.71,1.05-.72.26,0,.57.03.93.07l11.02,24.43c.37.82,1.47,1.18,2.67,1.32.44.08.67.28.67.82,0,.17-.04.54-.08.75-1.85-.09-3.75-.15-5.33-.12-1.63.03-4.98.21-6.65.31-.09-.21-.1-.54-.1-.7,0-.5.25-.75.47-.79,1.49-.27,2.24-.62,2.23-1.32,0-.17-.05-.37-.14-.62l-2.43-5.88ZM304.64,138.88l-3.9-9.26-3.68,9.38,7.58-.12Z"/>
        <path class="cls-1" d="M327.67,148.3c-.11,1.07.08,1.46,2.54,2.04.26.07.41.37.37.74-.02.16-.1.57-.17.77-1.88-.27-4.19-.62-5.81-.78-1.67-.16-4-.27-5.85-.37-.07-.21-.03-.63-.01-.79.04-.37.2-.65.51-.66,2.49-.09,2.79-.43,2.89-1.5l2.04-20.65c.11-1.07-.12-1.47-2.54-2.04-.3-.11-.4-.41-.37-.74.02-.17.06-.58.17-.82,1.83.31,4.14.62,5.81.78,1.62.16,3.95.31,5.85.37.02.25.02.67,0,.83-.03.33-.24.6-.51.66-2.53.08-2.79.43-2.89,1.5l-2.04,20.65Z"/>
        <path class="cls-1" d="M357.81,147.66l3.1-14.37c.25-1.17-.44-1.75-2.54-2.45-.37-.16-.47-.53-.39-.89.04-.16.1-.49.24-.71,1.39.47,2.67.79,4.48,1.18,1.81.39,3.07.62,4.39.73,0,.25-.04.59-.07.75-.1.49-.37.68-.68.66-1.95-.17-2.59.12-2.83,1.21l-5.11,23.68c-.22,0-.96-.12-1.14-.16-.39-.08-.83-.35-1.22-1.03l-12.61-23.9-3.77,17.49c-.23,1.05-.07,1.38,2.3,2.32.25.1.47.31.35.88-.04.16-.15.48-.23.67-1.4-.39-2.5-.75-4.18-1.11-1.64-.35-3.25-.61-4.52-.76-.04-.22.03-.54.06-.71.11-.53.42-.67.68-.66,2.14.12,2.74-.17,2.96-1.18l4.42-20.48c.18-.85-.07-1.37-2.17-2.08-.28-.15-.46-.39-.35-.88.02-.08.05-.24.13-.4l.11-.31c.77.21,1.53.42,2.26.61,1.24.31,2.65.66,3.47.83,1.68.36,1.91.54,2.22.99l10.63,20.08Z"/>
        <path class="cls-1" d="M380.95,138.42l-3.46,9.36,5.83,2.15c1.03.38,1.55-.26,2.52-1.98.18-.37.56-.37.97-.21.17.06.61.27.76.37-.55,1.12-1.31,2.92-1.71,4-.34.93-.78,2.23-1.2,3.88-.19.02-.66-.11-.83-.17-.46-.17-.69-.43-.58-.83.4-2.1.27-2.77-.64-3.11l-5.83-2.15-3.22,8.7c-.4,1.09.82,1.85,4.21,3.1l1.74.64c3.26,1.21,5.07-.11,7.29-2.07.16-.16.43-.15.68-.06.29.11.63.45.95.75-.27.34-.54.69-.79.99-.46.49-.9,1.17-1.22,1.53-.64.96-1.58,2.51-1.88,2.79-.21.19-.45.19-.78.07-.83-.31-3.52-1.52-4.97-2.06l-9.38-3.47c-1.61-.6-3.93-1.32-5.61-1.85-.01-.23.15-.65.2-.81.14-.39.34-.54.64-.47,2.2.41,3.18.42,3.55-.59l7.19-19.46c.39-1.05-.15-1.51-2.32-2.76-.26-.18-.3-.46-.15-.85.09-.23.19-.51.36-.71,2.3,1.03,4.1,1.74,5.42,2.23l8.47,3.13c2.48.92,4.47,1.39,5.13,1.63.29.11.49.32.53.59,0,.49-.41,1.75-.57,3.06-.15.92-.26,1.71-.25,3.09-.29.02-.71,0-1.04-.12-.29-.11-.47-.26-.53-.59-.32-3.21-.98-4.6-3.99-5.72l-5.5-2.03Z"/>
        <path class="cls-1" d="M403.39,162.18l-1.67-.89-4.09,7.63c-.61,1.13.15,1.96,2.4,3.54.33.22.41.55.15,1.02-.08.15-.29.45-.43.62-1.42-.9-3.75-2.24-6.39-3.65-1.86-1-3.65-1.86-5.23-2.56.02-.22.18-.52.25-.66.25-.47.55-.55.8-.46,2.37.8,2.9.75,3.41-.2l9.79-18.29c.53-.99.14-1.66-1.88-3.02-.19-.2-.29-.48-.04-.96.1-.18.25-.47.41-.58,1.38.88,3.48,2.09,4.95,2.88l5.87,3.14c5.52,2.95,7.39,7.38,5.3,11.29-1.37,2.56-4.39,3.9-7.91,3.38l1.62,11.62c.25,1.78,1.39,2.81,2.31,3.63.21.16.33.41.09.85-.1.18-.25.48-.45.65-1.13-.7-4.29-2.53-5.77-3.32-1.09-.58-1.71-2.13-1.97-4.06l-1.55-11.58ZM403.87,160.08c3.19,1.7,5.83,1.8,7.75-1.77,1.6-2.99,1.26-5.62-2.66-7.72l-1.17-.62-5.08,9.49,1.17.62Z"/>
        <path class="cls-1" d="M440.06,190.05l-7.19-5.82-5.4,3.03c-.32.11-.59.38-.69.5-.36.45-.25,1.08,1.03,2.44.25.25.32.58-.02,1-.1.13-.35.36-.51.49-1.15-1.09-2.54-2.32-3.84-3.38-.92-.75-1.91-1.49-3.25-2.36.06-.22.27-.47.38-.6.31-.39.6-.53.97-.28,1.61.88,2.31,1.07,3.22.64l23.26-11.85c.52-.22.96-.13,1.26.12.21.17.42.39.67.65l-7.23,25.8c-.25.87.38,1.85,1.2,2.73.29.34.33.64,0,1.06-.1.13-.37.39-.54.52-1.36-1.26-2.78-2.52-4.01-3.52-1.27-1.03-3.95-3.04-5.3-4.03.06-.22.27-.47.38-.6.31-.39.67-.41.87-.31,1.32.75,2.11.96,2.55.42.1-.13.2-.32.29-.57l1.91-6.07ZM440.71,187.92l2.95-9.6-8.84,4.83,5.89,4.77Z"/>
        <path class="cls-1" d="M460.51,205.32l-1.29-1.39-6.36,5.87c-.94.87-.5,1.9,1.11,4.13.24.32.21.65-.19,1.02-.12.11-.42.33-.61.44-1.04-1.31-2.81-3.34-4.84-5.55-1.43-1.55-2.84-2.95-4.1-4.13.09-.21.34-.43.46-.54.4-.37.7-.34.91-.18,1.98,1.53,2.49,1.66,3.28.93l15.24-14.07c.82-.76.68-1.52-.78-3.47-.12-.25-.12-.55.28-.92.15-.14.4-.37.58-.41,1.01,1.28,2.6,3.12,3.73,4.35l4.51,4.89c4.25,4.6,4.56,9.4,1.31,12.4-2.13,1.97-5.42,2.25-8.58.6l-2.27,11.51c-.35,1.76.39,3.11.99,4.18.15.22.18.5-.19.83-.15.14-.4.37-.64.47-.84-1.03-3.23-3.8-4.36-5.03-.84-.91-.91-2.58-.53-4.48l2.33-11.45ZM461.65,203.5c2.45,2.65,4.92,3.62,7.9.86,2.5-2.3,3.03-4.9.01-8.17l-.9-.97-7.91,7.3.9.97Z"/>
        <path class="cls-1" d="M491.78,223.58l-17.77,12.6c-.88.62-1.05,1.02,0,3.08.21.44.15.71-.19.95-.13.1-.5.3-.69.38-1-1.62-2.28-3.57-3.22-4.9-.97-1.37-2.36-3.19-3.53-4.62.12-.19.43-.47.57-.56.3-.22.59-.31,1.02.14,1.49,1.59,1.97,1.63,2.85,1.01l17.77-12.6-2.24-3.16c-1.89-2.66-3.43-2.91-6.62-2.38-.31.06-.53-.11-.69-.32-.2-.29-.4-.85-.43-1.1,1.31-.44,2.27-.74,3.18-1.17,1.17-.56,2.1-1.11,2.54-1.21.28-.04.51.07.71.36.38.54,1.35,2.34,2.91,4.53l7.85,11.07c1.53,2.16,2.9,3.67,3.31,4.24.18.25.23.54.1.79-.24.38-1.09,1.04-1.98,2-.71.72-1.33,1.49-2.16,2.61-.25-.14-.7-.48-.9-.77-.18-.25-.24-.48-.1-.79,1.55-2.83,1.82-4.37-.04-7l-2.24-3.16Z"/>
        <path class="cls-1" d="M485.49,254.91c-.94.53-1.16.9-.22,3.25.09.25-.07.55-.4.73-.14.08-.53.24-.73.31-.85-1.69-1.88-3.79-2.68-5.22-.82-1.46-2.07-3.44-3.04-5.01.14-.18.5-.38.64-.46.33-.18.64-.21.83.04,1.49,1.99,1.95,2.04,2.89,1.51l18.11-10.13c.94-.53,1.14-.94.22-3.25-.08-.31.11-.57.4-.73.14-.08.51-.28.77-.33.79,1.68,1.86,3.75,2.68,5.22.79,1.42,2.01,3.42,3.04,5.01-.2.16-.54.4-.68.48-.29.16-.63.15-.83-.04-1.51-2.03-1.95-2.04-2.89-1.51l-18.11,10.13Z"/>
        <path class="cls-1" d="M511.48,270.02c-.32-.73-.1-1.16.14-1.41,2.34-2.48,2.7-4.85,1.25-8.12-1.14-2.58-3.26-4.1-5.65-3.04-5.57,2.46,2.55,15.49-6.27,19.39-3.86,1.71-8.71.58-11.56-5.87-1.55-3.5-1.96-6.79-1.89-8.99,2.09-1.12,4.05-2.42,5.82-3.73.17.17.44.58.56.86.29.64.22,1.01-.26,1.46-3.22,3.16-4.01,5.68-2.28,9.58,1.46,3.3,3.94,3.89,5.99,2.99,6.48-2.87-2.42-14.78,6.63-18.78,4.01-1.78,8.62.04,11.03,5.48.98,2.22,1.54,4.62,1.75,7.94-1.48.75-3.44,1.95-4.81,2.95-.18-.21-.36-.51-.45-.72Z"/>
        <path class="cls-1" d="M523.21,289.96l-20.87,6.26c-1.03.31-1.33.63-.98,2.92.06.49-.09.72-.48.84-.16.05-.57.12-.78.14-.42-1.85-1.02-4.11-1.49-5.67-.48-1.6-1.22-3.77-1.87-5.51.17-.14.56-.31.72-.35.36-.11.66-.11.92.46.9,1.98,1.34,2.17,2.38,1.86l20.87-6.26-1.12-3.71c-.94-3.12-2.32-3.86-5.51-4.37-.32-.04-.47-.27-.55-.53-.1-.34-.11-.93-.05-1.18,1.38,0,2.38.02,3.39-.1,1.29-.16,2.35-.38,2.8-.33.28.06.46.23.56.57.19.63.54,2.65,1.31,5.22l3.9,13c.76,2.53,1.58,4.4,1.78,5.08.09.3.05.58-.15.78-.35.29-1.37.64-2.52,1.26-.9.45-1.74.98-2.88,1.78-.2-.22-.51-.68-.61-1.01-.09-.3-.07-.53.15-.78,2.37-2.18,3.13-3.56,2.2-6.64l-1.11-3.71Z"/>
      </g>
      <g>
        <path class="cls-1" d="M175.49,514.23c.4-.21.64-.33,1.65.52.47.4,1.95,1.56,2.76,2.11-.09.2-.27.41-.36.52-.23.27-.45.4-.66.31-1.31-.75-1.62-.64-2.12-.05-.2.24-10.09,12.91-10.89,13.98-.57.71-.58,1.12.33,2.25.13.15.08.39-.19.71-.09.11-.29.3-.43.42-.96-.9-1.6-1.58-2.62-2.45-.94-.8-2.2-1.73-2.96-2.27.09-.15.25-.38.34-.49.32-.37.56-.4.64-.33,1.4.73,1.82.67,2.43-.05.25-.29,8.18-10.4,8.75-11.2l-15.17,9.03c-.4.21-.62.3-.79.15-.06-.05-.19-.16-.23-.24l7.62-19.05c-1.26,1.36-10.83,11.88-11.1,12.2-.57.67-.62.99.33,2.25.13.15.1.36-.2.71-.09.11-.27.28-.43.42-.7-.73-1.3-1.33-1.94-1.87-.56-.47-1.61-1.22-2.33-1.75.07-.17.25-.38.34-.49.32-.37.51-.39.66-.31,1.08.5,1.69.56,2.28-.04.79-.84,11.77-12.86,11.96-13.08.5-.59.46-.98-.4-2.08-.15-.17-.05-.41.19-.71.09-.11.27-.32.45-.44.68.71,2.73,2.54,3.26,2.99,1,.85.95,1.13.79,1.54l-6.18,15.36,14.21-8.55Z"/>
        <path class="cls-1" d="M177.57,533.03l1.92-9.73c.17-.9-.1-1.39-.74-2.01-.15-.14-.11-.37.1-.66.03-.05.1-.15.19-.23l.14-.16c.54.49,1.52,1.24,2.62,2,.78.54,2.29,1.52,2.94,1.86-.16.32-.23.42-.27.47-.22.32-.41.37-.57.3-.79-.4-1.13-.38-1.34-.09-.09.12-.16.32-.22.62l-1.57,7.38,6.06-3.68c.4-.23.65-.46.77-.63.27-.39.11-.73-.53-1.39-.15-.14-.16-.33.06-.65.03-.05.17-.21.37-.4.52.47,1.47,1.21,2.13,1.66.64.44,1.37.92,2.14,1.3-.11.25-.23.42-.27.47-.19.27-.39.39-.57.3-1.09-.54-1.51-.5-2.17-.12l-8.59,5.14-3.4,4.9c-.5.71-.37,1.1.69,2.12.11.11.16.29-.08.64-.03.05-.12.13-.19.23l-.14.16c-.43-.3-.8-.59-1.16-.88-.62-.5-1.37-1.06-1.84-1.38-.49-.34-1.21-.8-1.84-1.17-.37-.22-.73-.44-1.08-.68l.1-.19c.05-.11.12-.21.15-.26.24-.34.43-.36.57-.3,1.36.54,1.73.62,2.23-.1l3.37-4.85Z"/>
        <path class="cls-1" d="M201.94,548.55l-5.18-2.78-3.58,3.6c-.21.16-.39.43-.46.55-.23.43-.12.89.81,1.63.18.14.25.37.03.77-.07.12-.22.36-.33.5-.84-.57-1.84-1.19-2.78-1.69-.67-.36-1.37-.7-2.33-1.05.03-.18.17-.43.23-.55.2-.37.39-.55.65-.44,1.14.3,1.63.28,2.24-.27l15.48-14.57c.35-.29.65-.33.87-.21.15.08.3.2.49.34l-3.89,21.51c-.13.72.33,1.33.93,1.81.21.19.25.41.04.82-.07.12-.24.39-.35.53-.99-.65-2.01-1.28-2.9-1.76-.91-.49-2.84-1.4-3.81-1.85.03-.18.17-.43.23-.55.2-.37.45-.48.59-.44.94.27,1.49.24,1.77-.28.07-.12.12-.29.17-.5l1.06-5.11ZM202.3,546.76l1.63-8.06-5.87,5.79,4.24,2.28Z"/>
        <path class="cls-1" d="M216.31,554.35l-.99-.43-2.48,5.76c-.37.85.08,1.34,1.41,2.17.2.12.24.33.08.69-.05.11-.18.35-.26.48-.84-.46-2.21-1.12-3.78-1.79-1.1-.47-2.16-.86-3.09-1.17.01-.16.11-.38.16-.49.15-.36.33-.45.48-.42,1.4.28,1.72.18,2.03-.53l5.94-13.81c.32-.74.09-1.17-1.1-1.88-.11-.11-.17-.3-.02-.66.06-.14.15-.36.25-.45.81.45,2.05,1.05,2.93,1.42l3.47,1.49c3.26,1.4,4.35,4.26,3.08,7.21-.83,1.93-2.63,3.21-4.72,3.26l.89,7.86c.14,1.2.81,1.79,1.35,2.25.13.09.19.25.05.58-.06.14-.15.36-.27.5-.67-.35-2.54-1.26-3.41-1.63-.64-.28-1-1.28-1.15-2.58l-.84-7.84ZM216.61,552.85c1.88.81,3.46.57,4.62-2.13.97-2.26.79-4.04-1.53-5.04l-.69-.3-3.08,7.17.69.3Z"/>
        <path class="cls-1" d="M236.9,552.37l-5.18,14.91c-.26.74-.23,1.03.92,1.68.24.15.29.32.19.61-.04.11-.16.39-.23.52-.99-.44-2.22-.93-3.09-1.23-.9-.31-2.15-.68-3.17-.94,0-.16.08-.45.12-.56.09-.25.21-.44.56-.38,1.23.2,1.48,0,1.74-.73l5.18-14.9-2.08-.72c-1.75-.61-2.6-.05-4.05,1.67-.14.17-.3.18-.44.13-.19-.07-.46-.29-.54-.41.53-.83.92-1.43,1.25-2.07.42-.84.73-1.56.92-1.81.13-.15.28-.19.47-.12.35.12,1.38.67,2.82,1.17l7.28,2.52c1.42.49,2.56.7,2.94.83.17.06.28.19.29.39,0,.32-.24,1.06-.4,1.99-.14.71-.23,1.41-.31,2.4-.17.04-.49.05-.68-.01-.17-.06-.26-.15-.29-.39-.07-2.25-.39-3.22-2.12-3.81l-2.08-.72Z"/>
        <path class="cls-1" d="M246.33,571.68c-.21.75-.16,1.05,1.16,1.65.14.07.18.3.11.56-.03.12-.13.4-.2.54-1.02-.34-2.28-.78-3.17-1.02-.92-.25-2.22-.51-3.25-.73,0-.16.07-.45.1-.56.07-.26.2-.44.38-.43,1.41.14,1.63-.08,1.83-.84l3.95-14.5c.21-.75.13-1.05-1.16-1.65-.15-.1-.17-.33-.11-.56.03-.12.11-.41.21-.57.99.36,2.25.77,3.17,1.02.89.24,2.19.53,3.25.73-.02.18-.08.48-.11.59-.06.23-.21.41-.38.43-1.44-.14-1.63.08-1.83.84l-3.95,14.5Z"/>
        <path class="cls-1" d="M264.94,563.29c-.44-.09-.56-.39-.58-.64-.27-2.39-1.2-3.53-3.19-3.95-1.57-.33-3.01.35-3.4,2.2-.9,4.32,7.86,4.55,6.43,11.4-.62,3-2.88,5.47-6.79,4.65-2.13-.44-3.75-1.49-4.71-2.39.25-1.7.38-3.39.42-4.97.13-.03.42-.04.59,0,.39.08.53.26.56.73.26,3.18,1.1,4.64,3.47,5.14,2.01.42,3.16-.84,3.5-2.43,1.05-5.02-7.49-4.35-6.03-11.38.65-3.11,3.12-5.17,6.43-4.48,1.35.28,2.62.88,4.19,2.07-.2,1.19-.36,2.84-.41,4.05-.16.03-.36.02-.48,0Z"/>
        <path class="cls-1" d="M278.76,561.88l-2.02,15.65c-.1.77-.01,1.06,1.25,1.46.26.09.34.26.31.55-.02.12-.08.41-.12.56-1.05-.23-2.36-.46-3.28-.57-.94-.12-2.24-.23-3.29-.27-.03-.16-.02-.46,0-.58.04-.27.11-.47.47-.48,1.24-.05,1.45-.3,1.55-1.07l2.02-15.65-2.18-.28c-1.83-.24-2.56.49-3.62,2.47-.1.2-.26.24-.41.22-.2-.03-.5-.19-.62-.29.35-.92.61-1.58.8-2.29.24-.91.39-1.67.53-1.96.1-.17.23-.24.43-.22.37.05,1.49.37,3,.57l7.64.99c1.49.19,2.65.16,3.05.21.17.02.31.13.36.32.06.31-.01,1.09.01,2.03,0,.73.07,1.43.19,2.42-.16.07-.47.15-.67.12-.17-.02-.29-.1-.36-.32-.52-2.19-1.04-3.07-2.85-3.3l-2.18-.28Z"/>
        <path class="cls-1" d="M304.93,560.46l-.3,18.4c-.01.91.12,1.23,1.57,1.53.31.07.42.25.41.6,0,.14-.04.49-.07.66-1.2-.12-2.68-.22-3.72-.24-1.06-.02-2.52.03-3.7.11-.05-.18-.08-.53-.07-.67,0-.31.07-.56.46-.62,1.38-.22,1.58-.53,1.59-1.44l.3-18.4-2.46-.04c-2.07-.03-2.79.9-3.72,3.33-.09.24-.26.31-.42.31-.22,0-.59-.15-.72-.26.27-1.12.48-1.92.6-2.75.16-1.08.23-1.99.35-2.34.09-.21.23-.31.45-.31.42,0,1.7.24,3.41.27l8.62.14c1.68.03,2.97-.16,3.42-.15.2,0,.36.11.44.32.11.35.12,1.26.27,2.35.1.84.25,1.65.51,2.77-.17.1-.51.24-.73.23-.2,0-.33-.08-.44-.32-.86-2.46-1.54-3.42-3.58-3.45l-2.46-.04Z"/>
        <path class="cls-1" d="M318.96,572.74l-4.63-8.78c-.43-.81-.95-1.01-1.83-1.1-.2-.01-.32-.22-.34-.58,0-.06-.01-.18,0-.3v-.21c.74.04,1.96,0,3.31-.09.95-.07,2.74-.26,3.46-.4.08.36.08.48.09.54.03.39-.09.55-.26.59-.86.18-1.12.41-1.1.77.01.15.08.36.22.62l3.42,6.73,2.4-6.67c.17-.43.22-.77.2-.98-.04-.48-.37-.63-1.28-.75-.2-.01-.34-.16-.37-.54,0-.06,0-.27.04-.54.71.04,1.91.01,2.7-.05.77-.06,1.64-.15,2.48-.33.07.27.08.47.09.53.02.33-.06.55-.26.59-1.18.27-1.49.56-1.76,1.27l-3.45,9.4.43,5.96c.06.87.41,1.08,1.87,1.22.15.02.31.13.34.55,0,.06-.01.18,0,.3v.21c-.53.04-1.01.04-1.46.05-.8,0-1.73.04-2.3.08-.6.04-1.44.13-2.16.25-.42.06-.84.12-1.27.15l-.04-.21c-.03-.12-.04-.24-.05-.3-.03-.42.11-.55.26-.59,1.4-.43,1.74-.61,1.67-1.48l-.43-5.89Z"/>
        <path class="cls-1" d="M335.03,571.13l.82,5.7c.13.92.77,1.1,2.33,1.12.23,0,.38.16.43.54.02.12.03.39.03.54-.95.05-2.47.21-4.16.45-1.19.17-2.29.39-3.25.62-.07-.14-.11-.38-.12-.5-.06-.39.05-.55.19-.6,1.34-.5,1.56-.74,1.45-1.51l-2.15-14.88c-.12-.8-.53-1.04-1.92-1.03-.16-.04-.3-.17-.36-.55-.02-.15-.06-.39-.02-.51.93-.04,2.3-.18,3.24-.32l3.74-.54c3.51-.51,5.91,1.21,6.4,4.59.45,3.09-1.22,6.09-4.78,6.6l-1.88.27ZM335.56,569.54c2.03-.29,3.2-1.61,2.78-4.52-.38-2.64-1.42-4.07-3.97-3.7l-.74.11,1.19,8.23.74-.11Z"/>
        <path class="cls-1" d="M347.86,558.96l1.53,7.06,3.45-.75c.61-.13.64-.72.51-2.14-.04-.3.14-.43.38-.48.1-.02.37-.05.48-.04.12.9.37,2.28.54,3.1.15.7.39,1.67.74,2.85-.08.08-.35.17-.45.19-.27.06-.46-.02-.55-.31-.52-1.45-.8-1.82-1.34-1.7l-3.45.75,1.42,6.57c.18.82,1,.86,3.01.42l1.03-.22c1.93-.42,2.33-1.89,2.71-3.9.02-.16.15-.25.3-.28.17-.04.45.06.69.13,0,.31-.02.62-.04.9-.05.47-.03,1.05-.06,1.39.02.82.1,2.13.06,2.41-.04.19-.14.28-.34.32-.49.11-2.16.31-3.01.5l-5.54,1.2c-.95.21-2.28.58-3.24.86-.08-.14-.15-.46-.18-.58-.06-.29-.02-.46.14-.52,1.17-.53,1.63-.87,1.46-1.64l-3.18-14.69c-.17-.79-.58-.89-2.01-.88-.18-.02-.29-.18-.36-.47-.04-.18-.08-.38-.07-.57,1.42-.18,2.5-.39,3.28-.56l5.01-1.08c1.47-.32,2.55-.74,2.94-.82.17-.04.34.02.45.18.17.3.39,1.23.76,2.11.24.62.46,1.16.92,2.01-.13.12-.33.25-.52.3-.17.04-.31,0-.45-.18-1.23-1.88-2-2.51-3.79-2.13l-3.25.7Z"/>
        <path class="cls-1" d="M370.13,557.05c1.81-.58,3.78.47,4.37,2.32.6,1.86-.39,3.86-2.2,4.44-1.83.59-3.77-.47-4.37-2.32s.36-3.85,2.2-4.44Z"/>
        <path class="cls-1" d="M397.95,554.12c1.03,2.35,1.06,4.47.11,6.37-.57,1.15-1.58,2.03-3.01,2.66-1.44.63-2.68.64-3.75.04-.58-.33-1.02-.84-1.32-1.52-.25-.57-.3-1.1-.15-1.59.15-.49.47-.84.96-1.06.4-.17.79-.18,1.18-.03s.67.43.84.83c.29.67.14,1.35-.45,2.02-.27.29-.37.53-.29.71.13.29.47.45,1.02.48s1.1-.07,1.65-.32c1.07-.47,1.68-1.26,1.83-2.37.21-1.53-.14-3.31-1.04-5.36-.66-1.5-1.45-2.53-2.39-3.1s-1.94-.62-3.01-.15c-.82.36-1.57,1.13-2.23,2.32-1.71-4.16-2.78-6.79-3.21-7.89-.26-.63-.31-1.06-.16-1.29.15-.23.7-.55,1.65-.97.15-.07.41-.18.78-.34.37-.16.66-.29.87-.38l.78-.34c1.05-.46,1.66-.75,1.81-.87.16-.12.2-.32.14-.59-.12-.44-.1-.69.05-.76.15-.07.27,0,.36.2.06.13.09.23.11.31l.23.65c.37,1.05.49,1.75.36,2.1-.13.35-.65.72-1.57,1.12l-4.37,1.92c.21.65.99,2.56,2.32,5.73.65-.88,1.45-1.52,2.4-1.93,1.57-.69,3.03-.73,4.37-.13s2.39,1.78,3.15,3.52Z"/>
        <path class="cls-1" d="M409.69,538.85c3.01-1.71,6.87-.25,9.05,3.58,2.07,3.64,1.36,7.94-1.56,9.6-3.01,1.71-6.86.24-9.04-3.59-2.07-3.64-1.38-7.93,1.55-9.59ZM417.12,544.62c-2.11-3.72-4.83-5.88-7.14-4.56-1.47.83-1.89,3.27-.31,6.05,2.2,3.87,5.04,5.99,7.17,4.78,1.74-.99,1.75-3.71.29-6.27Z"/>
        <path class="cls-1" d="M418.43,535.94c-.3-.47-.57-.52-1.6-.12-.13.03-.25-.05-.37-.24-.07-.11-.16-.25-.2-.38.91-.48,1.59-.89,2.06-1.19l3.1-2c.92-.59,1.55-1.16,1.77-1.3.12-.08.23-.07.35.01.19.17.61.75,1.08,1.28.33.38.64.69,1.16,1.18-.04.11-.15.26-.28.34-.09.06-.21.08-.34-.02-1.34-1.01-2.03-1.26-3.15-.54l-2,1.29,3.08,4.79,2.09-1.34c.33-.21.19-.71-.24-1.61-.09-.21,0-.34.13-.43.06-.04.24-.13.31-.15.33.59.86,1.51,1.2,2.04.29.45.71,1.07,1.27,1.8-.04.08-.17.19-.24.23-.18.12-.32.1-.47-.07-.59-.75-1.02-1.08-1.35-.87l-2.09,1.34,2.73,4.24c.32.49,1.01.24,1.82-.1.15-.07.25,0,.39.21.05.08.18.31.23.42-.29.18-.57.34-.87.51-.54.29-1.17.67-1.76,1.05-.54.35-1.39.97-1.95,1.39-.09-.08-.22-.28-.27-.36-.11-.17-.15-.3-.04-.4.54-.62.88-.99.55-1.5l-6.1-9.48Z"/>
        <path class="cls-1" d="M447.26,531.03c.11.14.02.32-.27.55l-.24.18-.75.58c-.5.39-1,.78-1.52,1.17-.91.7-1.48,1.15-1.73,1.34-.25.19-.45.35-.59.46-.32.24-.53.3-.64.15-.11-.14-.07-.28.11-.43.29-.22.59-.47.91-.74.4-.33.52-.63.38-.88-.14-.25-.51-.76-1.1-1.52l-8.63-11.12c-.39-.5-.64-.79-.74-.87-.1-.07-.23-.05-.39.07-.07.05-.47.43-1.2,1.12-.15.14-.25.23-.3.27-.16.12-.28.13-.37.02-.1-.13-.07-.26.07-.4.55-.56,1-1.26,1.34-2.12s.51-1.69.49-2.49c.03-.25.08-.4.13-.44.1-.08.22-.04.34.12l.35.45c.1.13.21.27.33.43l10.99,14.18c.44.57.72.88.84.94.12.06.32,0,.61-.21l.45-.35.34-.26.3-.23c.18-.14.34-.13.46.02Z"/>
        <path class="cls-1" d="M454.28,511.98c1.19,1.33,2.14,2.73,2.87,4.2.72,1.47,1.12,2.82,1.19,4.05.08,1.32-.35,2.4-1.29,3.25-1.29,1.16-3.04,1.35-5.24.58-2.2-.77-4.36-2.34-6.48-4.71-2.45-2.74-3.79-5.43-4.03-8.07-.14-1.59.3-2.84,1.33-3.76,1.22-1.09,2.78-1.29,4.69-.61,2.36.84,4.68,2.54,6.96,5.08ZM451.55,512.98c-1.99-2.22-3.83-3.87-5.53-4.95-1.3-.83-2.34-.89-3.12-.19-1.57,1.4-.12,4.6,4.35,9.59,4.68,5.23,7.84,7.11,9.5,5.63.77-.69.64-1.94-.38-3.76-.93-1.66-2.53-3.77-4.81-6.32Z"/>
      </g> -->
    </g>
  </g>
</svg>
