<?xml version="1.0" encoding="UTF-8"?>
<svg xmlns="http://www.w3.org/2000/svg" version="1.1" viewBox="0 0 612 792">
  <defs>
    <style>
      .cls-1, .cls-2 {
        fill: #231f20;
      }

      .cls-2 {
        fill-rule: evenodd;
      }
    </style>
  </defs>
  <!-- Generator: Adobe Illustrator 28.7.4, SVG Export Plug-In . SVG Version: 1.2.0 Build 166)  -->
  <g>
    <g id="Layer_1">
      <path class="cls-2" d="M413.77,395.64l27.77,35.31-7.03,5.49,10.15,4.05,10.12,4.13-1.63-10.81-1.54-10.82-7.18,5.69-27.89-35.46c7.72-6.88,15.02-14.48,21.81-22.73-6.75-8.2-13.99-15.76-21.66-22.6l27.99-35.59,7.18,5.69,1.54-10.82,1.63-10.81-10.12,4.13-10.15,4.05,7.03,5.49-27.87,35.44c-13.79-11.84-28.91-21.39-45.01-28.22l16.4-43.1,8.55,3.29-1.75-10.79-1.67-10.8-8.43,6.96-8.48,6.89,8.35,3.14-16.37,43.01c-16.97-6.74-34.99-10.48-53.67-10.72v-51.85l8.92.03-5.47-9.46-5.4-9.5-5.4,9.5-5.48,9.46,9.16-.03v51.84c-18.68.21-36.71,3.92-53.68,10.64l-16.34-42.92,8.35-3.14-8.48-6.89-8.43-6.96-1.67,10.8-1.75,10.79,8.55-3.29,16.37,43.01c-16.12,6.81-31.26,16.35-45.08,28.18l-27.77-35.31,7.03-5.49-10.15-4.05-10.12-4.13,1.63,10.81,1.54,10.82,7.18-5.69,27.88,35.46c-7.72,6.88-15.02,14.48-21.81,22.73h0c6.75,8.2,13.99,15.76,21.66,22.6l-27.99,35.59-7.18-5.69-1.54,10.82-1.63,10.81,10.12-4.13,10.15-4.05-7.03-5.49,27.87-35.44c13.79,11.84,28.91,21.39,45.01,28.22l-16.4,43.1-8.55-3.29,1.75,10.79,1.67,10.8,8.43-6.96,8.48-6.89-8.35-3.14,16.37-43.01c16.97,6.74,34.99,10.48,53.67,10.72v51.85l-8.92-.04,5.48,9.46,5.4,9.5,5.4-9.5,5.47-9.46-9.16.04v-51.85c18.68-.21,36.71-3.92,53.68-10.64l16.34,42.92-8.35,3.14,8.48,6.89,8.43,6.96,1.67-10.8,1.75-10.79-8.55,3.29-16.37-43.01c16.12-6.81,31.27-16.35,45.08-28.18M295.57,325.65c-19.06,6.06-32.87,23.9-32.87,44.97s13.33,38.28,31.87,44.64c-41.11-3.27-78.44-19.62-107.59-44.77,29.39-25.35,67.08-41.76,108.59-44.85M325.2,415.26c18.54-6.36,31.87-23.94,31.87-44.64,0-4.24-.56-8.35-1.61-12.27-2.81,4.87-8.07,8.15-14.1,8.15-8.98,0-16.26-7.28-16.26-16.26,0-8.43,6.42-15.36,14.63-16.17-4.55-3.72-9.81-6.61-15.54-8.43,41.51,3.09,79.2,19.49,108.59,44.85-29.16,25.15-66.48,41.49-107.59,44.77"/>
      <g>
        <path class="cls-1" d="M107.37,265.63l19.5,9.72c.96.48,1.4.45,2.71-1.45.29-.4.55-.46.92-.28.15.07.5.3.67.43-.96,1.64-2.07,3.69-2.8,5.15-.75,1.5-1.7,3.59-2.41,5.3-.22-.01-.62-.16-.76-.23-.33-.17-.55-.37-.35-.96.7-2.06.51-2.5-.46-2.98l-19.5-9.72-1.73,3.47c-1.45,2.92-.95,4.4,1.02,6.96.2.25.16.52.04.76-.16.32-.56.75-.77.9-1.01-.95-1.72-1.65-2.54-2.25-1.05-.77-1.98-1.33-2.27-1.67-.16-.23-.18-.48-.02-.8.29-.59,1.42-2.29,2.62-4.7l6.05-12.14c1.18-2.37,1.86-4.29,2.18-4.92.14-.28.37-.46.65-.46.45.03,1.43.47,2.7.8.97.29,1.94.47,3.32.67,0,.29-.09.84-.25,1.15-.14.28-.31.44-.65.46-3.22-.03-4.71.46-6.15,3.33l-1.73,3.47Z"/>
        <path class="cls-1" d="M147.83,242.18c.88.62,1.31.65,3.03-1.22.19-.19.52-.17.83.04.14.1.45.37.59.52-1.15,1.5-2.57,3.31-3.51,4.65-.96,1.37-2.2,3.35-3.22,4.95-.22-.05-.56-.28-.7-.38-.3-.21-.47-.49-.32-.77,1.14-2.21.99-2.64.11-3.26l-7.97-5.58-6.82,9.74,7.97,5.58c.88.62,1.31.65,3.03-1.22.19-.19.52-.17.83.04.14.1.45.37.59.52-1.15,1.5-2.62,3.38-3.56,4.72-.93,1.34-2.15,3.28-3.17,4.88-.22-.05-.56-.28-.69-.38-.31-.21-.47-.49-.32-.77,1.14-2.21.99-2.64.11-3.26l-16.99-11.9c-.88-.62-1.34-.61-3.03,1.22-.25.21-.56.15-.83-.04-.14-.1-.48-.33-.63-.55,1.19-1.48,2.57-3.31,3.5-4.64.93-1.34,2.23-3.33,3.22-4.95.23.11.59.31.73.4.27.19.41.5.32.77-1.17,2.25-.99,2.64-.11,3.26l7.22,5.06,6.82-9.74-7.23-5.06c-.88-.62-1.34-.61-3.03,1.22-.24.21-.56.15-.83-.04-.14-.09-.47-.33-.63-.55,1.19-1.48,2.6-3.35,3.56-4.72.94-1.33,2.18-3.26,3.17-4.88.23.11.59.31.73.4.27.19.41.5.32.77-1.17,2.25-.99,2.64-.11,3.26l16.99,11.9Z"/>
        <path class="cls-1" d="M142.08,215.81l7.28,6.82,4.25-4.53c.75-.8.36-1.53-.85-3.09-.27-.32-.12-.66.18-.98.12-.13.48-.45.63-.55.82.95,2.18,2.34,3.02,3.13.73.68,1.75,1.58,3.11,2.61-.06.19-.36.57-.48.7-.33.35-.66.47-1,.21-1.78-1.19-2.45-1.33-3.11-.62l-4.25,4.53,6.77,6.34c.85.79,2.02-.04,4.49-2.67l1.26-1.35c2.38-2.54,1.86-4.71.92-7.53-.09-.21.03-.46.21-.65.21-.23.66-.4,1.05-.58.21.38.42.76.61,1.11.27.62.73,1.28.94,1.72.64.96,1.69,2.43,1.85,2.81.09.27,0,.48-.24.74-.6.64-2.77,2.66-3.83,3.78l-6.84,7.3c-1.17,1.25-2.74,3.11-3.89,4.45-.21-.08-.54-.39-.67-.5-.3-.28-.36-.52-.18-.77,1.23-1.86,1.62-2.76.84-3.5l-15.14-14.18c-.82-.76-1.45-.45-3.44,1.07-.27.17-.54.1-.84-.19-.18-.17-.39-.37-.51-.6,1.84-1.72,3.19-3.11,4.16-4.13l6.17-6.59c1.81-1.93,3.01-3.58,3.49-4.09.21-.23.48-.33.75-.26.45.18,1.45,1.06,2.6,1.71.79.49,1.48.9,2.75,1.43-.09.28-.27.65-.51.91-.21.23-.42.33-.75.26-3.08-.95-4.62-.88-6.82,1.46l-4.01,4.28Z"/>
        <path class="cls-1" d="M181.65,183.04c-.09-.34-.19-.63-.34-.83-.45-.6-1.21-.44-2.82.49-.31.18-.6.08-.89-.32-.05-.07-.11-.23-.21-.36l-.16-.29c.89-.51,2.77-1.81,4.01-2.73,1.38-1.03,2.66-2.03,3.45-2.82l.23.24c.13.11.26.27.31.34.3.4.33.74.07.98-1.39,1.24-1.72,1.9-1.45,2.99l5.85,26.1c-.19.19-.33.3-.51.43-.35.26-.57.27-1.09-.07l-22.59-13.09c-.75-.42-1.26-.51-3.15.64-.34.2-.66.08-.98-.36-.1-.13-.32-.43-.35-.62,1.49-.95,3.87-2.62,5.18-3.59,1.56-1.16,3.52-2.72,4.9-3.9.22.15.42.41.52.55.27.37.3.7.05.95-1.39,1.24-1.73,1.96-1.33,2.49.12.17.28.31.5.45l14.93,9.29-4.11-16.97Z"/>
        <path class="cls-1" d="M208.18,190.57c.55.93.92,1.14,3.26.15.25-.1.55.06.74.38.08.14.26.52.32.72-1.68.89-3.75,1.96-5.16,2.79-1.44.85-3.39,2.14-4.95,3.15-.18-.13-.39-.49-.47-.63-.19-.32-.22-.64.02-.83,1.96-1.54,2-1.99,1.45-2.92l-10.51-17.89c-.54-.93-.96-1.12-3.26-.15-.31.08-.57-.1-.74-.38-.08-.14-.29-.5-.34-.76,1.66-.83,3.71-1.94,5.16-2.79,1.41-.83,3.38-2.08,4.95-3.15.16.19.41.53.5.67.17.29.16.62-.02.83-2,1.56-2,1.99-1.45,2.92l10.51,17.89Z"/>
        <path class="cls-1" d="M222.75,164.25c-.72.34-1.16.13-1.42-.11-2.53-2.29-4.91-2.59-8.14-1.08-2.55,1.2-4.03,3.35-2.92,5.71,2.58,5.51,15.43-2.89,19.53,5.85,1.79,3.83.76,8.7-5.62,11.69-3.47,1.63-6.75,2.11-8.95,2.09-1.16-2.06-2.5-4-3.86-5.74.16-.17.57-.45.85-.58.64-.3,1-.24,1.47.23,3.23,3.15,5.76,3.89,9.63,2.07,3.27-1.53,3.81-4.02,2.86-6.05-3-6.41-14.73,2.74-18.92-6.23-1.86-3.98-.15-8.62,5.24-11.15,2.2-1.03,4.58-1.64,7.91-1.92.78,1.46,2.03,3.4,3.05,4.75-.2.19-.51.37-.71.47Z"/>
        <path class="cls-1" d="M243.01,174.83c.36,1.01.7,1.29,3.17.75.26-.05.53.16.65.51.06.16.15.56.18.77-1.81.56-4.05,1.23-5.59,1.78-1.58.57-3.73,1.47-5.45,2.17-.15-.17-.29-.56-.35-.71-.12-.35-.1-.67.18-.81,2.21-1.15,2.33-1.58,1.97-2.6l-7-19.53c-.36-1.01-.74-1.27-3.17-.75-.32.03-.54-.2-.65-.51-.06-.16-.2-.55-.2-.81,1.78-.51,4.01-1.22,5.59-1.78,1.53-.55,3.7-1.42,5.45-2.17.12.22.31.59.36.75.11.31.04.64-.18.81-2.25,1.16-2.33,1.58-1.97,2.6l7,19.53Z"/>
        <path class="cls-1" d="M257.53,145.38c8.24-1.91,15.87,2.31,17.7,10.22,1.74,7.5-3.37,15.11-11.39,16.97-8.24,1.91-15.82-2.32-17.66-10.23-1.74-7.5,3.32-15.1,11.35-16.96ZM269.77,158.95c-1.78-7.67-6.21-12.72-12.56-11.24-4.03.94-6.97,5.23-5.64,10.96,1.86,7.99,6.59,13.01,12.43,11.66,4.76-1.11,7-6.09,5.77-11.37Z"/>
        <path class="cls-1" d="M302.6,157.72l-1.1-14.66c-.09-1.2-.91-1.55-3.13-1.63-.4-.05-.6-.37-.63-.74-.01-.17-.04-.5.03-.75,1.46.06,2.78,0,4.63-.14,1.84-.14,3.12-.28,4.42-.54.06.24.13.57.14.74.04.5-.16.76-.47.82-1.91.39-2.45.85-2.37,1.96l1.81,24.15c-.22.06-.96.15-1.14.17-.4.03-.89-.1-1.46-.64l-18.86-19.35,1.34,17.84c.08,1.07.32,1.35,2.86,1.57.27.02.54.17.59.75.01.17,0,.5-.04.71-1.46.03-2.61-.01-4.32.12-1.67.13-3.29.33-4.55.55-.1-.2-.13-.53-.14-.7-.04-.54.21-.76.47-.82,2.08-.49,2.58-.94,2.5-1.97l-1.57-20.89c-.07-.87-.45-1.29-2.67-1.38-.31-.06-.55-.25-.59-.75,0-.08-.02-.25.01-.42l.02-.33c.79-.02,1.59-.04,2.34-.05,1.28-.05,2.73-.12,3.56-.18,1.71-.13,1.99-.02,2.41.32l15.89,16.25Z"/>
        <path class="cls-1" d="M326.29,158.3l-9.23-.57-2.64,5.6c-.19.28-.26.65-.27.81-.04.58.42,1.02,2.25,1.38.35.06.6.29.57.82,0,.17-.07.49-.13.7-1.58-.22-3.42-.42-5.09-.52-1.19-.07-2.42-.11-4.01-.04-.08-.21-.05-.54-.04-.71.03-.5.18-.78.62-.79,1.82-.22,2.5-.47,3-1.35l12.07-23.15c.29-.48.7-.66,1.1-.64.26.02.57.08.92.14l9.08,25.21c.3.85,1.38,1.29,2.55,1.53.43.11.64.33.61.87-.01.17-.08.53-.13.74-1.84-.24-3.72-.44-5.31-.54-1.63-.1-4.98-.18-6.65-.21-.08-.21-.05-.54-.04-.71.03-.5.31-.73.53-.76,1.51-.16,2.28-.44,2.32-1.14.01-.17-.02-.38-.09-.63l-1.96-6.06ZM325.58,156.18l-3.16-9.53-4.4,9.06,7.56.47Z"/>
        <path class="cls-1" d="M351.83,158.88l-1.85-.39-1.78,8.47c-.26,1.26.69,1.84,3.3,2.72.38.12.54.41.43.94-.03.16-.15.52-.24.71-1.61-.47-4.22-1.1-7.16-1.72-2.07-.44-4.03-.76-5.73-.99-.04-.22.02-.54.06-.71.11-.53.37-.68.64-.67,2.5.1,2.99-.09,3.21-1.14l4.27-20.3c.23-1.09-.33-1.64-2.65-2.38-.24-.14-.41-.38-.3-.91.04-.2.11-.53.23-.67,1.57.46,3.92,1.04,5.56,1.38l6.51,1.37c6.12,1.29,9.16,5.02,8.25,9.35-.6,2.84-3.12,4.97-6.64,5.46l4.81,10.7c.74,1.64,2.12,2.31,3.23,2.84.25.09.43.3.33.79-.04.2-.11.53-.25.75-1.28-.35-4.83-1.23-6.47-1.57-1.21-.25-2.24-1.57-3.03-3.35l-4.73-10.69ZM351.7,156.73c3.53.74,6.1.1,6.94-3.87.7-3.32-.37-5.75-4.72-6.66l-1.29-.27-2.22,10.54,1.29.27Z"/>
        <path class="cls-1" d="M376.04,165.86l-2.59-14.13c-.25-1.31-.98-1.91-2.37-2.6-.32-.15-.39-.48-.23-.95.03-.08.08-.24.17-.38l.13-.26c1.17.53,3.19,1.3,5.44,2.07,1.58.54,4.61,1.48,5.86,1.78-.08.5-.13.66-.16.73-.17.51-.45.63-.75.57-1.51-.34-2.06-.22-2.22.25-.07.2-.08.5.01.92l1.79,10.75,7.68-6.83c.52-.44.79-.82.88-1.1.21-.63-.25-1.05-1.67-1.79-.32-.15-.46-.42-.29-.93.03-.08.16-.34.37-.66,1.13.51,3.1,1.27,4.44,1.73,1.29.44,2.77.9,4.24,1.22-.04.38-.13.66-.16.73-.15.43-.41.65-.75.57-2.08-.45-2.74-.28-3.59.44l-10.94,9.58-2.65,7.8c-.39,1.14.05,1.63,2.36,2.77.24.12.43.37.25.92-.03.08-.12.22-.18.38l-.13.26c-.88-.3-1.65-.61-2.39-.9-1.31-.53-2.84-1.1-3.8-1.42-1-.34-2.43-.78-3.67-1.12-.72-.2-1.44-.4-2.15-.65l.05-.29c.01-.17.06-.33.09-.41.19-.55.49-.62.75-.57,2.52.38,3.17.38,3.56-.76l2.63-7.72Z"/>
        <path class="cls-1" d="M416.11,186.19l-8.07-4.53-4.81,3.9c-.29.17-.52.47-.6.61-.28.51-.06,1.1,1.43,2.23.29.21.42.52.15.99-.08.14-.28.41-.42.57-1.32-.88-2.9-1.86-4.36-2.68-1.04-.58-2.13-1.15-3.6-1.78.02-.22.19-.51.27-.66.24-.43.5-.62.91-.44,1.74.59,2.46.67,3.29.09l20.93-15.61c.47-.3.92-.29,1.27-.1.23.13.48.32.77.52l-2.78,26.65c-.1.9.68,1.76,1.64,2.49.34.29.43.58.17,1.05-.08.14-.3.45-.44.61-1.55-1.01-3.16-2.01-4.55-2.79-1.42-.8-4.4-2.33-5.9-3.08.02-.22.19-.51.27-.66.24-.43.59-.52.81-.45,1.43.52,2.24.59,2.59-.02.08-.14.14-.35.19-.61l.86-6.31ZM416.39,183.98l1.29-9.96-7.9,6.25,6.61,3.71Z"/>
        <path class="cls-1" d="M438.86,197.82l-1.5-1.16-5.28,6.86c-.78,1.02-.17,1.96,1.79,3.89.29.27.31.61-.02,1.03-.1.13-.36.4-.52.54-1.25-1.12-3.33-2.83-5.7-4.66-1.68-1.29-3.3-2.44-4.73-3.39.06-.22.26-.48.36-.61.33-.43.63-.46.86-.33,2.21,1.18,2.73,1.22,3.39.36l12.67-16.44c.68-.89.41-1.62-1.36-3.29-.16-.23-.21-.53.12-.95.13-.16.33-.43.5-.5,1.22,1.09,3.08,2.64,4.41,3.66l5.27,4.06c4.96,3.82,6.08,8.5,3.37,12.01-1.77,2.3-4.97,3.13-8.35,2.03l-.31,11.74c-.05,1.79.91,3,1.68,3.96.18.19.26.46-.05.85-.13.16-.33.43-.55.57-1-.87-3.82-3.2-5.14-4.23-.98-.75-1.33-2.39-1.28-4.33l.38-11.68ZM439.67,195.83c2.86,2.21,5.45,2.74,7.93-.48,2.07-2.69,2.17-5.34-1.36-8.05l-1.05-.81-6.57,8.53,1.05.81Z"/>
        <path class="cls-1" d="M472.71,210.53l-15.4,15.4c-.76.76-.87,1.18.52,3.03.28.4.26.67-.03.96-.12.12-.44.38-.62.49-1.25-1.43-2.84-3.14-4-4.29-1.18-1.18-2.86-2.74-4.26-3.96.08-.21.35-.53.46-.65.26-.26.53-.41,1.03-.03,1.73,1.32,2.21,1.28,2.98.51l15.4-15.4-2.74-2.74c-2.31-2.3-3.88-2.29-6.92-1.24-.3.11-.54-.02-.73-.2-.25-.25-.54-.77-.61-1.02,1.22-.66,2.11-1.11,2.94-1.69,1.06-.75,1.89-1.45,2.3-1.62.27-.08.51-.01.76.23.47.47,1.73,2.08,3.63,3.98l9.6,9.59c1.87,1.87,3.48,3.13,3.98,3.62.22.22.32.49.23.76-.17.42-.9,1.21-1.62,2.3-.58.83-1.06,1.69-1.69,2.94-.28-.1-.77-.36-1.02-.6-.22-.22-.32-.43-.23-.76,1.05-3.05,1.06-4.62-1.21-6.89l-2.74-2.74Z"/>
        <path class="cls-1" d="M471.79,242.48c-.84.68-.99,1.08.33,3.24.13.23.02.55-.27.78-.13.1-.48.33-.67.43-1.13-1.53-2.5-3.42-3.52-4.69-1.05-1.3-2.62-3.04-3.84-4.43.11-.2.43-.46.56-.56.29-.23.6-.31.82-.1,1.81,1.71,2.26,1.68,3.1,1.01l16.14-13.03c.84-.68.96-1.12-.33-3.24-.13-.29.01-.58.27-.79.13-.1.45-.36.7-.45,1.07,1.52,2.47,3.39,3.52,4.69,1.02,1.27,2.56,3.03,3.84,4.43-.17.19-.46.48-.59.59-.26.21-.59.25-.83.1-1.83-1.75-2.26-1.68-3.1-1.01l-16.15,13.03Z"/>
        <path class="cls-1" d="M499.98,253.01c-.44-.66-.3-1.12-.1-1.42,1.89-2.84,1.84-5.24-.14-8.21-1.56-2.35-3.91-3.49-6.08-2.04-5.07,3.37,5.13,14.84-2.9,20.18-3.52,2.34-8.49,2.04-12.39-3.83-2.12-3.19-3.08-6.36-3.39-8.54,1.87-1.45,3.58-3.07,5.11-4.66.19.14.53.5.7.75.39.59.39.96,0,1.49-2.64,3.66-2.99,6.27-.63,9.83,2,3.01,4.54,3.17,6.41,1.93,5.9-3.92-4.88-14.16,3.36-19.64,3.66-2.43,8.51-1.42,11.8,3.54,1.34,2.02,2.3,4.29,3.07,7.54-1.33.99-3.06,2.51-4.24,3.72-.22-.17-.45-.45-.57-.63Z"/>
        <path class="cls-1" d="M514.89,270.64l-19.5,9.71c-.96.48-1.2.84-.47,3.04.14.47.04.72-.33.91-.15.07-.54.22-.74.27-.73-1.75-1.7-3.88-2.43-5.34-.75-1.5-1.84-3.51-2.78-5.11.15-.17.5-.4.65-.47.33-.17.63-.22.98.3,1.22,1.8,1.69,1.91,2.66,1.43l19.5-9.71-1.73-3.47c-1.45-2.92-2.95-3.4-6.17-3.37-.32.01-.51-.19-.63-.43-.16-.32-.26-.9-.25-1.15,1.36-.24,2.35-.38,3.32-.67,1.25-.38,2.25-.78,2.7-.8.28,0,.49.15.65.46.29.59.98,2.52,2.17,4.92l6.05,12.14c1.18,2.37,2.3,4.07,2.62,4.7.14.28.14.57-.02.8-.29.34-1.24.86-2.27,1.67-.81.6-1.54,1.26-2.54,2.25-.23-.18-.61-.58-.77-.9-.14-.28-.16-.51.02-.8,1.97-2.55,2.48-4.04,1.04-6.92l-1.73-3.47Z"/>
      </g>
      <path class="cls-1" d="M309.89,557.27c-102.99,0-186.78-83.79-186.78-186.78s83.79-186.78,186.78-186.78,186.78,83.79,186.78,186.78-83.79,186.78-186.78,186.78ZM309.89,186.71c-101.34,0-183.78,82.44-183.78,183.78s82.44,183.78,183.78,183.78,183.78-82.44,183.78-183.78-82.44-183.78-183.78-183.78Z"/>
      <path class="cls-1" d="M309.89,564.91c-107.2,0-194.42-87.22-194.42-194.42s87.22-194.42,194.42-194.42,194.42,87.22,194.42,194.42-87.22,194.42-194.42,194.42ZM309.89,179.07c-105.55,0-191.42,85.87-191.42,191.42s85.87,191.42,191.42,191.42,191.42-85.87,191.42-191.42-85.87-191.42-191.42-191.42Z"/>
      <path class="cls-1" d="M309.89,615.29c-65.39,0-126.86-25.46-173.1-71.7-46.24-46.24-71.7-107.71-71.7-173.1s25.46-126.86,71.7-173.1c46.23-46.23,107.72-71.7,173.1-71.7,0,0,0,0,0,0,65.39,0,126.86,25.46,173.1,71.7s71.7,107.71,71.7,173.1-25.46,126.86-71.7,173.1c-46.24,46.24-107.71,71.7-173.1,71.7ZM309.89,128.69c-133.33,0-241.8,108.47-241.8,241.8s108.47,241.8,241.8,241.8,241.8-108.47,241.8-241.8-108.47-241.8-241.8-241.8Z"/>
      <g>
        <path class="cls-1" d="M180.94,530.94c.4-.21.64-.33,1.65.52.47.4,1.95,1.56,2.76,2.11-.09.2-.27.41-.36.52-.23.27-.45.4-.66.31-1.31-.75-1.62-.64-2.12-.05-.2.24-10.09,12.91-10.89,13.98-.57.71-.58,1.12.33,2.25.13.15.08.39-.19.71-.09.11-.29.3-.43.42-.96-.9-1.6-1.58-2.62-2.45-.94-.8-2.2-1.73-2.96-2.27.09-.15.25-.38.34-.49.32-.37.56-.4.64-.33,1.4.73,1.82.67,2.43-.05.25-.29,8.18-10.4,8.75-11.2l-15.17,9.03c-.4.21-.62.3-.79.15-.06-.05-.19-.16-.23-.24l7.62-19.05c-1.26,1.36-10.83,11.88-11.1,12.2-.57.67-.62.99.33,2.25.13.15.1.36-.2.71-.09.11-.27.28-.43.42-.7-.73-1.3-1.33-1.94-1.87-.56-.47-1.61-1.22-2.33-1.75.07-.17.25-.38.34-.49.32-.37.51-.39.66-.31,1.08.5,1.69.56,2.28-.04.79-.84,11.77-12.86,11.96-13.08.5-.59.46-.98-.4-2.08-.15-.17-.05-.41.19-.71.09-.11.27-.32.45-.44.68.71,2.73,2.54,3.26,2.99,1,.85.95,1.13.79,1.54l-6.18,15.36,14.21-8.55Z"/>
        <path class="cls-1" d="M183.02,549.75l1.92-9.73c.17-.9-.1-1.39-.74-2.01-.15-.14-.11-.37.1-.66.03-.05.1-.15.19-.23l.14-.16c.54.49,1.52,1.24,2.62,2,.78.54,2.29,1.52,2.94,1.86-.16.32-.23.42-.27.47-.22.32-.41.37-.57.3-.79-.4-1.13-.38-1.34-.09-.09.12-.16.32-.22.62l-1.57,7.38,6.06-3.68c.4-.23.65-.46.77-.63.27-.39.11-.73-.53-1.39-.15-.14-.16-.33.06-.65.03-.05.17-.21.37-.4.52.47,1.47,1.21,2.13,1.66.64.44,1.37.92,2.14,1.3-.11.25-.23.42-.27.47-.19.27-.39.39-.57.3-1.09-.54-1.51-.5-2.17-.12l-8.59,5.14-3.4,4.9c-.5.71-.37,1.1.69,2.12.11.11.16.29-.08.64-.03.05-.12.13-.19.23l-.14.16c-.43-.3-.8-.59-1.16-.88-.62-.5-1.37-1.06-1.84-1.38-.49-.34-1.21-.8-1.84-1.17-.37-.22-.73-.44-1.08-.68l.1-.19c.05-.11.12-.21.15-.26.24-.34.43-.36.57-.3,1.36.54,1.73.62,2.23-.1l3.37-4.85Z"/>
        <path class="cls-1" d="M207.39,565.27l-5.18-2.78-3.58,3.6c-.21.16-.39.43-.46.55-.23.43-.12.89.81,1.63.18.14.25.37.03.77-.07.12-.22.36-.33.5-.84-.57-1.84-1.19-2.78-1.69-.67-.36-1.37-.7-2.33-1.05.03-.18.17-.43.23-.55.2-.37.39-.55.65-.44,1.14.3,1.63.28,2.24-.27l15.48-14.57c.35-.29.65-.33.87-.21.15.08.3.2.49.34l-3.89,21.51c-.13.72.33,1.33.93,1.81.21.19.25.41.04.82-.07.12-.24.39-.35.53-.99-.65-2.01-1.28-2.9-1.76-.91-.49-2.84-1.4-3.81-1.85.03-.18.17-.43.23-.55.2-.37.45-.48.59-.44.94.27,1.49.24,1.77-.28.07-.12.12-.29.17-.5l1.06-5.11ZM207.75,563.48l1.63-8.06-5.87,5.79,4.24,2.28Z"/>
        <path class="cls-1" d="M221.76,571.07l-.99-.43-2.48,5.76c-.37.85.08,1.34,1.41,2.17.2.12.24.33.08.69-.05.11-.18.35-.26.48-.84-.46-2.21-1.12-3.78-1.79-1.1-.47-2.16-.86-3.09-1.17.01-.16.11-.38.16-.49.15-.36.33-.45.48-.42,1.4.28,1.72.18,2.03-.53l5.94-13.81c.32-.74.09-1.17-1.1-1.88-.11-.11-.17-.3-.02-.66.06-.14.15-.36.25-.45.81.45,2.05,1.05,2.93,1.42l3.47,1.49c3.26,1.4,4.35,4.26,3.08,7.21-.83,1.93-2.63,3.21-4.72,3.26l.89,7.86c.14,1.2.81,1.79,1.35,2.25.13.09.19.25.05.58-.06.14-.15.36-.27.5-.67-.35-2.54-1.26-3.41-1.63-.64-.28-1-1.28-1.15-2.58l-.84-7.84ZM222.06,569.56c1.88.81,3.46.57,4.62-2.13.97-2.26.79-4.04-1.53-5.04l-.69-.3-3.08,7.17.69.3Z"/>
        <path class="cls-1" d="M242.34,569.08l-5.18,14.91c-.26.74-.23,1.03.92,1.68.24.15.29.32.19.61-.04.11-.16.39-.23.52-.99-.44-2.22-.93-3.09-1.23-.9-.31-2.15-.68-3.17-.94,0-.16.08-.45.12-.56.09-.25.21-.44.56-.38,1.23.2,1.48,0,1.74-.73l5.18-14.9-2.08-.72c-1.75-.61-2.6-.05-4.05,1.67-.14.17-.3.18-.44.13-.19-.07-.46-.29-.54-.41.53-.83.92-1.43,1.25-2.07.42-.84.73-1.56.92-1.81.13-.15.28-.19.47-.12.35.12,1.38.67,2.82,1.17l7.28,2.52c1.42.49,2.56.7,2.94.83.17.06.28.19.29.39,0,.32-.24,1.06-.4,1.99-.14.71-.23,1.41-.31,2.4-.17.04-.49.05-.68-.01-.17-.06-.26-.15-.29-.39-.07-2.25-.39-3.22-2.12-3.81l-2.08-.72Z"/>
        <path class="cls-1" d="M251.78,588.4c-.21.75-.16,1.05,1.16,1.65.14.07.18.3.11.56-.03.12-.13.4-.2.54-1.02-.34-2.28-.78-3.17-1.02-.92-.25-2.22-.51-3.25-.73,0-.16.07-.45.1-.56.07-.26.2-.44.38-.43,1.41.14,1.63-.08,1.83-.84l3.95-14.5c.21-.75.13-1.05-1.16-1.65-.15-.1-.17-.33-.11-.56.03-.12.11-.41.21-.57.99.36,2.25.77,3.17,1.02.89.24,2.19.53,3.25.73-.02.18-.08.48-.11.59-.06.23-.21.41-.38.43-1.44-.14-1.63.08-1.83.84l-3.95,14.5Z"/>
        <path class="cls-1" d="M270.39,580c-.44-.09-.56-.39-.58-.64-.27-2.39-1.2-3.53-3.19-3.95-1.57-.33-3.01.35-3.4,2.2-.9,4.32,7.86,4.55,6.43,11.4-.62,3-2.88,5.47-6.79,4.65-2.13-.44-3.75-1.49-4.71-2.39.25-1.7.38-3.39.42-4.97.13-.03.42-.04.59,0,.39.08.53.26.56.73.26,3.18,1.1,4.64,3.47,5.14,2.01.42,3.16-.84,3.5-2.43,1.05-5.02-7.49-4.35-6.03-11.38.65-3.11,3.12-5.17,6.43-4.48,1.35.28,2.62.88,4.19,2.07-.2,1.19-.36,2.84-.41,4.05-.16.03-.36.02-.48,0Z"/>
        <path class="cls-1" d="M284.21,578.6l-2.02,15.65c-.1.77-.01,1.06,1.25,1.46.26.09.34.26.31.55-.02.12-.08.41-.12.56-1.05-.23-2.36-.46-3.28-.57-.94-.12-2.24-.23-3.29-.27-.03-.16-.02-.46,0-.58.04-.27.11-.47.47-.48,1.24-.05,1.45-.3,1.55-1.07l2.02-15.65-2.18-.28c-1.83-.24-2.56.49-3.62,2.47-.1.2-.26.24-.41.22-.2-.03-.5-.19-.62-.29.35-.92.61-1.58.8-2.29.24-.91.39-1.67.53-1.96.1-.17.23-.24.43-.22.37.05,1.49.37,3,.57l7.64.99c1.49.19,2.65.16,3.05.21.17.02.31.13.36.32.06.31-.01,1.09.01,2.03,0,.73.07,1.43.19,2.42-.16.07-.47.15-.67.12-.17-.02-.29-.1-.36-.32-.52-2.19-1.04-3.07-2.85-3.3l-2.18-.28Z"/>
        <path class="cls-1" d="M310.37,577.17l-.3,18.4c-.01.91.12,1.23,1.57,1.53.31.07.42.25.41.6,0,.14-.04.49-.07.66-1.2-.12-2.68-.22-3.72-.24-1.06-.02-2.52.03-3.7.11-.05-.18-.08-.53-.07-.67,0-.31.07-.56.46-.62,1.38-.22,1.58-.53,1.59-1.44l.3-18.4-2.46-.04c-2.07-.03-2.79.9-3.72,3.33-.09.24-.26.31-.42.31-.22,0-.59-.15-.72-.26.27-1.12.48-1.92.6-2.75.16-1.08.23-1.99.35-2.34.09-.21.23-.31.45-.31.42,0,1.7.24,3.41.27l8.62.14c1.68.03,2.97-.16,3.42-.15.2,0,.36.11.44.32.11.35.12,1.26.27,2.35.1.84.25,1.65.51,2.77-.17.1-.51.24-.73.23-.2,0-.33-.08-.44-.32-.86-2.46-1.54-3.42-3.58-3.45l-2.46-.04Z"/>
        <path class="cls-1" d="M324.4,589.46l-4.63-8.78c-.43-.81-.95-1.01-1.83-1.1-.2-.01-.32-.22-.34-.58,0-.06-.01-.18,0-.3v-.21c.74.04,1.96,0,3.31-.09.95-.07,2.74-.26,3.46-.4.08.36.08.48.09.54.03.39-.09.55-.26.59-.86.18-1.12.41-1.1.77.01.15.08.36.22.62l3.42,6.73,2.4-6.67c.17-.43.22-.77.2-.98-.04-.48-.37-.63-1.28-.75-.2-.01-.34-.16-.37-.54,0-.06,0-.27.04-.54.71.04,1.91.01,2.7-.05.77-.06,1.64-.15,2.48-.33.07.27.08.47.09.53.02.33-.06.55-.26.59-1.18.27-1.49.56-1.76,1.27l-3.45,9.4.43,5.96c.06.87.41,1.08,1.87,1.22.15.02.31.13.34.55,0,.06-.01.18,0,.3v.21c-.53.04-1.01.04-1.46.05-.8,0-1.73.04-2.3.08-.6.04-1.44.13-2.16.25-.42.06-.84.12-1.27.15l-.04-.21c-.03-.12-.04-.24-.05-.3-.03-.42.11-.55.26-.59,1.4-.43,1.74-.61,1.67-1.48l-.43-5.89Z"/>
        <path class="cls-1" d="M340.48,587.85l.82,5.7c.13.92.77,1.1,2.33,1.12.23,0,.38.16.43.54.02.12.03.39.03.54-.95.05-2.47.21-4.16.45-1.19.17-2.29.39-3.25.62-.07-.14-.11-.38-.12-.5-.06-.39.05-.55.19-.6,1.34-.5,1.56-.74,1.45-1.51l-2.15-14.88c-.12-.8-.53-1.04-1.92-1.03-.16-.04-.3-.17-.36-.55-.02-.15-.06-.39-.02-.51.93-.04,2.3-.18,3.24-.32l3.74-.54c3.51-.51,5.91,1.21,6.4,4.59.45,3.09-1.22,6.09-4.78,6.6l-1.88.27ZM341,586.26c2.03-.29,3.2-1.61,2.78-4.52-.38-2.64-1.42-4.07-3.97-3.7l-.74.11,1.19,8.23.74-.11Z"/>
        <path class="cls-1" d="M353.31,575.67l1.53,7.06,3.45-.75c.61-.13.64-.72.51-2.14-.04-.3.14-.43.38-.48.1-.02.37-.05.48-.04.12.9.37,2.28.54,3.1.15.7.39,1.67.74,2.85-.08.08-.35.17-.45.19-.27.06-.46-.02-.55-.31-.52-1.45-.8-1.82-1.34-1.7l-3.45.75,1.42,6.57c.18.82,1,.86,3.01.42l1.03-.22c1.93-.42,2.33-1.89,2.71-3.9.02-.16.15-.25.3-.28.17-.04.45.06.69.13,0,.31-.02.62-.04.9-.05.47-.03,1.05-.06,1.39.02.82.1,2.13.06,2.41-.04.19-.14.28-.34.32-.49.11-2.16.31-3.01.5l-5.54,1.2c-.95.21-2.28.58-3.24.86-.08-.14-.15-.46-.18-.58-.06-.29-.02-.46.14-.52,1.17-.53,1.63-.87,1.46-1.64l-3.18-14.69c-.17-.79-.58-.89-2.01-.88-.18-.02-.29-.18-.36-.47-.04-.18-.08-.38-.07-.57,1.42-.18,2.5-.39,3.28-.56l5.01-1.08c1.47-.32,2.55-.74,2.94-.82.17-.04.34.02.45.18.17.3.39,1.23.76,2.11.24.62.46,1.16.92,2.01-.13.12-.33.25-.52.3-.17.04-.31,0-.45-.18-1.23-1.88-2-2.51-3.79-2.13l-3.25.7Z"/>
        <path class="cls-1" d="M375.58,573.76c1.81-.58,3.78.47,4.37,2.32.6,1.86-.39,3.86-2.2,4.44-1.83.59-3.77-.47-4.37-2.32s.36-3.85,2.2-4.44Z"/>
        <path class="cls-1" d="M404.9,577.28c.07.16-.06.32-.39.47l-.27.12-.87.38c-.58.25-1.16.51-1.76.77-1.05.46-1.72.75-2.01.88-.29.13-.52.23-.68.3-.37.16-.58.16-.66,0-.07-.16,0-.29.21-.39.34-.15.69-.31,1.06-.5.47-.23.66-.48.58-.76s-.31-.86-.69-1.74l-5.64-12.9c-.26-.58-.42-.92-.5-1.02s-.21-.1-.4-.02c-.08.03-.56.3-1.44.79-.18.1-.3.16-.36.19-.18.08-.3.06-.36-.07-.06-.15,0-.27.17-.37.67-.4,1.28-.98,1.82-1.73.54-.75.9-1.51,1.09-2.29.09-.24.17-.37.23-.4.12-.05.22.01.3.2l.23.52c.06.15.14.31.22.5l7.19,16.43c.29.66.48,1.03.58,1.12.1.09.32.07.65-.05l.53-.23.39-.17.34-.15c.21-.09.36-.05.44.14Z"/>
        <path class="cls-1" d="M415.14,555.57c3.01-1.71,6.87-.25,9.05,3.58,2.07,3.64,1.36,7.94-1.56,9.6-3.01,1.71-6.86.24-9.04-3.59-2.07-3.64-1.38-7.93,1.55-9.59ZM422.57,561.33c-2.11-3.72-4.83-5.88-7.14-4.56-1.47.83-1.89,3.27-.31,6.05,2.2,3.87,5.04,5.99,7.17,4.78,1.74-.99,1.75-3.71.29-6.27Z"/>
        <path class="cls-1" d="M423.87,552.66c-.3-.47-.57-.52-1.6-.12-.13.03-.25-.05-.37-.24-.07-.11-.16-.25-.2-.38.91-.48,1.59-.89,2.06-1.19l3.1-2c.92-.59,1.55-1.16,1.77-1.3.12-.08.23-.07.35.01.19.17.61.75,1.08,1.28.33.38.64.69,1.16,1.18-.04.11-.15.26-.28.34-.09.06-.21.08-.34-.02-1.34-1.01-2.03-1.26-3.15-.54l-2,1.29,3.08,4.79,2.09-1.34c.33-.21.19-.71-.24-1.61-.09-.21,0-.34.13-.43.06-.04.24-.13.31-.15.33.59.86,1.51,1.2,2.04.29.45.71,1.07,1.27,1.8-.04.08-.17.19-.24.23-.18.12-.32.1-.47-.07-.59-.75-1.02-1.08-1.35-.87l-2.09,1.34,2.73,4.24c.32.49,1.01.24,1.82-.1.15-.07.25,0,.39.21.05.08.18.31.23.42-.29.18-.57.34-.87.51-.54.29-1.17.67-1.76,1.05-.54.35-1.39.97-1.95,1.39-.09-.08-.22-.28-.27-.36-.11-.17-.15-.3-.04-.4.54-.62.88-.99.55-1.5l-6.1-9.48Z"/>
        <path class="cls-1" d="M452.71,547.75c.11.14.02.32-.27.55l-.24.18-.75.58c-.5.39-1,.78-1.52,1.17-.91.7-1.48,1.15-1.73,1.34-.25.19-.45.35-.59.46-.32.24-.53.3-.64.15-.11-.14-.07-.28.11-.43.29-.22.59-.47.91-.74.4-.33.52-.63.38-.88-.14-.25-.51-.76-1.1-1.52l-8.63-11.12c-.39-.5-.64-.79-.74-.87-.1-.07-.23-.05-.39.07-.07.05-.47.43-1.2,1.12-.15.14-.25.23-.3.27-.16.12-.28.13-.37.02-.1-.13-.07-.26.07-.4.55-.56,1-1.26,1.34-2.12s.51-1.69.49-2.49c.03-.25.08-.4.13-.44.1-.08.22-.04.34.12l.35.45c.1.13.21.27.33.43l10.99,14.18c.44.57.72.88.84.94.12.06.32,0,.61-.21l.45-.35.34-.26.3-.23c.18-.14.34-.13.46.02Z"/>
        <path class="cls-1" d="M459.73,528.7c1.19,1.33,2.14,2.73,2.87,4.2.72,1.47,1.12,2.82,1.19,4.05.08,1.32-.35,2.4-1.29,3.25-1.29,1.16-3.04,1.35-5.24.58-2.2-.77-4.36-2.34-6.48-4.71-2.45-2.74-3.79-5.43-4.03-8.07-.14-1.59.3-2.84,1.33-3.76,1.22-1.09,2.78-1.29,4.69-.61,2.36.84,4.68,2.54,6.96,5.08ZM457,529.69c-1.99-2.22-3.83-3.87-5.53-4.95-1.3-.83-2.34-.89-3.12-.19-1.57,1.4-.12,4.6,4.35,9.59,4.68,5.23,7.84,7.11,9.5,5.63.77-.69.64-1.94-.38-3.76-.93-1.66-2.53-3.77-4.81-6.32Z"/>
      </g>
    </g>
  </g>
</svg>