<?xml version="1.0" encoding="UTF-8"?>
<svg xmlns="http://www.w3.org/2000/svg" version="1.1" viewBox="0 0 612 792">
  <defs>
    <style>
      .cls-1, .cls-2 {
        fill: #231f20;
      }

      .cls-2 {
        opacity: .55;
      }
    </style>
  </defs>
  <!-- Generator: Adobe Illustrator 28.7.4, SVG Export Plug-In . SVG Version: 1.2.0 Build 166)  -->
  <g>
    <g id="Layer_1">
      <path class="cls-1" d="M306.94,582.64c-102.99.39-187.1-83.08-187.49-186.07-.39-102.99,83.08-187.1,186.07-187.49,102.99-.39,187.1,83.08,187.49,186.06.39,102.99-83.07,187.1-186.06,187.49ZM305.53,212.08c-101.34.39-183.46,83.14-183.08,184.48s83.14,183.46,184.48,183.08c101.34-.39,183.46-83.14,183.08-184.48-.39-101.34-83.14-183.46-184.48-183.08Z"/>
      <path class="cls-1" d="M306.23,590.28c-107.2,0-194.42-87.22-194.42-194.42s87.22-194.42,194.42-194.42,194.42,87.22,194.42,194.42-87.22,194.42-194.42,194.42ZM306.23,204.44c-105.55,0-191.42,85.87-191.42,191.42s85.87,191.42,191.42,191.42,191.42-85.87,191.42-191.42-85.87-191.42-191.42-191.42Z"/>
      <path class="cls-1" d="M306.23,640.66c-65.39,0-126.86-25.46-173.1-71.7-46.24-46.24-71.7-107.71-71.7-173.1s25.46-126.86,71.7-173.1c46.23-46.23,107.72-71.7,173.1-71.7,0,0,0,0,0,0,65.39,0,126.86,25.46,173.1,71.7s71.7,107.71,71.7,173.1-25.46,126.86-71.7,173.1c-46.24,46.24-107.71,71.7-173.1,71.7ZM306.23,154.06c-133.33,0-241.8,108.47-241.8,241.8s108.47,241.8,241.8,241.8,241.8-108.47,241.8-241.8-108.47-241.8-241.8-241.8Z"/>
      <path class="cls-1" d="M403.59,504.9c2.16.15,8.6.59,15.25.63,6.65.04,10.68,2.32,12.69,3.35,2.01,1.03,4.37,2.34,7.49,2.11,1.22-.09,2.49-.11,3.59-.11l.18.05c-34.07,40.37-85.62,65.32-142.51,63.46-6.99-.23-13.59-.82-20.34-1.82h0c-1.36-2.66-3.81-6.46-5.36-6.72-2.22-.37-2.36-1.41-2.85-2.35-.49-.93-1.19-2.04-2.37-3.04-1.18-1-3.72-3.62-4.38-4.8s-.42-1.45-.05-3.01-3.3-2.79-4.03-3.07-4.13-1.72-5.1-2.75c-.97-1.04-.64-5.23-.44-6.51.2-1.28-1.95-3.28-3.45-4.18-1.49-.9-1.49-1.28-1.53-1.9-.04-.62,1.49-1.11,1.55-1.67.07-.55-.73-1.31-2.78-2.14-2.05-.82-4.48-3.27-5.59-4.1-1.11-.83-1.43-1.8-.8-2.11.62-.31,1.69-.84,1.73-1.6.03-.76-3.23-2.38-4.41-2.82-1.18-.45-1.53-1.62-1.19-3.18.34-1.56-1.05-2.53-1.88-2.94-.83-.41-4.3-1.54-6.32-2.4-2.01-.86-3.44-1.68-3.62-3.14s9.17-3.81,10.93-4.34,7.58-.9,8.9-1.21c1.32-.32-.11-2.25-.6-2.77s-1.01-1.69-.74-3.15c.27-1.46,4.05-1.96,5.19-2.51,1.14-.56,3.87-2.96,4.39-3.55.52-.59,1.28-.8,1.97-.74.69.07,3.46-.43,4.99-.5,1.52-.08,16.08-.13,17.71-.14s1.41-1.43,1.16-1.63c-.24-.21-.71-.98-.4-1.36.42-.49,3.63-.08,4.33-.05.69.03,3.39,0,4.25-.07.64-.05.07-1.06-.99-1.46-.73-.27-1.75-.72-1.68-1.93s3.85-2.56,4.23-2.7,1.8-.79,3.12-1.38c1.31-.59.97-2.29,1.07-2.88.1-.59-.13-3.67-.17-4.53s-.32-4.83-.46-5.49c-.14-.66-.77-4.75-1.19-6.13-.42-1.38-.39-3.3-.3-5.34s-.9-5-1.15-5.9c-.25-.9-1.54-4.5-2.07-6.26-.53-1.77-.81-4.12-.96-5.23s-1.16-4.43-1.41-5.54-.81-2.7-.95-3.25c-.14-.55-1.6-2.32-2.72-3.56-1.11-1.24-1.92-3.46-2.93-5.19-1.67-2.86-1.9-4.17-2.13-5.12-.13-.54-.12-.62-.24-.97-.7-2.03-2.01-2.12-3.08-3.86-1.06-1.72-1.06-3.71-1.05-4.02.02-1.36.09-2.58.09-2.58.07-1.25.13-1.51-.08-1.86-.32-.54-.74-.45-2.1-1.37-.92-.62-1.04-.88-1.09-1.01-.18-.49.08-.7.09-1.71,0-.6,0-1.08-.25-1.57-.36-.68-.81-.55-1.19-1.2-.41-.71-.28-1.54-.22-1.9.15-.98.6-1.23.45-1.91-.11-.49-.45-.81-.56-.91-.56-.54-1-.33-1.38-.74-.48-.52-.31-1.42-.22-1.88.16-.86.48-.93.69-1.91.04-.19.3-1.43-.1-1.64-.24-.12-.64.14-.82.29-.38.32-.33.63-.6.73-.31.11-.78-.15-.97-.5-.21-.4,0-.76.19-1.47.31-1.22-.05-1.26.23-2.73.18-.96.35-.99.47-1.95.11-.83.21-1.61-.22-1.98-.25-.21-.46-.11-1.01-.45-.24-.15-.45-.28-.58-.5-.21-.36-.11-.79.07-1.35.55-1.72,1.01-1.95.98-2.8,0-.22-.04-.88-.49-1.28-.3-.26-.53-.18-1.23-.53-.48-.23-.73-.36-.89-.6-.32-.47-.1-1.07.09-1.81.25-1-.04-.35.4-3.02.3-1.82.45-2.73.54-3.09.27-1.06.48-1.53.21-2.03-.3-.55-.79-.37-1.33-.98-.74-.84-.6-2.07-.56-2.41.08-.7.27-.68.52-1.59.13-.49.54-2.02-.01-3.52-.27-.74-.45-.57-.78-1.32-.56-1.29-.22-2.18-.23-4.1,0-.45-.1-1.31-.3-3.04-.27-2.34-.4-3.5-.69-4.68-.04-.16-.38-1.25-1.07-3.42-.76-2.39-.78-2.45-.9-2.89-.57-2.12-.41-2.33-.86-3.47-.17-.43-.65-1.21-1.6-2.74-.66-1.06-1.19-1.88-2.26-3.54-1.04-1.61-1.19-1.83-1.33-2.02-.67-.92-.87-1.07-1.21-1.71-.38-.71-.79-1.16-.85-2.38-.02-.27,0-1.38.57-1.83.59-.48,1.49-.02,2.06.22.9.38,1.73.79,2.06.99.22.13,1.06.51,2.04,1.28.38.3.29.23,1.71,1.78.82.89,1,.87,1.76,1.27.34.18.67.05.74.02.47-.25.41-.77.42-.88.02-.34-.08-1.16-.36-1.78-.46-1.03-.78-2.12-1.19-3.18-.66-1.68-.23-.66-1.56-4.24-.49-1.32-.7-1.86-.71-2.72-.01-1.07.3-1.93.43-2.27.32-.86.46-1.21.74-1.58.16-.21.48-.75,1.06-1.14.12-.08.6-.5.8-.54.52-.08.9.38,1.02.46,1.14.74,1.43,1.26,1.43,1.26.48.59,1.31,1.19,3.29,3.31.96,1.03,1.77,1.97,2.78,3.15,2.59,2.99,2.48,2.96,3.56,4.13,1.5,1.63,2.46,2.66,3.97,3.84,1.31,1.03,2.39,1.86,4.04,2.47.87.33.89.21,3.76.88,2.27.53,3.42.8,4.2,1.19,1.35.68,2.19,1.5,3.17,2.45,1.14,1.11.9,1.13,1.95,2.54,1.44,1.93,1.38,2.13,2.13,2.86.67.65,1.38,1.12,3.55,2.16,2.62,1.24,3.32,1.37,5.72,2.44,3.21,1.43,2.64,1.51,4.9,2.39,1.8.7,3.5,1.73,5.39,2.13,0,0,1.13.24,1.93,1.05.14.15.31.35.36.65.07.42-.14.76-.21.87-.27.43-.7.62-.89.7-1.29.54-2.63.73-2.63.73-1.75.25-1.32.43-4.07.96-1.71.33-2.57.49-2.67.49-.64.02-1.19-.04-1.66.34-.52.42-.59,1.06-.6,1.11-.06.66.33,1.17.58,1.52.68.93,2.12,2.97,2.73,3.95,1.1,1.79,1.72,3.35,1.97,3.97.71,1.8.46,1.8,1.02,2.91.39.77,1.07,1.62,2.4,3.29,1.38,1.73,1.44,1.71,1.96,2.48.72,1.07.69,1.26,1.55,2.57.67,1.02.85,1.14,1.61,2.26.73,1.08,1.17,1.86,1.47,2.35,1.53,2.59,2.83,4.46,4.53,6.29,1.25,1.35,3.55,2.97,4.76,3.34s2.78,1.96,3.48,2.76c.7.79,2.88,2.24,4.34,3.17,1.46.93,7.5,3.3,8.4,3.99.9.69,6.38,1.92,7.87,2.01s3.54.4,4.96,1.19c1.42.79,3.09,2.28,3.79,2.86.7.59,4.38,3.1,5.52,3.76,1.15.65,4.38,2.93,4.9,3.72.52.79,2.51,3.11,3.76,4.14,1.25,1.03,4.59,5.01,6.19,7.15,1.6,2.14,4.39,5.11,6.33,6.35s2.82,2.76,3.06,3.35,2.55,4.67,3.59,5.6c1.04.93,2.13,3.94,4.29,7.78,2.16,3.84,1.72,7.1,2.78,10.83,1.05,3.74,3.52,6.19,5.89,9.92,2.37,3.73,6.02,5.49,7.82,6.69,1.81,1.21,4.99.81,8.08.73,3.08-.08,6.82-.58,8.21-.76,1.39-.18,6.19-2.07,7.27-2.73,1.07-.66,3.73-2.09,4.25-2.48.52-.38,2.31-2.33,2.38-2.54.07-.21,1.52-1.6,2.52-2.09,1-.49,1.62-1.36,2.28-1.81s1.58-2.54,1.65-2.99c.07-.45.48-1.08.69-1.15.21-.07.49.1.49,1.04s.27,7.8.35,9.11c.07,1.32-.12,5.34-.25,7.1-.13,1.77-2.3,5.52-3.13,6.8-.83,1.29-3.21,3.79-3.93,4.28-.73.49-2.9,2.71-3.63,3.37-.73.66-3.04,1.61-3.28,1.85s-1.87,1.29-2.45,1.4c-.59.11-2.25.67-2.98.98-.73.31-1.84.32-2.91.15-1.07-.17-2.56.7-3.15.98s-2.32.15-2.74.08c-.42-.07-1.31.52-1.63.66-.31.14-1.63.08-1.84-.27-.21-.35-1.01-.59-1.56-.58s-1.66-.27-2.36-.48c-.69-.21-1.15-.48-1.6-.65-.45-.17-1.52.11-2.11-.1-.59-.21-1.49-.93-1.81-1-.31-.07-3.19-1.48-3.51-1.82-.31-.35-1.35-.55-1.49-.58-.14-.03-1.11.42-1.32-.24-.21-.66-1.08-1.28-1.08-1.28-1.77.25-2.04-.17-2.04-.17-.45-.9-1.49-1.07-1.77-1.55s-2.29-1.59-2.92-2c-.63-.41-.9-1.04-1.95-2.97-1.05-1.94-3.13-3.04-3.89-3.38s-3.83-5.04-4.67-6.91c-.84-1.87-2.8-6.36-5.15-6.01-2.35.36-.65,10.54.33,14.55.99,4.02,8.35,10.22,9.54,10.77,0,0,.48.38.97.48s.94-.1,1.53.94,1.24,2.52,1.19,3.61,0,2.72.1,3.07.45,1.43.59,1.88.2,2.08.2,3.07-.05,3.31-.05,3.61-.1,2.97,0,3.39,0,2.3.89,2.5,3.6.51,3.6.51ZM389.22,496.5c.03-3.56-1.16-5.2-1.9-6.08s-2.84-2.23-4.98-3.43c-2.14-1.21-4.44-3.46-5.39-4.17-.95-.72-2.05-3.33-2.38-4.56s-1.93-3.56-2.36-4.14-2-3.42-3.03-5.67-1.89-3.45-2.38-3.24-.08,3.1.1,4.76,1.02,5.45,1.69,7.95c.67,2.5,2.56,4.14,3.31,4.54s2.34,1.86,2.7,2.53.21,4.34.16,5.38-.42,4.27-.58,5.5.18,1.8.67,2.13,2.53.63,6.79,2.26c4.26,1.63,5.54,1.94,6.61,1.41.88-.44.93-1.59.96-5.15ZM363.61,492.21c-.02-.27.18-2.25.13-4.11s-.95-3.42-1.7-4.52c-.75-1.1-3.46-3.28-4.31-3.81s-1.93-1.64-3.2-2.79c-1.27-1.16-1.71-3.05-1.86-3.49s-.6-1.55-1.43-2.99-.56-1.98-1.27-4.33c-.71-2.36-.79-5.05-.82-6s-.51-2.46-.66-3.2.05-4.02.07-4.93-.46-1.6-.64-2.73-.23-4.93-.32-6.48c-.1-1.55.05-4.57.14-5.58s.46-4.31.44-4.93.84-3.88.94-4.46,1.37-3.23,1.56-3.5,1.64-2.4.99-2.68-1.91,2.52-2.69,3.31-1.52,2.52-1.71,3.14-1.04,4.31-1.56,5.61c-.52,1.3-.72,5.08-.57,6.7s-.02,5.26-.04,6.01-.79.94-1.43,1.16-1.48.99-1.74,1.49-.76.77-1.19.77-.7-.55-.79-.88-.56-.55-.96-.55-.52.19-.89.62-.76.55-.96.58-.36-.1-.58-.57-.68-.57-1.01-.57-.86.63-1.08,1.18-.86.65-1.05.65-.39-.36-.55-.81-.72-.62-1.13-.62-1.02.82-1.05,1.25-.53.6-.71.6-.34-.12-.48-.43-.62-.23-.82-.23-.55.51-.62.65-.41.34-.82.31-.24-.14-.61-1-.89-1.07-1.37-1.07-.65.82-.59,1.51-.25,3.68-.46,5.22-1.22,5.67-1.57,6.9c-.35,1.24-1.22,6.77-1.57,8.24s-.06,7.84-.03,8.66.54,1.72,1.23,1.72,1.37-.41,1.72-.41,1.58.55,2.02.9,1.34.76,2.23,1.07,2.02,1.24,2.19,1.69.79.93,1.27,1.34,2.67,1.18,3.46,1.32,2.26.59,3.6.73c1.34.14,1.82.73,2.64,1.04s2.88.9,3.5,1.18c.62.28,2.91,1.07,4.22,1.32s4.84,1.05,5.63,1.39,4.08.87,4.94.98,2.96.56,3.67.3c.57-.2.3-1.6.28-1.87ZM313.62,478.5c.08-.85.08-4.51.02-5.5s-.1-4.95-.13-6.31c-.03-1.37-.02-3.58.12-5.12.14-1.54-.09-3.69-.19-4.85s-.68-2.73-.75-4.64-.64-4.2-.95-5.09-.79-1.37-.92-2.94-1.62-1.85-2.03-1.88-2.76-.93-3.86-1.24-1.69-.28-2.11.33-.18,1.84.51,2.46,1.03,1.5,1.17,2.36-.25,1.91-.67,3.96-.46,4.67-.36,5.7-.32,2.73-.7,4.3-.19,4.5-.09,6.48c.1,1.98-.01,5.05-.02,5.63s-1.12,3.75-1.74,5.32c-.63,1.57-.73,3.14-.43,3.75s1.1.89,2.86,1.1,2.43.7,5.67.88,3.41-.62,4.02-1.17c.94-.85.5-2.68.58-3.53Z"/>
      <path class="cls-2" d="M321.46,362.22c.49,1.08.77,1.06,2.06,2.83.93,1.28.8,1.21,2.18,3.42.27.43,2.01,2.87,2.16,3.05.15.18,1.38,1.94,2.66,2.76s1.35.87,1.51.93c.15.06,1.6.68,2.14,1.07.54.39,1.9,1.53,2.46,2.12.56.59,1.21,1.27,2,1.78.8.52,1.57.99,1.76,1.13.19.14,1.77,1.02,3.04,1.55,1.27.53,3.69,1.64,4.03,1.79.34.15,1.3.78,2.11,1.05.81.27,3.68,1,4.2,1.08.52.08,3.02.38,3.73.48s2.48.44,4.09,1.31c1.61.87,3.14,2.14,4.01,2.85s3.08,2.36,3.54,2.61,3.87,2.42,4.25,2.74c.38.32,2.66,1.88,2.95,2.3.29.41,1.07,1.07,1.86,2.21.79,1.14,2.21,2.35,2.5,2.58.29.23,1.03.93,1.03.93,9.94-15.31,15.69-33.6,15.62-53.22-.2-53.66-43.87-97-97.54-96.79-53.66.2-97,43.87-96.79,97.54.19,49.13,36.8,89.6,84.16,95.93,0,0-1.38-4.07-1.61-4.92s-.82-2.95-.92-4.04c-.1-1.09-.24-2.29-.73-4.02-.49-1.73-1.34-5.1-1.55-5.56-.21-.46-1.72-2.07-2.53-3.04-.81-.97-1.6-2.63-1.91-3.32-.3-.69-.95-1.87-1.65-3.11-.56-1-.43-.96-.83-1.76-.02-.03-.03-.07-.06-.11-.14-.27-.21-.4-.52-.96-.2-.35-.31-.73-.55-1.5-.25-.83-.14-.91-.33-1.22-.26-.42-.56-.52-1-.83-.64-.46-.97-.96-1.52-1.79-.24-.36-.7-1.13-1.07-2.18-.24-.71-.35-1.27-.46-1.86-.14-.78-.22-1.2-.23-1.8-.02-1.05.19-1.56,0-2.54-.05-.24-.13-.55-.39-.8-.27-.26-.53-.26-.84-.38-.71-.27-1.07-.92-1.49-1.67-.37-.66-.59-1.05-.58-1.61,0-.65.29-1,.12-1.7-.06-.23-.14-.4-.26-.64-.3-.61-.57-.83-.84-1.22-.16-.23-.61-.89-.65-1.7-.04-.81.37-1.12.15-1.93-.09-.32-.23-.55-.26-.61-.26-.43-.51-.49-.81-.8-.38-.4-.5-.86-.65-1.44-.15-.59-.24-.94-.13-1.38.07-.28.17-.43.09-.61-.12-.28-.49-.25-.84-.45-.59-.32-.75-1.07-.91-1.83-.2-.92-.09-1.69-.04-1.99.09-.58.21-.77.32-1.61.03-.23.05-.49.09-1.03.09-1.11.05-1.12.12-1.61.06-.41.09-.45.06-.61-.09-.43-.43-.53-.81-.96-.47-.54-.6-1.15-.68-1.51-.02-.09-.04-.53-.07-1.41-.04-.97-.03-1.08.03-1.25.1-.3.18-.6.29-.9.06-.18.09-.26.06-.35-.08-.26-.48-.27-.81-.45-.36-.2-.5-.53-.78-1.19-.13-.3-.43-1.09-.46-2.15-.02-.79.11-1.47.15-1.7.09-.45.16-.58.22-1.03.08-.57.03-.73.06-1.35.04-.88.21-1.62.28-1.96.1-.46.16-.92.25-1.38.04-.19.08-.36.03-.58-.09-.4-.39-.62-.55-.77-.44-.4-.58-.89-.84-1.76-.24-.81-.22-1.45-.2-2.35.02-.66.03-1.05.19-1.54.19-.6.38-1.03.38-1.03.18-.4.29-.58.29-.87,0-.33-.17-.57-.26-.71,0,0-.59-.9-1-2.12-.29-.86-.24-1.63-.2-2.19.07-.92.26-.93.31-1.8.04-.54-.03-.64-.23-2.31-.17-1.44-.14-1.45-.27-2.28-.08-.48-.18-1.15-.39-1.99-.16-.63-.2-.66-.59-1.96-.43-1.46-.37-1.37-.59-2.02-.05-.15-.32-.84-.84-2.22-.39-1.01-.47-1.22-.52-1.61-.07-.51,0-.74-.13-1.29-.07-.32-.18-.61-.42-1.12-.5-1.04-1-1.82-1.17-2.09-.51-.79-.55-.77-1.33-1.89-.73-1.06-1.1-1.59-1.39-2.15-.46-.87-.39-1-.94-2.05-.48-.92-.53-.84-.94-1.64-.31-.61-.73-1.45-.97-2.6-.12-.59-.15-1.03-.2-1.67-.07-1.04-.11-1.55.02-2.22.06-.29.26-.81.67-1.87.29-.75.4-.97.57-1.22.19-.27.49-.7,1.06-1,.22-.12.62-.33,1.12-.29.27.02.45.1,1.16.48.67.36.72.45,1.26.7.19.09.59.27,1.13.38.61.13.77.03.84-.04.13-.13.14-.33.13-.58-.04-.59-.14-.85-.33-1.45-.29-.9-.4-1.27-.31-3.37.05-1.13.18-1.55.38-2.08.32-.83.29-1.24.6-2,.22-.55.33-.82.54-1.51.17-.55.25-.73.81-1.53.33-.47.86-1.33,1.52-1.66.62-.31,1.54-.89,2.31-.93.82-.04.9.33,1.59.69.62.31.6.49,1.47,1.02,1.1.67,1.36,1.27,1.59,1.42.64.44,1.2.82,1.9,1.38,1.43,1.12,2.41,2.1,2.68,2.37.83.84.95,1.07,2.03,2.27,1.16,1.28,1.28,1.28,2.26,2.35,1.36,1.49,1.16,1.49,2.13,2.5,1.46,1.52,1.69,1.3,2.9,2.69.78.89.92,1.25,1.69,1.87.78.63,1.51.98,1.98,1.2.75.35,1.38.54,2.8.91,2.29.58,2.35.51,3.81.9,1.73.47,2.62.72,3.62,1.34.53.33.95.67,1.79,1.34.61.49,1.25,1,1.98,1.73.93.92.65.82,2.37,2.74.8.9.13.22.43.86.27.58.26.85.58,1.35.34.53.79.9,1.45,1.3,1.18.71,2.02.89,3.43,1.39,1.31.46,2.25.88,3.04,1.24,1.38.62,2.4,1.19,3.62,1.87,2.39,1.32,2.36,1.48,3.58,2.01,1.53.67,1.91.58,3.38,1.19,1.44.6,1.74,1.02,3.62,2.06,1.65.91,2.48,1.37,3,1.48.13.03.54.11.73.43.14.24.1.51.05.77-.32,1.83-.27,1.76-.33,1.88-.3.67-.76,1.03-1.3,1.45-.17.13-.51.39-2.07,1.17-.96.48-1.07.5-1.83.88-1.38.69-1.55.88-2.26,1.21-1.44.67-2.94.81-3.08.83-.67.08-1.31.31-1.98.39-.34.04-.74.08-.87.34-.09.2.01.44.15.67.44.78,1.87,2.08,2.24,2.51.18.21.41.77.88,1.88.38.91.62,1.49.83,2.31.17.68.11.67.24,1.01.21.52.48.84,1.26,1.73.69.78.79.88,1.11,1.25.76.87,1.14,1.31,1.45,1.78.68,1.03.51,1.42,1.04,2.59Z"/>
      <g>
        <path class="cls-1" d="M104.93,288.67l19.38,9.94c.96.49,1.39.47,2.73-1.42.29-.39.56-.46.93-.27.15.08.5.3.66.44-.97,1.63-2.11,3.67-2.86,5.12-.76,1.49-1.74,3.57-2.47,5.27-.22-.02-.61-.17-.76-.24-.33-.17-.55-.38-.34-.97.73-2.05.54-2.5-.42-2.99l-19.38-9.94-1.77,3.45c-1.49,2.9-1,4.39.94,6.97.2.25.15.52.03.76-.16.31-.57.75-.78.89-1-.96-1.71-1.67-2.51-2.28-1.04-.78-1.96-1.35-2.25-1.7-.16-.23-.17-.48,0-.8.3-.59,1.45-2.28,2.67-4.67l6.19-12.07c1.21-2.35,1.91-4.27,2.23-4.9.14-.27.37-.45.65-.46.45.03,1.43.48,2.69.84.96.3,1.93.5,3.31.71-.01.29-.1.84-.27,1.15-.14.27-.31.43-.65.46-3.22-.07-4.72.4-6.19,3.26l-1.77,3.45Z"/>
        <path class="cls-1" d="M145.65,265.7c.87.63,1.31.67,3.04-1.18.19-.19.53-.17.83.05.13.1.45.37.59.53-1.17,1.49-2.61,3.28-3.56,4.6-.98,1.36-2.24,3.33-3.27,4.92-.22-.05-.56-.29-.69-.39-.3-.22-.46-.49-.32-.77,1.17-2.2,1.02-2.63.15-3.26l-7.91-5.67-6.93,9.67,7.91,5.67c.88.63,1.31.67,3.04-1.18.19-.19.53-.17.83.05.13.1.45.37.59.53-1.17,1.49-2.66,3.35-3.61,4.68-.95,1.32-2.18,3.26-3.22,4.85-.22-.05-.56-.29-.69-.39-.3-.22-.46-.49-.32-.77,1.17-2.2,1.02-2.63.15-3.26l-16.86-12.09c-.88-.63-1.33-.63-3.04,1.18-.25.2-.56.14-.83-.05-.13-.1-.47-.34-.62-.55,1.21-1.47,2.61-3.28,3.56-4.6.95-1.32,2.27-3.31,3.27-4.92.23.11.59.31.72.41.27.19.4.51.32.77-1.19,2.23-1.02,2.63-.15,3.26l7.17,5.14,6.93-9.67-7.17-5.14c-.88-.63-1.33-.63-3.04,1.18-.25.2-.56.14-.83-.05-.13-.1-.47-.34-.62-.55,1.21-1.47,2.63-3.32,3.61-4.68.95-1.32,2.22-3.23,3.22-4.85.23.11.59.31.72.41.27.19.4.5.32.77-1.2,2.23-1.02,2.63-.15,3.26l16.86,12.09Z"/>
        <path class="cls-1" d="M140.18,239.26l7.21,6.91,4.3-4.49c.76-.8.38-1.53-.82-3.1-.27-.32-.11-.66.19-.98.12-.13.49-.45.64-.55.81.96,2.15,2.37,2.99,3.17.72.69,1.74,1.6,3.08,2.65-.06.18-.37.56-.49.69-.34.35-.67.46-1,.2-1.77-1.21-2.43-1.35-3.1-.65l-4.3,4.49,6.7,6.42c.84.8,2.02-.02,4.52-2.62l1.28-1.34c2.41-2.51,1.91-4.69,1-7.52-.09-.21.04-.46.22-.65.21-.22.67-.4,1.06-.57.21.38.42.76.59,1.12.27.62.71,1.29.92,1.73.62.96,1.67,2.45,1.81,2.84.09.27,0,.48-.25.74-.61.64-2.8,2.62-3.87,3.74l-6.92,7.22c-1.19,1.24-2.77,3.08-3.93,4.41-.21-.08-.54-.4-.66-.51-.3-.29-.36-.52-.17-.78,1.25-1.85,1.66-2.75.88-3.49l-14.98-14.36c-.81-.77-1.44-.47-3.45,1.03-.27.17-.54.09-.84-.2-.18-.17-.39-.37-.51-.61,1.86-1.7,3.23-3.07,4.2-4.09l6.25-6.52c1.83-1.91,3.05-3.54,3.54-4.05.21-.22.49-.33.76-.25.45.19,1.44,1.07,2.58,1.74.78.5,1.47.92,2.73,1.46-.09.28-.28.65-.52.9-.21.22-.42.32-.76.25-3.07-.99-4.61-.94-6.83,1.38l-4.05,4.23Z"/>
        <path class="cls-1" d="M183.78,201.31c-.06-.56-.08-.9,1.62-2.07.8-.55,3.18-2.3,4.38-3.27.21.15.4.43.5.56.23.34.29.65.05.92-1.73,1.6-1.76,2.02-1.25,2.77.21.31,11.85,15.38,12.85,16.6.65.86,1.19.94,3.22-.06.28-.14.56-.04.85.37.09.14.25.43.33.63-1.75,1.11-3.02,1.83-4.76,3.03-1.59,1.1-3.55,2.6-4.7,3.5-.15-.15-.38-.39-.47-.53-.33-.48-.23-.8-.08-.9,1.76-1.72,1.91-2.27,1.27-3.19-.26-.38-9.51-12.46-10.28-13.34l3.79,21.39c.07.56.06.86-.23,1.06-.11.07-.33.23-.46.27l-21.49-13.15c1.14,1.88,10.04,16.17,10.32,16.58.59.85.99.97,3.22-.06.28-.14.54-.07.85.37.09.14.22.4.33.63-1.38.8-2.51,1.48-3.6,2.23-.94.65-2.54,1.9-3.65,2.77-.19-.12-.38-.39-.47-.53-.33-.48-.24-.74-.05-.92,1.28-1.33,1.69-2.12,1.2-2.99-.7-1.17-10.85-17.58-11.04-17.85-.52-.75-1.07-.77-3.03.18-.31.17-.59,0-.85-.37-.09-.14-.28-.41-.35-.66,1.34-.77,4.94-3.16,5.85-3.78,1.7-1.18,2.05-1.06,2.51-.78l17.31,10.65-3.68-20.06Z"/>
        <path class="cls-1" d="M219.72,201.46l-8.39,3.91.35,6.19c-.04.34.08.69.15.84.24.53.86.7,2.64.14.34-.11.66-.04.89.45.07.15.17.47.22.68-1.49.56-3.2,1.26-4.72,1.97-1.08.5-2.18,1.06-3.55,1.88-.17-.15-.31-.45-.38-.6-.21-.45-.21-.77.17-.99,1.5-1.06,1.97-1.6,1.99-2.62l-.45-26.1c.03-.56.3-.92.66-1.08.24-.11.54-.2.87-.32l20.01,17.81c.67.6,1.83.47,2.97.12.43-.11.72-.02.95.47.07.15.19.51.24.71-1.73.67-3.48,1.39-4.92,2.06-1.48.69-4.46,2.21-5.94,3-.17-.15-.31-.45-.38-.6-.21-.45-.08-.79.11-.92,1.25-.86,1.79-1.47,1.49-2.11-.07-.15-.2-.32-.38-.51l-4.62-4.38ZM218.09,199.93l-7.33-6.86.46,10.06,6.87-3.2Z"/>
        <path class="cls-1" d="M243.44,177.41c.02-.36.02-.66-.06-.9-.23-.71-1.01-.8-2.83-.42-.35.07-.59-.11-.75-.58-.03-.08-.04-.25-.09-.41l-.06-.33c1-.2,3.2-.83,4.67-1.32,1.63-.54,3.17-1.08,4.16-1.58l.14.3c.09.14.16.34.18.42.16.47.08.8-.24.95-1.71.73-2.23,1.26-2.33,2.38l-2.71,26.61c-.24.12-.41.18-.61.25-.42.14-.62.07-1.02-.41l-17.28-19.57c-.58-.64-1.03-.88-3.19-.39-.39.08-.65-.14-.82-.65-.05-.16-.17-.51-.14-.7,1.71-.43,4.5-1.26,6.05-1.77,1.84-.6,4.2-1.47,5.88-2.15.16.21.26.52.32.68.14.43.06.76-.26.91-1.71.73-2.26,1.31-2.05,1.94.06.2.17.38.33.59l11.22,13.54,1.47-17.4Z"/>
        <path class="cls-1" d="M262.61,171.49l1.79,9.82,6.11-1.12c1.08-.2,1.2-1.02,1.16-2.99-.03-.42.29-.6.73-.68.17-.03.66-.08.84-.07.09,1.25.36,3.18.56,4.32.18.98.47,2.31.95,3.95-.16.11-.63.24-.8.27-.48.09-.81-.02-.93-.42-.73-2.01-1.18-2.52-2.13-2.35l-6.11,1.12,1.67,9.13c.21,1.14,1.65,1.17,5.2.52l1.82-.33c3.42-.63,4.3-2.68,5.22-5.5.05-.22.29-.35.55-.4.3-.06.77.07,1.19.16-.06.43-.11.86-.17,1.25-.15.66-.18,1.46-.27,1.94-.06,1.15-.08,2.96-.19,3.36-.08.27-.29.39-.63.45-.87.16-3.81.49-5.32.76l-9.84,1.8c-1.69.31-4.05.87-5.77,1.26-.12-.19-.21-.64-.24-.8-.08-.41.02-.64.31-.73,2.1-.76,2.95-1.25,2.76-2.31l-3.73-20.41c-.2-1.1-.9-1.23-3.4-1.19-.32-.03-.49-.25-.57-.65-.04-.24-.1-.53-.06-.79,2.5-.29,4.41-.6,5.8-.85l8.88-1.62c2.6-.48,4.55-1.08,5.24-1.21.3-.06.59.02.76.24.25.42.54,1.71,1.07,2.92.34.86.65,1.61,1.36,2.78-.24.17-.61.36-.95.43-.3.06-.54.01-.76-.24-1.91-2.6-3.18-3.46-6.35-2.88l-5.76,1.05Z"/>
        <path class="cls-1" d="M294.01,180.5l-1.89.08.39,8.65c.06,1.28,1.13,1.61,3.87,1.82.4.02.63.26.65.8,0,.17-.02.54-.05.75-1.68-.05-4.37-.01-7.36.12-2.11.09-4.09.26-5.8.46-.1-.2-.11-.53-.12-.7-.02-.54.19-.75.45-.81,2.45-.52,2.87-.83,2.83-1.91l-.93-20.72c-.05-1.12-.73-1.5-3.16-1.64-.27-.07-.5-.27-.52-.81,0-.21-.02-.54.06-.71,1.63.05,4.06.03,5.73-.05l6.64-.29c6.25-.28,10.12,2.58,10.32,7,.13,2.9-1.78,5.59-5.07,6.94l7.33,9.17c1.12,1.4,2.63,1.71,3.83,1.94.27.03.49.19.52.68,0,.21.02.54-.05.79-1.32-.02-4.98.01-6.65.09-1.23.05-2.56-.96-3.77-2.49l-7.24-9.17ZM293.34,178.45c3.61-.16,5.93-1.42,5.75-5.48-.15-3.39-1.79-5.47-6.23-5.28l-1.32.06.48,10.76,1.32-.06Z"/>
        <path class="cls-1" d="M322.29,189.71c-.07,1.07.13,1.46,2.61,1.95.26.06.42.36.4.73-.01.17-.08.58-.14.78-1.88-.2-4.21-.48-5.83-.58-1.67-.11-4.01-.13-5.86-.17-.07-.21-.05-.63-.04-.79.02-.37.17-.65.49-.67,2.48-.17,2.77-.53,2.84-1.6l1.32-20.71c.07-1.07-.17-1.46-2.61-1.95-.3-.1-.42-.4-.39-.73.01-.17.04-.58.14-.82,1.84.24,4.16.47,5.83.58,1.63.1,3.96.17,5.86.17.03.25.05.67.04.83-.02.33-.21.61-.48.67-2.53.17-2.77.53-2.84,1.6l-1.32,20.71Z"/>
        <path class="cls-1" d="M330.23,179.65c1.1-6.45,6.87-12.98,17.68-11.13,2.95.51,5.28,1.28,8.14,2.57-.17,1.48-.21,4.08.03,6.35-.27,0-.9.01-1.11-.02-.43-.07-.77-.22-.82-.69-.6-3.8-2.31-5.31-6.35-6-6.25-1.07-10.35,2.51-11.49,9.13-1.22,7.1,2.12,13.18,7.81,14.15,4.69.8,6.62-.55,8.65-3.81.24-.38.71-.51,1.1-.44.26.04.77.22,1.05.39-.97,1.77-2.46,4.45-3.28,6.62-2.91,0-5.81-.28-9.33-.88-9.77-1.67-13.43-8.47-12.11-16.23Z"/>
        <path class="cls-1" d="M368.25,187.61l-3.21,9.98c-.33,1.03-.32,1.42,1.68,2.41.28.13.38.38.27.74-.05.16-.25.62-.35.8-1.77-.7-3.67-1.4-5.22-1.9s-3.77-1.08-5.6-1.58c-.02-.22.12-.66.17-.82.11-.35.32-.55.62-.5,2.45.44,2.82.17,3.15-.86l6.35-19.75c.33-1.03.19-1.46-2.06-2.53-.27-.17-.31-.49-.2-.81.05-.16.18-.55.34-.76,1.77.7,3.92,1.48,5.47,1.98,1.55.5,3.84,1.15,5.68,1.61-.03.25-.12.66-.17.82-.1.32-.36.54-.64.54-2.49-.45-2.82-.17-3.15.86l-2.93,9.11,11.85-5.63c.75-.32,1.2-.7,1.31-1.06.14-.43-.39-.95-1.61-1.47-.29-.09-.37-.42-.2-.98.05-.16.14-.43.3-.64,1.51.62,3.33,1.29,4.68,1.72,1.22.39,3.3.97,4.47,1.22,0,.26-.08.54-.13.7-.15.47-.34.76-.74.72-1.65-.18-2.59-.14-3.74.41l-11.01,5.03,6.18,15.04c.63,1.51,1.37,2.22,2.8,2.95.37.16.5.46.36.9-.05.16-.26.66-.41.83-1.68-.67-4.21-1.57-5.72-2.06-1.55-.5-4.14-1.24-6.1-1.75.02-.21.12-.66.17-.82.13-.39.41-.56.71-.47,1.39.27,1.93.19,2.07-.25.1-.32-.02-.66-.23-1.16l-5.22-12.56Z"/>
        <path class="cls-1" d="M410.34,210.35l-8.12-4.43-4.77,3.95c-.29.17-.51.48-.59.62-.28.51-.05,1.1,1.45,2.21.29.21.42.51.16.99-.08.15-.28.42-.42.58-1.33-.87-2.92-1.83-4.39-2.63-1.04-.57-2.15-1.12-3.62-1.74.02-.22.18-.51.26-.66.24-.44.49-.63.9-.45,1.74.58,2.46.64,3.29.05l20.75-15.85c.47-.31.92-.3,1.27-.11.23.13.48.31.77.52l-2.47,26.68c-.09.9.7,1.75,1.67,2.47.35.28.44.57.18,1.04-.08.15-.3.45-.43.61-1.56-1-3.19-1.98-4.58-2.74-1.43-.78-4.43-2.28-5.94-3.01.02-.22.18-.51.26-.66.24-.44.59-.53.8-.46,1.43.5,2.25.57,2.59-.05.08-.15.14-.35.18-.61l.79-6.32ZM410.59,208.13l1.18-9.97-7.83,6.34,6.65,3.63Z"/>
        <path class="cls-1" d="M433.21,221.71l-1.51-1.14-5.21,6.91c-.77,1.03-.15,1.96,1.83,3.87.29.27.32.6,0,1.03-.1.13-.36.4-.52.54-1.26-1.11-3.36-2.79-5.75-4.59-1.69-1.27-3.32-2.4-4.77-3.33.05-.22.25-.48.35-.62.32-.43.62-.46.86-.34,2.22,1.15,2.75,1.19,3.39.33l12.48-16.57c.67-.89.39-1.62-1.39-3.28-.16-.23-.21-.52.11-.95.12-.17.32-.43.49-.51,1.23,1.08,3.11,2.6,4.45,3.61l5.32,4c5,3.76,6.17,8.43,3.51,11.97-1.74,2.32-4.93,3.18-8.33,2.13l-.18,11.73c-.03,1.79.95,2.99,1.72,3.94.19.19.26.46-.04.85-.12.17-.32.43-.54.58-1.01-.86-3.85-3.16-5.19-4.17-.99-.74-1.36-2.37-1.33-4.32l.25-11.68ZM434,219.71c2.89,2.17,5.48,2.68,7.92-.57,2.04-2.71,2.11-5.36-1.45-8.04l-1.06-.79-6.47,8.6,1.06.79Z"/>
        <path class="cls-1" d="M467.22,234.05l-15.23,15.58c-.75.77-.86,1.19.55,3.03.29.4.27.67-.02.97-.12.12-.44.38-.61.5-1.27-1.41-2.88-3.1-4.05-4.24-1.2-1.17-2.89-2.71-4.3-3.92.08-.21.34-.54.46-.66.26-.27.53-.41,1.02-.04,1.75,1.3,2.23,1.25,2.98.48l15.23-15.58-2.77-2.71c-2.33-2.28-3.9-2.25-6.94-1.16-.3.12-.54-.01-.73-.2-.25-.25-.55-.77-.62-1.01,1.21-.67,2.1-1.14,2.92-1.72,1.05-.76,1.87-1.47,2.29-1.65.27-.09.51-.02.76.23.47.46,1.75,2.06,3.67,3.93l9.71,9.48c1.89,1.85,3.51,3.09,4.02,3.58.22.22.32.49.24.76-.16.42-.88,1.22-1.59,2.32-.57.83-1.05,1.7-1.66,2.96-.28-.1-.77-.35-1.02-.59-.22-.22-.32-.43-.24-.76,1.02-3.06,1.01-4.63-1.29-6.88l-2.77-2.71Z"/>
        <path class="cls-1" d="M466.66,266c-.83.69-.98,1.09.37,3.24.14.23.02.55-.26.79-.13.11-.47.34-.66.43-1.14-1.51-2.53-3.39-3.57-4.65-1.07-1.29-2.65-3.01-3.89-4.39.1-.2.42-.46.55-.57.29-.24.59-.32.82-.11,1.83,1.69,2.28,1.66,3.11.97l15.99-13.22c.83-.69.95-1.13-.37-3.24-.13-.29,0-.58.26-.79.13-.11.45-.37.69-.46,1.08,1.51,2.51,3.36,3.57,4.65,1.04,1.26,2.59,3,3.89,4.39-.16.19-.45.49-.58.6-.25.21-.59.26-.82.11-1.85-1.72-2.28-1.66-3.11-.97l-15.99,13.22Z"/>
        <path class="cls-1" d="M494.97,276.2c-.45-.66-.31-1.12-.11-1.42,1.86-2.86,1.78-5.26-.23-8.21-1.59-2.33-3.95-3.44-6.1-1.97-5.03,3.43,5.3,14.78-2.67,20.21-3.49,2.38-8.46,2.14-12.43-3.68-2.16-3.17-3.16-6.33-3.48-8.5,1.85-1.47,3.54-3.11,5.05-4.72.19.14.53.49.71.74.4.58.4.95,0,1.49-2.6,3.69-2.92,6.31-.51,9.84,2.03,2.99,4.58,3.12,6.43,1.86,5.85-3.99-5.04-14.1,3.14-19.67,3.63-2.47,8.49-1.52,11.83,3.4,1.36,2,2.35,4.26,3.15,7.5-1.32,1.01-3.03,2.54-4.2,3.77-.22-.17-.45-.44-.57-.62Z"/>
        <path class="cls-1" d="M510.08,293.65l-19.38,9.94c-.96.49-1.19.86-.44,3.05.15.47.04.72-.33.91-.15.08-.54.23-.74.28-.75-1.74-1.75-3.86-2.49-5.31-.76-1.49-1.88-3.49-2.84-5.08.14-.17.49-.4.64-.48.33-.17.63-.22.98.29,1.24,1.79,1.71,1.89,2.67,1.4l19.38-9.94-1.77-3.45c-1.49-2.9-2.98-3.37-6.21-3.3-.32.01-.51-.18-.63-.42-.16-.31-.28-.9-.26-1.15,1.36-.25,2.35-.41,3.31-.71,1.24-.39,2.24-.8,2.69-.83.28,0,.49.14.65.46.3.59,1,2.5,2.23,4.9l6.19,12.07c1.21,2.35,2.35,4.04,2.67,4.67.14.27.15.57-.01.8-.29.35-1.23.88-2.25,1.7-.8.61-1.53,1.28-2.51,2.28-.23-.18-.62-.57-.78-.89-.14-.27-.17-.51,0-.8,1.94-2.58,2.43-4.07.96-6.93l-1.77-3.45Z"/>
      </g>
      <g>
        <path class="cls-1" d="M177.28,556.31c.4-.21.64-.33,1.65.52.47.4,1.95,1.56,2.76,2.11-.09.2-.27.41-.36.52-.23.27-.45.4-.66.31-1.31-.75-1.62-.64-2.12-.05-.2.24-10.09,12.91-10.89,13.98-.57.71-.58,1.12.33,2.25.13.15.08.39-.19.71-.09.11-.29.3-.43.42-.96-.9-1.6-1.58-2.62-2.45-.94-.8-2.2-1.73-2.96-2.27.09-.15.25-.38.34-.49.32-.37.56-.4.64-.33,1.4.73,1.82.67,2.43-.05.25-.29,8.18-10.4,8.75-11.2l-15.17,9.03c-.4.21-.62.3-.79.15-.06-.05-.19-.16-.23-.24l7.62-19.05c-1.26,1.36-10.83,11.88-11.1,12.2-.57.67-.62.99.33,2.25.13.15.1.36-.2.71-.09.11-.27.28-.43.42-.7-.73-1.3-1.33-1.94-1.87-.56-.47-1.61-1.22-2.33-1.75.07-.17.25-.38.34-.49.32-.37.51-.39.66-.31,1.08.5,1.69.56,2.28-.04.79-.84,11.77-12.86,11.96-13.08.5-.59.46-.98-.4-2.08-.15-.17-.05-.41.19-.71.09-.11.27-.32.45-.44.68.71,2.73,2.54,3.26,2.99,1,.85.95,1.13.79,1.54l-6.18,15.36,14.21-8.55Z"/>
        <path class="cls-1" d="M179.36,575.12l1.92-9.73c.17-.9-.1-1.39-.74-2.01-.15-.14-.11-.37.1-.66.03-.05.1-.15.19-.23l.14-.16c.54.49,1.52,1.24,2.62,2,.78.54,2.29,1.52,2.94,1.86-.16.32-.23.42-.27.47-.22.32-.41.37-.57.3-.79-.4-1.13-.38-1.34-.09-.09.12-.16.32-.22.62l-1.57,7.38,6.06-3.68c.4-.23.65-.46.77-.63.27-.39.11-.73-.53-1.39-.15-.14-.16-.33.06-.65.03-.05.17-.21.37-.4.52.47,1.47,1.21,2.13,1.66.64.44,1.37.92,2.14,1.3-.11.25-.23.42-.27.47-.19.27-.39.39-.57.3-1.09-.54-1.51-.5-2.17-.12l-8.59,5.14-3.4,4.9c-.5.71-.37,1.1.69,2.12.11.11.16.29-.08.64-.03.05-.12.13-.19.23l-.14.16c-.43-.3-.8-.59-1.16-.88-.62-.5-1.37-1.06-1.84-1.38-.49-.34-1.21-.8-1.84-1.17-.37-.22-.73-.44-1.08-.68l.1-.19c.05-.11.12-.21.15-.26.24-.34.43-.36.57-.3,1.36.54,1.73.62,2.23-.1l3.37-4.85Z"/>
        <path class="cls-1" d="M203.73,590.64l-5.18-2.78-3.58,3.6c-.21.16-.39.43-.46.55-.23.43-.12.89.81,1.63.18.14.25.37.03.77-.07.12-.22.36-.33.5-.84-.57-1.84-1.19-2.78-1.69-.67-.36-1.37-.7-2.33-1.05.03-.18.17-.43.23-.55.2-.37.39-.55.65-.44,1.14.3,1.63.28,2.24-.27l15.48-14.57c.35-.29.65-.33.87-.21.15.08.3.2.49.34l-3.89,21.51c-.13.72.33,1.33.93,1.81.21.19.25.41.04.82-.07.12-.24.39-.35.53-.99-.65-2.01-1.28-2.9-1.76-.91-.49-2.84-1.4-3.81-1.85.03-.18.17-.43.23-.55.2-.37.45-.48.59-.44.94.27,1.49.24,1.77-.28.07-.12.12-.29.17-.5l1.06-5.11ZM204.09,588.85l1.63-8.06-5.87,5.79,4.24,2.28Z"/>
        <path class="cls-1" d="M218.1,596.44l-.99-.43-2.48,5.76c-.37.85.08,1.34,1.41,2.17.2.12.24.33.08.69-.05.11-.18.35-.26.48-.84-.46-2.21-1.12-3.78-1.79-1.1-.47-2.16-.86-3.09-1.17.01-.16.11-.38.16-.49.15-.36.33-.45.48-.42,1.4.28,1.72.18,2.03-.53l5.94-13.81c.32-.74.09-1.17-1.1-1.88-.11-.11-.17-.3-.02-.66.06-.14.15-.36.25-.45.81.45,2.05,1.05,2.93,1.42l3.47,1.49c3.26,1.4,4.35,4.26,3.08,7.21-.83,1.93-2.63,3.21-4.72,3.26l.89,7.86c.14,1.2.81,1.79,1.35,2.25.13.09.19.25.05.58-.06.14-.15.36-.27.5-.67-.35-2.54-1.26-3.41-1.63-.64-.28-1-1.28-1.15-2.58l-.84-7.84ZM218.4,594.93c1.88.81,3.46.57,4.62-2.13.97-2.26.79-4.04-1.53-5.04l-.69-.3-3.08,7.17.69.3Z"/>
        <path class="cls-1" d="M238.69,594.45l-5.18,14.91c-.26.74-.23,1.03.92,1.68.24.15.29.32.19.61-.04.11-.16.39-.23.52-.99-.44-2.22-.93-3.09-1.23-.9-.31-2.15-.68-3.17-.94,0-.16.08-.45.12-.56.09-.25.21-.44.56-.38,1.23.2,1.48,0,1.74-.73l5.18-14.9-2.08-.72c-1.75-.61-2.6-.05-4.05,1.67-.14.17-.3.18-.44.13-.19-.07-.46-.29-.54-.41.53-.83.92-1.43,1.25-2.07.42-.84.73-1.56.92-1.81.13-.15.28-.19.47-.12.35.12,1.38.67,2.82,1.17l7.28,2.52c1.42.49,2.56.7,2.94.83.17.06.28.19.29.39,0,.32-.24,1.06-.4,1.99-.14.71-.23,1.41-.31,2.4-.17.04-.49.05-.68-.01-.17-.06-.26-.15-.29-.39-.07-2.25-.39-3.22-2.12-3.81l-2.08-.72Z"/>
        <path class="cls-1" d="M248.12,613.77c-.21.75-.16,1.05,1.16,1.65.14.07.18.3.11.56-.03.12-.13.4-.2.54-1.02-.34-2.28-.78-3.17-1.02-.92-.25-2.22-.51-3.25-.73,0-.16.07-.45.1-.56.07-.26.2-.44.38-.43,1.41.14,1.63-.08,1.83-.84l3.95-14.5c.21-.75.13-1.05-1.16-1.65-.15-.1-.17-.33-.11-.56.03-.12.11-.41.21-.57.99.36,2.25.77,3.17,1.02.89.24,2.19.53,3.25.73-.02.18-.08.48-.11.59-.06.23-.21.41-.38.43-1.44-.14-1.63.08-1.83.84l-3.95,14.5Z"/>
        <path class="cls-1" d="M266.73,605.37c-.44-.09-.56-.39-.58-.64-.27-2.39-1.2-3.53-3.19-3.95-1.57-.33-3.01.35-3.4,2.2-.9,4.32,7.86,4.55,6.43,11.4-.62,3-2.88,5.47-6.79,4.65-2.13-.44-3.75-1.49-4.71-2.39.25-1.7.38-3.39.42-4.97.13-.03.42-.04.59,0,.39.08.53.26.56.73.26,3.18,1.1,4.64,3.47,5.14,2.01.42,3.16-.84,3.5-2.43,1.05-5.02-7.49-4.35-6.03-11.38.65-3.11,3.12-5.17,6.43-4.48,1.35.28,2.62.88,4.19,2.07-.2,1.19-.36,2.84-.41,4.05-.16.03-.36.02-.48,0Z"/>
        <path class="cls-1" d="M280.55,603.97l-2.02,15.65c-.1.77-.01,1.06,1.25,1.46.26.09.34.26.31.55-.02.12-.08.41-.12.56-1.05-.23-2.36-.46-3.28-.57-.94-.12-2.24-.23-3.29-.27-.03-.16-.02-.46,0-.58.04-.27.11-.47.47-.48,1.24-.05,1.45-.3,1.55-1.07l2.02-15.65-2.18-.28c-1.83-.24-2.56.49-3.62,2.47-.1.2-.26.24-.41.22-.2-.03-.5-.19-.62-.29.35-.92.61-1.58.8-2.29.24-.91.39-1.67.53-1.96.1-.17.23-.24.43-.22.37.05,1.49.37,3,.57l7.64.99c1.49.19,2.65.16,3.05.21.17.02.31.13.36.32.06.31-.01,1.09.01,2.03,0,.73.07,1.43.19,2.42-.16.07-.47.15-.67.12-.17-.02-.29-.1-.36-.32-.52-2.19-1.04-3.07-2.85-3.3l-2.18-.28Z"/>
        <path class="cls-1" d="M306.72,602.54l-.3,18.4c-.01.91.12,1.23,1.57,1.53.31.07.42.25.41.6,0,.14-.04.49-.07.66-1.2-.12-2.69-.22-3.72-.24-1.06-.02-2.52.03-3.7.11-.05-.18-.08-.53-.07-.67,0-.31.07-.56.46-.62,1.38-.22,1.58-.53,1.59-1.44l.3-18.4-2.46-.04c-2.07-.03-2.79.9-3.72,3.33-.09.24-.26.31-.42.31-.22,0-.59-.15-.72-.26.27-1.12.48-1.92.6-2.75.16-1.08.23-1.99.35-2.34.09-.21.23-.31.45-.31.42,0,1.7.24,3.41.27l8.62.14c1.68.03,2.97-.16,3.42-.15.2,0,.36.11.44.32.11.35.12,1.26.27,2.35.1.84.25,1.65.51,2.77-.17.1-.51.24-.73.23-.2,0-.33-.08-.44-.32-.86-2.46-1.54-3.42-3.58-3.45l-2.46-.04Z"/>
        <path class="cls-1" d="M320.74,614.83l-4.63-8.78c-.43-.81-.95-1.01-1.83-1.1-.2-.01-.32-.22-.34-.58,0-.06-.01-.18,0-.3v-.21c.74.04,1.96,0,3.31-.09.95-.07,2.74-.26,3.46-.4.08.36.08.48.09.54.03.39-.09.55-.26.59-.86.18-1.12.41-1.1.77.01.15.08.36.22.62l3.42,6.73,2.4-6.67c.17-.43.22-.77.2-.98-.04-.48-.37-.63-1.28-.75-.2-.01-.34-.16-.37-.54,0-.06,0-.27.04-.54.71.04,1.91.01,2.7-.05.77-.06,1.64-.15,2.48-.33.07.27.08.47.09.53.02.33-.06.55-.26.59-1.18.27-1.49.56-1.76,1.27l-3.45,9.4.43,5.96c.06.87.41,1.08,1.87,1.22.15.02.31.13.34.55,0,.06-.01.18,0,.3v.21c-.53.04-1.01.04-1.46.05-.8,0-1.73.04-2.3.08-.6.04-1.44.13-2.16.25-.42.06-.84.12-1.27.15l-.04-.21c-.03-.12-.04-.24-.05-.3-.03-.42.11-.55.26-.59,1.4-.43,1.74-.61,1.67-1.48l-.43-5.89Z"/>
        <path class="cls-1" d="M336.82,613.22l.82,5.7c.13.92.77,1.1,2.33,1.12.23,0,.38.16.43.54.02.12.03.39.03.54-.95.05-2.47.21-4.16.45-1.19.17-2.29.39-3.25.62-.07-.14-.11-.38-.12-.5-.06-.39.05-.55.19-.6,1.34-.5,1.56-.74,1.45-1.51l-2.15-14.88c-.12-.8-.53-1.04-1.92-1.03-.16-.04-.3-.17-.36-.55-.02-.15-.06-.39-.02-.51.93-.04,2.3-.18,3.24-.32l3.74-.54c3.51-.51,5.91,1.21,6.4,4.59.45,3.09-1.22,6.09-4.78,6.6l-1.88.27ZM337.35,611.63c2.03-.29,3.2-1.61,2.78-4.52-.38-2.64-1.42-4.07-3.97-3.7l-.74.11,1.19,8.23.74-.11Z"/>
        <path class="cls-1" d="M349.65,601.04l1.53,7.06,3.45-.75c.61-.13.64-.72.51-2.14-.04-.3.14-.43.38-.48.1-.02.37-.05.48-.04.12.9.37,2.28.54,3.1.15.7.39,1.67.74,2.85-.08.08-.35.17-.45.19-.27.06-.46-.02-.55-.31-.52-1.45-.8-1.82-1.34-1.7l-3.45.75,1.42,6.57c.18.82,1,.86,3.01.42l1.03-.22c1.93-.42,2.33-1.89,2.71-3.9.02-.16.15-.25.3-.28.17-.04.45.06.69.13,0,.31-.02.62-.04.9-.05.47-.03,1.05-.06,1.39.02.82.1,2.13.06,2.41-.04.19-.14.28-.34.32-.49.11-2.16.31-3.01.5l-5.54,1.2c-.95.21-2.28.58-3.24.86-.08-.14-.15-.46-.18-.58-.06-.29-.02-.46.14-.52,1.17-.53,1.63-.87,1.46-1.64l-3.18-14.69c-.17-.79-.58-.89-2.01-.88-.18-.02-.29-.18-.36-.47-.04-.18-.08-.38-.07-.57,1.42-.18,2.5-.39,3.28-.56l5.01-1.08c1.47-.32,2.55-.74,2.94-.82.17-.04.34.02.45.18.17.3.39,1.23.76,2.11.24.62.46,1.16.92,2.01-.13.12-.33.25-.52.3-.17.04-.31,0-.45-.18-1.23-1.88-2-2.51-3.79-2.13l-3.25.7Z"/>
        <path class="cls-1" d="M371.92,599.13c1.81-.58,3.78.47,4.37,2.32.6,1.86-.39,3.86-2.2,4.44-1.83.59-3.77-.47-4.37-2.32s.36-3.85,2.2-4.44Z"/>
        <path class="cls-1" d="M400.12,596.1c.78,1.78.99,3.5.65,5.15-.35,1.66-1.15,2.76-2.4,3.31-1.57.69-3.19.47-4.85-.66-1.66-1.13-3.03-2.94-4.12-5.43-1-2.29-1.5-4.56-1.5-6.81,0-2.25.52-4.11,1.53-5.58.85-1.22,1.96-2.13,3.33-2.74.32-.14.52-.13.58.02.06.14-.01.26-.22.37-1.31.75-2.26,1.87-2.86,3.37-.78,1.95-.58,4.61.59,7.97.42-1.32,1.16-2.21,2.21-2.67.86-.38,1.78-.45,2.77-.23,1.89.42,3.32,1.72,4.28,3.92ZM397.81,597.23c-1.5-3.42-3.12-4.74-4.88-3.97-.79.35-1.23,1.02-1.29,2.03-.07,1,.22,2.24.86,3.71.92,2.11,1.98,3.68,3.18,4.71.76.65,1.52.81,2.28.48,1.62-.71,1.57-3.03-.15-6.96Z"/>
        <path class="cls-1" d="M411.48,580.94c3.01-1.71,6.87-.25,9.05,3.58,2.07,3.64,1.36,7.94-1.56,9.6-3.01,1.71-6.86.24-9.04-3.59-2.07-3.64-1.38-7.93,1.55-9.59ZM418.91,586.7c-2.11-3.72-4.83-5.88-7.14-4.56-1.47.83-1.89,3.27-.31,6.05,2.2,3.87,5.04,5.99,7.17,4.78,1.74-.99,1.75-3.71.29-6.27Z"/>
        <path class="cls-1" d="M420.21,578.03c-.3-.47-.57-.52-1.6-.12-.13.03-.25-.05-.37-.24-.07-.11-.16-.25-.2-.38.91-.48,1.59-.89,2.06-1.19l3.1-2c.92-.59,1.55-1.16,1.77-1.3.12-.08.23-.07.35.01.19.17.61.75,1.08,1.28.33.38.64.69,1.16,1.18-.04.11-.15.26-.28.34-.09.06-.21.08-.34-.02-1.34-1.01-2.03-1.26-3.15-.54l-2,1.29,3.08,4.79,2.09-1.34c.33-.21.19-.71-.24-1.61-.09-.21,0-.34.13-.43.06-.04.24-.13.31-.15.33.59.86,1.51,1.2,2.04.29.45.71,1.07,1.27,1.8-.04.08-.17.19-.24.23-.18.12-.32.1-.47-.07-.59-.75-1.02-1.08-1.35-.87l-2.09,1.34,2.73,4.24c.32.49,1.01.24,1.82-.1.15-.07.25,0,.39.21.05.08.18.31.23.42-.29.18-.57.34-.87.51-.54.29-1.17.67-1.76,1.05-.54.35-1.39.97-1.95,1.39-.09-.08-.22-.28-.27-.36-.11-.17-.15-.3-.04-.4.54-.62.88-.99.55-1.5l-6.1-9.48Z"/>
        <path class="cls-1" d="M449.05,573.12c.11.14.02.32-.27.55l-.24.18-.75.58c-.5.39-1,.78-1.52,1.17-.91.7-1.48,1.15-1.73,1.34-.25.19-.45.35-.59.46-.32.24-.53.3-.64.15-.11-.14-.07-.28.11-.43.29-.22.59-.47.91-.74.4-.33.52-.63.38-.88-.14-.25-.51-.76-1.1-1.52l-8.63-11.12c-.39-.5-.64-.79-.74-.87-.1-.07-.23-.05-.39.07-.07.05-.47.43-1.2,1.12-.15.14-.25.23-.3.27-.16.12-.28.13-.37.02-.1-.13-.07-.26.07-.4.55-.56,1-1.26,1.34-2.12s.51-1.69.49-2.49c.03-.25.08-.4.13-.44.1-.08.22-.04.34.12l.35.45c.1.13.21.27.33.43l10.99,14.18c.44.57.72.88.84.94.12.06.32,0,.61-.21l.45-.35.34-.26.3-.23c.18-.14.34-.13.46.02Z"/>
        <path class="cls-1" d="M456.07,554.07c1.19,1.33,2.14,2.73,2.87,4.2.72,1.47,1.12,2.82,1.19,4.05.08,1.32-.35,2.4-1.29,3.25-1.29,1.16-3.04,1.35-5.24.58-2.2-.77-4.36-2.34-6.48-4.71-2.45-2.74-3.79-5.43-4.03-8.07-.14-1.59.3-2.84,1.33-3.76,1.22-1.09,2.78-1.29,4.69-.61,2.36.84,4.68,2.54,6.96,5.08ZM453.34,555.06c-1.99-2.22-3.83-3.87-5.53-4.95-1.3-.83-2.34-.89-3.12-.19-1.57,1.4-.12,4.6,4.35,9.59,4.68,5.23,7.84,7.11,9.5,5.63.77-.69.64-1.94-.38-3.76-.93-1.66-2.53-3.77-4.81-6.32Z"/>
      </g>
    </g>
  </g>
</svg>