<?xml version="1.0" encoding="UTF-8"?>
<svg xmlns="http://www.w3.org/2000/svg" version="1.1" viewBox="0 0 612 792">
  <defs>
    <style>
      .cls-1 {
        fill: #231f20;
      }

      .cls-2 {
        fill-rule: evenodd;
      }
    </style>
  </defs>
  <!-- Generator: Adobe Illustrator 28.7.4, SVG Export Plug-In . SVG Version: 1.2.0 Build 166)  -->
  <g>
    <g id="Layer_1">
      <path class="cls-2" d="M314.77,189.87c-101.34,0-183.78,82.44-183.78,183.78s82.44,183.78,183.78,183.78,183.78-82.44,183.78-183.78-82.44-183.78-183.78-183.78h0ZM314.77,560.43c-102.99,0-186.78-83.79-186.78-186.78s83.79-186.78,186.78-186.78,186.78,83.79,186.78,186.78-83.79,186.78-186.78,186.78h0Z"/>
      <path class="cls-2" d="M314.77,182.23c-105.55,0-191.42,85.87-191.42,191.42s85.87,191.42,191.42,191.42,191.42-85.87,191.42-191.42-85.87-191.42-191.42-191.42h0ZM314.77,568.07c-107.2,0-194.42-87.21-194.42-194.42s87.22-194.42,194.42-194.42,194.42,87.22,194.42,194.42-87.22,194.42-194.42,194.42h0Z"/>
      <path class="cls-2" d="M314.77,131.85c-133.33,0-241.8,108.47-241.8,241.8s108.47,241.8,241.8,241.8,241.8-108.47,241.8-241.8-108.47-241.8-241.8-241.8h0ZM314.77,618.45c-65.39,0-126.86-25.46-173.1-71.7-46.24-46.24-71.7-107.71-71.7-173.1s25.46-126.86,71.7-173.1c46.23-46.23,107.72-71.7,173.1-71.7,0,0,0,0,0,0,65.39,0,126.86,25.46,173.1,71.7,46.24,46.24,71.7,107.71,71.7,173.1s-25.46,126.86-71.7,173.1c-46.24,46.24-107.71,71.7-173.1,71.7h0Z"/>
      <path class="cls-2" d="M211.87,381.87c-21.76-42.53-6.79-90.81,34.01-100.2,14.93-3.44,27.6-.35,37.84,5.27l-6.25,25.24-22.24-4.06-2.83,24.72-21.01-3.71.88,33.19-13.95-5.65-6.45,25.21h0Z"/>
      <polygon class="cls-2" points="354.75 351.72 356.56 353.53 343.83 366.26 342.02 364.45 354.75 351.72 354.75 351.72"/>
      <polygon class="cls-2" points="352.9 375.34 354.71 377.15 367.45 364.41 365.63 362.6 352.9 375.34 352.9 375.34"/>
      <path class="cls-2" d="M218.69,393.25c-.58-.83-1.14-1.67-1.68-2.51l6.79-27.71,14.3,7.41-1.76-34.96,21.54,4.41,3-26.48,22.85,5.3,5.98-28.04c16.39,11.51,25.04,28.43,25.04,28.43,0,0,24.36-47.67,68.85-37.43,4.7,1.08,9.06,2.68,13.07,4.73l8.29-8.29-9.72-9.62,20.22-8.2,20.2-8.34-8.34,20.2-8.2,20.22-10.71-10.83-7.36,7.36c30.11,19.21,36.3,66.03,9.75,104.34-31.07,44.84-80.51,73.44-96.04,94.63-10.14-13.83-34.74-30.83-59.24-53.44l-18.84,18.84.13,21.41-25.44,25.44v-21.54l-6.73,6.73-3.44-3.44,6.26-6.26h-20.38l25.26-25.26h20.38l19.24-19.24c-11.82-11.19-23.45-23.72-33.25-37.87ZM342.01,364.45l-10.89,10.89c-3.52,3.52-3.52,9.22,0,12.73s9.22,3.52,12.73,0l10.89-10.89,10.89,10.89c3.52,3.52,9.22,3.52,12.73,0,3.52-3.52,3.52-9.22,0-12.73l-10.89-10.89,10.89-10.89c3.52-3.52,3.52-9.22,0-12.73-3.52-3.52-9.22-3.52-12.73,0l-10.89,10.89-10.89-10.89c-3.52-3.52-9.22-3.52-12.73,0-3.52,3.52-3.52,9.22,0,12.73l10.89,10.89Z"/>
      <path class="cls-2" d="M264.23,472.3s1.91.1,3.51-1.25c3.09-2.62,1.06-6.66.22-8.14-.6-1.06-1.02-2.22-1.97-4.95-.75-2.16-1.82-7.64-1.82-7.64h.06s-1.07,5.49-1.82,7.64c-.95,2.73-1.37,3.89-1.97,4.95-.84,1.48-2.87,5.53.22,8.14,1.6,1.36,3.57,1.25,3.57,1.25h0Z"/>
      <path class="cls-2" d="M264.23,501.3s1.61.09,2.97-1.06c2.61-2.21.9-5.63.19-6.88-.51-.9-.86-1.88-1.67-4.18-.64-1.82-1.54-6.46-1.54-6.46h.05s-.91,4.64-1.54,6.46c-.8,2.31-1.16,3.28-1.66,4.18-.71,1.25-2.42,4.67.19,6.88,1.36,1.15,3.02,1.06,3.02,1.06h0Z"/>
      <path class="cls-2" d="M264.23,526.3s1.38.07,2.53-.9c2.23-1.89.77-4.81.16-5.88-.43-.77-.73-1.6-1.42-3.57-.54-1.56-1.32-5.52-1.32-5.52h.04s-.77,3.96-1.32,5.52c-.69,1.97-.99,2.81-1.42,3.57-.61,1.07-2.07,3.99.16,5.88,1.16.98,2.58.9,2.58.9h0Z"/>
      <g>
        <path class="cls-1" d="M109.67,273.99l19.74,9.21c.98.46,1.41.41,2.67-1.52.28-.4.54-.48.92-.3.15.07.51.29.68.41-.91,1.66-1.98,3.74-2.67,5.22-.71,1.52-1.6,3.63-2.27,5.36-.22,0-.62-.14-.77-.21-.34-.16-.56-.36-.38-.95.65-2.08.44-2.52-.53-2.97l-19.74-9.21-1.64,3.51c-1.38,2.95-.83,4.42,1.2,6.93.21.24.17.52.06.76-.15.32-.54.77-.75.92-1.03-.92-1.77-1.6-2.59-2.18-1.07-.74-2.01-1.28-2.31-1.61-.17-.22-.19-.48-.04-.8.28-.6,1.36-2.33,2.5-4.76l5.74-12.29c1.12-2.4,1.75-4.34,2.05-4.98.13-.28.35-.47.64-.48.45.02,1.44.43,2.72.73.97.26,1.95.42,3.34.59,0,.29-.07.84-.22,1.16-.13.28-.3.44-.64.48-3.22.05-4.7.58-6.06,3.49l-1.64,3.51Z"/>
        <path class="cls-1" d="M149.53,249.51c.9.6,1.33.62,2.99-1.29.18-.2.52-.18.83.02.14.09.46.36.61.51-1.12,1.53-2.49,3.37-3.39,4.73-.92,1.4-2.11,3.41-3.09,5.03-.22-.04-.57-.27-.7-.36-.31-.21-.48-.48-.34-.76,1.09-2.24.92-2.67.03-3.26l-8.11-5.38-6.58,9.91,8.11,5.38c.9.59,1.33.62,2.99-1.29.18-.2.52-.18.83.02.14.09.46.36.61.51-1.12,1.53-2.53,3.45-3.44,4.8s-2.06,3.34-3.04,4.96c-.22-.04-.57-.27-.7-.36-.31-.21-.48-.48-.34-.76,1.09-2.24.92-2.67.03-3.26l-17.29-11.47c-.9-.6-1.35-.58-2.99,1.29-.24.21-.55.16-.83-.02-.14-.09-.48-.32-.64-.53,1.15-1.51,2.49-3.37,3.39-4.73.9-1.36,2.15-3.39,3.09-5.03.23.1.6.29.74.38.28.18.42.49.34.76-1.11,2.28-.92,2.67-.03,3.26l7.35,4.88,6.58-9.91-7.35-4.88c-.9-.6-1.35-.58-2.99,1.29-.24.21-.55.16-.83-.02-.14-.09-.48-.32-.64-.53,1.15-1.51,2.51-3.41,3.44-4.81.9-1.36,2.1-3.31,3.04-4.96.23.1.6.29.74.38.28.18.42.49.34.76-1.11,2.28-.92,2.67-.03,3.26l17.29,11.47Z"/>
        <path class="cls-1" d="M143.08,223.31l7.46,6.63,4.13-4.64c.73-.82.32-1.54-.93-3.07-.28-.31-.14-.65.15-.98.12-.13.47-.47.62-.57.84.92,2.24,2.28,3.1,3.05.74.66,1.79,1.54,3.18,2.53-.06.19-.35.58-.46.71-.32.36-.65.48-.99.24-1.81-1.14-2.48-1.26-3.12-.54l-4.13,4.64,6.93,6.17c.87.77,2.02-.09,4.42-2.79l1.23-1.38c2.31-2.6,1.74-4.76.73-7.55-.1-.2.02-.46.19-.65.21-.23.65-.42,1.04-.61.22.37.44.75.63,1.09.29.61.76,1.26.98,1.7.66.94,1.76,2.39,1.92,2.77.1.26.01.48-.22.75-.58.66-2.7,2.73-3.73,3.88l-6.65,7.47c-1.14,1.28-2.66,3.18-3.77,4.55-.21-.07-.55-.37-.68-.48-.31-.28-.38-.51-.2-.77,1.19-1.89,1.55-2.8.75-3.52l-15.5-13.79c-.84-.74-1.46-.41-3.41,1.15-.27.18-.54.11-.85-.17-.19-.17-.4-.36-.53-.59,1.79-1.77,3.11-3.19,4.05-4.24l6-6.75c1.76-1.97,2.92-3.65,3.39-4.18.21-.23.47-.35.75-.28.46.17,1.48,1.02,2.64,1.64.8.47,1.5.87,2.78,1.36-.08.28-.25.66-.49.92-.2.23-.41.34-.75.28-3.1-.87-4.64-.77-6.78,1.64l-3.89,4.38Z"/>
        <path class="cls-1" d="M176.36,192.02l13.47,17.12c.67.85,1.07,1,3.07-.15.43-.23.7-.18.96.14.1.13.32.48.42.67-1.57,1.07-3.45,2.45-4.73,3.46-1.32,1.04-3.06,2.52-4.44,3.76-.2-.11-.49-.41-.59-.54-.23-.29-.34-.58.09-1.02,1.52-1.56,1.53-2.05.86-2.89l-13.47-17.12-3.05,2.4c-2.56,2.02-2.74,3.58-2.05,6.73.08.31-.08.54-.29.7-.28.22-.83.44-1.08.48-.51-1.29-.85-2.23-1.33-3.12-.62-1.15-1.22-2.05-1.33-2.48-.05-.28.05-.51.32-.73.52-.41,2.27-1.47,4.38-3.13l10.66-8.39c2.08-1.63,3.52-3.08,4.07-3.52.24-.19.53-.26.79-.14.39.22,1.09,1.04,2.1,1.88.75.67,1.55,1.26,2.72,2.03-.13.26-.44.72-.72.94-.24.19-.47.26-.78.14-2.9-1.41-4.46-1.6-6.98.38l-3.05,2.4Z"/>
        <path class="cls-1" d="M199.78,173.29c7.33-4.23,15.86-2.41,19.91,4.62,3.85,6.67,1.18,15.44-5.96,19.56-7.33,4.23-15.82,2.39-19.88-4.64-3.85-6.67-1.22-15.42,5.92-19.54ZM215.45,182.71c-3.93-6.82-9.64-10.36-15.29-7.1-3.59,2.07-5.15,7.04-2.21,12.13,4.1,7.1,10.1,10.53,15.29,7.53,4.24-2.45,4.92-7.86,2.21-12.56Z"/>
        <path class="cls-1" d="M234.54,173.43l-1.77.69,3.14,8.06c.47,1.2,1.59,1.16,4.25.48.38-.11.68.05.88.55.06.15.15.52.19.73-1.61.49-4.14,1.39-6.93,2.48-1.97.77-3.79,1.56-5.34,2.3-.16-.16-.28-.47-.34-.62-.2-.5-.07-.77.17-.91,2.15-1.28,2.45-1.71,2.06-2.71l-7.53-19.33c-.41-1.04-1.17-1.19-3.52-.54-.28.02-.56-.09-.75-.6-.08-.19-.2-.5-.17-.69,1.56-.48,3.85-1.28,5.41-1.89l6.2-2.42c5.83-2.27,10.42-.81,12.02,3.32,1.05,2.7.11,5.87-2.57,8.2l9.89,6.33c1.51.97,3.04.77,4.26.61.26-.06.53.02.71.48.08.19.2.5.2.77-1.26.4-4.71,1.61-6.27,2.22-1.15.45-2.73-.09-4.37-1.14l-9.8-6.36ZM233.26,171.71c3.37-1.31,5.16-3.26,3.69-7.04-1.23-3.16-3.45-4.61-7.6-3l-1.23.48,3.91,10.03,1.23-.48Z"/>
        <path class="cls-1" d="M262.97,151.03l5.2,21.16c.26,1.05.56,1.35,2.86,1.13.49-.04.71.12.81.53.04.16.1.57.1.79-1.87.33-4.16.81-5.74,1.2-1.63.4-3.83,1.03-5.6,1.59-.13-.18-.28-.57-.32-.73-.09-.36-.07-.66.51-.89,2.03-.8,2.24-1.23,1.98-2.28l-5.2-21.16-3.76.92c-3.17.78-3.97,2.13-4.65,5.28-.06.31-.3.46-.55.52-.34.08-.94.06-1.18,0,.07-1.38.14-2.38.07-3.39-.09-1.3-.26-2.37-.19-2.81.07-.27.25-.45.6-.53.64-.16,2.67-.4,5.28-1.04l13.18-3.24c2.57-.63,4.48-1.36,5.16-1.52.3-.07.59-.02.77.19.27.36.57,1.4,1.13,2.58.41.92.89,1.79,1.64,2.97-.23.18-.7.47-1.04.55-.3.07-.53.05-.77-.19-2.06-2.48-3.4-3.3-6.52-2.53l-3.76.93Z"/>
        <path class="cls-1" d="M306.82,159.56c.57,6.23-1.52,10.91-10.29,11.71-10.44.96-12.58-3.55-13.12-9.41l-1.26-13.69c-.11-1.15-.67-1.48-3.06-1.51-.31-.01-.51-.29-.55-.74-.01-.17-.04-.49.02-.75,1.72-.03,3.48-.11,6.12-.35,2.02-.18,4.42-.49,6.17-.77.07.24.14.57.16.73.04.45-.11.76-.41.83-2.35.46-3.01.94-2.91,2.05l1.17,12.79c.52,5.69,2.82,8.56,8.3,8.06,5.62-.51,7.53-3.31,6.95-9.58l-1.16-12.66c-.1-1.11-.8-1.47-3.1-1.5-.36-.05-.56-.32-.6-.74-.01-.17,0-.5.02-.75,1.68.01,3.05-.07,4.67-.22,1.89-.17,3.24-.34,4.63-.63.07.24.14.57.16.73.03.37-.15.72-.45.83-2.13.4-2.79.92-2.69,2.03l1.24,13.53Z"/>
        <path class="cls-1" d="M325.05,158.19l-1.89-.11-.51,8.64c-.08,1.28.96,1.72,3.67,2.21.39.06.6.33.57.86,0,.17-.08.53-.13.74-1.66-.22-4.34-.46-7.33-.64-2.11-.12-4.09-.16-5.82-.14-.08-.21-.06-.54-.05-.71.03-.54.26-.73.53-.76,2.49-.27,2.94-.53,3.01-1.61l1.21-20.71c.07-1.12-.57-1.57-2.97-1.96-.26-.1-.47-.32-.44-.85.01-.21.03-.54.13-.7,1.62.22,4.03.45,5.7.54l6.64.39c6.24.37,9.81,3.61,9.55,8.03-.17,2.89-2.35,5.38-5.76,6.38l6.35,9.87c.97,1.51,2.44,1.97,3.61,2.33.26.06.47.24.44.73-.01.21-.03.54-.13.78-1.31-.16-4.96-.5-6.63-.6-1.23-.07-2.44-1.22-3.5-2.86l-6.26-9.87ZM324.6,156.09c3.61.21,6.05-.8,6.29-4.86.2-3.39-1.21-5.63-5.66-5.89l-1.32-.08-.63,10.75,1.32.08Z"/>
        <path class="cls-1" d="M356.74,148.97l-1.94,9.79,6.09,1.21c1.08.21,1.49-.51,2.17-2.36.12-.4.49-.45.93-.37.17.03.64.17.8.24-.37,1.19-.83,3.08-1.06,4.22-.19.97-.42,2.32-.57,4.02-.19.05-.67,0-.85-.04-.48-.09-.75-.32-.71-.73.06-2.14-.17-2.78-1.12-2.97l-6.09-1.21-1.8,9.1c-.23,1.14,1.1,1.7,4.64,2.4l1.81.36c3.41.68,4.99-.91,6.88-3.2.13-.19.4-.22.66-.16.3.06.69.35,1.05.59-.21.38-.42.76-.62,1.1-.38.56-.71,1.3-.97,1.71-.48,1.04-1.17,2.72-1.41,3.05-.18.22-.41.26-.76.19-.86-.17-3.72-.95-5.23-1.25l-9.81-1.94c-1.69-.33-4.09-.68-5.83-.94-.05-.22.04-.67.08-.83.08-.41.25-.58.56-.56,2.23.06,3.2-.08,3.41-1.14l4.03-20.35c.22-1.1-.38-1.47-2.72-2.35-.29-.14-.37-.41-.29-.82.05-.24.1-.53.24-.75,2.43.65,4.32,1.07,5.71,1.34l8.86,1.75c2.59.51,4.63.66,5.32.8.3.06.54.23.62.5.08.48-.13,1.79-.08,3.11,0,.93.02,1.73.24,3.09-.28.07-.7.12-1.04.05-.3-.06-.5-.18-.62-.5-.82-3.12-1.69-4.39-4.85-5.01l-5.75-1.14Z"/>
        <path class="cls-1" d="M382.13,181.43l-8.51-3.01c-1.45-.51-3.57-1.13-5.3-1.66-.01-.22.1-.54.15-.69.19-.55.46-.63.76-.57,1.72.3,2.87.35,3.25-.74l6.92-19.56c.36-1.02-.26-1.63-2.06-2.62-.39-.23-.38-.53-.24-.92.05-.16.17-.47.33-.67,2.27.98,3.42,1.43,5.12,2.03l8.43,2.98c9.39,3.32,12.34,10.82,9.88,17.77-2.17,6.13-8.85,11.15-18.73,7.65ZM387.55,156.99l-2.58-.91-7.1,20.07c-.37,1.05,0,1.58,2.95,2.63,7.23,2.56,11.88-.15,14.04-6.28,2.89-8.16.03-12.91-7.32-15.51Z"/>
        <path class="cls-1" d="M425.62,192.12l-7.95-4.73-4.91,3.77c-.3.16-.53.46-.61.6-.3.5-.09,1.1,1.37,2.26.28.22.4.53.13.99-.08.14-.29.4-.44.56-1.3-.92-2.85-1.94-4.29-2.79-1.02-.61-2.1-1.2-3.55-1.87.03-.22.2-.51.28-.65.25-.43.52-.61.92-.42,1.72.64,2.44.73,3.28.17l21.32-15.06c.48-.29.93-.27,1.27-.06.23.14.47.33.75.54l-3.46,26.57c-.12.89.64,1.78,1.57,2.53.34.3.42.59.14,1.05-.08.14-.31.44-.46.6-1.53-1.05-3.11-2.09-4.47-2.9-1.4-.83-4.34-2.44-5.82-3.23.03-.22.2-.51.28-.65.25-.43.61-.5.82-.43,1.41.55,2.23.65,2.59.05.08-.14.15-.34.2-.6l1.02-6.28ZM425.96,189.92l1.55-9.92-8.06,6.05,6.51,3.88Z"/>
        <path class="cls-1" d="M448.08,204.33l-1.47-1.19-5.46,6.72c-.81,1-.22,1.95,1.69,3.93.28.28.3.61-.04,1.03-.1.13-.37.39-.54.52-1.22-1.15-3.25-2.91-5.58-4.8-1.64-1.33-3.23-2.52-4.64-3.51.06-.22.27-.47.38-.6.34-.42.64-.44.87-.31,2.18,1.23,2.7,1.29,3.38.45l13.08-16.11c.71-.87.45-1.61-1.27-3.33-.15-.23-.19-.53.15-.95.13-.16.34-.42.51-.49,1.19,1.12,3.01,2.72,4.31,3.77l5.16,4.19c4.86,3.94,5.86,8.65,3.06,12.09-1.83,2.25-5.05,3-8.4,1.82l-.61,11.72c-.09,1.79.83,3.03,1.58,4,.18.2.25.47-.07.85-.13.16-.34.42-.56.56-.97-.9-3.73-3.3-5.03-4.35-.96-.78-1.27-2.42-1.17-4.36l.68-11.67ZM448.94,202.36c2.8,2.28,5.38,2.88,7.94-.27,2.14-2.64,2.3-5.28-1.15-8.08l-1.03-.83-6.79,8.36,1.03.83Z"/>
        <path class="cls-1" d="M481.62,217.92l-15.79,15.01c-.78.74-.9,1.16.44,3.05.27.41.25.68-.05.96-.12.11-.45.37-.63.48-1.21-1.46-2.76-3.21-3.89-4.39-1.15-1.21-2.79-2.82-4.16-4.07.09-.21.36-.52.48-.64.27-.26.54-.39,1.03,0,1.7,1.37,2.18,1.33,2.96.59l15.79-15.01-2.67-2.81c-2.25-2.36-3.82-2.39-6.89-1.42-.3.1-.54-.03-.72-.22-.24-.26-.52-.79-.58-1.03,1.23-.63,2.14-1.06,2.98-1.62,1.08-.72,1.92-1.4,2.34-1.56.27-.08.51,0,.76.25.46.48,1.67,2.12,3.52,4.07l9.35,9.84c1.82,1.92,3.4,3.21,3.88,3.73.21.22.3.5.22.77-.18.41-.93,1.19-1.68,2.26-.6.81-1.11,1.66-1.76,2.89-.27-.11-.76-.38-1-.63-.21-.22-.3-.44-.22-.77,1.13-3.02,1.18-4.59-1.03-6.92l-2.67-2.81Z"/>
        <path class="cls-1" d="M479.86,249.81c-.85.65-1.02,1.06.25,3.25.13.23,0,.55-.29.78-.13.1-.49.32-.68.41-1.09-1.55-2.41-3.48-3.4-4.78-1.02-1.33-2.54-3.11-3.73-4.53.11-.2.44-.45.57-.55.3-.23.61-.3.83-.08,1.76,1.76,2.22,1.74,3.08,1.08l16.47-12.62c.85-.66.99-1.09-.25-3.25-.12-.29.03-.58.29-.78.13-.1.46-.35.71-.43,1.03,1.54,2.38,3.45,3.4,4.78.99,1.29,2.48,3.1,3.73,4.53-.17.19-.47.47-.6.57-.26.2-.6.24-.83.08-1.79-1.79-2.22-1.74-3.08-1.09l-16.47,12.62Z"/>
        <path class="cls-1" d="M507.76,261.04c-.42-.67-.27-1.13-.06-1.42,1.96-2.79,1.97-5.19.07-8.21-1.5-2.39-3.82-3.59-6.03-2.2-5.15,3.24,4.75,14.96-3.42,20.1-3.58,2.25-8.54,1.83-12.29-4.14-2.04-3.25-2.92-6.44-3.17-8.62,1.9-1.41,3.66-2.97,5.22-4.53.19.14.52.51.68.77.38.6.36.97-.04,1.49-2.73,3.59-3.15,6.19-.88,9.81,1.92,3.06,4.46,3.29,6.35,2.1,6-3.77-4.52-14.28,3.86-19.55,3.72-2.34,8.54-1.2,11.7,3.83,1.29,2.05,2.19,4.35,2.88,7.61-1.36.96-3.12,2.43-4.34,3.61-.21-.18-.43-.46-.55-.64Z"/>
        <path class="cls-1" d="M522.24,279.06l-19.74,9.21c-.98.46-1.22.81-.55,3.03.13.47.02.72-.36.9-.15.07-.54.21-.75.25-.69-1.77-1.6-3.92-2.29-5.4-.71-1.52-1.75-3.56-2.65-5.18.15-.17.51-.38.66-.45.34-.16.64-.2.97.32,1.18,1.83,1.64,1.96,2.62,1.5l19.75-9.21-1.64-3.51c-1.38-2.96-2.86-3.48-6.08-3.53-.32,0-.51-.2-.62-.44-.15-.32-.24-.91-.22-1.16,1.37-.2,2.36-.32,3.34-.58,1.26-.34,2.27-.72,2.72-.73.28.01.49.16.64.48.28.6.91,2.54,2.05,4.98l5.74,12.3c1.12,2.4,2.2,4.13,2.5,4.77.13.28.13.57-.04.8-.3.33-1.26.83-2.31,1.61-.83.58-1.58,1.22-2.59,2.18-.22-.19-.6-.6-.75-.92-.13-.28-.15-.51.04-.8,2.03-2.5,2.58-3.98,1.22-6.89l-1.64-3.51Z"/>
      </g>
      <g>
        <path class="cls-1" d="M185.82,534.1c.4-.21.64-.33,1.65.52.47.4,1.95,1.56,2.76,2.11-.09.2-.27.41-.36.52-.23.27-.45.4-.66.31-1.31-.75-1.62-.64-2.12-.05-.2.24-10.09,12.91-10.89,13.98-.57.71-.58,1.12.33,2.25.13.15.08.39-.19.71-.09.11-.29.3-.43.42-.96-.9-1.6-1.58-2.62-2.45-.94-.8-2.2-1.73-2.96-2.27.09-.15.25-.38.34-.49.32-.37.56-.4.64-.33,1.4.73,1.82.67,2.43-.05.25-.29,8.18-10.4,8.75-11.2l-15.17,9.03c-.4.21-.62.3-.79.15-.06-.05-.19-.16-.23-.24l7.62-19.05c-1.26,1.36-10.83,11.88-11.1,12.2-.57.67-.62.99.33,2.25.13.15.1.36-.2.71-.09.11-.27.28-.43.42-.7-.73-1.3-1.33-1.94-1.87-.56-.47-1.61-1.22-2.33-1.75.07-.17.25-.38.34-.49.32-.37.51-.39.66-.31,1.08.5,1.69.56,2.28-.04.79-.84,11.77-12.86,11.96-13.08.5-.59.46-.98-.4-2.08-.15-.17-.05-.41.19-.71.09-.11.27-.32.45-.44.68.71,2.73,2.54,3.26,2.99,1,.85.95,1.13.79,1.54l-6.18,15.36,14.21-8.55Z"/>
        <path class="cls-1" d="M187.9,552.91l1.92-9.73c.17-.9-.1-1.39-.74-2.01-.15-.14-.11-.37.1-.66.03-.05.1-.15.19-.23l.14-.16c.54.49,1.52,1.24,2.62,2,.78.54,2.29,1.52,2.94,1.86-.16.32-.23.42-.27.47-.22.32-.41.37-.57.3-.79-.4-1.13-.38-1.34-.09-.09.12-.16.32-.22.62l-1.57,7.38,6.06-3.68c.4-.23.65-.46.77-.63.27-.39.11-.73-.53-1.39-.15-.14-.16-.33.06-.65.03-.05.17-.21.37-.4.52.47,1.47,1.21,2.13,1.66.64.44,1.37.92,2.14,1.3-.11.25-.23.42-.27.47-.19.27-.39.39-.57.3-1.09-.54-1.51-.5-2.17-.12l-8.59,5.14-3.4,4.9c-.5.71-.37,1.1.69,2.12.11.11.16.29-.08.64-.03.05-.12.13-.19.23l-.14.16c-.43-.3-.8-.59-1.16-.88-.62-.5-1.37-1.06-1.84-1.38-.49-.34-1.21-.8-1.84-1.17-.37-.22-.73-.44-1.08-.68l.1-.19c.05-.11.12-.21.15-.26.24-.34.43-.36.57-.3,1.36.54,1.73.62,2.23-.1l3.37-4.85Z"/>
        <path class="cls-1" d="M212.27,568.43l-5.18-2.78-3.58,3.6c-.21.16-.39.43-.46.55-.23.43-.12.89.81,1.63.18.14.25.37.03.77-.07.12-.22.36-.33.5-.84-.57-1.84-1.19-2.78-1.69-.67-.36-1.37-.7-2.33-1.05.03-.18.17-.43.23-.55.2-.37.39-.55.65-.44,1.14.3,1.63.28,2.24-.27l15.48-14.57c.35-.29.65-.33.87-.21.15.08.3.2.49.34l-3.89,21.51c-.13.72.33,1.33.93,1.81.21.19.25.41.04.82-.07.12-.24.39-.35.53-.99-.65-2.01-1.28-2.9-1.76-.91-.49-2.84-1.4-3.81-1.85.03-.18.17-.43.23-.55.2-.37.45-.48.59-.44.94.27,1.49.24,1.77-.28.07-.12.12-.29.17-.5l1.06-5.11ZM212.63,566.64l1.63-8.06-5.87,5.79,4.24,2.28Z"/>
        <path class="cls-1" d="M226.64,574.23l-.99-.43-2.48,5.76c-.37.85.08,1.34,1.41,2.17.2.12.24.33.08.69-.05.11-.18.35-.26.48-.84-.46-2.21-1.12-3.78-1.79-1.1-.47-2.16-.86-3.09-1.17.01-.16.11-.38.16-.49.15-.36.33-.45.48-.42,1.4.28,1.72.18,2.03-.53l5.94-13.81c.32-.74.09-1.17-1.1-1.88-.11-.11-.17-.3-.02-.66.06-.14.15-.36.25-.45.81.45,2.05,1.05,2.93,1.42l3.47,1.49c3.26,1.4,4.35,4.26,3.08,7.21-.83,1.93-2.63,3.21-4.72,3.26l.89,7.86c.14,1.2.81,1.79,1.35,2.25.13.09.19.25.05.58-.06.14-.15.36-.27.5-.67-.35-2.54-1.26-3.41-1.63-.64-.28-1-1.28-1.15-2.58l-.84-7.84ZM226.94,572.72c1.88.81,3.46.57,4.62-2.13.97-2.26.79-4.04-1.53-5.04l-.69-.3-3.08,7.17.69.3Z"/>
        <path class="cls-1" d="M247.23,572.24l-5.18,14.91c-.26.74-.23,1.03.92,1.68.24.15.29.32.19.61-.04.11-.16.39-.23.52-.99-.44-2.22-.93-3.09-1.23-.9-.31-2.15-.68-3.17-.94,0-.16.08-.45.12-.56.09-.25.21-.44.56-.38,1.23.2,1.48,0,1.74-.73l5.18-14.9-2.08-.72c-1.75-.61-2.6-.05-4.05,1.67-.14.17-.3.18-.44.13-.19-.07-.46-.29-.54-.41.53-.83.92-1.43,1.25-2.07.42-.84.73-1.56.92-1.81.13-.15.28-.19.47-.12.35.12,1.38.67,2.82,1.17l7.28,2.52c1.42.49,2.56.7,2.94.83.17.06.28.19.29.39,0,.32-.24,1.06-.4,1.99-.14.71-.23,1.41-.31,2.4-.17.04-.49.05-.68-.01-.17-.06-.26-.15-.29-.39-.07-2.25-.39-3.22-2.12-3.81l-2.08-.72Z"/>
        <path class="cls-1" d="M256.66,591.56c-.21.75-.16,1.05,1.16,1.65.14.07.18.3.11.56-.03.12-.13.4-.2.54-1.02-.34-2.28-.78-3.17-1.02-.92-.25-2.22-.51-3.25-.73,0-.16.07-.45.1-.56.07-.26.2-.44.38-.43,1.41.14,1.63-.08,1.83-.84l3.95-14.5c.21-.75.13-1.05-1.16-1.65-.15-.1-.17-.33-.11-.56.03-.12.11-.41.21-.57.99.36,2.25.77,3.17,1.02.89.24,2.19.53,3.25.73-.02.18-.08.48-.11.59-.06.23-.21.41-.38.43-1.44-.14-1.63.08-1.83.84l-3.95,14.5Z"/>
        <path class="cls-1" d="M275.27,583.16c-.44-.09-.56-.39-.58-.64-.27-2.39-1.2-3.53-3.19-3.95-1.57-.33-3.01.35-3.4,2.2-.9,4.32,7.86,4.55,6.43,11.4-.62,3-2.88,5.47-6.79,4.65-2.13-.44-3.75-1.49-4.71-2.39.25-1.7.38-3.39.42-4.97.13-.03.42-.04.59,0,.39.08.53.26.56.73.26,3.18,1.1,4.64,3.47,5.14,2.01.42,3.16-.84,3.5-2.43,1.05-5.02-7.49-4.35-6.03-11.38.65-3.11,3.12-5.17,6.43-4.48,1.35.28,2.62.88,4.19,2.07-.2,1.19-.36,2.84-.41,4.05-.16.03-.36.02-.48,0Z"/>
        <path class="cls-1" d="M289.09,581.76l-2.02,15.65c-.1.77-.01,1.06,1.25,1.46.26.09.34.26.31.55-.02.12-.08.41-.12.56-1.05-.23-2.36-.46-3.28-.57-.94-.12-2.24-.23-3.29-.27-.03-.16-.02-.46,0-.58.04-.27.11-.47.47-.48,1.24-.05,1.45-.3,1.55-1.07l2.02-15.65-2.18-.28c-1.83-.24-2.56.49-3.62,2.47-.1.2-.26.24-.41.22-.2-.03-.5-.19-.62-.29.35-.92.61-1.58.8-2.29.24-.91.39-1.67.53-1.96.1-.17.23-.24.43-.22.37.05,1.49.37,3,.57l7.64.99c1.49.19,2.65.16,3.05.21.17.02.31.13.36.32.06.31-.01,1.09.01,2.03,0,.73.07,1.43.19,2.42-.16.07-.47.15-.67.12-.17-.02-.29-.1-.36-.32-.52-2.19-1.04-3.07-2.85-3.3l-2.18-.28Z"/>
        <path class="cls-1" d="M315.26,580.33l-.3,18.4c-.01.91.12,1.23,1.57,1.53.31.07.42.25.41.6,0,.14-.04.49-.07.66-1.2-.12-2.68-.22-3.72-.24-1.06-.02-2.52.03-3.7.11-.05-.18-.08-.53-.07-.67,0-.31.07-.56.46-.62,1.38-.22,1.58-.53,1.59-1.44l.3-18.4-2.46-.04c-2.07-.03-2.79.9-3.72,3.33-.09.24-.26.31-.42.31-.22,0-.59-.15-.72-.26.27-1.12.48-1.92.6-2.75.16-1.08.23-1.99.35-2.34.09-.21.23-.31.45-.31.42,0,1.7.24,3.41.27l8.62.14c1.68.03,2.97-.16,3.42-.15.2,0,.36.11.44.32.11.35.12,1.26.27,2.35.1.84.25,1.65.51,2.77-.17.1-.51.24-.73.23-.2,0-.33-.08-.44-.32-.86-2.46-1.54-3.42-3.58-3.45l-2.46-.04Z"/>
        <path class="cls-1" d="M329.28,592.62l-4.63-8.78c-.43-.81-.95-1.01-1.83-1.1-.2-.01-.32-.22-.34-.58,0-.06-.01-.18,0-.3v-.21c.74.04,1.96,0,3.31-.09.95-.07,2.74-.26,3.46-.4.08.36.08.48.09.54.03.39-.09.55-.26.59-.86.18-1.12.41-1.1.77.01.15.08.36.22.62l3.42,6.73,2.4-6.67c.17-.43.22-.77.2-.98-.04-.48-.37-.63-1.28-.75-.2-.01-.34-.16-.37-.54,0-.06,0-.27.04-.54.71.04,1.91.01,2.7-.05.77-.06,1.64-.15,2.48-.33.07.27.08.47.09.53.02.33-.06.55-.26.59-1.18.27-1.49.56-1.76,1.27l-3.45,9.4.43,5.96c.06.87.41,1.08,1.87,1.22.15.02.31.13.34.55,0,.06-.01.18,0,.3v.21c-.53.04-1.01.04-1.46.05-.8,0-1.73.04-2.3.08-.6.04-1.44.13-2.16.25-.42.06-.84.12-1.27.15l-.04-.21c-.03-.12-.04-.24-.05-.3-.03-.42.11-.55.26-.59,1.4-.43,1.74-.61,1.67-1.48l-.43-5.89Z"/>
        <path class="cls-1" d="M345.36,591.01l.82,5.7c.13.92.77,1.1,2.33,1.12.23,0,.38.16.43.54.02.12.03.39.03.54-.95.05-2.47.21-4.16.45-1.19.17-2.29.39-3.25.62-.07-.14-.11-.38-.12-.5-.06-.39.05-.55.19-.6,1.34-.5,1.56-.74,1.45-1.51l-2.15-14.88c-.12-.8-.53-1.04-1.92-1.03-.16-.04-.3-.17-.36-.55-.02-.15-.06-.39-.02-.51.93-.04,2.3-.18,3.24-.32l3.74-.54c3.51-.51,5.91,1.21,6.4,4.59.45,3.09-1.22,6.09-4.78,6.6l-1.88.27ZM345.89,589.42c2.03-.29,3.2-1.61,2.78-4.52-.38-2.64-1.42-4.07-3.97-3.7l-.74.11,1.19,8.23.74-.11Z"/>
        <path class="cls-1" d="M358.19,578.83l1.53,7.06,3.45-.75c.61-.13.64-.72.51-2.14-.04-.3.14-.43.38-.48.1-.02.37-.05.48-.04.12.9.37,2.28.54,3.1.15.7.39,1.67.74,2.85-.08.08-.35.17-.45.19-.27.06-.46-.02-.55-.31-.52-1.45-.8-1.82-1.34-1.7l-3.45.75,1.42,6.57c.18.82,1,.86,3.01.42l1.03-.22c1.93-.42,2.33-1.89,2.71-3.9.02-.16.15-.25.3-.28.17-.04.45.06.69.13,0,.31-.02.62-.04.9-.05.47-.03,1.05-.06,1.39.02.82.1,2.13.06,2.41-.04.19-.14.28-.34.32-.49.11-2.16.31-3.01.5l-5.54,1.2c-.95.21-2.28.58-3.24.86-.08-.14-.15-.46-.18-.58-.06-.29-.02-.46.14-.52,1.17-.53,1.63-.87,1.46-1.64l-3.18-14.69c-.17-.79-.58-.89-2.01-.88-.18-.02-.29-.18-.36-.47-.04-.18-.08-.38-.07-.57,1.42-.18,2.5-.39,3.28-.56l5.01-1.08c1.47-.32,2.55-.74,2.94-.82.17-.04.34.02.45.18.17.3.39,1.23.76,2.11.24.62.46,1.16.92,2.01-.13.12-.33.25-.52.3-.17.04-.31,0-.45-.18-1.23-1.88-2-2.51-3.79-2.13l-3.25.7Z"/>
        <path class="cls-1" d="M380.46,576.92c1.81-.58,3.78.47,4.37,2.32.6,1.86-.39,3.86-2.2,4.44-1.83.59-3.77-.47-4.37-2.32s.36-3.85,2.2-4.44Z"/>
        <path class="cls-1" d="M406.37,569.2c1.05,2.4,1.54,4.78,1.47,7.13-.07,2.36-.69,4.24-1.86,5.64-.86,1.03-1.84,1.79-2.94,2.27-.4.17-.62.2-.68.07-.05-.11.03-.23.22-.36,2.4-1.53,3.5-3.85,3.29-6.94-.09-1.25-.43-2.74-1-4.47-.42,1.32-1.16,2.21-2.21,2.67-1.01.44-2.08.48-3.23.1-1.67-.54-2.96-1.84-3.87-3.91-.77-1.76-.98-3.45-.63-5.08.35-1.63,1.16-2.72,2.43-3.27,1.56-.68,3.17-.45,4.85.69,1.67,1.15,3.06,2.96,4.15,5.46ZM403.17,568.44c-.91-2.09-1.96-3.6-3.13-4.53-.8-.63-1.59-.78-2.35-.45-1.57.69-1.49,3.01.24,6.97,1.48,3.39,3.1,4.7,4.86,3.93.78-.34,1.2-1.03,1.27-2.08.07-1.04-.23-2.33-.89-3.85Z"/>
        <path class="cls-1" d="M420.02,558.73c3.01-1.71,6.87-.25,9.05,3.58,2.07,3.64,1.36,7.94-1.56,9.6-3.01,1.71-6.86.24-9.04-3.59-2.07-3.64-1.38-7.93,1.55-9.59ZM427.45,564.49c-2.11-3.72-4.83-5.88-7.14-4.56-1.47.83-1.89,3.27-.31,6.05,2.2,3.87,5.04,5.99,7.17,4.78,1.74-.99,1.75-3.71.29-6.27Z"/>
        <path class="cls-1" d="M428.75,555.82c-.3-.47-.57-.52-1.6-.12-.13.03-.25-.05-.37-.24-.07-.11-.16-.25-.2-.38.91-.48,1.59-.89,2.06-1.19l3.1-2c.92-.59,1.55-1.16,1.77-1.3.12-.08.23-.07.35.01.19.17.61.75,1.08,1.28.33.38.64.69,1.16,1.18-.04.11-.15.26-.28.34-.09.06-.21.08-.34-.02-1.34-1.01-2.03-1.26-3.15-.54l-2,1.29,3.08,4.79,2.09-1.34c.33-.21.19-.71-.24-1.61-.09-.21,0-.34.13-.43.06-.04.24-.13.31-.15.33.59.86,1.51,1.2,2.04.29.45.71,1.07,1.27,1.8-.04.08-.17.19-.24.23-.18.12-.32.1-.47-.07-.59-.75-1.02-1.08-1.35-.87l-2.09,1.34,2.73,4.24c.32.49,1.01.24,1.82-.1.15-.07.25,0,.39.21.05.08.18.31.23.42-.29.18-.57.34-.87.51-.54.29-1.17.67-1.76,1.05-.54.35-1.39.97-1.95,1.39-.09-.08-.22-.28-.27-.36-.11-.17-.15-.3-.04-.4.54-.62.88-.99.55-1.5l-6.1-9.48Z"/>
        <path class="cls-1" d="M457.59,550.91c.11.14.02.32-.27.55l-.24.18-.75.58c-.5.39-1,.78-1.52,1.17-.91.7-1.48,1.15-1.73,1.34-.25.19-.45.35-.59.46-.32.24-.53.3-.64.15-.11-.14-.07-.28.11-.43.29-.22.59-.47.91-.74.4-.33.52-.63.38-.88-.14-.25-.51-.76-1.1-1.52l-8.63-11.12c-.39-.5-.64-.79-.74-.87-.1-.07-.23-.05-.39.07-.07.05-.47.43-1.2,1.12-.15.14-.25.23-.3.27-.16.12-.28.13-.37.02-.1-.13-.07-.26.07-.4.55-.56,1-1.26,1.34-2.12s.51-1.69.49-2.49c.03-.25.08-.4.13-.44.1-.08.22-.04.34.12l.35.45c.1.13.21.27.33.43l10.99,14.18c.44.57.72.88.84.94.12.06.32,0,.61-.21l.45-.35.34-.26.3-.23c.18-.14.34-.13.46.02Z"/>
        <path class="cls-1" d="M464.61,531.86c1.19,1.33,2.14,2.73,2.87,4.2.72,1.47,1.12,2.82,1.19,4.05.08,1.32-.35,2.4-1.29,3.25-1.29,1.16-3.04,1.35-5.24.58-2.2-.77-4.36-2.34-6.48-4.71-2.45-2.74-3.79-5.43-4.03-8.07-.14-1.59.3-2.84,1.33-3.76,1.22-1.09,2.78-1.29,4.69-.61,2.36.84,4.68,2.54,6.96,5.08ZM461.88,532.85c-1.99-2.22-3.83-3.87-5.53-4.95-1.3-.83-2.34-.89-3.12-.19-1.57,1.4-.12,4.6,4.35,9.59,4.68,5.23,7.84,7.11,9.5,5.63.77-.69.64-1.94-.38-3.76-.93-1.66-2.53-3.77-4.81-6.32Z"/>
      </g>
    </g>
  </g>
</svg>