<?xml version="1.0" encoding="UTF-8"?>
<svg xmlns="http://www.w3.org/2000/svg" version="1.1" viewBox="0 0 612 792">
  <defs>
    <style>
      .cls-1, .cls-2 {
        fill: #231f20;
      }

      .cls-2 {
        fill-rule: evenodd;
      }
    </style>
  </defs>
  <!-- Generator: Adobe Illustrator 28.7.4, SVG Export Plug-In . SVG Version: 1.2.0 Build 166)  -->
  <g>
    <g id="Layer_1">
      <path class="cls-2" d="M306.23,212.08c-101.34,0-183.78,82.44-183.78,183.78s82.44,183.78,183.78,183.78,183.78-82.44,183.78-183.78-82.44-183.78-183.78-183.78M306.23,582.64c-102.99,0-186.78-83.79-186.78-186.78s83.79-186.78,186.78-186.78,186.78,83.79,186.78,186.78-83.79,186.78-186.78,186.78"/>
      <path class="cls-2" d="M306.23,204.44c-105.55,0-191.42,85.87-191.42,191.42s85.87,191.42,191.42,191.42,191.42-85.87,191.42-191.42-85.87-191.42-191.42-191.42M306.23,590.28c-107.2,0-194.42-87.21-194.42-194.42s87.22-194.42,194.42-194.42,194.42,87.22,194.42,194.42-87.22,194.42-194.42,194.42"/>
      <path class="cls-2" d="M306.23,154.06c-133.33,0-241.8,108.47-241.8,241.8s108.47,241.8,241.8,241.8,241.8-108.47,241.8-241.8-108.47-241.8-241.8-241.8M306.23,640.66c-65.39,0-126.86-25.46-173.1-71.7-46.24-46.24-71.7-107.71-71.7-173.1s25.46-126.86,71.7-173.1c46.24-46.23,107.72-71.7,173.1-71.7,0,0,0,0,0,0,65.39,0,126.86,25.46,173.1,71.7,46.24,46.24,71.7,107.71,71.7,173.1s-25.46,126.86-71.7,173.1c-46.24,46.24-107.71,71.7-173.1,71.7"/>
      <path class="cls-2" d="M328.61,269.5c-5.77,7-13.59,11.31-22.21,11.31s-16.45-4.3-22.21-11.31c5.77-7,13.59-11.3,22.21-11.3s16.45,4.3,22.21,11.3M303.74,277.24c-3.2-1.1-5.51-4.14-5.51-7.72s2.39-6.73,5.69-7.78c-7.18.53-13.7,3.37-18.78,7.76,5.04,4.35,11.49,7.17,18.6,7.74M308.87,261.75c.99.32,1.9.82,2.69,1.46-1.42.14-2.53,1.34-2.53,2.8,0,1.55,1.26,2.81,2.81,2.81,1.04,0,1.95-.57,2.44-1.41.18.68.28,1.39.28,2.12,0,3.58-2.3,6.62-5.51,7.72,7.11-.57,13.56-3.39,18.6-7.74-5.08-4.38-11.6-7.22-18.78-7.76"/>
      <line class="cls-1" x1="285.14" y1="269.5" x2="285.14" y2="269.5"/>
      <polyline class="cls-2" points="327.64 269.5 327.64 269.5 327.65 269.5 327.64 269.5"/>
      <path class="cls-2" d="M306.29,465.63c-16.89,0-30.58,11.54-30.58,25.78s13.69,25.79,30.58,25.79,30.58-11.54,30.58-25.79-13.69-25.78-30.58-25.78M344.04,491.41c0,17.58-16.81,31.83-37.54,31.83s-37.54-14.25-37.54-31.83,16.81-31.83,37.54-31.83,37.54,14.25,37.54,31.83"/>
      <path class="cls-2" d="M167.1,418.71h-7.26s0,18.4,48.6,18.4c45.85,0,46.13-18.4,46.13-18.4h-7.33c-11.17-29.25-31.8-83.26-34.54-90.43,15.41,1.19,38.82-6.89,46.47-9.33,6.86-2.19,21.03-6.09,35.77-5.79l-1.57,18.09c3.77-2.29,8.19-3.6,12.92-3.6s9.15,1.32,12.92,3.6l-1.57-18.09c14.71-.28,28.84,3.6,35.69,5.79,7.65,2.44,31.06,10.52,46.47,9.33-2.74,7.17-23.37,61.18-34.54,90.43h-7.33s.28,18.4,46.13,18.4c48.6,0,48.6-18.4,48.6-18.4h-7.26c-11.37-29.72-32.71-85.47-35.76-93.43,8.56-6.1,3.18-19.33,3.18-19.33-5.49,22.51-36.61,10.62-39.36,9.34-2.75-1.28-17.39-9.52-34.96-13.36-8.45-1.85-16.23-1.92-22.02-1.49-1.03-4.68-5.2-8.18-10.19-8.18s-9.16,3.5-10.19,8.18c-5.8-.43-13.61-.37-22.11,1.49-17.57,3.84-32.21,12.08-34.96,13.36-2.74,1.28-33.86,13.18-39.35-9.34,0,0-5.38,13.23,3.18,19.33-3.05,7.96-24.38,63.71-35.76,93.43M240.55,418.71h-66.76l33.42-87.31,33.35,87.31ZM438.7,418.71h-66.76l33.35-87.31,33.42,87.31Z"/>
      <path class="cls-2" d="M316.66,296.93c.04-.39.07-.79.07-1.19,0-5.76-4.67-10.43-10.43-10.43s-10.43,4.67-10.43,10.43c0,.4.02.8.07,1.19h0c.63-4.2,5.03-7.46,10.36-7.46s9.73,3.26,10.36,7.46h.01Z"/>
      <path class="cls-2" d="M324.73,347.47c-1.45-8.88-9.16-15.66-18.45-15.66s-17,6.78-18.45,15.66c3.06-7.17,10.17-12.19,18.45-12.19s15.39,5.02,18.45,12.19"/>
      <path class="cls-2" d="M279.98,409.25l6.91-51.1c1.81-15.02,8.68-19.4,19.4-19.4s18.45,7.42,20.03,19.26l6.73,51.45c-7.07-6.41-16.46-10.32-26.76-10.32s-19.23,3.7-26.31,10.12"/>
      <path class="cls-2" d="M335.93,429.52c-3.33-13.27-15.34-23.1-29.65-23.1s-26.3,9.82-29.64,23.08l-.02.08c5.38-10.95,16.64-18.48,29.66-18.48s24.28,7.53,29.66,18.48v-.06Z"/>
      <path class="cls-2" d="M340.68,466.91c-8.56-9.24-20.8-15.02-34.39-15.02s-25.78,5.76-34.34,14.97l3.32-24.84c2.71-16.56,14.55-29,31.02-29s28.96,12.47,31.02,29l3.37,24.89Z"/>
      <path class="cls-2" d="M342.3,476.66c-7.79-11.45-20.95-18.98-35.88-18.98s-28.1,7.53-35.88,18.99h-.03c6.77-13.19,20.3-22.19,35.9-22.19s29.13,9,35.9,22.19h0Z"/>
      <path class="cls-2" d="M277.19,483.79c-.06.61-.08,1.24-.08,1.86,0,13.59,13.06,24.6,29.18,24.6s29.18-11.02,29.18-24.6c0-.62-.03-1.24-.08-1.86h0c-1.13,10.93-13.73,19.54-29.1,19.54s-27.97-8.61-29.1-19.54"/>
      <g>
        <path class="cls-1" d="M105.52,287.57l19.33,10.05c.96.5,1.39.47,2.74-1.41.3-.39.56-.45.93-.26.15.08.49.31.66.44-.98,1.62-2.13,3.66-2.89,5.1-.77,1.49-1.76,3.56-2.5,5.26-.22-.02-.61-.17-.76-.25-.33-.17-.55-.38-.34-.97.74-2.05.55-2.5-.41-2.99l-19.33-10.05-1.79,3.44c-1.5,2.89-1.02,4.39.9,6.97.2.25.15.52.03.76-.16.31-.57.74-.79.88-.99-.96-1.7-1.68-2.5-2.29-1.04-.79-1.95-1.36-2.24-1.71-.16-.23-.17-.48,0-.8.31-.59,1.46-2.27,2.7-4.65l6.26-12.04c1.22-2.35,1.93-4.26,2.26-4.88.14-.27.37-.45.66-.45.45.03,1.42.49,2.69.85.96.3,1.93.51,3.31.73-.01.29-.11.84-.27,1.15-.14.27-.32.43-.66.45-3.22-.09-4.72.38-6.21,3.23l-1.79,3.44Z"/>
        <path class="cls-1" d="M146.36,264.83c.87.63,1.3.67,3.05-1.17.19-.19.53-.16.83.06.13.1.44.38.59.53-1.18,1.48-2.63,3.27-3.58,4.59-.98,1.35-2.25,3.32-3.3,4.9-.22-.05-.55-.29-.69-.39-.3-.22-.46-.5-.31-.77,1.18-2.19,1.03-2.62.16-3.26l-7.88-5.72-6.99,9.63,7.88,5.72c.87.63,1.3.67,3.05-1.17.19-.19.53-.16.83.06.13.1.44.38.59.53-1.18,1.48-2.68,3.34-3.64,4.66-.96,1.32-2.2,3.25-3.25,4.83-.22-.05-.55-.29-.69-.39-.3-.22-.46-.5-.31-.77,1.18-2.19,1.03-2.62.16-3.26l-16.8-12.19c-.87-.63-1.33-.64-3.05,1.17-.25.2-.56.14-.83-.06-.13-.1-.47-.34-.62-.56,1.21-1.46,2.63-3.27,3.58-4.59.96-1.32,2.29-3.29,3.3-4.9.23.11.59.32.72.42.27.19.4.51.31.77-1.21,2.23-1.03,2.62-.16,3.26l7.14,5.18,6.99-9.63-7.14-5.18c-.87-.63-1.33-.64-3.05,1.17-.25.2-.56.14-.83-.06-.13-.1-.47-.34-.62-.56,1.21-1.46,2.65-3.3,3.64-4.66.96-1.32,2.24-3.22,3.25-4.83.23.11.59.32.72.42.27.19.4.51.31.77-1.21,2.23-1.03,2.62-.16,3.26l16.8,12.19Z"/>
        <path class="cls-1" d="M141.03,238.37l7.17,6.94,4.32-4.46c.77-.79.38-1.53-.8-3.1-.27-.32-.11-.66.2-.98.12-.13.49-.45.64-.54.8.96,2.14,2.38,2.97,3.18.71.69,1.73,1.61,3.07,2.67-.06.18-.37.56-.49.69-.34.35-.67.45-1,.2-1.76-1.22-2.42-1.37-3.1-.67l-4.32,4.46,6.67,6.45c.83.81,2.02,0,4.54-2.6l1.29-1.33c2.42-2.5,1.94-4.68,1.05-7.51-.09-.21.04-.46.22-.65.21-.22.67-.39,1.06-.56.21.38.41.77.59,1.12.26.62.71,1.3.91,1.74.62.97,1.65,2.46,1.8,2.85.09.27,0,.48-.25.74-.61.63-2.82,2.61-3.89,3.72l-6.96,7.18c-1.2,1.23-2.79,3.06-3.96,4.38-.21-.08-.54-.4-.66-.51-.3-.29-.35-.53-.17-.78,1.26-1.84,1.67-2.74.9-3.49l-14.91-14.43c-.8-.78-1.44-.48-3.46,1.01-.27.16-.54.09-.84-.2-.18-.17-.39-.38-.5-.61,1.87-1.69,3.25-3.05,4.23-4.06l6.28-6.49c1.84-1.9,3.07-3.53,3.56-4.03.21-.22.49-.32.76-.25.45.19,1.43,1.08,2.57,1.75.78.51,1.47.93,2.73,1.47-.09.28-.28.65-.53.9-.21.22-.43.32-.76.25-3.06-1-4.6-.96-6.84,1.35l-4.08,4.21Z"/>
        <path class="cls-1" d="M185.5,220.8l-7.52,5.39,1.49,6.01c.03.34.21.67.3.8.34.47.97.53,2.62-.35.31-.17.65-.16.96.28.1.13.25.43.34.62-1.36.82-2.91,1.83-4.28,2.81-.97.69-1.95,1.45-3.14,2.5-.19-.12-.39-.39-.48-.52-.29-.4-.35-.72-.02-1.01,1.28-1.32,1.64-1.94,1.47-2.94l-5.26-25.57c-.07-.56.13-.96.45-1.19.21-.15.49-.3.8-.47l22.96,13.81c.77.47,1.88.13,2.95-.43.41-.19.71-.15,1.02.29.1.13.28.46.36.66-1.58.98-3.16,2.01-4.45,2.94-1.33.95-3.97,3-5.29,4.04-.19-.12-.39-.39-.48-.52-.29-.4-.22-.76-.06-.92,1.07-1.07,1.49-1.78,1.08-2.35-.1-.13-.25-.28-.47-.43l-5.35-3.45ZM183.61,219.6l-8.47-5.39,2.31,9.81,6.16-4.41Z"/>
        <path class="cls-1" d="M217.79,202.25l-6.69-13.09c-.55-1.07-1.44-1.08-3.52-.3-.39.11-.7-.11-.87-.44-.08-.15-.23-.44-.26-.7,1.37-.51,2.57-1.08,4.21-1.92,1.65-.84,2.77-1.46,3.87-2.21.15.2.34.48.42.62.23.44.14.76-.11.94-1.61,1.1-1.93,1.73-1.43,2.73l11.02,21.57c-.18.14-.83.52-.98.6-.35.18-.86.25-1.59-.02l-24.88-10.54,8.14,15.93c.49.96.82,1.12,3.24.34.25-.08.57-.06.83.46.08.15.19.46.24.67-1.33.59-2.41,1-3.94,1.78-1.49.76-2.9,1.58-3.99,2.27-.17-.14-.32-.44-.4-.59-.25-.48-.1-.78.11-.94,1.73-1.26,2.01-1.87,1.54-2.79l-9.54-18.66c-.4-.77-.92-1.02-2.99-.24-.31.07-.6-.02-.83-.46-.04-.07-.11-.22-.15-.39l-.11-.32c.72-.32,1.45-.65,2.14-.95,1.16-.54,2.47-1.17,3.22-1.55,1.53-.78,1.82-.79,2.34-.64l20.94,8.83Z"/>
        <path class="cls-1" d="M239.87,193.64l-8.74,3.02-.28,6.19c-.07.33,0,.7.06.85.19.55.78.78,2.61.41.35-.08.66.03.84.54.05.16.12.48.15.69-1.54.4-3.32.93-4.9,1.48-1.12.39-2.28.83-3.72,1.51-.15-.17-.26-.48-.31-.64-.16-.47-.13-.79.27-.97,1.6-.9,2.13-1.39,2.25-2.4l2.23-26.02c.09-.56.39-.88.77-1.01.25-.09.55-.15.9-.22l18.08,19.78c.6.67,1.77.66,2.95.43.44-.07.72.06.9.57.05.16.13.52.16.73-1.79.49-3.61,1.03-5.11,1.55-1.54.53-4.67,1.75-6.22,2.37-.15-.17-.26-.48-.31-.64-.16-.47,0-.79.2-.9,1.33-.72,1.93-1.28,1.7-1.95-.05-.16-.16-.34-.33-.54l-4.14-4.83ZM238.41,191.96l-6.59-7.58-.57,10.06,7.16-2.48Z"/>
        <path class="cls-1" d="M263.43,193.1c.23,1.14,1.76,1.12,5.3.41l1.64-.33c2.94-.59,3.82-2,4.47-5.43.04-.22.24-.39.58-.46.3-.06.77.05,1.2.14-.09,1.79-.08,4.03.05,6.03.09.66-.28.82-.63.89-.86.17-3.67.53-5.18.84l-9.8,1.98c-1.68.34-4.04.94-5.75,1.38-.13-.19-.22-.63-.25-.79-.08-.41,0-.64.3-.74,2.08-.8,2.93-1.31,2.71-2.37l-4.12-20.33c-.21-1.06-.55-1.37-3.03-1.2-.32-.02-.51-.28-.57-.6-.03-.16-.12-.57-.08-.83,1.88-.25,4.14-.63,5.74-.95,1.6-.32,4.34-.96,6.18-1.46.09.23.22.63.25.79.07.32-.05.64-.29.78-2.4.82-2.95,1.4-2.74,2.46l4.01,19.81Z"/>
        <path class="cls-1" d="M284.06,181.94l-8.09-11.88c-.76-1.1-1.67-1.35-3.22-1.42-.35,0-.56-.28-.6-.78,0-.08-.02-.25,0-.42l.02-.29c1.28.01,3.44-.1,5.81-.31,1.67-.15,4.82-.51,6.08-.75.13.49.15.65.15.73.05.54-.15.76-.46.83-1.52.3-1.98.63-1.93,1.13.02.21.13.49.38.84l5.98,9.11,4.26-9.36c.3-.61.39-1.07.37-1.36-.06-.66-.65-.86-2.25-.96-.35,0-.59-.2-.64-.73,0-.08.01-.38.07-.75,1.24.01,3.35-.09,4.76-.22,1.36-.12,2.89-.3,4.37-.6.12.36.15.65.15.73.04.45-.11.76-.46.83-2.08.44-2.62.86-3.11,1.86l-6.13,13.18.73,8.21c.11,1.2.71,1.48,3.28,1.58.27.02.54.16.6.74,0,.08-.02.25,0,.42l-.02.29c-.92.08-1.76.11-2.55.14-1.41.04-3.04.15-4.05.24-1.05.09-2.54.27-3.81.46-.74.11-1.48.22-2.23.28l-.07-.28c-.06-.16-.07-.33-.08-.41-.05-.58.2-.77.46-.83,2.46-.68,3.06-.94,2.95-2.13l-.72-8.12Z"/>
        <path class="cls-1" d="M310.27,190.1l8.89.35c3.57.14,4.59-1.35,5.91-4.45.15-.45.51-.6.82-.59s.61.11,1,.29c-.62,2.38-1.04,5.06-1.18,6.46-.07.66-.47.85-1,.83-1.1-.04-2.81-.36-4.66-.43l-17.48-.68c0-.25.06-.45.2-.7l16.62-23.51-8.19-.32c-3.61-.14-4.73.4-5.67,3.96-.1.41-.46.6-1.04.58-.26-.01-.66-.11-.87-.28.49-2.38.8-4.65.94-5.97.11-.62.43-.81.96-.79,1.14.04,2.5.31,4.35.38l17.17.67c-.01.33-.03.62-.21.82l-16.57,23.39Z"/>
        <path class="cls-1" d="M341.65,170.05l-1.65,9.84,6.13,1.03c1.09.18,1.48-.55,2.1-2.42.11-.4.48-.47.91-.39.17.03.65.15.81.22-.34,1.2-.74,3.11-.94,4.25-.17.98-.35,2.34-.46,4.04-.19.05-.67.01-.85-.02-.48-.08-.76-.29-.73-.71,0-2.14-.25-2.77-1.21-2.93l-6.13-1.03-1.53,9.15c-.19,1.14,1.15,1.66,4.71,2.26l1.83.31c3.43.58,4.96-1.06,6.78-3.4.12-.19.4-.23.66-.18.3.05.7.33,1.07.56-.2.39-.4.77-.59,1.12-.36.57-.67,1.32-.92,1.74-.45,1.06-1.09,2.76-1.32,3.1-.17.22-.4.27-.75.21-.87-.15-3.75-.84-5.27-1.09l-9.87-1.66c-1.7-.28-4.11-.56-5.86-.77-.05-.22.02-.67.05-.83.07-.41.23-.59.54-.58,2.23,0,3.2-.18,3.38-1.24l3.43-20.46c.19-1.1-.43-1.46-2.79-2.27-.29-.13-.38-.4-.31-.81.04-.25.09-.53.22-.76,2.45.58,4.36.94,5.75,1.17l8.91,1.5c2.61.44,4.65.53,5.34.64.3.05.54.22.63.48.1.48-.08,1.79.01,3.11.02.93.07,1.73.33,3.08-.28.08-.69.14-1.04.08-.3-.05-.51-.17-.63-.48-.91-3.09-1.82-4.34-4.99-4.87l-5.78-.97Z"/>
        <path class="cls-1" d="M368.12,189.21l-1.81-.57-2.59,8.26c-.38,1.23.51,1.9,3.02,3.03.37.16.5.46.34.98-.05.16-.2.5-.31.69-1.56-.62-4.1-1.5-6.96-2.4-2.02-.63-3.93-1.15-5.61-1.54-.02-.22.08-.54.12-.7.16-.51.43-.65.7-.61,2.48.34,2.98.2,3.31-.83l6.21-19.8c.34-1.07-.17-1.66-2.41-2.62-.23-.16-.38-.42-.21-.94.06-.2.16-.51.29-.65,1.52.61,3.81,1.41,5.4,1.91l6.35,1.99c5.97,1.87,8.64,5.88,7.31,10.11-.87,2.77-3.58,4.65-7.14,4.79l3.76,11.12c.57,1.7,1.89,2.5,2.94,3.14.24.12.4.34.25.82-.06.2-.16.51-.32.72-1.24-.47-4.69-1.69-6.29-2.19-1.18-.37-2.07-1.78-2.7-3.62l-3.68-11.09ZM368.2,187.06c3.45,1.08,6.06.69,7.28-3.19,1.02-3.24.19-5.76-4.06-7.09l-1.26-.4-3.22,10.28,1.26.4Z"/>
        <path class="cls-1" d="M409.33,209.78l-8.14-4.39-4.75,3.98c-.29.17-.51.48-.59.62-.28.51-.04,1.1,1.46,2.2.29.2.43.51.17.99-.08.15-.27.42-.41.58-1.34-.86-2.93-1.81-4.4-2.61-1.05-.56-2.15-1.11-3.63-1.72.02-.22.18-.52.26-.66.24-.44.49-.63.9-.46,1.75.57,2.47.62,3.29.03l20.67-15.96c.47-.31.91-.31,1.26-.12.23.13.48.31.78.51l-2.33,26.69c-.08.9.71,1.75,1.68,2.46.35.28.44.57.19,1.04-.08.15-.29.45-.43.61-1.57-.99-3.2-1.96-4.59-2.71-1.44-.77-4.44-2.25-5.96-2.97.02-.22.18-.52.26-.66.24-.44.59-.53.8-.46,1.44.49,2.25.56,2.59-.06.08-.15.14-.35.18-.61l.75-6.32ZM409.57,207.56l1.12-9.98-7.8,6.38,6.67,3.6Z"/>
        <path class="cls-1" d="M432.25,221.01l-1.52-1.13-5.17,6.94c-.77,1.03-.14,1.96,1.85,3.86.29.27.32.6,0,1.03-.1.13-.36.41-.52.55-1.27-1.1-3.38-2.77-5.78-4.56-1.7-1.26-3.34-2.38-4.79-3.31.05-.22.25-.48.35-.62.32-.43.62-.47.86-.34,2.23,1.14,2.75,1.17,3.39.31l12.38-16.64c.67-.9.38-1.62-1.41-3.27-.16-.22-.22-.52.11-.95.12-.17.32-.43.49-.51,1.23,1.07,3.13,2.59,4.47,3.59l5.34,3.97c5.02,3.74,6.22,8.4,3.57,11.95-1.73,2.33-4.91,3.21-8.31,2.17l-.11,11.74c-.02,1.79.96,2.99,1.74,3.93.19.19.27.46-.03.85-.12.17-.32.43-.54.58-1.01-.86-3.87-3.14-5.21-4.14-.99-.74-1.37-2.36-1.35-4.31l.18-11.68ZM433.03,219.01c2.9,2.16,5.5,2.65,7.92-.61,2.03-2.72,2.07-5.37-1.49-8.03l-1.06-.79-6.43,8.64,1.06.79Z"/>
        <path class="cls-1" d="M466.35,233.18l-15.14,15.66c-.75.77-.85,1.19.57,3.03.29.4.27.67-.02.97-.12.12-.43.39-.61.5-1.28-1.41-2.9-3.09-4.07-4.22-1.21-1.16-2.91-2.7-4.33-3.89.08-.21.34-.54.45-.66.26-.27.53-.42,1.03-.05,1.75,1.29,2.23,1.24,2.98.46l15.14-15.66-2.79-2.69c-2.34-2.27-3.91-2.23-6.94-1.12-.29.12-.54,0-.73-.19-.25-.24-.55-.76-.62-1,1.21-.68,2.09-1.15,2.91-1.74,1.05-.77,1.86-1.48,2.28-1.66.27-.09.51-.02.77.22.47.46,1.76,2.05,3.69,3.92l9.76,9.43c1.9,1.84,3.53,3.07,4.04,3.56.22.21.32.49.25.76-.16.42-.88,1.23-1.58,2.33-.56.84-1.04,1.71-1.64,2.96-.28-.09-.77-.34-1.03-.59-.22-.21-.32-.43-.25-.76,1-3.06.99-4.63-1.33-6.87l-2.79-2.7Z"/>
        <path class="cls-1" d="M465.96,265.13c-.83.69-.97,1.1.38,3.24.14.23.03.55-.26.79-.13.11-.47.34-.66.44-1.15-1.51-2.55-3.38-3.6-4.63-1.07-1.29-2.66-3-3.91-4.36.1-.2.42-.47.55-.57.29-.24.59-.32.82-.11,1.84,1.68,2.29,1.65,3.12.95l15.92-13.3c.83-.69.94-1.13-.38-3.24-.13-.29,0-.58.26-.79.13-.11.45-.37.69-.46,1.09,1.5,2.53,3.35,3.6,4.63,1.04,1.25,2.61,2.99,3.92,4.36-.16.19-.45.49-.58.6-.25.21-.59.26-.82.11-1.86-1.71-2.29-1.65-3.12-.95l-15.92,13.3Z"/>
        <path class="cls-1" d="M494.32,275.18c-.45-.65-.32-1.12-.12-1.42,1.84-2.87,1.75-5.27-.28-8.21-1.6-2.32-3.96-3.42-6.11-1.94-5.01,3.45,5.38,14.75-2.56,20.23-3.48,2.4-8.45,2.19-12.45-3.62-2.18-3.16-3.19-6.31-3.53-8.48,1.84-1.48,3.53-3.13,5.03-4.75.19.13.54.49.71.74.4.58.4.95.02,1.49-2.58,3.7-2.89,6.32-.46,9.84,2.05,2.98,4.6,3.09,6.44,1.82,5.83-4.02-5.12-14.08,3.03-19.69,3.62-2.49,8.48-1.56,11.85,3.34,1.37,2,2.37,4.25,3.19,7.48-1.31,1.01-3.02,2.56-4.18,3.79-.22-.17-.45-.44-.58-.62Z"/>
        <path class="cls-1" d="M509.52,292.54l-19.33,10.04c-.96.5-1.18.86-.42,3.05.15.47.05.72-.32.91-.15.08-.54.23-.74.28-.76-1.74-1.77-3.85-2.52-5.29-.77-1.49-1.9-3.48-2.87-5.06.14-.17.49-.4.64-.48.33-.17.63-.23.99.28,1.25,1.78,1.72,1.88,2.68,1.39l19.33-10.04-1.79-3.44c-1.5-2.89-3-3.35-6.22-3.27-.32.02-.51-.18-.63-.41-.16-.31-.28-.9-.27-1.15,1.36-.26,2.35-.42,3.31-.73,1.24-.4,2.24-.81,2.69-.85.28,0,.49.14.66.45.3.59,1.02,2.5,2.26,4.88l6.25,12.04c1.22,2.35,2.38,4.03,2.7,4.65.14.27.15.57,0,.8-.29.35-1.22.88-2.24,1.71-.8.61-1.52,1.29-2.5,2.29-.23-.18-.62-.57-.79-.88-.14-.27-.17-.51,0-.8,1.92-2.59,2.41-4.08.92-6.93l-1.79-3.44Z"/>
      </g>
      <g>
        <path class="cls-1" d="M177.28,556.31c.4-.21.64-.33,1.65.52.47.4,1.95,1.56,2.76,2.11-.09.2-.27.41-.36.52-.23.27-.45.4-.66.31-1.31-.75-1.62-.64-2.12-.05-.2.24-10.09,12.91-10.89,13.98-.57.71-.58,1.12.33,2.25.13.15.08.39-.19.71-.09.11-.29.3-.43.42-.96-.9-1.6-1.58-2.62-2.45-.94-.8-2.2-1.73-2.96-2.27.09-.15.25-.38.34-.49.32-.37.56-.4.64-.33,1.4.73,1.82.67,2.43-.05.25-.29,8.18-10.4,8.75-11.2l-15.17,9.03c-.4.21-.62.3-.79.15-.06-.05-.19-.16-.23-.24l7.62-19.05c-1.26,1.36-10.83,11.88-11.1,12.2-.57.67-.62.99.33,2.25.13.15.1.36-.2.71-.09.11-.27.28-.43.42-.7-.73-1.3-1.33-1.94-1.87-.56-.47-1.61-1.22-2.33-1.75.07-.17.25-.38.34-.49.32-.37.51-.39.66-.31,1.08.5,1.69.56,2.28-.04.79-.84,11.77-12.86,11.96-13.08.5-.59.46-.98-.4-2.08-.15-.17-.05-.41.19-.71.09-.11.27-.32.45-.44.68.71,2.73,2.54,3.26,2.99,1,.85.95,1.13.79,1.54l-6.18,15.36,14.21-8.55Z"/>
        <path class="cls-1" d="M179.36,575.12l1.92-9.73c.17-.9-.1-1.39-.74-2.01-.15-.14-.11-.37.1-.66.03-.05.1-.15.19-.23l.14-.16c.54.49,1.52,1.24,2.62,2,.78.54,2.29,1.52,2.94,1.86-.16.32-.23.42-.27.47-.22.32-.41.37-.57.3-.79-.4-1.13-.38-1.34-.09-.09.12-.16.32-.22.62l-1.57,7.38,6.06-3.68c.4-.23.65-.46.77-.63.27-.39.11-.73-.53-1.39-.15-.14-.16-.33.06-.65.03-.05.17-.21.37-.4.52.47,1.47,1.21,2.13,1.66.64.44,1.37.92,2.14,1.3-.11.25-.23.42-.27.47-.19.27-.39.39-.57.3-1.09-.54-1.51-.5-2.17-.12l-8.59,5.14-3.4,4.9c-.5.71-.37,1.1.69,2.12.11.11.16.29-.08.64-.03.05-.12.13-.19.23l-.14.16c-.43-.3-.8-.59-1.16-.88-.62-.5-1.37-1.06-1.84-1.38-.49-.34-1.21-.8-1.84-1.17-.37-.22-.73-.44-1.08-.68l.1-.19c.05-.11.12-.21.15-.26.24-.34.43-.36.57-.3,1.36.54,1.73.62,2.23-.1l3.37-4.85Z"/>
        <path class="cls-1" d="M203.73,590.64l-5.18-2.78-3.58,3.6c-.21.16-.39.43-.46.55-.23.43-.12.89.81,1.63.18.14.25.37.03.77-.07.12-.22.36-.33.5-.84-.57-1.84-1.19-2.78-1.69-.67-.36-1.37-.7-2.33-1.05.03-.18.17-.43.23-.55.2-.37.39-.55.65-.44,1.14.3,1.63.28,2.24-.27l15.48-14.57c.35-.29.65-.33.87-.21.15.08.3.2.49.34l-3.89,21.51c-.13.72.33,1.33.93,1.81.21.19.25.41.04.82-.07.12-.24.39-.35.53-.99-.65-2.01-1.28-2.9-1.76-.91-.49-2.84-1.4-3.81-1.85.03-.18.17-.43.23-.55.2-.37.45-.48.59-.44.94.27,1.49.24,1.77-.28.07-.12.12-.29.17-.5l1.06-5.11ZM204.09,588.85l1.63-8.06-5.87,5.79,4.24,2.28Z"/>
        <path class="cls-1" d="M218.1,596.44l-.99-.43-2.48,5.76c-.37.85.08,1.34,1.41,2.17.2.12.24.33.08.69-.05.11-.18.35-.26.48-.84-.46-2.21-1.12-3.78-1.79-1.1-.47-2.16-.86-3.09-1.17.01-.16.11-.38.16-.49.15-.36.33-.45.48-.42,1.4.28,1.72.18,2.03-.53l5.94-13.81c.32-.74.09-1.17-1.1-1.88-.11-.11-.17-.3-.02-.66.06-.14.15-.36.25-.45.81.45,2.05,1.05,2.93,1.42l3.47,1.49c3.26,1.4,4.35,4.26,3.08,7.21-.83,1.93-2.63,3.21-4.72,3.26l.89,7.86c.14,1.2.81,1.79,1.35,2.25.13.09.19.25.05.58-.06.14-.15.36-.27.5-.67-.35-2.54-1.26-3.41-1.63-.64-.28-1-1.28-1.15-2.58l-.84-7.84ZM218.4,594.93c1.88.81,3.46.57,4.62-2.13.97-2.26.79-4.04-1.53-5.04l-.69-.3-3.08,7.17.69.3Z"/>
        <path class="cls-1" d="M238.69,594.45l-5.18,14.91c-.26.74-.23,1.03.92,1.68.24.15.29.32.19.61-.04.11-.16.39-.23.52-.99-.44-2.22-.93-3.09-1.23-.9-.31-2.15-.68-3.17-.94,0-.16.08-.45.12-.56.09-.25.21-.44.56-.38,1.23.2,1.48,0,1.74-.73l5.18-14.9-2.08-.72c-1.75-.61-2.6-.05-4.05,1.67-.14.17-.3.18-.44.13-.19-.07-.46-.29-.54-.41.53-.83.92-1.43,1.25-2.07.42-.84.73-1.56.92-1.81.13-.15.28-.19.47-.12.35.12,1.38.67,2.82,1.17l7.28,2.52c1.42.49,2.56.7,2.94.83.17.06.28.19.29.39,0,.32-.24,1.06-.4,1.99-.14.71-.23,1.41-.31,2.4-.17.04-.49.05-.68-.01-.17-.06-.26-.15-.29-.39-.07-2.25-.39-3.22-2.12-3.81l-2.08-.72Z"/>
        <path class="cls-1" d="M248.12,613.77c-.21.75-.16,1.05,1.16,1.65.14.07.18.3.11.56-.03.12-.13.4-.2.54-1.02-.34-2.28-.78-3.17-1.02-.92-.25-2.22-.51-3.25-.73,0-.16.07-.45.1-.56.07-.26.2-.44.38-.43,1.41.14,1.63-.08,1.83-.84l3.95-14.5c.21-.75.13-1.05-1.16-1.65-.15-.1-.17-.33-.11-.56.03-.12.11-.41.21-.57.99.36,2.25.77,3.17,1.02.89.24,2.19.53,3.25.73-.02.18-.08.48-.11.59-.06.23-.21.41-.38.43-1.44-.14-1.63.08-1.83.84l-3.95,14.5Z"/>
        <path class="cls-1" d="M266.73,605.37c-.44-.09-.56-.39-.58-.64-.27-2.39-1.2-3.53-3.19-3.95-1.57-.33-3.01.35-3.4,2.2-.9,4.32,7.86,4.55,6.43,11.4-.62,3-2.88,5.47-6.79,4.65-2.13-.44-3.75-1.49-4.71-2.39.25-1.7.38-3.39.42-4.97.13-.03.42-.04.59,0,.39.08.53.26.56.73.26,3.18,1.1,4.64,3.47,5.14,2.01.42,3.16-.84,3.5-2.43,1.05-5.02-7.49-4.35-6.03-11.38.65-3.11,3.12-5.17,6.43-4.48,1.35.28,2.62.88,4.19,2.07-.2,1.19-.36,2.84-.41,4.05-.16.03-.36.02-.48,0Z"/>
        <path class="cls-1" d="M280.55,603.97l-2.02,15.65c-.1.77-.01,1.06,1.25,1.46.26.09.34.26.31.55-.02.12-.08.41-.12.56-1.05-.23-2.36-.46-3.28-.57-.94-.12-2.24-.23-3.29-.27-.03-.16-.02-.46,0-.58.04-.27.11-.47.47-.48,1.24-.05,1.45-.3,1.55-1.07l2.02-15.65-2.18-.28c-1.83-.24-2.56.49-3.62,2.47-.1.2-.26.24-.41.22-.2-.03-.5-.19-.62-.29.35-.92.61-1.58.8-2.29.24-.91.39-1.67.53-1.96.1-.17.23-.24.43-.22.37.05,1.49.37,3,.57l7.64.99c1.49.19,2.65.16,3.05.21.17.02.31.13.36.32.06.31-.01,1.09.01,2.03,0,.73.07,1.43.19,2.42-.16.07-.47.15-.67.12-.17-.02-.29-.1-.36-.32-.52-2.19-1.04-3.07-2.85-3.3l-2.18-.28Z"/>
        <path class="cls-1" d="M306.72,602.54l-.3,18.4c-.01.91.12,1.23,1.57,1.53.31.07.42.25.41.6,0,.14-.04.49-.07.66-1.2-.12-2.68-.22-3.72-.24-1.06-.02-2.52.03-3.7.11-.05-.18-.08-.53-.07-.67,0-.31.07-.56.46-.62,1.38-.22,1.58-.53,1.59-1.44l.3-18.4-2.46-.04c-2.07-.03-2.79.9-3.72,3.33-.09.24-.26.31-.42.31-.22,0-.59-.15-.72-.26.27-1.12.48-1.92.6-2.75.16-1.08.23-1.99.35-2.34.09-.21.23-.31.45-.31.42,0,1.7.24,3.41.27l8.62.14c1.68.03,2.97-.16,3.42-.15.2,0,.36.11.44.32.11.35.12,1.26.27,2.35.1.84.25,1.65.51,2.77-.17.1-.51.24-.73.23-.2,0-.33-.08-.44-.32-.86-2.46-1.54-3.42-3.58-3.45l-2.46-.04Z"/>
        <path class="cls-1" d="M320.74,614.83l-4.63-8.78c-.43-.81-.95-1.01-1.83-1.1-.2-.01-.32-.22-.34-.58,0-.06-.01-.18,0-.3v-.21c.74.04,1.96,0,3.31-.09.95-.07,2.74-.26,3.46-.4.08.36.08.48.09.54.03.39-.09.55-.26.59-.86.18-1.12.41-1.1.77.01.15.08.36.22.62l3.42,6.73,2.4-6.67c.17-.43.22-.77.2-.98-.04-.48-.37-.63-1.28-.75-.2-.01-.34-.16-.37-.54,0-.06,0-.27.04-.54.71.04,1.91.01,2.7-.05.77-.06,1.64-.15,2.48-.33.07.27.08.47.09.53.02.33-.06.55-.26.59-1.18.27-1.49.56-1.76,1.27l-3.45,9.4.43,5.96c.06.87.41,1.08,1.87,1.22.15.02.31.13.34.55,0,.06-.01.18,0,.3v.21c-.53.04-1.01.04-1.46.05-.8,0-1.73.04-2.3.08-.6.04-1.44.13-2.16.25-.42.06-.84.12-1.27.15l-.04-.21c-.03-.12-.04-.24-.05-.3-.03-.42.11-.55.26-.59,1.4-.43,1.74-.61,1.67-1.48l-.43-5.89Z"/>
        <path class="cls-1" d="M336.82,613.22l.82,5.7c.13.92.77,1.1,2.33,1.12.23,0,.38.16.43.54.02.12.03.39.03.54-.95.05-2.47.21-4.16.45-1.19.17-2.29.39-3.25.62-.07-.14-.11-.38-.12-.5-.06-.39.05-.55.19-.6,1.34-.5,1.56-.74,1.45-1.51l-2.15-14.88c-.12-.8-.53-1.04-1.92-1.03-.16-.04-.3-.17-.36-.55-.02-.15-.06-.39-.02-.51.93-.04,2.3-.18,3.24-.32l3.74-.54c3.51-.51,5.91,1.21,6.4,4.59.45,3.09-1.22,6.09-4.78,6.6l-1.88.27ZM337.35,611.63c2.03-.29,3.2-1.61,2.78-4.52-.38-2.64-1.42-4.07-3.97-3.7l-.74.11,1.19,8.23.74-.11Z"/>
        <path class="cls-1" d="M349.65,601.04l1.53,7.06,3.45-.75c.61-.13.64-.72.51-2.14-.04-.3.14-.43.38-.48.1-.02.37-.05.48-.04.12.9.37,2.28.54,3.1.15.7.39,1.67.74,2.85-.08.08-.35.17-.45.19-.27.06-.46-.02-.55-.31-.52-1.45-.8-1.82-1.34-1.7l-3.45.75,1.42,6.57c.18.82,1,.86,3.01.42l1.03-.22c1.93-.42,2.33-1.89,2.71-3.9.02-.16.15-.25.3-.28.17-.04.45.06.69.13,0,.31-.02.62-.04.9-.05.47-.03,1.05-.06,1.39.02.82.1,2.13.06,2.41-.04.19-.14.28-.34.32-.49.11-2.16.31-3.01.5l-5.54,1.2c-.95.21-2.28.58-3.24.86-.08-.14-.15-.46-.18-.58-.06-.29-.02-.46.14-.52,1.17-.53,1.63-.87,1.46-1.64l-3.18-14.69c-.17-.79-.58-.89-2.01-.88-.18-.02-.29-.18-.36-.47-.04-.18-.08-.38-.07-.57,1.42-.18,2.5-.39,3.28-.56l5.01-1.08c1.47-.32,2.55-.74,2.94-.82.17-.04.34.02.45.18.17.3.39,1.23.76,2.11.24.62.46,1.16.92,2.01-.13.12-.33.25-.52.3-.17.04-.31,0-.45-.18-1.23-1.88-2-2.51-3.79-2.13l-3.25.7Z"/>
        <path class="cls-1" d="M371.92,599.13c1.81-.58,3.78.47,4.37,2.32.6,1.86-.39,3.86-2.2,4.44-1.83.59-3.77-.47-4.37-2.32s.36-3.85,2.2-4.44Z"/>
        <path class="cls-1" d="M400.19,596.99c.67,1.52.72,3.05.17,4.57-.61,1.69-1.79,2.91-3.55,3.68-1.44.63-2.67.69-3.69.17-.65-.33-1.12-.82-1.41-1.48-.25-.57-.3-1.09-.15-1.56.15-.47.48-.81.98-1.03.4-.17.79-.18,1.17-.02.38.16.66.46.85.88.28.65.15,1.31-.41,1.99-.23.27-.31.49-.24.63.1.24.4.37.88.39.48.02.96-.07,1.43-.28,1.16-.51,1.89-1.4,2.2-2.67.31-1.27.12-2.68-.55-4.22-1.36-3.1-3.2-4.15-5.52-3.13-.23.1-.4.17-.5.22l-.16.07c-.2.09-.33.05-.41-.12-.06-.13.08-.31.42-.54.99-.65,1.61-1.48,1.86-2.49.25-1.01.11-2.11-.41-3.3-.51-1.17-1.17-1.99-1.99-2.48-.81-.48-1.65-.54-2.5-.16-.63.27-1.1.67-1.43,1.2-.33.53-.4,1-.21,1.42.07.17.23.23.46.19,1.14-.15,1.86.14,2.17.85.41.93.21,1.58-.6,1.93-.52.23-1.02.23-1.49,0-.47-.23-.84-.65-1.11-1.25-.43-.99-.44-1.97-.02-2.95.42-.98,1.26-1.75,2.53-2.3,1.45-.63,2.75-.67,3.91-.11,1.16.56,2,1.44,2.52,2.63.72,1.65.61,3.15-.35,4.51-.34.47-.98,1.03-1.92,1.66l.08.19c1.29-.5,2.46-.61,3.51-.33,1.55.42,2.7,1.49,3.46,3.23Z"/>
        <path class="cls-1" d="M411.48,580.94c3.01-1.71,6.87-.25,9.05,3.58,2.07,3.64,1.36,7.94-1.56,9.6-3.01,1.71-6.86.24-9.04-3.59-2.07-3.64-1.38-7.93,1.55-9.59ZM418.91,586.7c-2.11-3.72-4.83-5.88-7.14-4.56-1.47.83-1.89,3.27-.31,6.05,2.2,3.87,5.04,5.99,7.17,4.78,1.74-.99,1.75-3.71.29-6.27Z"/>
        <path class="cls-1" d="M420.21,578.03c-.3-.47-.57-.52-1.6-.12-.13.03-.25-.05-.37-.24-.07-.11-.16-.25-.2-.38.91-.48,1.59-.89,2.06-1.19l3.1-2c.92-.59,1.55-1.16,1.77-1.3.12-.08.23-.07.35.01.19.17.61.75,1.08,1.28.33.38.64.69,1.16,1.18-.04.11-.15.26-.28.34-.09.06-.21.08-.34-.02-1.34-1.01-2.03-1.26-3.15-.54l-2,1.29,3.08,4.79,2.09-1.34c.33-.21.19-.71-.24-1.61-.09-.21,0-.34.13-.43.06-.04.24-.13.31-.15.33.59.86,1.51,1.2,2.04.29.45.71,1.07,1.27,1.8-.04.08-.17.19-.24.23-.18.12-.32.1-.47-.07-.59-.75-1.02-1.08-1.35-.87l-2.09,1.34,2.73,4.24c.32.49,1.01.24,1.82-.1.15-.07.25,0,.39.21.05.08.18.31.23.42-.29.18-.57.34-.87.51-.54.29-1.17.67-1.76,1.05-.54.35-1.39.97-1.95,1.39-.09-.08-.22-.28-.27-.36-.11-.17-.15-.3-.04-.4.54-.62.88-.99.55-1.5l-6.1-9.48Z"/>
        <path class="cls-1" d="M449.05,573.12c.11.14.02.32-.27.55l-.24.18-.75.58c-.5.39-1,.78-1.52,1.17-.91.7-1.48,1.15-1.73,1.34-.25.19-.45.35-.59.46-.32.24-.53.3-.64.15-.11-.14-.07-.28.11-.43.29-.22.59-.47.91-.74.4-.33.52-.63.38-.88-.14-.25-.51-.76-1.1-1.52l-8.63-11.12c-.39-.5-.64-.79-.74-.87-.1-.07-.23-.05-.39.07-.07.05-.47.43-1.2,1.12-.15.14-.25.23-.3.27-.16.12-.28.13-.37.02-.1-.13-.07-.26.07-.4.55-.56,1-1.26,1.34-2.12s.51-1.69.49-2.49c.03-.25.08-.4.13-.44.1-.08.22-.04.34.12l.35.45c.1.13.21.27.33.43l10.99,14.18c.44.57.72.88.84.94.12.06.32,0,.61-.21l.45-.35.34-.26.3-.23c.18-.14.34-.13.46.02Z"/>
        <path class="cls-1" d="M456.07,554.07c1.19,1.33,2.14,2.73,2.87,4.2.72,1.47,1.12,2.82,1.19,4.05.08,1.32-.35,2.4-1.29,3.25-1.29,1.16-3.04,1.35-5.24.58-2.2-.77-4.36-2.34-6.48-4.71-2.45-2.74-3.79-5.43-4.03-8.07-.14-1.59.3-2.84,1.33-3.76,1.22-1.09,2.78-1.29,4.69-.61,2.36.84,4.68,2.54,6.96,5.08ZM453.34,555.06c-1.99-2.22-3.83-3.87-5.53-4.95-1.3-.83-2.34-.89-3.12-.19-1.57,1.4-.12,4.6,4.35,9.59,4.68,5.23,7.84,7.11,9.5,5.63.77-.69.64-1.94-.38-3.76-.93-1.66-2.53-3.77-4.81-6.32Z"/>
      </g>
    </g>
  </g>
</svg>