<?xml version="1.0" encoding="UTF-8"?>
<svg xmlns="http://www.w3.org/2000/svg" version="1.1" viewBox="0 0 612 792">
  <defs>
    <style>
      .cls-1, .cls-2 {
        fill: #231f20;
      }

      .cls-2 {
        fill-rule: evenodd;
      }
    </style>
  </defs>
  <!-- Generator: Adobe Illustrator 28.7.4, SVG Export Plug-In . SVG Version: 1.2.0 Build 166)  -->
  <g>
    <g id="Layer_1">
      <path class="cls-2" d="M320.22,165.02c-101.34,0-183.78,82.44-183.78,183.78s82.44,183.78,183.78,183.78,183.78-82.44,183.78-183.78-82.44-183.78-183.78-183.78h0ZM320.22,535.58c-102.99,0-186.78-83.79-186.78-186.78s83.79-186.78,186.78-186.78,186.78,83.79,186.78,186.78-83.79,186.78-186.78,186.78h0Z"/>
      <path class="cls-2" d="M320.22,157.38c-105.55,0-191.42,85.87-191.42,191.42s85.87,191.42,191.42,191.42,191.42-85.87,191.42-191.42-85.87-191.42-191.42-191.42h0ZM320.22,543.22c-107.2,0-194.42-87.21-194.42-194.42s87.22-194.42,194.42-194.42,194.42,87.22,194.42,194.42-87.22,194.42-194.42,194.42h0Z"/>
      <path class="cls-2" d="M320.22,107c-133.33,0-241.8,108.47-241.8,241.8s108.47,241.8,241.8,241.8,241.8-108.47,241.8-241.8-108.47-241.8-241.8-241.8h0ZM320.22,593.6c-65.39,0-126.86-25.46-173.1-71.7-46.24-46.24-71.7-107.71-71.7-173.1s25.46-126.86,71.7-173.1c46.23-46.23,107.72-71.7,173.1-71.7,0,0,0,0,0,0,65.39,0,126.86,25.46,173.1,71.7,46.24,46.24,71.7,107.71,71.7,173.1s-25.46,126.86-71.7,173.1c-46.24,46.24-107.71,71.7-173.1,71.7h0Z"/>
      <path class="cls-2" d="M186.66,352.95l38.92-2.39,6.95-.42c2.15,6.01,4.97,11.95,8.48,17.68,3.75,6.12,7.82,11.92,12.08,17.42l-16.02,8-34.9,17.39-2.95-5.16-5.38,9.34-5.45,9.3,10.78-.07h10.78s-2.9-4.96-2.9-4.96l32.51-21.53,15.27-10.09c8.07,10.15,16.75,19.27,25.13,27.52l-9.11,13.79-21.53,32.51-5.13-2.99v10.78s-.06,10.78-.06,10.78l9.3-5.45,9.34-5.38-4.99-2.86,17.39-34.9,7.04-14.09c14.27,13.87,27.45,25.25,35.09,34.97l-1.81,29.44-5.94-.02,5.4,9.33,5.33,9.37,5.33-9.37,5.4-9.33-5.75.02-1.84-29.98c7.76-9.68,20.86-20.99,34.99-34.75l7.15,14.32,17.39,34.9-5.16,2.95,9.34,5.38,9.3,5.45-.07-10.78v-10.78s-4.96,2.9-4.96,2.9l-21.53-32.51-9.25-14c8.36-8.24,17-17.35,25.04-27.49l15.43,10.2,32.51,21.53-2.99,5.13h10.78s10.78.06,10.78.06l-5.45-9.3-5.38-9.34-2.86,4.99-34.9-17.39-16.2-8.09c4.19-5.43,8.19-11.14,11.88-17.17,3.55-5.8,6.39-11.81,8.55-17.88l7.16.43,38.92,2.39-.02,5.94,9.33-5.4,9.37-5.33-9.37-5.33-9.33-5.4.02,5.75-38.92,2.39-5.78.35c4.9-16.15,5.08-32.52,1.12-46.44l28.07-13.98,2.95,5.16,5.38-9.34,5.45-9.3-10.78.07h-10.78s2.9,4.96,2.9,4.96l-25.13,16.64c-5.72-14.69-16.49-25.86-31.51-29.77-1.46-.38-2.89-.67-4.3-.89l18.67-28.18,5.13,2.99v-10.78s.06-10.78.06-10.78l-9.3,5.45-9.34,5.38,4.99,2.86-16.25,32.61c-30.08.11-46.39,36.27-46.39,36.27,0,0-16.29-36.09-46.32-36.27l-16.2-32.52,5.16-2.95-9.34-5.38-9.3-5.45.07,10.78v10.78s4.96-2.9,4.96-2.9l18.6,28.08c-1.42.22-2.87.51-4.35.9-15.03,3.92-25.81,15.09-31.53,29.8l-24.93-16.51,2.99-5.13h-10.78s-10.78-.06-10.78-.06l5.45,9.3,5.38,9.34,2.86-4.99,27.86,13.88c-3.95,13.96-3.75,30.37,1.19,46.56l-5.55-.34-38.92-2.39.02-5.94-9.33,5.4-9.37,5.33,9.37,5.33,9.33,5.4-.02-5.75ZM320.26,404.2c3.28,0,5.95,2.66,5.95,5.95s-2.66,5.95-5.95,5.95-5.95-2.66-5.95-5.95,2.66-5.95,5.95-5.95ZM328.78,317.61l-4.23,78.89h-8.36l-4.23-78.89h16.82Z"/>
      <polygon class="cls-2" points="315.3 214.35 317.7 253.27 320.19 294.52 322.68 253.27 325.07 214.35 331.01 214.37 325.61 205.04 320.28 195.66 314.95 205.04 309.55 214.37 315.3 214.35"/>
      <g>
        <path class="cls-1" d="M137.89,211.64l17.6,12.83c.87.63,1.3.68,2.92-.98.35-.34.62-.36.96-.12.13.1.44.38.58.54-1.22,1.46-2.66,3.3-3.62,4.61-.99,1.35-2.27,3.25-3.26,4.82-.22-.05-.58-.26-.71-.36-.3-.22-.48-.46-.19-1.01,1.04-1.92.92-2.38.05-3.02l-17.6-12.83-2.28,3.13c-1.92,2.63-1.67,4.18-.15,7.03.16.28.07.54-.09.75-.21.28-.68.65-.91.75-.84-1.1-1.43-1.91-2.12-2.64-.91-.93-1.73-1.64-1.96-2.03-.12-.25-.09-.5.11-.79.39-.53,1.78-2.03,3.37-4.2l7.99-10.96c1.56-2.14,2.55-3.92,2.97-4.49.18-.25.44-.39.72-.35.44.1,1.33.7,2.53,1.24.91.44,1.83.79,3.16,1.22-.06.29-.23.81-.44,1.1-.18.25-.38.38-.72.35-3.17-.57-4.72-.34-6.62,2.26l-2.28,3.13Z"/>
        <path class="cls-1" d="M181.69,195.25c.77.76,1.19.86,3.19-.7.21-.16.54-.08.81.18.12.12.38.44.5.61-1.39,1.29-3.08,2.84-4.23,4-1.17,1.19-2.72,2.94-3.99,4.35-.21-.08-.5-.37-.62-.49-.27-.26-.38-.56-.19-.81,1.5-1.99,1.42-2.44.65-3.2l-6.93-6.83-8.35,8.47,6.93,6.83c.77.76,1.19.86,3.19-.7.21-.16.54-.08.81.18.12.12.38.44.5.61-1.39,1.29-3.15,2.9-4.29,4.06s-2.66,2.88-3.93,4.29c-.21-.08-.5-.37-.62-.49-.27-.26-.38-.56-.19-.81,1.5-1.99,1.42-2.44.65-3.2l-14.78-14.56c-.77-.76-1.22-.83-3.19.7-.28.16-.58.05-.81-.18-.12-.12-.41-.41-.53-.64,1.42-1.26,3.08-2.84,4.23-4s2.75-2.91,4-4.35c.21.14.53.4.65.52.24.23.32.56.19.81-1.53,2.02-1.42,2.44-.65,3.2l6.29,6.19,8.35-8.47-6.29-6.19c-.77-.76-1.22-.83-3.19.7-.28.16-.57.05-.81-.18-.12-.12-.41-.41-.53-.64,1.42-1.26,3.12-2.87,4.29-4.06,1.14-1.16,2.69-2.85,3.93-4.29.21.14.53.4.65.52.24.23.32.56.19.81-1.53,2.02-1.42,2.44-.65,3.2l14.79,14.56Z"/>
        <path class="cls-1" d="M180.38,168.28l6.05,7.94,4.94-3.77c.88-.67.61-1.45-.33-3.19-.22-.36-.01-.67.34-.94.14-.11.55-.37.72-.44.65,1.07,1.76,2.67,2.46,3.59.6.79,1.47,1.85,2.64,3.09-.09.17-.45.5-.59.61-.39.29-.73.35-1.02.05-1.56-1.47-2.19-1.71-2.96-1.12l-4.94,3.77,5.63,7.38c.7.92,2,.3,4.87-1.89l1.47-1.12c2.77-2.11,2.62-4.34,2.16-7.27-.06-.22.1-.44.31-.6.25-.19.72-.29,1.14-.4.15.41.29.82.41,1.2.17.65.5,1.39.64,1.86.47,1.05,1.27,2.68,1.35,3.08.05.28-.08.48-.36.69-.7.53-3.17,2.16-4.4,3.09l-7.95,6.06c-1.37,1.04-3.22,2.61-4.57,3.75-.2-.11-.47-.47-.57-.6-.25-.33-.27-.57-.05-.79,1.53-1.63,2.06-2.46,1.41-3.31l-12.58-16.5c-.68-.89-1.35-.69-3.57.48-.3.12-.55,0-.8-.33-.15-.2-.33-.43-.41-.68,2.1-1.39,3.66-2.53,4.79-3.39l7.18-5.48c2.1-1.6,3.56-3.03,4.12-3.46.25-.19.53-.25.79-.13.42.26,1.26,1.28,2.28,2.12.69.62,1.31,1.14,2.47,1.86-.13.26-.38.6-.66.81-.25.19-.47.25-.79.13-2.88-1.45-4.41-1.64-6.97.31l-4.66,3.55Z"/>
        <path class="cls-1" d="M208.61,150.53c-.48-.92-1.06-.98-3.6-.12-.31.07-.54-.09-.74-.46-.12-.22-.25-.48-.29-.74,2.3-1.02,4.04-1.88,5.24-2.52l8-4.2c2.38-1.25,4.06-2.41,4.64-2.72.31-.16.57-.16.8,0,.37.32,1.06,1.45,1.89,2.47.58.73,1.14,1.32,2.13,2.25-.14.21-.47.53-.78.69-.23.12-.51.17-.76-.02-2.6-1.91-4.07-2.35-6.96-.84l-5.15,2.7,4.87,9.28,5.38-2.83c.86-.45.75-1.42.17-3.18-.12-.41.14-.68.49-.87.16-.08.6-.27.78-.32.5,1.14,1.29,2.93,1.83,3.95.46.88,1.14,2.07,2.08,3.49-.12.16-.49.4-.64.48-.47.25-.78.22-1.05-.1-1-1.44-1.84-2.08-2.7-1.63l-5.38,2.83,4.31,8.21c.5.95,2.2.39,4.2-.34.37-.15.58-.03.8.38.08.15.27.61.33.81-.74.39-1.46.72-2.22,1.07-1.36.62-2.98,1.43-4.5,2.22-1.4.74-3.61,2.03-5.09,2.91-.17-.14-.39-.55-.46-.69-.17-.33-.21-.59.08-.79,1.52-1.27,2.46-2.04,1.94-3.03l-9.65-18.37Z"/>
        <path class="cls-1" d="M238.02,135.56l3.5,9.34,5.82-2.18c1.03-.39,1-1.22.61-3.15-.1-.4.18-.64.59-.8.17-.06.63-.19.81-.22.31,1.21.91,3.06,1.32,4.15.35.93.87,2.19,1.63,3.72-.14.14-.58.35-.74.41-.45.17-.8.12-.99-.25-1.07-1.85-1.61-2.27-2.51-1.93l-5.82,2.18,3.26,8.69c.41,1.09,1.83.86,5.21-.41l1.73-.65c3.26-1.22,3.76-3.4,4.17-6.34,0-.22.23-.4.48-.49.29-.11.77-.07,1.2-.05.02.43.04.87.05,1.26-.03.67.08,1.47.08,1.96.14,1.14.44,2.93.41,3.34-.04.28-.21.43-.54.56-.83.31-3.66,1.15-5.11,1.69l-9.37,3.51c-1.61.6-3.83,1.57-5.46,2.27-.16-.16-.32-.59-.37-.74-.15-.39-.09-.63.18-.77,1.93-1.12,2.68-1.76,2.3-2.77l-7.29-19.43c-.39-1.05-1.1-1.05-3.55-.57-.32.03-.53-.16-.67-.54-.09-.23-.19-.5-.19-.77,2.41-.73,4.24-1.37,5.56-1.86l8.46-3.17c2.48-.93,4.29-1.87,4.95-2.12.29-.11.58-.08.79.1.33.36.83,1.59,1.57,2.68.49.79.93,1.47,1.83,2.5-.2.21-.53.46-.86.59-.29.11-.52.11-.79-.1-2.34-2.22-3.75-2.84-6.76-1.71l-5.49,2.06Z"/>
        <path class="cls-1" d="M265.72,126.82l2.28,9.72,6.05-1.42c1.07-.25,1.15-1.08,1.01-3.04-.05-.41.26-.61.69-.71.17-.04.65-.11.83-.11.15,1.24.51,3.16.78,4.28.23.97.58,2.29,1.14,3.9-.15.12-.62.27-.79.31-.47.11-.81.02-.95-.37-.83-1.98-1.3-2.46-2.24-2.24l-6.05,1.42,2.12,9.03c.26,1.13,1.7,1.09,5.22.27l1.8-.42c3.39-.79,4.16-2.89,4.94-5.75.04-.22.28-.36.53-.42.3-.07.78.03,1.2.1-.03.43-.07.87-.11,1.26-.12.67-.11,1.47-.18,1.96,0,1.15.06,2.96-.03,3.37-.07.27-.27.4-.61.48-.86.2-3.78.67-5.28,1.02l-9.74,2.28c-1.67.39-4,1.06-5.7,1.55-.13-.18-.24-.62-.27-.79-.09-.4-.01-.64.28-.75,2.06-.86,2.88-1.4,2.64-2.45l-4.73-20.2c-.25-1.09-.96-1.18-3.45-1.02-.32-.01-.5-.22-.6-.63-.06-.24-.12-.52-.09-.79,2.48-.41,4.38-.81,5.75-1.13l8.79-2.06c2.57-.6,4.49-1.31,5.18-1.47.3-.07.59,0,.77.2.28.4.62,1.68,1.21,2.86.38.85.73,1.57,1.5,2.71-.23.18-.59.39-.93.47-.3.07-.53.04-.77-.2-2.03-2.5-3.35-3.3-6.48-2.57l-5.7,1.34Z"/>
        <path class="cls-1" d="M296.5,142.94c.12,1.15,1.64,1.28,5.24.9l1.66-.18c2.98-.32,3.99-1.63,4.96-4.98.07-.22.27-.36.62-.4.31-.03.77.13,1.18.25-.25,1.78-.46,4.01-.51,6.01.03.66-.36.79-.71.82-.88.09-3.7.19-5.24.35l-9.94,1.06c-1.71.18-4.1.56-5.85.83-.11-.2-.16-.65-.18-.81-.04-.41.07-.63.37-.71,2.15-.6,3.04-1.03,2.92-2.1l-2.19-20.63c-.11-1.07-.42-1.41-2.9-1.48-.32-.05-.48-.32-.51-.65-.02-.17-.06-.58,0-.83,1.9-.08,4.18-.24,5.8-.41,1.62-.17,4.42-.55,6.29-.88.07.24.16.65.17.81.04.33-.11.64-.36.75-2.46.59-3.07,1.12-2.96,2.19l2.14,20.1Z"/>
        <path class="cls-1" d="M321.49,120.26l-.16,9.98,6.21.1c1.1.02,1.38-.76,1.72-2.71.05-.41.41-.53.85-.52.18,0,.66.05.84.1-.15,1.24-.27,3.19-.29,4.34-.02.99,0,2.36.15,4.06-.18.08-.66.11-.84.11-.48,0-.79-.18-.83-.59-.32-2.12-.66-2.7-1.63-2.72l-6.21-.1-.15,9.28c-.02,1.16,1.39,1.47,5,1.53l1.85.03c3.48.06,4.74-1.79,6.2-4.37.09-.21.36-.28.62-.28.31,0,.75.22,1.14.39-.14.41-.28.82-.42,1.19-.27.62-.46,1.4-.65,1.85-.28,1.11-.66,2.89-.85,3.26-.14.25-.36.33-.71.32-.88-.01-3.83-.27-5.37-.29l-10-.16c-1.72-.03-4.14.06-5.91.11-.08-.21-.08-.66-.07-.83,0-.41.14-.62.45-.66,2.21-.34,3.14-.65,3.16-1.73l.34-20.75c.02-1.12-.64-1.38-3.1-1.83-.31-.09-.43-.34-.43-.75,0-.25,0-.54.1-.79,2.51.21,4.45.28,5.86.3l9.03.15c2.64.04,4.67-.17,5.38-.16.31,0,.57.13.7.38.17.46.19,1.78.48,3.07.16.91.33,1.7.79,3-.27.12-.66.24-1.02.23-.31,0-.53-.09-.7-.38-1.36-2.92-2.45-4.02-5.66-4.07l-5.86-.1Z"/>
        <path class="cls-1" d="M350.55,135.22l-1.87-.29-1.31,8.56c-.19,1.27.79,1.8,3.44,2.54.39.1.57.38.48.91-.03.16-.13.53-.2.72-1.64-.38-4.28-.87-7.24-1.32-2.09-.32-4.06-.54-5.78-.68-.06-.22,0-.55.02-.71.08-.53.33-.7.6-.7,2.5-.04,2.98-.25,3.14-1.32l3.15-20.51c.17-1.11-.42-1.62-2.78-2.23-.25-.12-.44-.36-.35-.89.03-.2.08-.53.19-.68,1.59.37,3.98.82,5.63,1.07l6.58,1.01c6.18.95,9.43,4.51,8.75,8.89-.44,2.87-2.84,5.14-6.33,5.82l5.4,10.42c.83,1.59,2.25,2.19,3.38,2.66.25.08.45.28.37.77-.03.2-.08.53-.21.76-1.29-.28-4.89-.96-6.54-1.21-1.22-.19-2.32-1.45-3.21-3.18l-5.31-10.41ZM350.29,133.08c3.57.55,6.1-.24,6.71-4.25.52-3.36-.68-5.72-5.08-6.4l-1.31-.2-1.63,10.64,1.31.2Z"/>
        <path class="cls-1" d="M394.37,149.33l-8.71-3.11-4.09,4.65c-.26.21-.43.55-.49.71-.2.55.12,1.1,1.78,1.96.32.16.5.44.32.95-.06.16-.21.45-.32.63-1.45-.65-3.17-1.35-4.74-1.91-1.12-.4-2.3-.78-3.84-1.15-.01-.22.1-.54.15-.69.17-.47.39-.7.82-.59,1.81.3,2.53.24,3.25-.47l18.02-18.89c.42-.38.86-.44,1.23-.31.25.09.53.23.84.39l1.72,26.74c.05.9.96,1.62,2.03,2.18.39.23.53.5.34,1-.06.16-.22.49-.33.67-1.7-.74-3.46-1.45-4.95-1.99-1.54-.55-4.73-1.56-6.33-2.04-.01-.22.1-.54.15-.69.17-.47.5-.61.72-.58,1.49.27,2.31.21,2.55-.45.06-.16.08-.37.08-.63l-.21-6.36ZM394.28,147.09l-.39-10.03-6.74,7.49,7.14,2.55Z"/>
        <path class="cls-1" d="M418.74,156.98l-1.67-.89-4.07,7.64c-.6,1.13.16,1.96,2.41,3.54.33.22.41.55.16,1.02-.08.15-.29.45-.43.62-1.42-.9-3.75-2.23-6.4-3.64-1.87-.99-3.66-1.85-5.23-2.55.02-.22.18-.52.25-.66.25-.48.54-.55.8-.47,2.37.79,2.9.75,3.4-.21l9.75-18.32c.53-.99.14-1.66-1.89-3.02-.19-.2-.29-.48-.04-.96.1-.18.25-.48.41-.58,1.38.88,3.48,2.09,4.96,2.87l5.87,3.13c5.52,2.94,7.41,7.37,5.33,11.28-1.36,2.56-4.38,3.91-7.9,3.4l1.65,11.62c.25,1.78,1.4,2.81,2.31,3.62.21.16.33.41.1.85-.1.18-.25.48-.45.65-1.13-.69-4.3-2.52-5.78-3.31-1.09-.58-1.71-2.13-1.98-4.06l-1.57-11.58ZM419.21,154.88c3.19,1.7,5.83,1.79,7.74-1.79,1.59-3,1.25-5.62-2.68-7.71l-1.17-.62-5.06,9.51,1.17.62Z"/>
        <path class="cls-1" d="M454.28,163.92l-12.63,17.75c-.62.88-.66,1.31,1.01,2.91.35.35.37.62.13.96-.1.13-.37.45-.53.59-1.47-1.2-3.33-2.62-4.65-3.57-1.36-.97-3.28-2.23-4.86-3.2.05-.22.25-.58.35-.72.22-.3.46-.49,1.01-.2,1.93,1.02,2.39.89,3.02.01l12.63-17.75-3.16-2.25c-2.66-1.89-4.2-1.62-7.03-.07-.28.16-.54.07-.75-.08-.29-.2-.66-.67-.76-.9,1.09-.85,1.9-1.45,2.62-2.15.92-.92,1.62-1.74,2-1.98.25-.13.5-.1.79.1.54.38,2.04,1.76,4.23,3.32l11.05,7.87c2.15,1.53,3.95,2.51,4.52,2.91.25.18.39.43.36.71-.1.44-.69,1.34-1.21,2.54-.43.91-.77,1.84-1.18,3.18-.29-.05-.81-.22-1.1-.43-.25-.18-.38-.37-.36-.71.53-3.18.28-4.73-2.34-6.59l-3.16-2.25Z"/>
        <path class="cls-1" d="M458.66,195.56c-.71.81-.8,1.23.86,3.14.17.21.11.54-.14.82-.11.12-.42.4-.59.53-1.36-1.32-3.03-2.96-4.25-4.04-1.25-1.11-3.08-2.56-4.52-3.73.07-.21.35-.52.46-.65.25-.28.54-.41.8-.24,2.07,1.39,2.51,1.28,3.22.48l13.75-15.53c.71-.81.76-1.26-.86-3.14-.18-.27-.08-.57.14-.82.11-.12.38-.43.62-.56,1.3,1.32,3,2.93,4.25,4.04,1.22,1.08,3.02,2.57,4.52,3.73-.13.22-.37.55-.48.68-.22.25-.54.35-.8.24-2.1-1.42-2.51-1.28-3.22-.48l-13.75,15.53Z"/>
        <path class="cls-1" d="M488.19,201.25c-.54-.58-.48-1.06-.33-1.38,1.39-3.12.94-5.47-1.5-8.08-1.93-2.06-4.43-2.79-6.33-1-4.44,4.17,7.53,13.78.49,20.38-3.08,2.89-8.03,3.43-12.85-1.72-2.62-2.8-4.1-5.76-4.76-7.86,1.6-1.74,3.02-3.62,4.26-5.45.21.1.6.4.81.63.48.51.54.88.24,1.47-2,4.05-1.91,6.68,1.02,9.8,2.47,2.63,5.01,2.37,6.64.84,5.16-4.85-7.17-13.15.05-19.92,3.2-3,8.15-2.81,12.22,1.53,1.66,1.77,2.98,3.85,4.28,6.92-1.15,1.2-2.6,2.98-3.56,4.37-.24-.14-.51-.36-.66-.53Z"/>
        <path class="cls-1" d="M505.85,216.16l-17.6,12.83c-.87.63-1.04,1.03.04,3.08.22.44.16.71-.18.95-.13.1-.49.31-.69.39-1.02-1.6-2.32-3.54-3.28-4.86-.99-1.35-2.4-3.16-3.59-4.58.12-.19.42-.47.56-.57.3-.22.59-.32,1.02.13,1.51,1.57,1.99,1.6,2.86.97l17.6-12.83-2.28-3.13c-1.92-2.63-3.47-2.87-6.65-2.3-.31.06-.54-.1-.69-.31-.21-.29-.41-.85-.44-1.1,1.3-.46,2.26-.77,3.16-1.21,1.17-.58,2.09-1.14,2.53-1.24.28-.04.51.06.72.35.39.53,1.38,2.32,2.97,4.49l7.99,10.96c1.56,2.14,2.95,3.63,3.37,4.2.18.25.24.54.11.79-.23.39-1.07,1.06-1.96,2.03-.7.73-1.31,1.5-2.12,2.64-.26-.14-.7-.47-.91-.75-.18-.25-.24-.48-.11-.79,1.51-2.85,1.77-4.39-.13-6.99l-2.28-3.13Z"/>
      </g>
      <g>
        <path class="cls-1" d="M191.27,509.25c.4-.21.64-.33,1.65.52.47.4,1.95,1.56,2.76,2.11-.09.2-.27.41-.36.52-.23.27-.45.4-.66.31-1.31-.75-1.62-.64-2.12-.05-.2.24-10.09,12.91-10.89,13.98-.57.71-.58,1.12.33,2.25.13.15.08.39-.19.71-.09.11-.29.3-.43.42-.96-.9-1.6-1.58-2.62-2.45-.94-.8-2.2-1.73-2.96-2.27.09-.15.25-.38.34-.49.32-.37.56-.4.64-.33,1.4.73,1.82.67,2.43-.05.25-.29,8.18-10.4,8.75-11.2l-15.17,9.03c-.4.21-.62.3-.79.15-.06-.05-.19-.16-.23-.24l7.62-19.05c-1.26,1.36-10.83,11.88-11.1,12.2-.57.67-.62.99.33,2.25.13.15.1.36-.2.71-.09.11-.27.28-.43.42-.7-.73-1.3-1.33-1.94-1.87-.56-.47-1.61-1.22-2.33-1.75.07-.17.25-.38.34-.49.32-.37.51-.39.66-.31,1.08.5,1.69.56,2.28-.04.79-.84,11.77-12.86,11.96-13.08.5-.59.46-.98-.4-2.08-.15-.17-.05-.41.19-.71.09-.11.27-.32.45-.44.68.71,2.73,2.54,3.26,2.99,1,.85.95,1.13.79,1.54l-6.18,15.36,14.21-8.55Z"/>
        <path class="cls-1" d="M193.35,528.06l1.92-9.73c.17-.9-.1-1.39-.74-2.01-.15-.14-.11-.37.1-.66.03-.05.1-.15.19-.23l.14-.16c.54.49,1.52,1.24,2.62,2,.78.54,2.29,1.52,2.94,1.86-.16.32-.23.42-.27.47-.22.32-.41.37-.57.3-.79-.4-1.13-.38-1.34-.09-.09.12-.16.32-.22.62l-1.57,7.38,6.06-3.68c.4-.23.65-.46.77-.63.27-.39.11-.73-.53-1.39-.15-.14-.16-.33.06-.65.03-.05.17-.21.37-.4.52.47,1.47,1.21,2.13,1.66.64.44,1.37.92,2.14,1.3-.11.25-.23.42-.27.47-.19.27-.39.39-.57.3-1.09-.54-1.51-.5-2.17-.12l-8.59,5.14-3.4,4.9c-.5.71-.37,1.1.69,2.12.11.11.16.29-.08.64-.03.05-.12.13-.19.23l-.14.16c-.43-.3-.8-.59-1.16-.88-.62-.5-1.37-1.06-1.84-1.38-.49-.34-1.21-.8-1.84-1.17-.37-.22-.73-.44-1.08-.68l.1-.19c.05-.11.12-.21.15-.26.24-.34.43-.36.57-.3,1.36.54,1.73.62,2.23-.1l3.37-4.85Z"/>
        <path class="cls-1" d="M217.72,543.58l-5.18-2.78-3.58,3.6c-.21.16-.39.43-.46.55-.23.43-.12.89.81,1.63.18.14.25.37.03.77-.07.12-.22.36-.33.5-.84-.57-1.84-1.19-2.78-1.69-.67-.36-1.37-.7-2.33-1.05.03-.18.17-.43.23-.55.2-.37.39-.55.65-.44,1.14.3,1.63.28,2.24-.27l15.48-14.57c.35-.29.65-.33.87-.21.15.08.3.2.49.34l-3.89,21.51c-.13.72.33,1.33.93,1.81.21.19.25.41.04.82-.07.12-.24.39-.35.53-.99-.65-2.01-1.28-2.9-1.76-.91-.49-2.84-1.4-3.81-1.85.03-.18.17-.43.23-.55.2-.37.45-.48.59-.44.94.27,1.49.24,1.77-.28.07-.12.12-.29.17-.5l1.06-5.11ZM218.08,541.79l1.63-8.06-5.87,5.79,4.24,2.28Z"/>
        <path class="cls-1" d="M232.09,549.38l-.99-.43-2.48,5.76c-.37.85.08,1.34,1.41,2.17.2.12.24.33.08.69-.05.11-.18.35-.26.48-.84-.46-2.21-1.12-3.78-1.79-1.1-.47-2.16-.86-3.09-1.17.01-.16.11-.38.16-.49.15-.36.33-.45.48-.42,1.4.28,1.72.18,2.03-.53l5.94-13.81c.32-.74.09-1.17-1.1-1.88-.11-.11-.17-.3-.02-.66.06-.14.15-.36.25-.45.81.45,2.05,1.05,2.93,1.42l3.47,1.49c3.26,1.4,4.35,4.26,3.08,7.21-.83,1.93-2.63,3.21-4.72,3.26l.89,7.86c.14,1.2.81,1.79,1.35,2.25.13.09.19.25.05.58-.06.14-.15.36-.27.5-.67-.35-2.54-1.26-3.41-1.63-.64-.28-1-1.28-1.15-2.58l-.84-7.84ZM232.39,547.88c1.88.81,3.46.57,4.62-2.13.97-2.26.79-4.04-1.53-5.04l-.69-.3-3.08,7.17.69.3Z"/>
        <path class="cls-1" d="M252.68,547.4l-5.18,14.91c-.26.74-.23,1.03.92,1.68.24.15.29.32.19.61-.04.11-.16.39-.23.52-.99-.44-2.22-.93-3.09-1.23-.9-.31-2.15-.68-3.17-.94,0-.16.08-.45.12-.56.09-.25.21-.44.56-.38,1.23.2,1.48,0,1.74-.73l5.18-14.9-2.08-.72c-1.75-.61-2.6-.05-4.05,1.67-.14.17-.3.18-.44.13-.19-.07-.46-.29-.54-.41.53-.83.92-1.43,1.25-2.07.42-.84.73-1.56.92-1.81.13-.15.28-.19.47-.12.35.12,1.38.67,2.82,1.17l7.28,2.52c1.42.49,2.56.7,2.94.83.17.06.28.19.29.39,0,.32-.24,1.06-.4,1.99-.14.71-.23,1.41-.31,2.4-.17.04-.49.05-.68-.01-.17-.06-.26-.15-.29-.39-.07-2.25-.39-3.22-2.12-3.81l-2.08-.72Z"/>
        <path class="cls-1" d="M262.11,566.71c-.21.75-.16,1.05,1.16,1.65.14.07.18.3.11.56-.03.12-.13.4-.2.54-1.02-.34-2.28-.78-3.17-1.02-.92-.25-2.22-.51-3.25-.73,0-.16.07-.45.1-.56.07-.26.2-.44.38-.43,1.41.14,1.63-.08,1.83-.84l3.95-14.5c.21-.75.13-1.05-1.16-1.65-.15-.1-.17-.33-.11-.56.03-.12.11-.41.21-.57.99.36,2.25.77,3.17,1.02.89.24,2.19.53,3.25.73-.02.18-.08.48-.11.59-.06.23-.21.41-.38.43-1.44-.14-1.63.08-1.83.84l-3.95,14.5Z"/>
        <path class="cls-1" d="M280.72,558.31c-.44-.09-.56-.39-.58-.64-.27-2.39-1.2-3.53-3.19-3.95-1.57-.33-3.01.35-3.4,2.2-.9,4.32,7.86,4.55,6.43,11.4-.62,3-2.88,5.47-6.79,4.65-2.13-.44-3.75-1.49-4.71-2.39.25-1.7.38-3.39.42-4.97.13-.03.42-.04.59,0,.39.08.53.26.56.73.26,3.18,1.1,4.64,3.47,5.14,2.01.42,3.16-.84,3.5-2.43,1.05-5.02-7.49-4.35-6.03-11.38.65-3.11,3.12-5.17,6.43-4.48,1.35.28,2.62.88,4.19,2.07-.2,1.19-.36,2.84-.41,4.05-.16.03-.36.02-.48,0Z"/>
        <path class="cls-1" d="M294.54,556.91l-2.02,15.65c-.1.77-.01,1.06,1.25,1.46.26.09.34.26.31.55-.02.12-.08.41-.12.56-1.05-.23-2.36-.46-3.28-.57-.94-.12-2.24-.23-3.29-.27-.03-.16-.02-.46,0-.58.04-.27.11-.47.47-.48,1.24-.05,1.45-.3,1.55-1.07l2.02-15.65-2.18-.28c-1.83-.24-2.56.49-3.62,2.47-.1.2-.26.24-.41.22-.2-.03-.5-.19-.62-.29.35-.92.61-1.58.8-2.29.24-.91.39-1.67.53-1.96.1-.17.23-.24.43-.22.37.05,1.49.37,3,.57l7.64.99c1.49.19,2.65.16,3.05.21.17.02.31.13.36.32.06.31-.01,1.09.01,2.03,0,.73.07,1.43.19,2.42-.16.07-.47.15-.67.12-.17-.02-.29-.1-.36-.32-.52-2.19-1.04-3.07-2.85-3.3l-2.18-.28Z"/>
        <path class="cls-1" d="M320.71,555.49l-.3,18.4c-.01.91.12,1.23,1.57,1.53.31.07.42.25.41.6,0,.14-.04.49-.07.66-1.2-.12-2.68-.22-3.72-.24-1.06-.02-2.52.03-3.7.11-.05-.18-.08-.53-.07-.67,0-.31.07-.56.46-.62,1.38-.22,1.58-.53,1.59-1.44l.3-18.4-2.46-.04c-2.07-.03-2.79.9-3.72,3.33-.09.24-.26.31-.42.31-.22,0-.59-.15-.72-.26.27-1.12.48-1.92.6-2.75.16-1.08.23-1.99.35-2.34.09-.21.23-.31.45-.31.42,0,1.7.24,3.41.27l8.62.14c1.68.03,2.97-.16,3.42-.15.2,0,.36.11.44.32.11.35.12,1.26.27,2.35.1.84.25,1.65.51,2.77-.17.1-.51.24-.73.23-.2,0-.33-.08-.44-.32-.86-2.46-1.54-3.42-3.58-3.45l-2.46-.04Z"/>
        <path class="cls-1" d="M334.74,567.77l-4.63-8.78c-.43-.81-.95-1.01-1.83-1.1-.2-.01-.32-.22-.34-.58,0-.06-.01-.18,0-.3v-.21c.74.04,1.96,0,3.31-.09.95-.07,2.74-.26,3.46-.4.08.36.08.48.09.54.03.39-.09.55-.26.59-.86.18-1.12.41-1.1.77.01.15.08.36.22.62l3.42,6.73,2.4-6.67c.17-.43.22-.77.2-.98-.04-.48-.37-.63-1.28-.75-.2-.01-.34-.16-.37-.54,0-.06,0-.27.04-.54.71.04,1.91.01,2.7-.05.77-.06,1.64-.15,2.48-.33.07.27.08.47.09.53.02.33-.06.55-.26.59-1.18.27-1.49.56-1.76,1.27l-3.45,9.4.43,5.96c.06.87.41,1.08,1.87,1.22.15.02.31.13.34.55,0,.06-.01.18,0,.3v.21c-.53.04-1.01.04-1.46.05-.8,0-1.73.04-2.3.08-.6.04-1.44.13-2.16.25-.42.06-.84.12-1.27.15l-.04-.21c-.03-.12-.04-.24-.05-.3-.03-.42.11-.55.26-.59,1.4-.43,1.74-.61,1.67-1.48l-.43-5.89Z"/>
        <path class="cls-1" d="M350.81,566.16l.82,5.7c.13.92.77,1.1,2.33,1.12.23,0,.38.16.43.54.02.12.03.39.03.54-.95.05-2.47.21-4.16.45-1.19.17-2.29.39-3.25.62-.07-.14-.11-.38-.12-.5-.06-.39.05-.55.19-.6,1.34-.5,1.56-.74,1.45-1.51l-2.15-14.88c-.12-.8-.53-1.04-1.92-1.03-.16-.04-.3-.17-.36-.55-.02-.15-.06-.39-.02-.51.93-.04,2.3-.18,3.24-.32l3.74-.54c3.51-.51,5.91,1.21,6.4,4.59.45,3.09-1.22,6.09-4.78,6.6l-1.88.27ZM351.34,564.57c2.03-.29,3.2-1.61,2.78-4.52-.38-2.64-1.42-4.07-3.97-3.7l-.74.11,1.19,8.23.74-.11Z"/>
        <path class="cls-1" d="M363.64,553.98l1.53,7.06,3.45-.75c.61-.13.64-.72.51-2.14-.04-.3.14-.43.38-.48.1-.02.37-.05.48-.04.12.9.37,2.28.54,3.1.15.7.39,1.67.74,2.85-.08.08-.35.17-.45.19-.27.06-.46-.02-.55-.31-.52-1.45-.8-1.82-1.34-1.7l-3.45.75,1.42,6.57c.18.82,1,.86,3.01.42l1.03-.22c1.93-.42,2.33-1.89,2.71-3.9.02-.16.15-.25.3-.28.17-.04.45.06.69.13,0,.31-.02.62-.04.9-.05.47-.03,1.05-.06,1.39.02.82.1,2.13.06,2.41-.04.19-.14.28-.34.32-.49.11-2.16.31-3.01.5l-5.54,1.2c-.95.21-2.28.58-3.24.86-.08-.14-.15-.46-.18-.58-.06-.29-.02-.46.14-.52,1.17-.53,1.63-.87,1.46-1.64l-3.18-14.69c-.17-.79-.58-.89-2.01-.88-.18-.02-.29-.18-.36-.47-.04-.18-.08-.38-.07-.57,1.42-.18,2.5-.39,3.28-.56l5.01-1.08c1.47-.32,2.55-.74,2.94-.82.17-.04.34.02.45.18.17.3.39,1.23.76,2.11.24.62.46,1.16.92,2.01-.13.12-.33.25-.52.3-.17.04-.31,0-.45-.18-1.23-1.88-2-2.51-3.79-2.13l-3.25.7Z"/>
        <path class="cls-1" d="M385.91,552.08c1.81-.58,3.78.47,4.37,2.32.6,1.86-.39,3.86-2.2,4.44-1.83.59-3.77-.47-4.37-2.32s.36-3.85,2.2-4.44Z"/>
        <path class="cls-1" d="M414.67,549.88c.8,1.83.81,3.58.04,5.26-.53,1.13-1.42,1.97-2.69,2.52-1.36.59-2.67.73-3.92.4-1.7-.43-2.94-1.55-3.73-3.35-1.19-2.73-.72-5,1.41-6.81l-.06-.14c-1.07.1-2.03-.11-2.88-.62s-1.5-1.28-1.95-2.31c-.63-1.43-.73-2.78-.31-4.04.42-1.26,1.28-2.18,2.58-2.75,1.15-.5,2.23-.58,3.25-.24,1.49.49,2.56,1.48,3.21,2.98.47,1.08.63,2.17.47,3.25s-.6,1.89-1.31,2.42l.07.1c2.7-.48,4.64.62,5.82,3.32ZM407.39,541.85c-.71-1.62-1.48-2.71-2.3-3.27-.49-.33-1.06-.35-1.7-.07-1.44.63-1.53,2.38-.27,5.24,1.22,2.79,2.61,3.85,4.15,3.18.69-.3,1.04-.81,1.05-1.54,0-.94-.3-2.12-.92-3.54ZM412.45,551.16c-1.46-3.33-3.11-4.58-4.98-3.76-.93.41-1.47,1.15-1.62,2.23-.15,1.08.11,2.36.76,3.86.68,1.55,1.49,2.66,2.42,3.32.93.66,1.87.78,2.82.37.81-.35,1.29-.89,1.43-1.6.23-1.14-.05-2.61-.84-4.4Z"/>
        <path class="cls-1" d="M425.47,533.88c3.01-1.71,6.87-.25,9.05,3.58,2.07,3.64,1.36,7.94-1.56,9.6-3.01,1.71-6.86.24-9.04-3.59-2.07-3.64-1.38-7.93,1.55-9.59ZM432.91,539.64c-2.11-3.72-4.83-5.88-7.14-4.56-1.47.83-1.89,3.27-.31,6.05,2.2,3.87,5.04,5.99,7.17,4.78,1.74-.99,1.75-3.71.29-6.27Z"/>
        <path class="cls-1" d="M434.21,530.97c-.3-.47-.57-.52-1.6-.12-.13.03-.25-.05-.37-.24-.07-.11-.16-.25-.2-.38.91-.48,1.59-.89,2.06-1.19l3.1-2c.92-.59,1.55-1.16,1.77-1.3.12-.08.23-.07.35.01.19.17.61.75,1.08,1.28.33.38.64.69,1.16,1.18-.04.11-.15.26-.28.34-.09.06-.21.08-.34-.02-1.34-1.01-2.03-1.26-3.15-.54l-2,1.29,3.08,4.79,2.09-1.34c.33-.21.19-.71-.24-1.61-.09-.21,0-.34.13-.43.06-.04.24-.13.31-.15.33.59.86,1.51,1.2,2.04.29.45.71,1.07,1.27,1.8-.04.08-.17.19-.24.23-.18.12-.32.1-.47-.07-.59-.75-1.02-1.08-1.35-.87l-2.09,1.34,2.73,4.24c.32.49,1.01.24,1.82-.1.15-.07.25,0,.39.21.05.08.18.31.23.42-.29.18-.57.34-.87.51-.54.29-1.17.67-1.76,1.05-.54.35-1.39.97-1.95,1.39-.09-.08-.22-.28-.27-.36-.11-.17-.15-.3-.04-.4.54-.62.88-.99.55-1.5l-6.1-9.48Z"/>
        <path class="cls-1" d="M463.04,526.06c.11.14.02.32-.27.55l-.24.18-.75.58c-.5.39-1,.78-1.52,1.17-.91.7-1.48,1.15-1.73,1.34-.25.19-.45.35-.59.46-.32.24-.53.3-.64.15-.11-.14-.07-.28.11-.43.29-.22.59-.47.91-.74.4-.33.52-.63.38-.88-.14-.25-.51-.76-1.1-1.52l-8.63-11.12c-.39-.5-.64-.79-.74-.87-.1-.07-.23-.05-.39.07-.07.05-.47.43-1.2,1.12-.15.14-.25.23-.3.27-.16.12-.28.13-.37.02-.1-.13-.07-.26.07-.4.55-.56,1-1.26,1.34-2.12s.51-1.69.49-2.49c.03-.25.08-.4.13-.44.1-.08.22-.04.34.12l.35.45c.1.13.21.27.33.43l10.99,14.18c.44.57.72.88.84.94.12.06.32,0,.61-.21l.45-.35.34-.26.3-.23c.18-.14.34-.13.46.02Z"/>
        <path class="cls-1" d="M470.06,507.01c1.19,1.33,2.14,2.73,2.87,4.2.72,1.47,1.12,2.82,1.19,4.05.08,1.32-.35,2.4-1.29,3.25-1.29,1.16-3.04,1.35-5.24.58-2.2-.77-4.36-2.34-6.48-4.71-2.45-2.74-3.79-5.43-4.03-8.07-.14-1.59.3-2.84,1.33-3.76,1.22-1.09,2.78-1.29,4.69-.61,2.36.84,4.68,2.54,6.96,5.08ZM467.33,508c-1.99-2.22-3.83-3.87-5.53-4.95-1.3-.83-2.34-.89-3.12-.19-1.57,1.4-.12,4.6,4.35,9.59,4.68,5.23,7.84,7.11,9.5,5.63.77-.69.64-1.94-.38-3.76-.93-1.66-2.53-3.77-4.81-6.32Z"/>
      </g>
    </g>
  </g>
</svg>