<?xml version="1.0" encoding="UTF-8"?>
<svg xmlns="http://www.w3.org/2000/svg" version="1.1" viewBox="0 0 612 792">
  <defs>
    <style>
      .cls-1, .cls-2 {
        fill: #231f20;
      }

      .cls-2 {
        fill-rule: evenodd;
      }
    </style>
  </defs>
  <!-- Generator: Adobe Illustrator 28.7.4, SVG Export Plug-In . SVG Version: 1.2.0 Build 166)  -->
  <g>
    <g id="Layer_1">
      <path class="cls-2" d="M306.23,211.91c-101.34,0-183.78,82.44-183.78,183.78s82.44,183.78,183.78,183.78,183.78-82.44,183.78-183.78-82.44-183.78-183.78-183.78h0ZM306.23,582.47c-102.99,0-186.78-83.79-186.78-186.78s83.79-186.78,186.78-186.78,186.78,83.79,186.78,186.78-83.79,186.78-186.78,186.78h0Z"/>
      <path class="cls-2" d="M306.23,204.27c-105.55,0-191.42,85.87-191.42,191.42s85.87,191.42,191.42,191.42,191.42-85.87,191.42-191.42-85.87-191.42-191.42-191.42h0ZM306.23,590.1c-107.2,0-194.42-87.21-194.42-194.42s87.22-194.42,194.42-194.42,194.42,87.22,194.42,194.42-87.22,194.42-194.42,194.42h0Z"/>
      <path class="cls-2" d="M306.23,153.88c-133.33,0-241.8,108.47-241.8,241.8s108.47,241.8,241.8,241.8,241.8-108.47,241.8-241.8-108.47-241.8-241.8-241.8h0ZM306.23,640.49c-65.39,0-126.86-25.46-173.1-71.7-46.24-46.24-71.7-107.71-71.7-173.1s25.46-126.86,71.7-173.1c46.23-46.23,107.72-71.7,173.1-71.7,0,0,0,0,0,0,65.39,0,126.86,25.46,173.1,71.7,46.24,46.24,71.7,107.71,71.7,173.1s-25.46,126.86-71.7,173.1c-46.24,46.24-107.71,71.7-173.1,71.7h0Z"/>
      <polygon class="cls-2" points="322.48 321.15 287.04 329.65 322.48 338.15 299.36 367.61 328.81 344.48 337.31 379.92 345.81 344.48 375.27 367.61 352.14 338.15 387.58 329.65 352.14 321.15 375.27 291.7 345.81 314.82 337.31 279.38 328.81 314.82 299.36 291.7 322.48 321.15"/>
      <path class="cls-2" d="M329.84,431.84c-5.9,1.63-12.12,2.51-18.54,2.51-38.26,0-69.28-31.02-69.28-69.28,0-14.95,4.74-28.8,12.8-40.13l-.06.02c-29.27,8.1-50.68,34.9-50.68,66.75,0,38.26,31.02,69.28,69.28,69.28,23.31,0,43.92-11.5,56.47-29.14h0Z"/>
      <path class="cls-2" d="M205.29,423.27c11.92,25.66,37.91,43.45,68.06,43.45s57.55-18.74,69.01-45.48h0c-9.19,5.09-19.81,8-31.06,8-25.27,0-47.12-14.6-57.59-35.83,0,0,49.45-27.73,80.5,14.78,0,0,34.68-23.46,61.82,17.43,0,0,43.08,5.23,43.08,33.76s-44.48,22.66-44.48,22.66c0,0-20.64,20.28-52,9.93,0,0-51.22,47.41-102.55.56,0,0-54.55,4.75-64.9-27.41-10.35-32.17,30.1-41.84,30.1-41.84h0Z"/>
      <g>
        <path class="cls-1" d="M107.04,284.61l19.18,10.32c.95.51,1.38.49,2.76-1.37.3-.39.57-.44.93-.25.15.08.49.31.65.45-1.01,1.61-2.19,3.63-2.96,5.06-.79,1.47-1.81,3.53-2.57,5.22-.22-.02-.61-.18-.76-.26-.33-.18-.54-.39-.32-.97.77-2.04.59-2.49-.36-3l-19.18-10.32-1.84,3.41c-1.54,2.87-1.08,4.37.8,6.99.19.25.14.53.02.76-.17.31-.58.74-.8.87-.98-.98-1.67-1.7-2.46-2.33-1.03-.8-1.93-1.39-2.21-1.74-.16-.23-.16-.49,0-.8.31-.58,1.49-2.25,2.77-4.62l6.43-11.95c1.25-2.33,1.99-4.23,2.33-4.85.15-.27.38-.45.66-.44.45.04,1.42.51,2.67.89.96.32,1.92.53,3.3.77-.02.29-.12.84-.29,1.15-.15.27-.32.43-.66.44-3.22-.13-4.73.31-6.25,3.14l-1.84,3.41Z"/>
        <path class="cls-1" d="M148.18,262.45c.86.64,1.29.69,3.06-1.12.19-.19.53-.15.83.07.13.1.44.38.58.54-1.2,1.47-2.67,3.23-3.65,4.53-1,1.34-2.3,3.29-3.37,4.85-.22-.05-.55-.3-.68-.4-.3-.22-.45-.5-.3-.77,1.21-2.17,1.07-2.61.21-3.25l-7.79-5.83-7.12,9.53,7.79,5.83c.86.65,1.29.69,3.06-1.12.19-.19.53-.15.83.07.13.1.44.38.58.54-1.2,1.47-2.72,3.3-3.7,4.61s-2.25,3.22-3.31,4.78c-.22-.05-.55-.3-.68-.4-.3-.22-.45-.5-.3-.77,1.21-2.17,1.07-2.61.21-3.25l-16.62-12.42c-.86-.64-1.32-.66-3.06,1.12-.25.2-.56.13-.83-.07-.13-.1-.46-.35-.61-.57,1.23-1.44,2.67-3.23,3.65-4.53.98-1.31,2.33-3.26,3.37-4.85.23.11.58.33.72.43.27.2.39.51.3.77-1.24,2.21-1.07,2.61-.21,3.25l7.07,5.28,7.12-9.53-7.07-5.28c-.86-.64-1.32-.66-3.06,1.12-.25.2-.56.13-.83-.07-.13-.1-.46-.35-.61-.57,1.23-1.44,2.7-3.26,3.7-4.61.98-1.31,2.28-3.19,3.31-4.78.23.11.58.33.72.43.27.2.39.51.3.77-1.24,2.21-1.07,2.61-.21,3.25l16.62,12.42Z"/>
        <path class="cls-1" d="M143.24,235.91l7.07,7.04,4.38-4.4c.78-.78.41-1.52-.75-3.11-.26-.32-.1-.66.21-.97.12-.12.5-.44.65-.53.79.97,2.1,2.41,2.93,3.22.7.7,1.7,1.63,3.03,2.71-.07.18-.38.56-.5.68-.34.34-.68.44-1,.18-1.75-1.24-2.4-1.4-3.09-.71l-4.38,4.4,6.57,6.55c.82.82,2.02.02,4.57-2.54l1.3-1.31c2.46-2.47,2.01-4.66,1.15-7.5-.08-.21.04-.45.23-.64.22-.22.67-.38,1.07-.55.2.39.4.77.57,1.13.25.63.69,1.31.88,1.75.61.98,1.62,2.48,1.76,2.87.08.27-.01.48-.26.73-.62.62-2.85,2.57-3.94,3.66l-7.06,7.09c-1.21,1.22-2.83,3.02-4.02,4.33-.21-.08-.53-.41-.65-.52-.29-.29-.35-.53-.16-.78,1.29-1.82,1.71-2.71.95-3.47l-14.7-14.64c-.79-.79-1.43-.5-3.47.96-.28.16-.54.08-.84-.21-.18-.18-.38-.38-.5-.62,1.89-1.66,3.29-3.01,4.28-4.01l6.37-6.4c1.87-1.87,3.12-3.48,3.62-3.98.22-.22.49-.32.76-.24.45.2,1.42,1.1,2.54,1.79.77.52,1.45.95,2.7,1.51-.1.27-.29.64-.54.89-.22.22-.43.32-.76.24-3.05-1.05-4.59-1.03-6.86,1.25l-4.13,4.15Z"/>
        <path class="cls-1" d="M191.6,227.52l-7.45,5.1c-1.27.87-3.02,2.22-4.46,3.31-.19-.12-.38-.39-.47-.53-.33-.48-.24-.74,0-.95,1.25-1.21,1.98-2.11,1.32-3.06l-11.73-17.12c-.61-.89-1.47-.75-3.33.12-.41.18-.65,0-.88-.35-.09-.14-.28-.41-.35-.67,2.13-1.26,3.17-1.92,4.66-2.94l7.38-5.06c8.21-5.63,16.02-3.59,20.18,2.49,3.67,5.36,3.79,13.72-4.86,19.65ZM175.05,208.74l-2.25,1.54,12.03,17.56c.63.92,1.28.93,3.86-.84,6.32-4.33,6.88-9.68,3.2-15.05-4.89-7.14-10.41-7.63-16.84-3.22Z"/>
        <path class="cls-1" d="M211.06,202.18l-1.71.82,3.75,7.8c.56,1.16,1.67,1.04,4.28.15.38-.13.68,0,.92.48.07.15.19.5.24.71-1.56.61-4.02,1.7-6.72,3-1.91.92-3.66,1.85-5.15,2.71-.17-.15-.31-.45-.38-.6-.23-.49-.12-.77.1-.92,2.04-1.44,2.32-1.89,1.85-2.86l-8.99-18.7c-.48-1.01-1.26-1.09-3.55-.27-.27.04-.56-.05-.8-.54-.09-.19-.23-.49-.23-.67,1.52-.59,3.74-1.57,5.25-2.29l6-2.88c5.64-2.71,10.32-1.61,12.24,2.39,1.26,2.61.56,5.84-1.94,8.38l10.34,5.55c1.58.85,3.09.53,4.29.28.26-.08.53-.02.74.42.09.19.23.49.26.75-1.23.5-4.58,1.97-6.08,2.7-1.11.53-2.73.12-4.44-.8l-10.26-5.59ZM209.64,200.57c3.26-1.56,4.9-3.64,3.14-7.3-1.47-3.06-3.79-4.33-7.8-2.4l-1.19.57,4.67,9.7,1.19-.57Z"/>
        <path class="cls-1" d="M234.3,178.76l3.05,9.5,5.92-1.9c1.05-.34,1.06-1.17.76-3.11-.08-.41.21-.63.63-.77.17-.05.64-.16.82-.18.25,1.22.76,3.1,1.12,4.21.3.95.76,2.23,1.45,3.8-.14.13-.59.32-.76.37-.46.15-.81.08-.97-.3-.98-1.9-1.49-2.35-2.42-2.05l-5.91,1.9,2.83,8.83c.35,1.1,1.79.95,5.22-.15l1.76-.56c3.31-1.06,3.92-3.21,4.46-6.13.02-.22.25-.38.5-.46.29-.09.78-.03,1.2,0,0,.43,0,.87-.01,1.26-.06.67.01,1.48-.02,1.96.09,1.15.3,2.95.24,3.36-.05.28-.23.42-.57.53-.84.27-3.71.97-5.18,1.44l-9.52,3.06c-1.64.52-3.91,1.38-5.56,2-.15-.17-.29-.6-.34-.76-.13-.39-.06-.63.22-.77,1.98-1.03,2.76-1.63,2.43-2.65l-6.34-19.75c-.34-1.06-1.05-1.1-3.52-.74-.32.02-.52-.18-.65-.57-.08-.24-.16-.51-.16-.78,2.44-.61,4.3-1.16,5.64-1.59l8.6-2.76c2.52-.81,4.37-1.66,5.04-1.88.29-.09.58-.06.79.14.31.38.75,1.63,1.44,2.76.45.81.85,1.51,1.71,2.58-.21.2-.55.44-.89.55-.29.09-.53.08-.79-.14-2.23-2.33-3.61-3.02-6.67-2.04l-5.58,1.79Z"/>
        <path class="cls-1" d="M272.53,185.55l-9.11,1.6-1.26,6.06c-.12.32-.1.69-.07.85.1.57.65.9,2.51.82.35-.02.65.14.74.67.03.16.04.5.04.71-1.58.15-3.42.39-5.07.68-1.17.21-2.38.46-3.91.9-.12-.19-.18-.52-.21-.68-.09-.49,0-.8.42-.91,1.72-.64,2.32-1.04,2.6-2.01l6.34-25.32c.17-.54.53-.81.92-.88.26-.05.57-.06.93-.08l14.7,22.4c.49.75,1.64.93,2.84.89.45,0,.7.17.79.7.03.16.05.54.04.75-1.84.2-3.72.44-5.29.72-1.61.28-4.88.98-6.52,1.35-.12-.19-.18-.51-.21-.68-.09-.49.13-.78.34-.86,1.43-.5,2.11-.96,1.99-1.65-.03-.16-.11-.36-.24-.59l-3.32-5.43ZM271.35,183.65l-5.3-8.53-2.17,9.84,7.46-1.31Z"/>
        <path class="cls-1" d="M313.56,165.74c.26-.5.43-.79,2.5-.83.97-.02,3.92-.15,5.46-.3.09.25.1.58.1.74,0,.41-.12.71-.47.79-2.33.37-2.59.71-2.57,1.62,0,.37,1.33,19.36,1.48,20.94.06,1.08.46,1.44,2.72,1.74.31.04.49.28.5.78,0,.17-.04.5-.08.71-2.07-.05-3.53-.15-5.64-.12-1.94.03-4.4.2-5.86.3-.05-.21-.1-.54-.1-.7,0-.58.25-.79.43-.79,2.42-.45,2.85-.83,2.83-1.95,0-.46-1-15.64-1.15-16.8l-8.71,19.9c-.26.5-.43.75-.78.76-.13,0-.4,0-.53-.03l-10.59-22.86c-.1,2.2-.62,19.02-.61,19.52.02,1.04.29,1.36,2.72,1.74.31.04.49.24.5.78,0,.17-.04.46-.08.71-1.59-.1-2.91-.16-4.23-.14-1.15.02-3.17.18-4.58.28-.09-.21-.1-.54-.1-.7,0-.58.21-.75.47-.79,1.8-.4,2.59-.83,2.66-1.82.07-1.37.72-20.64.72-20.97-.01-.91-.46-1.24-2.62-1.53-.35-.04-.49-.32-.5-.78,0-.17,0-.5.08-.75,1.54.1,5.86.11,6.96.09,2.07-.03,2.29.25,2.52.75l8.5,18.46,8.07-18.73Z"/>
        <path class="cls-1" d="M338.49,169.43l-1.51,9.87,6.14.94c1.09.17,1.47-.57,2.07-2.45.11-.4.47-.47.91-.41.17.03.65.14.81.21-.32,1.21-.7,3.12-.88,4.27-.15.98-.31,2.34-.4,4.05-.19.06-.67.02-.85,0-.48-.07-.76-.28-.74-.7-.03-2.14-.29-2.77-1.25-2.92l-6.14-.94-1.4,9.17c-.18,1.15,1.17,1.65,4.74,2.19l1.83.28c3.44.53,4.94-1.13,6.73-3.49.12-.19.39-.23.65-.19.3.05.71.32,1.08.54-.19.39-.39.78-.57,1.13-.36.57-.65,1.33-.89,1.75-.43,1.07-1.05,2.77-1.28,3.11-.17.23-.4.27-.75.22-.87-.13-3.76-.79-5.28-1.02l-9.89-1.52c-1.7-.26-4.11-.51-5.87-.69-.06-.22.01-.67.04-.83.06-.41.22-.59.54-.59,2.23-.03,3.2-.22,3.36-1.29l3.14-20.51c.17-1.11-.45-1.45-2.82-2.23-.29-.13-.38-.39-.32-.8.04-.25.08-.53.21-.76,2.46.54,4.37.88,5.76,1.09l8.93,1.37c2.61.4,4.65.46,5.35.57.3.05.55.21.64.48.1.48-.05,1.79.06,3.11.04.93.09,1.73.38,3.07-.28.08-.69.15-1.04.09-.3-.05-.51-.16-.64-.48-.95-3.08-1.88-4.31-5.06-4.8l-5.79-.89Z"/>
        <path class="cls-1" d="M365.24,188.21l-1.82-.54-2.47,8.29c-.37,1.23.54,1.89,3.06,2.99.37.15.51.45.35.97-.05.16-.2.5-.3.69-1.57-.6-4.12-1.44-6.99-2.3-2.03-.6-3.95-1.09-5.63-1.46-.03-.22.07-.54.12-.7.15-.52.42-.65.69-.62,2.48.31,2.99.16,3.29-.88l5.92-19.88c.32-1.07-.2-1.66-2.45-2.59-.23-.15-.38-.42-.23-.93.06-.2.15-.52.29-.65,1.53.58,3.83,1.36,5.43,1.83l6.38,1.9c6,1.79,8.72,5.75,7.46,10-.83,2.78-3.51,4.7-7.07,4.89l3.92,11.06c.6,1.69,1.93,2.48,2.99,3.09.24.12.41.34.26.81-.06.2-.15.52-.31.73-1.24-.46-4.71-1.62-6.32-2.1-1.18-.35-2.1-1.75-2.75-3.58l-3.84-11.04ZM365.29,186.06c3.46,1.03,6.07.6,7.23-3.29.97-3.25.11-5.76-4.16-7.03l-1.27-.38-3.08,10.32,1.27.38Z"/>
        <path class="cls-1" d="M406.72,208.2l-8.21-4.27-4.69,4.05c-.29.18-.5.49-.58.63-.27.51-.03,1.11,1.5,2.18.29.2.43.51.18.98-.08.15-.27.42-.4.58-1.35-.84-2.95-1.77-4.44-2.54-1.06-.55-2.17-1.08-3.65-1.67.02-.22.17-.52.25-.67.23-.44.48-.64.89-.47,1.76.54,2.48.59,3.29-.02l20.44-16.25c.46-.32.91-.32,1.26-.14.23.12.49.3.78.5l-1.95,26.72c-.07.9.73,1.74,1.71,2.43.35.28.45.56.2,1.04-.08.15-.29.46-.42.62-1.58-.97-3.23-1.91-4.63-2.65-1.45-.75-4.47-2.19-6-2.89.02-.22.17-.52.25-.67.23-.44.58-.54.79-.47,1.44.47,2.26.52,2.59-.1.08-.15.13-.35.17-.61l.67-6.33ZM406.94,205.97l.98-9.99-7.71,6.49,6.72,3.5Z"/>
        <path class="cls-1" d="M429.82,219.11l-1.54-1.11-5.07,7.02c-.75,1.04-.11,1.96,1.91,3.83.3.27.33.6.01,1.03-.1.13-.35.41-.51.55-1.28-1.08-3.41-2.72-5.84-4.48-1.71-1.24-3.37-2.33-4.83-3.24.05-.22.24-.49.34-.62.32-.44.62-.48.85-.35,2.24,1.11,2.77,1.13,3.4.26l12.15-16.82c.66-.91.36-1.63-1.46-3.25-.17-.22-.22-.52.09-.96.12-.17.32-.44.48-.52,1.25,1.06,3.16,2.54,4.52,3.52l5.39,3.9c5.07,3.66,6.33,8.31,3.74,11.9-1.7,2.35-4.87,3.28-8.29,2.29l.05,11.74c0,1.79,1,2.97,1.8,3.91.19.19.27.45-.02.85-.12.17-.32.44-.53.59-1.02-.84-3.91-3.08-5.27-4.06-1-.72-1.4-2.34-1.41-4.29l.02-11.69ZM430.57,217.1c2.93,2.12,5.54,2.57,7.91-.72,1.99-2.75,2-5.4-1.6-8.01l-1.07-.77-6.31,8.73,1.07.77Z"/>
        <path class="cls-1" d="M464.06,230.79l-14.92,15.88c-.74.78-.83,1.21.61,3.02.3.39.28.66,0,.97-.11.12-.43.39-.6.51-1.3-1.39-2.94-3.05-4.13-4.17-1.22-1.15-2.95-2.66-4.38-3.83.08-.21.33-.54.44-.66.25-.27.52-.42,1.02-.06,1.77,1.27,2.25,1.21,2.99.42l14.92-15.88-2.83-2.66c-2.38-2.23-3.94-2.17-6.96-1.03-.29.12-.54,0-.74-.18-.26-.24-.56-.75-.64-1,1.2-.69,2.07-1.18,2.88-1.78,1.04-.78,1.84-1.51,2.25-1.69.27-.09.51-.03.77.21.48.45,1.79,2.02,3.75,3.86l9.89,9.3c1.93,1.81,3.57,3.02,4.09,3.5.22.21.33.48.26.75-.16.42-.86,1.24-1.55,2.35-.55.85-1.01,1.72-1.6,2.99-.28-.09-.78-.33-1.03-.57-.22-.21-.33-.42-.26-.75.96-3.08.92-4.65-1.42-6.85l-2.83-2.66Z"/>
        <path class="cls-1" d="M464.11,262.74c-.82.7-.96,1.11.43,3.23.14.23.04.55-.25.79-.13.11-.47.34-.65.45-1.17-1.49-2.6-3.34-3.66-4.58-1.09-1.27-2.71-2.96-3.98-4.31.1-.2.41-.47.54-.58.28-.24.59-.33.82-.12,1.86,1.65,2.31,1.61,3.13.91l15.73-13.52c.82-.7.93-1.15-.43-3.23-.14-.29,0-.58.25-.79.13-.11.44-.38.69-.47,1.11,1.48,2.57,3.31,3.66,4.58,1.06,1.24,2.65,2.95,3.98,4.31-.16.2-.44.5-.57.61-.25.22-.59.27-.82.12-1.89-1.69-2.31-1.61-3.13-.91l-15.73,13.52Z"/>
        <path class="cls-1" d="M492.61,272.39c-.46-.65-.33-1.11-.14-1.41,1.8-2.9,1.67-5.29-.39-8.2-1.63-2.3-4.01-3.36-6.14-1.85-4.96,3.52,5.59,14.67-2.27,20.25-3.44,2.45-8.42,2.3-12.5-3.44-2.22-3.12-3.28-6.26-3.65-8.43,1.82-1.51,3.48-3.18,4.96-4.82.2.13.54.48.72.73.41.57.42.95.04,1.49-2.53,3.74-2.8,6.36-.32,9.85,2.09,2.95,4.64,3.03,6.46,1.73,5.77-4.1-5.32-14,2.75-19.73,3.58-2.54,8.46-1.68,11.9,3.17,1.4,1.98,2.44,4.21,3.3,7.44-1.3,1.03-2.98,2.6-4.12,3.85-.22-.17-.46-.43-.59-.61Z"/>
        <path class="cls-1" d="M508.07,289.55l-19.19,10.31c-.95.51-1.17.88-.38,3.05.16.47.06.72-.31.92-.15.08-.53.24-.73.29-.79-1.73-1.82-3.82-2.59-5.26-.79-1.47-1.95-3.45-2.94-5.02.14-.18.49-.41.63-.49.33-.18.63-.24.99.27,1.28,1.76,1.75,1.86,2.7,1.35l19.19-10.31-1.84-3.41c-1.54-2.87-3.05-3.31-6.27-3.18-.32.02-.52-.17-.64-.41-.17-.31-.29-.89-.29-1.15,1.35-.28,2.34-.46,3.3-.77,1.24-.41,2.23-.85,2.67-.89.28,0,.5.13.66.44.31.58,1.05,2.48,2.33,4.85l6.42,11.95c1.25,2.33,2.43,4,2.76,4.62.15.27.16.56,0,.8-.28.35-1.21.9-2.21,1.74-.79.63-1.51,1.31-2.46,2.32-.23-.17-.63-.56-.8-.87-.15-.27-.18-.5,0-.8,1.89-2.61,2.35-4.11.83-6.95l-1.84-3.41Z"/>
      </g>
      <g>
        <path class="cls-1" d="M177.28,556.15c.4-.21.64-.33,1.65.52.47.4,1.95,1.56,2.76,2.11-.09.2-.27.41-.36.52-.23.27-.45.4-.66.31-1.31-.75-1.62-.64-2.12-.05-.2.24-10.09,12.91-10.89,13.98-.57.71-.58,1.12.33,2.25.13.15.08.39-.19.71-.09.11-.29.3-.43.42-.96-.9-1.6-1.58-2.62-2.45-.94-.8-2.2-1.73-2.96-2.27.09-.15.25-.38.34-.49.32-.37.56-.4.64-.33,1.4.73,1.82.67,2.43-.05.25-.29,8.18-10.4,8.75-11.2l-15.17,9.03c-.4.21-.62.3-.79.15-.06-.05-.19-.16-.23-.24l7.62-19.05c-1.26,1.36-10.83,11.88-11.1,12.2-.57.67-.62.99.33,2.25.13.15.1.36-.2.71-.09.11-.27.28-.43.42-.7-.73-1.3-1.33-1.94-1.87-.56-.47-1.61-1.22-2.33-1.75.07-.17.25-.38.34-.49.32-.37.51-.39.66-.31,1.08.5,1.69.56,2.28-.04.79-.84,11.77-12.86,11.96-13.08.5-.59.46-.98-.4-2.08-.15-.17-.05-.41.19-.71.09-.11.27-.32.45-.44.68.71,2.73,2.54,3.26,2.99,1,.85.95,1.13.79,1.54l-6.18,15.36,14.21-8.55Z"/>
        <path class="cls-1" d="M179.36,574.96l1.92-9.73c.17-.9-.1-1.39-.74-2.01-.15-.14-.11-.37.1-.66.03-.05.1-.15.19-.23l.14-.16c.54.49,1.52,1.24,2.62,2,.78.54,2.29,1.52,2.94,1.86-.16.32-.23.42-.27.47-.22.32-.41.37-.57.3-.79-.4-1.13-.38-1.34-.09-.09.12-.16.32-.22.62l-1.57,7.38,6.06-3.68c.4-.23.65-.46.77-.63.27-.39.11-.73-.53-1.39-.15-.14-.16-.33.06-.65.03-.05.17-.21.37-.4.52.47,1.47,1.21,2.13,1.66.64.44,1.37.92,2.14,1.3-.11.25-.23.42-.27.47-.19.27-.39.39-.57.3-1.09-.54-1.51-.5-2.17-.12l-8.59,5.14-3.4,4.9c-.5.71-.37,1.1.69,2.12.11.11.16.29-.08.64-.03.05-.12.13-.19.23l-.14.16c-.43-.3-.8-.59-1.16-.88-.62-.5-1.37-1.06-1.84-1.38-.49-.34-1.21-.8-1.84-1.17-.37-.22-.73-.44-1.08-.68l.1-.19c.05-.11.12-.21.15-.26.24-.34.43-.36.57-.3,1.36.54,1.73.62,2.23-.1l3.37-4.85Z"/>
        <path class="cls-1" d="M203.72,590.48l-5.18-2.78-3.58,3.6c-.21.16-.39.43-.46.55-.23.43-.12.89.81,1.63.18.14.25.37.03.77-.07.12-.22.36-.33.5-.84-.57-1.84-1.19-2.78-1.69-.67-.36-1.37-.7-2.33-1.05.03-.18.17-.43.23-.55.2-.37.39-.55.65-.44,1.14.3,1.63.28,2.24-.27l15.48-14.57c.35-.29.65-.33.87-.21.15.08.3.2.49.34l-3.89,21.51c-.13.72.33,1.33.93,1.81.21.19.25.41.04.82-.07.12-.24.39-.35.53-.99-.65-2.01-1.28-2.9-1.76-.91-.49-2.84-1.4-3.81-1.85.03-.18.17-.43.23-.55.2-.37.45-.48.59-.44.94.27,1.49.24,1.77-.28.07-.12.12-.29.17-.5l1.06-5.11ZM204.08,588.69l1.63-8.06-5.87,5.79,4.24,2.28Z"/>
        <path class="cls-1" d="M218.1,596.28l-.99-.43-2.48,5.76c-.37.85.08,1.34,1.41,2.17.2.12.24.33.08.69-.05.11-.18.35-.26.48-.84-.46-2.21-1.12-3.78-1.79-1.1-.47-2.16-.86-3.09-1.17.01-.16.11-.38.16-.49.15-.36.33-.45.48-.42,1.4.28,1.72.18,2.03-.53l5.94-13.81c.32-.74.09-1.17-1.1-1.88-.11-.11-.17-.3-.02-.66.06-.14.15-.36.25-.45.81.45,2.05,1.05,2.93,1.42l3.47,1.49c3.26,1.4,4.35,4.26,3.08,7.21-.83,1.93-2.63,3.21-4.72,3.26l.89,7.86c.14,1.2.81,1.79,1.35,2.25.13.09.19.25.05.58-.06.14-.15.36-.27.5-.67-.35-2.54-1.26-3.41-1.63-.64-.28-1-1.28-1.15-2.58l-.84-7.84ZM218.39,594.78c1.88.81,3.46.57,4.62-2.13.97-2.26.79-4.04-1.53-5.04l-.69-.3-3.08,7.17.69.3Z"/>
        <path class="cls-1" d="M238.68,594.3l-5.18,14.91c-.26.74-.23,1.03.92,1.68.24.15.29.32.19.61-.04.11-.16.39-.23.52-.99-.44-2.22-.93-3.09-1.23-.9-.31-2.15-.68-3.17-.94,0-.16.08-.45.12-.56.09-.25.21-.44.56-.38,1.23.2,1.48,0,1.74-.73l5.18-14.9-2.08-.72c-1.75-.61-2.6-.05-4.05,1.67-.14.17-.3.18-.44.13-.19-.07-.46-.29-.54-.41.53-.83.92-1.43,1.25-2.07.42-.84.73-1.56.92-1.81.13-.15.28-.19.47-.12.35.12,1.38.67,2.82,1.17l7.28,2.52c1.42.49,2.56.7,2.94.83.17.06.28.19.29.39,0,.32-.24,1.06-.4,1.99-.14.71-.23,1.41-.31,2.4-.17.04-.49.05-.68-.01-.17-.06-.26-.15-.29-.39-.07-2.25-.39-3.22-2.12-3.81l-2.08-.72Z"/>
        <path class="cls-1" d="M248.11,613.61c-.21.75-.16,1.05,1.16,1.65.14.07.18.3.11.56-.03.12-.13.4-.2.54-1.02-.34-2.28-.78-3.17-1.02-.92-.25-2.22-.51-3.25-.73,0-.16.07-.45.1-.56.07-.26.2-.44.38-.43,1.41.14,1.63-.08,1.83-.84l3.95-14.5c.21-.75.13-1.05-1.16-1.65-.15-.1-.17-.33-.11-.56.03-.12.11-.41.21-.57.99.36,2.25.77,3.17,1.02.89.24,2.19.53,3.25.73-.02.18-.08.48-.11.59-.06.23-.21.41-.38.43-1.44-.14-1.63.08-1.83.84l-3.95,14.5Z"/>
        <path class="cls-1" d="M266.72,605.22c-.44-.09-.56-.39-.58-.64-.27-2.39-1.2-3.53-3.19-3.95-1.57-.33-3.01.35-3.4,2.2-.9,4.32,7.86,4.55,6.43,11.4-.62,3-2.88,5.47-6.79,4.65-2.13-.44-3.75-1.49-4.71-2.39.25-1.7.38-3.39.42-4.97.13-.03.42-.04.59,0,.39.08.53.26.56.73.26,3.18,1.1,4.64,3.47,5.14,2.01.42,3.16-.84,3.5-2.43,1.05-5.02-7.49-4.35-6.03-11.38.65-3.11,3.12-5.17,6.43-4.48,1.35.28,2.62.88,4.19,2.07-.2,1.19-.36,2.84-.41,4.05-.16.03-.36.02-.48,0Z"/>
        <path class="cls-1" d="M280.54,603.81l-2.02,15.65c-.1.77-.01,1.06,1.25,1.46.26.09.34.26.31.55-.02.12-.08.41-.12.56-1.05-.23-2.36-.46-3.28-.57-.94-.12-2.24-.23-3.29-.27-.03-.16-.02-.46,0-.58.04-.27.11-.47.47-.48,1.24-.05,1.45-.3,1.55-1.07l2.02-15.65-2.18-.28c-1.83-.24-2.56.49-3.62,2.47-.1.2-.26.24-.41.22-.2-.03-.5-.19-.62-.29.35-.92.61-1.58.8-2.29.24-.91.39-1.67.53-1.96.1-.17.23-.24.43-.22.37.05,1.49.37,3,.57l7.64.99c1.49.19,2.65.16,3.05.21.17.02.31.13.36.32.06.31-.01,1.09.01,2.03,0,.73.07,1.43.19,2.42-.16.07-.47.15-.67.12-.17-.02-.29-.1-.36-.32-.52-2.19-1.04-3.07-2.85-3.3l-2.18-.28Z"/>
        <path class="cls-1" d="M306.71,602.39l-.3,18.4c-.01.91.12,1.23,1.57,1.53.31.07.42.25.41.6,0,.14-.04.49-.07.66-1.2-.12-2.68-.22-3.72-.24-1.06-.02-2.52.03-3.7.11-.05-.18-.08-.53-.07-.67,0-.31.07-.56.46-.62,1.38-.22,1.58-.53,1.59-1.44l.3-18.4-2.46-.04c-2.07-.03-2.79.9-3.72,3.33-.09.24-.26.31-.42.31-.22,0-.59-.15-.72-.26.27-1.12.48-1.92.6-2.75.16-1.08.23-1.99.35-2.34.09-.21.23-.31.45-.31.42,0,1.7.24,3.41.27l8.62.14c1.68.03,2.97-.16,3.42-.15.2,0,.36.11.44.32.11.35.12,1.26.27,2.35.1.84.25,1.65.51,2.77-.17.1-.51.24-.73.23-.2,0-.33-.08-.44-.32-.86-2.46-1.54-3.42-3.58-3.45l-2.46-.04Z"/>
        <path class="cls-1" d="M320.74,614.67l-4.63-8.78c-.43-.81-.95-1.01-1.83-1.1-.2-.01-.32-.22-.34-.58,0-.06-.01-.18,0-.3v-.21c.74.04,1.96,0,3.31-.09.95-.07,2.74-.26,3.46-.4.08.36.08.48.09.54.03.39-.09.55-.26.59-.86.18-1.12.41-1.1.77.01.15.08.36.22.62l3.42,6.73,2.4-6.67c.17-.43.22-.77.2-.98-.04-.48-.37-.63-1.28-.75-.2-.01-.34-.16-.37-.54,0-.06,0-.27.04-.54.71.04,1.91.01,2.7-.05.77-.06,1.64-.15,2.48-.33.07.27.08.47.09.53.02.33-.06.55-.26.59-1.18.27-1.49.56-1.76,1.27l-3.45,9.4.43,5.96c.06.87.41,1.08,1.87,1.22.15.02.31.13.34.55,0,.06-.01.18,0,.3v.21c-.53.04-1.01.04-1.46.05-.8,0-1.73.04-2.3.08-.6.04-1.44.13-2.16.25-.42.06-.84.12-1.27.15l-.04-.21c-.03-.12-.04-.24-.05-.3-.03-.42.11-.55.26-.59,1.4-.43,1.74-.61,1.67-1.48l-.43-5.89Z"/>
        <path class="cls-1" d="M336.81,613.06l.82,5.7c.13.92.77,1.1,2.33,1.12.23,0,.38.16.43.54.02.12.03.39.03.54-.95.05-2.47.21-4.16.45-1.19.17-2.29.39-3.25.62-.07-.14-.11-.38-.12-.5-.06-.39.05-.55.19-.6,1.34-.5,1.56-.74,1.45-1.51l-2.15-14.88c-.12-.8-.53-1.04-1.92-1.03-.16-.04-.3-.17-.36-.55-.02-.15-.06-.39-.02-.51.93-.04,2.3-.18,3.24-.32l3.74-.54c3.51-.51,5.91,1.21,6.4,4.59.45,3.09-1.22,6.09-4.78,6.6l-1.88.27ZM337.34,611.47c2.03-.29,3.2-1.61,2.78-4.52-.38-2.64-1.42-4.07-3.97-3.7l-.74.11,1.19,8.23.74-.11Z"/>
        <path class="cls-1" d="M349.65,600.88l1.53,7.06,3.45-.75c.61-.13.64-.72.51-2.14-.04-.3.14-.43.38-.48.1-.02.37-.05.48-.04.12.9.37,2.28.54,3.1.15.7.39,1.67.74,2.85-.08.08-.35.17-.45.19-.27.06-.46-.02-.55-.31-.52-1.45-.8-1.82-1.34-1.7l-3.45.75,1.42,6.57c.18.82,1,.86,3.01.42l1.03-.22c1.93-.42,2.33-1.89,2.71-3.9.02-.16.15-.25.3-.28.17-.04.45.06.69.13,0,.31-.02.62-.04.9-.05.47-.03,1.05-.06,1.39.02.82.1,2.13.06,2.41-.04.19-.14.28-.34.32-.49.11-2.16.31-3.01.5l-5.54,1.2c-.95.21-2.28.58-3.24.86-.08-.14-.15-.46-.18-.58-.06-.29-.02-.46.14-.52,1.17-.53,1.63-.87,1.46-1.64l-3.18-14.69c-.17-.79-.58-.89-2.01-.88-.18-.02-.29-.18-.36-.47-.04-.18-.08-.38-.07-.57,1.42-.18,2.5-.39,3.28-.56l5.01-1.08c1.47-.32,2.55-.74,2.94-.82.17-.04.34.02.45.18.17.3.39,1.23.76,2.11.24.62.46,1.16.92,2.01-.13.12-.33.25-.52.3-.17.04-.31,0-.45-.18-1.23-1.88-2-2.51-3.79-2.13l-3.25.7Z"/>
        <path class="cls-1" d="M371.91,598.98c1.81-.58,3.78.47,4.37,2.32.6,1.86-.39,3.86-2.2,4.44-1.83.59-3.77-.47-4.37-2.32s.36-3.85,2.2-4.44Z"/>
        <path class="cls-1" d="M395.39,582.89c.05.11-.09,2.21-.4,6.3-.18,2.3-.22,4.06-.12,5.28s.37,2.34.83,3.39c.23.53.8,1.53,1.69,2.99.32.52.56.97.73,1.35.57,1.3.45,2.13-.36,2.48-.96.42-1.88-.37-2.75-2.36-.81-1.85-1.17-4.6-1.07-8.24.07-2.3.26-5.03.59-8.18l-3.48,1.52c-1.8.79-2.84,1.25-3.1,1.39-.33.17-.53.33-.61.5-.08.17-.11.36-.08.57.03.22.19.92.47,2.1.04.25,0,.4-.13.45-.15.07-.28,0-.37-.23-.1-.22-.21-.59-.35-1.12-.32-1.19-.63-2.19-.93-3-.22-.58-.29-1.02-.22-1.31.11-.05.43-.17.96-.36,1.18-.47,2.02-.82,2.54-1.05l4.74-2.08c.12-.05.25-.12.38-.2.12-.05.2-.09.23-.1.49-.21.77-.25.83-.1Z"/>
        <path class="cls-1" d="M411.47,580.78c3.01-1.71,6.87-.25,9.05,3.58,2.07,3.64,1.36,7.94-1.56,9.6-3.01,1.71-6.86.24-9.04-3.59-2.07-3.64-1.38-7.93,1.55-9.59ZM418.91,586.54c-2.11-3.72-4.83-5.88-7.14-4.56-1.47.83-1.89,3.27-.31,6.05,2.2,3.87,5.04,5.99,7.17,4.78,1.74-.99,1.75-3.71.29-6.27Z"/>
        <path class="cls-1" d="M420.21,577.87c-.3-.47-.57-.52-1.6-.12-.13.03-.25-.05-.37-.24-.07-.11-.16-.25-.2-.38.91-.48,1.59-.89,2.06-1.19l3.1-2c.92-.59,1.55-1.16,1.77-1.3.12-.08.23-.07.35.01.19.17.61.75,1.08,1.28.33.38.64.69,1.16,1.18-.04.11-.15.26-.28.34-.09.06-.21.08-.34-.02-1.34-1.01-2.03-1.26-3.15-.54l-2,1.29,3.08,4.79,2.09-1.34c.33-.21.19-.71-.24-1.61-.09-.21,0-.34.13-.43.06-.04.24-.13.31-.15.33.59.86,1.51,1.2,2.04.29.45.71,1.07,1.27,1.8-.04.08-.17.19-.24.23-.18.12-.32.1-.47-.07-.59-.75-1.02-1.08-1.35-.87l-2.09,1.34,2.73,4.24c.32.49,1.01.24,1.82-.1.15-.07.25,0,.39.21.05.08.18.31.23.42-.29.18-.57.34-.87.51-.54.29-1.17.67-1.76,1.05-.54.35-1.39.97-1.95,1.39-.09-.08-.22-.28-.27-.36-.11-.17-.15-.3-.04-.4.54-.62.88-.99.55-1.5l-6.1-9.48Z"/>
        <path class="cls-1" d="M449.05,572.96c.11.14.02.32-.27.55l-.24.18-.75.58c-.5.39-1,.78-1.52,1.17-.91.7-1.48,1.15-1.73,1.34-.25.19-.45.35-.59.46-.32.24-.53.3-.64.15-.11-.14-.07-.28.11-.43.29-.22.59-.47.91-.74.4-.33.52-.63.38-.88-.14-.25-.51-.76-1.1-1.52l-8.63-11.12c-.39-.5-.64-.79-.74-.87-.1-.07-.23-.05-.39.07-.07.05-.47.43-1.2,1.12-.15.14-.25.23-.3.27-.16.12-.28.13-.37.02-.1-.13-.07-.26.07-.4.55-.56,1-1.26,1.34-2.12s.51-1.69.49-2.49c.03-.25.08-.4.13-.44.1-.08.22-.04.34.12l.35.45c.1.13.21.27.33.43l10.99,14.18c.44.57.72.88.84.94.12.06.32,0,.61-.21l.45-.35.34-.26.3-.23c.18-.14.34-.13.46.02Z"/>
        <path class="cls-1" d="M456.06,553.91c1.19,1.33,2.14,2.73,2.87,4.2.72,1.47,1.12,2.82,1.19,4.05.08,1.32-.35,2.4-1.29,3.25-1.29,1.16-3.04,1.35-5.24.58-2.2-.77-4.36-2.34-6.48-4.71-2.45-2.74-3.79-5.43-4.03-8.07-.14-1.59.3-2.84,1.33-3.76,1.22-1.09,2.78-1.29,4.69-.61,2.36.84,4.68,2.54,6.96,5.08ZM453.33,554.91c-1.99-2.22-3.83-3.87-5.53-4.95-1.3-.83-2.34-.89-3.12-.19-1.57,1.4-.12,4.6,4.35,9.59,4.68,5.23,7.84,7.11,9.5,5.63.77-.69.64-1.94-.38-3.76-.93-1.66-2.53-3.77-4.81-6.32Z"/>
      </g>
    </g>
  </g>
</svg>