<?xml version="1.0" encoding="UTF-8"?>
<svg xmlns="http://www.w3.org/2000/svg" version="1.1" viewBox="0 0 612 792">
  <defs>
    <style>
      .cls-1, .cls-2 {
        fill: #231f20;
      }

      .cls-2 {
        fill-rule: evenodd;
      }
    </style>
  </defs>
  <!-- Generator: Adobe Illustrator 28.7.4, SVG Export Plug-In . SVG Version: 1.2.0 Build 166)  -->
  <g>
    <g id="Layer_1">
      <path class="cls-2" d="M306.44,212c-101.34,0-183.78,82.44-183.78,183.78s82.44,183.78,183.78,183.78,183.78-82.44,183.78-183.78-82.44-183.78-183.78-183.78h0ZM306.44,582.55c-102.99,0-186.78-83.79-186.78-186.78s83.79-186.78,186.78-186.78,186.78,83.79,186.78,186.78-83.79,186.78-186.78,186.78h0Z"/>
      <path class="cls-2" d="M306.44,204.36c-105.55,0-191.42,85.87-191.42,191.42s85.87,191.42,191.42,191.42,191.42-85.87,191.42-191.42-85.87-191.42-191.42-191.42h0ZM306.44,590.19c-107.2,0-194.42-87.21-194.42-194.42s87.22-194.42,194.42-194.42,194.42,87.22,194.42,194.42-87.22,194.42-194.42,194.42h0Z"/>
      <path class="cls-2" d="M306.44,153.97c-133.33,0-241.8,108.47-241.8,241.8s108.47,241.8,241.8,241.8,241.8-108.47,241.8-241.8-108.47-241.8-241.8-241.8h0ZM306.44,640.58c-65.39,0-126.86-25.46-173.1-71.7-46.24-46.24-71.7-107.71-71.7-173.1s25.46-126.86,71.7-173.1c46.23-46.23,107.72-71.7,173.1-71.7,0,0,0,0,0,0,65.39,0,126.86,25.46,173.1,71.7,46.24,46.24,71.7,107.71,71.7,173.1s-25.46,126.86-71.7,173.1c-46.24,46.24-107.71,71.7-173.1,71.7h0Z"/>
      <path class="cls-2" d="M250.03,287.86c-7.92.02-14.38,12.28-15.89,16.01-1.61,3.98-6.04,16.32-5.52,21.58.51,5.27,5.23,6.74,5.23,6.74,1.18.42,3.58.35,3.58.35l-81.82,157.52c3.51,5.6,7.32,10.99,11.41,16.15l74.58-148-69.35,154.3c32.62,37.47,80.67,61.16,134.25,61.16,44.94,0,85.98-16.66,117.3-44.14l-43.67-98.31,47.74,94.64c4.13-3.85,8.08-7.9,11.82-12.13,0,0-49.19-93.67-52.17-99.45-2.98-5.78-4.38-8.67-8.39-8.67s-7.83,8.39-7.83,8.39l-35.8,71.23-70.96-135.26c.99,1.02,3.3.89,3.3.89,6.29-.61,5.22-7.18,5.22-7.18l-4.01-27.88c1.07,1.26,3.87,3.17,6.48-.05,2.61-3.22-.23-5.87-.23-5.87l-15.57-12.45c-.91-5.79-4.06-8.03-6.13-8.88.04,0,.07,0,.11,0,5.48,0,9.93-4.44,9.93-9.93s-4.44-9.93-9.93-9.93-9.93,4.44-9.93,9.93c0,4.19,2.59,7.77,6.26,9.23ZM253.79,308.35l1.33-2.74,8.43,6.57-9.68,1.96s-1.09.22-1.61-.21c-.86-.7.39-3.09,1.54-5.58ZM249.99,358.22l76.01,144.47-5.87,9.86-70.14-154.33ZM343.39,500.68l35.33-66.38-32.35,71.88-2.98-5.5ZM259.24,329.28c.23,1.26,2.39,15.19,2.39,15.19l-8.48-16.17,1.57-.87s1.43-.84,2.94-.82c1.3.02,1.35,1.4,1.58,2.66Z"/>
      <g>
        <path class="cls-1" d="M140.54,239.03l16.06,14.72c.79.73,1.22.82,3.01-.65.39-.3.66-.29.97-.01.12.11.4.42.52.6-1.37,1.31-3.01,2.98-4.11,4.18-1.13,1.23-2.62,2.98-3.78,4.43-.21-.08-.55-.32-.67-.43-.27-.25-.43-.51-.07-1.02,1.25-1.79,1.18-2.27.38-2.99l-16.06-14.72-2.62,2.86c-2.2,2.4-2.12,3.97-.94,6.97.12.29,0,.54-.17.74-.24.26-.75.57-.99.65-.71-1.19-1.2-2.06-1.82-2.86-.8-1.03-1.53-1.82-1.72-2.23-.09-.27-.04-.51.2-.77.45-.49,2-1.81,3.82-3.79l9.17-10c1.79-1.95,2.97-3.61,3.45-4.13.21-.23.48-.34.75-.27.42.15,1.25.85,2.37,1.52.85.54,1.73.99,3.01,1.56-.09.28-.32.78-.56,1.04-.21.23-.42.33-.75.27-3.09-.92-4.66-.86-6.83,1.51l-2.62,2.86Z"/>
        <path class="cls-1" d="M185.9,227.62c.68.84,1.08.99,3.24-.34.23-.13.55-.02.79.27.1.13.33.48.43.67-1.52,1.13-3.38,2.47-4.65,3.5-1.3,1.05-3.04,2.62-4.46,3.88-.2-.11-.46-.43-.56-.56-.24-.29-.32-.6-.1-.82,1.71-1.81,1.68-2.27,1-3.1l-6.13-7.56-9.24,7.49,6.13,7.56c.68.84,1.08.99,3.24-.34.23-.13.55-.02.79.27.1.13.33.48.43.67-1.52,1.13-3.45,2.53-4.72,3.56s-2.97,2.57-4.39,3.82c-.2-.1-.46-.43-.56-.56-.23-.29-.31-.6-.1-.82,1.71-1.81,1.68-2.27,1-3.1l-13.06-16.11c-.68-.84-1.12-.96-3.24.34-.29.13-.58-.01-.79-.27-.1-.13-.36-.45-.45-.7,1.55-1.1,3.38-2.47,4.65-3.5s3.06-2.59,4.46-3.88c.19.17.49.46.59.59.21.26.25.59.1.82-1.74,1.84-1.68,2.27-1,3.1l5.55,6.85,9.24-7.49-5.55-6.85c-.68-.84-1.12-.96-3.24.34-.29.13-.58-.01-.79-.27-.1-.13-.37-.45-.45-.7,1.55-1.1,3.42-2.5,4.72-3.56,1.27-1.03,2.99-2.53,4.39-3.82.19.17.49.46.59.59.21.26.25.59.1.82-1.74,1.84-1.68,2.27-1,3.1l13.07,16.11Z"/>
        <path class="cls-1" d="M187.59,200.7l5.13,8.56,5.33-3.19c.95-.57.77-1.38.03-3.21-.18-.38.06-.67.44-.89.15-.09.59-.3.76-.36.52,1.13,1.45,2.85,2.04,3.84.51.85,1.25,2,2.27,3.37-.11.16-.5.45-.65.54-.42.25-.77.27-1.02-.07-1.39-1.63-1.99-1.95-2.82-1.45l-5.33,3.19,4.76,7.96c.6,1,1.95.52,5.05-1.34l1.59-.95c2.99-1.79,3.09-4.02,2.96-6.98-.03-.22.15-.43.38-.57.26-.16.75-.21,1.17-.27.1.42.2.85.28,1.23.09.67.34,1.43.43,1.92.35,1.1.96,2.8,1,3.21.01.28-.13.47-.43.65-.76.45-3.39,1.79-4.72,2.58l-8.58,5.14c-1.47.88-3.49,2.23-4.96,3.21-.18-.13-.42-.52-.5-.67-.21-.36-.21-.6.04-.79,1.7-1.45,2.32-2.21,1.77-3.13l-10.66-17.8c-.57-.96-1.27-.83-3.6.08-.31.09-.55-.06-.76-.41-.13-.21-.28-.46-.33-.72,2.24-1.15,3.92-2.11,5.13-2.83l7.75-4.64c2.27-1.36,3.88-2.61,4.48-2.97.26-.16.56-.19.8-.04.38.3,1.1,1.42,2.03,2.36.62.69,1.17,1.28,2.25,2.13-.16.24-.44.55-.74.73-.26.16-.5.2-.8.04-2.7-1.76-4.2-2.12-6.96-.47l-5.03,3.01Z"/>
        <path class="cls-1" d="M232.43,184.44c-.74.29-1.16.06-1.41-.2-2.38-2.45-4.74-2.9-8.06-1.59-2.62,1.03-4.23,3.09-3.28,5.51,2.23,5.67,15.58-1.9,19.11,7.08,1.55,3.93.21,8.73-6.35,11.31-3.57,1.4-6.87,1.68-9.06,1.51-1.03-2.13-2.25-4.15-3.48-5.97.17-.16.59-.41.88-.52.66-.26,1.02-.18,1.45.32,3.02,3.35,5.5,4.25,9.48,2.68,3.36-1.32,4.05-3.77,3.24-5.85-2.59-6.59-14.87,1.79-18.49-7.42-1.61-4.09.4-8.61,5.94-10.79,2.26-.89,4.68-1.35,8.01-1.41.69,1.51,1.81,3.52,2.74,4.93-.22.17-.53.34-.73.42Z"/>
        <path class="cls-1" d="M251.79,171.21c8.22-2,15.89,2.15,17.81,10.03,1.82,7.48-3.21,15.14-11.22,17.09-8.22,2-15.85-2.16-17.77-10.04-1.82-7.48,3.17-15.13,11.18-17.08ZM264.17,184.65c-1.86-7.65-6.34-12.65-12.68-11.11-4.02.98-6.92,5.3-5.53,11.02,1.94,7.97,6.73,12.94,12.55,11.52,4.75-1.16,6.94-6.16,5.66-11.43Z"/>
        <path class="cls-1" d="M283.98,189.77c.12,1.15,1.63,1.29,5.23.93l1.67-.17c2.98-.3,4-1.61,5-4.96.07-.21.27-.36.62-.4.31-.03.77.13,1.18.26-.27,1.77-.49,4-.55,6.01.02.66-.36.79-.71.82-.88.09-3.7.16-5.24.32l-9.95,1c-1.71.17-4.11.54-5.85.79-.11-.2-.15-.65-.17-.82-.04-.41.07-.63.37-.7,2.15-.59,3.04-1.01,2.94-2.08l-2.06-20.65c-.11-1.07-.41-1.42-2.9-1.5-.31-.05-.48-.33-.51-.66-.02-.17-.06-.58,0-.83,1.9-.07,4.19-.21,5.81-.37s4.42-.53,6.29-.84c.07.24.15.65.17.82.03.33-.11.64-.37.74-2.47.58-3.08,1.1-2.97,2.17l2.01,20.11Z"/>
        <path class="cls-1" d="M314.48,164.82c8.46.3,14.72,6.36,14.44,14.47-.27,7.7-7.18,13.71-15.42,13.42-8.46-.3-14.68-6.36-14.4-14.47.27-7.7,7.14-13.71,15.37-13.42ZM322.77,181.1c.28-7.86-2.69-13.89-9.21-14.12-4.14-.14-8.09,3.24-8.3,9.11-.29,8.19,2.98,14.27,8.97,14.48,4.89.17,8.34-4.06,8.53-9.48Z"/>
        <path class="cls-1" d="M357.88,189.25l-9.01-2.11-3.54,5.08c-.24.24-.37.6-.4.76-.13.56.25,1.08,1.99,1.74.33.12.54.38.42.91-.04.16-.16.47-.25.67-1.52-.48-3.3-.98-4.93-1.37-1.16-.27-2.37-.51-3.95-.71-.04-.22.04-.54.08-.71.11-.48.31-.74.75-.68,1.83.09,2.54-.04,3.18-.83l15.77-20.81c.37-.42.8-.53,1.19-.44.26.06.55.17.88.29l4.74,26.38c.15.89,1.14,1.5,2.26,1.93.41.18.58.43.46.96-.04.16-.17.51-.26.71-1.77-.54-3.6-1.06-5.14-1.42-1.59-.37-4.88-1.01-6.52-1.31-.04-.22.04-.54.07-.71.11-.48.43-.67.65-.66,1.51.1,2.32-.05,2.48-.74.04-.16.04-.37.01-.63l-.92-6.3ZM357.54,187.04l-1.52-9.93-5.85,8.2,7.38,1.73Z"/>
        <path class="cls-1" d="M382.94,194.1l-1.76-.7-3.18,8.05c-.47,1.19.38,1.93,2.79,3.24.35.18.47.5.27,1-.06.15-.24.48-.36.66-1.51-.73-3.98-1.8-6.77-2.9-1.97-.78-3.84-1.43-5.48-1.94,0-.23.12-.53.18-.69.2-.5.48-.61.74-.55,2.45.52,2.96.41,3.36-.59l7.62-19.29c.41-1.04-.05-1.67-2.21-2.79-.22-.17-.34-.45-.15-.95.08-.19.2-.5.34-.62,1.47.71,3.69,1.68,5.25,2.3l6.19,2.44c5.82,2.3,8.19,6.49,6.56,10.61-1.07,2.7-3.91,4.38-7.46,4.26l2.95,11.36c.45,1.74,1.71,2.63,2.71,3.34.23.14.37.37.19.83-.08.19-.2.5-.37.7-1.2-.56-4.55-2.02-6.11-2.64-1.15-.45-1.94-1.92-2.43-3.81l-2.87-11.33ZM383.17,191.96c3.36,1.33,6,1.12,7.49-2.65,1.25-3.16.6-5.73-3.53-7.36l-1.23-.49-3.96,10.01,1.23.49Z"/>
        <path class="cls-1" d="M419.04,196.99l-10.56,19.05c-.52.94-.51,1.37,1.33,2.78.38.31.44.57.24.94-.08.15-.32.49-.46.65-1.6-1.03-3.6-2.23-5.02-3.02-1.46-.81-3.51-1.85-5.19-2.64.02-.22.19-.61.27-.75.18-.33.4-.54.98-.31,2.03.79,2.48.62,3-.33l10.56-19.05-3.39-1.88c-2.85-1.58-4.36-1.14-7,.72-.26.19-.53.13-.76,0-.31-.17-.73-.59-.86-.81.99-.97,1.72-1.65,2.36-2.43.82-1.02,1.41-1.92,1.77-2.19.24-.15.49-.15.8.02.58.32,2.23,1.52,4.58,2.82l11.87,6.58c2.31,1.28,4.21,2.05,4.82,2.39.27.15.44.39.44.67-.05.45-.53,1.41-.92,2.66-.33.96-.56,1.92-.82,3.29-.29-.02-.83-.13-1.14-.3-.27-.15-.42-.33-.44-.67.17-3.22-.25-4.73-3.06-6.29l-3.39-1.88Z"/>
        <path class="cls-1" d="M426.93,227.96c-.62.88-.65,1.31,1.21,3.03.19.19.17.52-.04.83-.09.14-.37.45-.52.59-1.5-1.16-3.34-2.6-4.67-3.54-1.37-.96-3.35-2.21-4.91-3.2.05-.22.29-.56.38-.69.21-.3.49-.47.76-.32,2.21,1.15,2.64,1,3.26.11l11.93-16.97c.62-.88.62-1.34-1.21-3.03-.21-.25-.15-.56.04-.83.1-.14.33-.47.55-.63,1.44,1.17,3.3,2.58,4.67,3.54,1.33.94,3.29,2.21,4.91,3.2-.11.23-.31.59-.4.73-.19.27-.5.41-.77.32-2.25-1.17-2.64-1-3.26-.11l-11.93,16.97Z"/>
        <path class="cls-1" d="M456.93,230.32c-.6-.51-.6-1-.48-1.34,1.03-3.25.32-5.54-2.39-7.86-2.15-1.83-4.72-2.28-6.41-.29-3.95,4.63,9.02,12.85,2.76,20.19-2.74,3.22-7.6,4.3-12.96-.27-2.92-2.49-4.71-5.27-5.61-7.28,1.4-1.91,2.6-3.93,3.63-5.89.22.08.64.33.88.53.54.46.64.81.4,1.43-1.53,4.24-1.15,6.85,2.1,9.62,2.75,2.34,5.24,1.8,6.69.09,4.59-5.39-8.59-12.27-2.17-19.8,2.85-3.34,7.79-3.7,12.31.15,1.84,1.57,3.39,3.49,5.02,6.4-1.01,1.32-2.25,3.25-3.06,4.74-.25-.11-.55-.31-.72-.45Z"/>
        <path class="cls-1" d="M476.12,243.15l-16.06,14.71c-.79.73-.92,1.14.38,3.05.27.41.23.68-.07.96-.12.11-.46.36-.64.47-1.19-1.48-2.71-3.26-3.81-4.46-1.13-1.23-2.74-2.87-4.08-4.15.09-.2.37-.52.49-.63.27-.25.55-.38,1.03.02,1.67,1.4,2.16,1.37,2.95.64l16.06-14.71-2.62-2.86c-2.2-2.4-3.77-2.46-6.86-1.54-.3.1-.54-.04-.72-.24-.24-.26-.5-.79-.56-1.04,1.25-.6,2.16-1.02,3.01-1.56,1.09-.7,1.95-1.37,2.37-1.52.27-.07.51,0,.75.27.45.49,1.63,2.15,3.45,4.13l9.17,10.01c1.79,1.95,3.34,3.28,3.81,3.8.21.23.3.51.2.77-.19.41-.95,1.17-1.72,2.23-.61.8-1.14,1.64-1.82,2.86-.27-.11-.75-.39-.99-.65-.21-.23-.3-.45-.2-.77,1.18-3,1.26-4.56-.91-6.94l-2.62-2.86Z"/>
      </g>
      <g>
        <path class="cls-1" d="M171.91,551.58c.41-.2.65-.3,1.63.58.46.41,1.89,1.62,2.69,2.21-.1.19-.29.4-.38.5-.24.26-.46.38-.68.29-1.29-.79-1.6-.7-2.12-.13-.21.23-10.54,12.56-11.37,13.6-.59.69-.62,1.1.25,2.26.12.16.06.39-.22.7-.09.1-.3.29-.44.4-.93-.94-1.54-1.64-2.53-2.54-.91-.83-2.14-1.8-2.87-2.38.1-.15.26-.37.36-.48.33-.36.57-.38.65-.3,1.38.78,1.79.73,2.43.03.26-.28,8.55-10.11,9.14-10.9l-15.48,8.5c-.41.2-.63.28-.8.13-.06-.06-.19-.17-.22-.25l8.28-18.77c-1.31,1.32-11.24,11.5-11.52,11.81-.59.65-.65.97.25,2.26.12.16.09.36-.22.7-.09.1-.28.27-.44.4-.67-.76-1.25-1.37-1.87-1.94-.54-.49-1.56-1.28-2.27-1.83.08-.17.26-.37.36-.48.33-.36.53-.37.68-.29,1.06.54,1.67.62,2.28.03.82-.82,12.22-12.45,12.41-12.66.52-.57.5-.97-.33-2.1-.14-.18-.04-.41.22-.7.09-.1.28-.31.47-.43.65.74,2.64,2.63,3.16,3.1.97.88.91,1.16.73,1.57l-6.72,15.14,14.51-8.06Z"/>
        <path class="cls-1" d="M173.33,570.46l2.26-9.66c.2-.9-.05-1.39-.67-2.03-.14-.14-.1-.37.12-.66.04-.05.11-.14.2-.23l.15-.15c.53.51,1.47,1.29,2.55,2.1.76.57,2.24,1.6,2.87,1.96-.17.32-.25.41-.28.46-.23.31-.42.36-.58.28-.77-.43-1.12-.42-1.33-.14-.09.12-.18.32-.24.61l-1.82,7.33,6.18-3.47c.41-.22.67-.44.79-.6.29-.38.13-.72-.48-1.41-.14-.14-.15-.34.08-.65.04-.05.18-.2.38-.39.51.49,1.43,1.26,2.07,1.74.62.46,1.34.96,2.09,1.38-.12.25-.25.42-.28.46-.2.26-.4.37-.58.28-1.07-.58-1.49-.55-2.16-.2l-8.76,4.84-3.57,4.78c-.52.7-.4,1.08.61,2.14.1.11.15.3-.1.64-.04.05-.13.13-.2.23l-.15.15c-.42-.31-.78-.62-1.12-.92-.6-.53-1.33-1.11-1.79-1.45-.48-.36-1.18-.84-1.79-1.23-.36-.23-.72-.46-1.06-.72l.11-.18c.05-.11.12-.21.16-.26.25-.34.44-.34.58-.28,1.34.59,1.71.68,2.23-.02l3.54-4.73Z"/>
        <path class="cls-1" d="M197.12,586.81l-5.08-2.96-3.71,3.47c-.22.16-.4.41-.47.54-.25.42-.16.88.75,1.65.18.14.23.38,0,.77-.07.12-.24.35-.35.49-.82-.6-1.8-1.25-2.72-1.79-.65-.38-1.35-.75-2.29-1.13.04-.18.18-.42.25-.54.21-.36.41-.53.67-.42,1.13.34,1.62.34,2.25-.19l15.98-14.02c.36-.28.66-.3.88-.18.15.08.3.21.47.36l-4.64,21.36c-.16.72.29,1.34.87,1.84.21.2.24.42,0,.82-.07.12-.25.38-.37.52-.96-.68-1.97-1.35-2.84-1.86-.89-.52-2.79-1.5-3.74-1.98.04-.18.18-.42.25-.54.21-.36.46-.46.6-.42.93.3,1.48.29,1.78-.22.07-.12.13-.29.19-.5l1.24-5.07ZM197.54,585.03l1.91-8-6.07,5.58,4.16,2.43Z"/>
        <path class="cls-1" d="M211.29,593.12l-.97-.46-2.68,5.67c-.4.84.03,1.34,1.33,2.22.19.12.23.34.06.69-.05.11-.19.34-.28.47-.82-.49-2.17-1.2-3.71-1.92-1.08-.51-2.13-.94-3.05-1.28.02-.16.12-.37.17-.48.17-.35.34-.43.49-.4,1.39.33,1.71.25,2.04-.46l6.43-13.58c.35-.73.14-1.16-1.03-1.92-.11-.12-.16-.31,0-.66.06-.14.17-.35.26-.44.8.48,2.01,1.12,2.87,1.53l3.41,1.62c3.21,1.52,4.19,4.41,2.82,7.31-.9,1.9-2.75,3.11-4.84,3.09l.61,7.89c.09,1.21.75,1.81,1.27,2.29.12.09.18.25.03.58-.06.13-.17.35-.29.49-.65-.38-2.49-1.34-3.35-1.75-.63-.3-.96-1.32-1.05-2.62l-.56-7.87ZM211.63,591.63c1.85.88,3.43.7,4.69-1.96,1.05-2.22.93-4.01-1.35-5.09l-.68-.32-3.34,7.05.68.32Z"/>
        <path class="cls-1" d="M231.93,591.88l-5.7,14.71c-.28.73-.26,1.02.86,1.72.24.16.27.33.17.61-.04.11-.17.38-.25.51-.97-.47-2.18-1.01-3.05-1.34-.89-.34-2.12-.76-3.13-1.05,0-.16.09-.45.14-.56.1-.25.22-.43.57-.36,1.22.25,1.48.06,1.76-.67l5.7-14.71-2.05-.79c-1.73-.67-2.6-.14-4.11,1.53-.15.17-.31.17-.45.12-.19-.07-.45-.3-.53-.43.56-.81.97-1.39,1.32-2.03.45-.82.78-1.53.98-1.77.13-.14.28-.18.47-.11.35.14,1.36.72,2.78,1.27l7.18,2.78c1.4.54,2.54.79,2.91.93.16.06.27.2.28.4-.02.32-.27,1.05-.47,1.97-.17.71-.28,1.41-.39,2.39-.17.03-.5.03-.68-.04-.16-.06-.26-.16-.28-.4.01-2.25-.28-3.23-1.98-3.89l-2.05-.79Z"/>
        <path class="cls-1" d="M240.68,611.51c-.23.75-.19,1.04,1.1,1.69.13.07.17.3.09.56-.04.12-.15.39-.22.53-1.01-.38-2.25-.86-3.13-1.13-.91-.28-2.2-.59-3.22-.84,0-.16.09-.45.12-.56.08-.26.21-.44.39-.41,1.41.19,1.63-.03,1.86-.77l4.46-14.35c.23-.75.17-1.05-1.1-1.69-.15-.11-.16-.33-.09-.56.04-.11.12-.4.23-.56.98.4,2.22.85,3.13,1.13.88.27,2.17.61,3.22.84-.03.18-.09.47-.13.59-.07.23-.23.4-.39.41-1.43-.19-1.63.03-1.86.77l-4.46,14.35Z"/>
        <path class="cls-1" d="M259.58,603.78c-.44-.11-.54-.41-.56-.66-.18-2.39-1.08-3.57-3.05-4.05-1.55-.38-3.02.25-3.47,2.08-1.05,4.28,7.7,4.83,6.03,11.61-.73,2.97-3.07,5.36-6.95,4.41-2.11-.52-3.7-1.62-4.62-2.56.31-1.68.49-3.37.6-4.95.14-.03.42-.02.59.02.39.09.52.28.54.75.14,3.19.94,4.68,3.29,5.26,1.99.49,3.19-.73,3.58-2.3,1.22-4.98-7.34-4.61-5.63-11.58.76-3.09,3.3-5.06,6.58-4.25,1.34.33,2.59.98,4.12,2.22-.24,1.18-.46,2.82-.55,4.03-.16.02-.36,0-.48-.03Z"/>
        <path class="cls-1" d="M273.43,602.86l-2.57,15.57c-.13.77-.05,1.06,1.2,1.5.26.1.34.27.29.56-.02.12-.09.41-.14.55-1.05-.26-2.34-.54-3.26-.69-.94-.15-2.23-.31-3.28-.39-.02-.16,0-.46.02-.57.04-.27.13-.47.48-.47,1.24,0,1.46-.25,1.59-1.02l2.57-15.57-2.17-.36c-1.83-.3-2.57.4-3.71,2.34-.11.19-.27.23-.41.21-.2-.03-.5-.2-.61-.31.38-.91.66-1.56.88-2.26.27-.9.45-1.66.6-1.94.1-.17.24-.23.44-.2.37.06,1.48.43,2.98.67l7.6,1.25c1.48.24,2.65.25,3.04.32.17.03.31.14.35.33.05.31-.05,1.09-.06,2.03-.02.73.02,1.43.11,2.42-.16.06-.48.13-.68.1-.17-.03-.29-.11-.35-.33-.45-2.2-.93-3.1-2.73-3.4l-2.17-.36Z"/>
        <path class="cls-1" d="M299.54,602.32l-.75,18.4c-.04.91.09,1.23,1.53,1.57.3.08.41.26.39.61,0,.14-.05.49-.08.66-1.2-.15-2.68-.28-3.71-.33-1.06-.04-2.52-.03-3.7.02-.05-.18-.06-.53-.06-.67.01-.32.08-.56.47-.61,1.38-.19,1.59-.5,1.63-1.41l.75-18.4-2.46-.1c-2.07-.08-2.81.83-3.8,3.24-.09.24-.26.3-.43.3-.22,0-.58-.16-.72-.27.3-1.11.53-1.91.67-2.74.18-1.08.28-1.99.4-2.33.09-.21.24-.31.46-.3.42.02,1.7.28,3.4.35l8.62.35c1.68.07,2.97-.09,3.42-.07.2,0,.36.12.43.33.1.35.09,1.26.21,2.36.08.84.21,1.66.45,2.79-.17.1-.51.22-.74.21-.2,0-.33-.08-.43-.33-.79-2.49-1.46-3.46-3.5-3.54l-2.46-.1Z"/>
        <path class="cls-1" d="M313.22,615.11l-4.31-8.93c-.41-.83-.92-1.05-1.79-1.16-.2-.02-.31-.23-.32-.59,0-.06,0-.18.01-.3l.02-.21c.73.06,1.95.08,3.3.02.95-.04,2.75-.16,3.47-.28.06.36.07.48.07.54.01.39-.1.54-.28.58-.87.15-1.14.37-1.12.73,0,.15.06.36.2.62l3.18,6.84,2.63-6.58c.18-.43.25-.76.24-.97-.02-.48-.35-.65-1.26-.79-.2-.02-.33-.17-.35-.56,0-.06.01-.27.05-.54.7.06,1.9.08,2.7.05.77-.03,1.65-.09,2.49-.24.06.27.07.48.07.54.01.33-.08.54-.28.58-1.19.22-1.51.51-1.81,1.21l-3.78,9.27.22,5.97c.03.87.37,1.1,1.83,1.28.15.02.3.14.32.56,0,.06-.02.18-.01.3l-.02.21c-.52.02-1,0-1.45,0-.8-.03-1.73-.03-2.3,0-.6.02-1.45.08-2.17.17-.42.05-.85.09-1.27.11l-.03-.21c-.03-.12-.03-.24-.04-.3-.02-.42.13-.55.28-.58,1.41-.38,1.75-.55,1.72-1.42l-.22-5.91Z"/>
        <path class="cls-1" d="M329.34,614.06l.62,5.73c.1.92.73,1.13,2.29,1.2.23,0,.37.17.41.56.01.12.02.39,0,.54-.95.01-2.48.12-4.17.3-1.19.13-2.31.31-3.27.51-.07-.14-.09-.38-.1-.5-.04-.39.07-.55.21-.6,1.36-.45,1.59-.69,1.5-1.46l-1.62-14.95c-.09-.81-.49-1.06-1.88-1.09-.16-.04-.3-.18-.34-.57-.02-.15-.04-.39,0-.51.93-.01,2.3-.1,3.25-.2l3.75-.41c3.53-.38,5.86,1.42,6.23,4.82.34,3.1-1.43,6.04-5.01,6.43l-1.89.21ZM329.92,612.49c2.04-.22,3.26-1.5,2.94-4.42-.29-2.66-1.28-4.12-3.84-3.84l-.75.08.9,8.26.75-.08Z"/>
        <path class="cls-1" d="M342.58,602.34l1.28,7.12,3.47-.62c.62-.11.66-.7.58-2.12-.03-.3.15-.42.4-.47.1-.02.37-.04.48-.03.09.9.29,2.3.43,3.12.13.71.33,1.68.64,2.87-.09.08-.35.16-.45.17-.27.05-.46-.04-.54-.33-.47-1.47-.74-1.85-1.28-1.75l-3.47.62,1.19,6.61c.15.83.97.89,2.99.53l1.03-.19c1.94-.35,2.39-1.8,2.85-3.8.02-.16.16-.24.31-.27.17-.03.44.07.69.15-.02.31-.04.62-.07.9-.07.47-.07,1.05-.11,1.39,0,.82.03,2.13-.02,2.41-.04.19-.16.27-.35.31-.49.09-2.17.24-3.03.39l-5.59,1c-.96.17-2.3.5-3.27.74-.08-.14-.13-.46-.16-.58-.05-.29,0-.46.16-.52,1.18-.49,1.66-.82,1.52-1.58l-2.66-14.79c-.14-.8-.54-.91-1.98-.96-.18-.03-.29-.19-.34-.49-.03-.18-.07-.38-.05-.57,1.42-.13,2.51-.3,3.3-.44l5.05-.91c1.48-.27,2.58-.65,2.97-.72.17-.03.34.03.44.19.16.31.35,1.25.69,2.13.21.63.42,1.18.85,2.04-.13.12-.34.24-.53.28-.17.03-.31,0-.44-.2-1.16-1.92-1.91-2.58-3.71-2.26l-3.27.59Z"/>
        <path class="cls-1" d="M364.91,601.23c1.83-.52,3.76.6,4.29,2.48.53,1.88-.53,3.84-2.35,4.36-1.85.52-3.76-.6-4.29-2.48-.53-1.88.5-3.83,2.35-4.36Z"/>
        <path class="cls-1" d="M394.09,605.79c.07.17-.07.32-.41.45l-.28.11-.88.35c-.59.23-1.18.47-1.78.71-1.07.42-1.75.69-2.04.81-.29.12-.53.21-.7.28-.37.15-.59.14-.66-.03s0-.29.23-.38c.34-.13.7-.29,1.08-.46.47-.21.68-.46.61-.74-.07-.28-.28-.87-.63-1.76l-5.18-13.09c-.23-.59-.39-.94-.47-1.04-.08-.1-.21-.11-.39-.04-.08.03-.57.28-1.47.74-.18.09-.3.15-.36.18-.19.07-.31.05-.36-.08-.06-.15,0-.27.18-.36.69-.38,1.32-.94,1.88-1.67.57-.73.96-1.48,1.17-2.25.1-.23.19-.36.25-.39.12-.05.22.02.3.21l.21.53c.06.15.12.32.2.5l6.61,16.68c.27.67.45,1.05.55,1.14.1.09.31.08.65-.03l.53-.21.4-.16.35-.14c.22-.09.36-.04.44.15Z"/>
        <path class="cls-1" d="M406.16,589.42c.77,1.6,1.3,3.21,1.59,4.83s.29,3.02.02,4.22c-.29,1.29-1,2.21-2.14,2.76-1.56.75-3.29.45-5.19-.9-1.9-1.35-3.54-3.46-4.91-6.33-1.59-3.32-2.14-6.27-1.63-8.87.3-1.57,1.08-2.65,2.32-3.25,1.47-.71,3.03-.47,4.67.72,2.03,1.46,3.79,3.74,5.27,6.82ZM403.26,589.62c-1.29-2.69-2.6-4.78-3.94-6.29-1.02-1.15-2-1.5-2.94-1.05-1.89.91-1.39,4.38,1.51,10.42,3.04,6.33,5.56,9.01,7.56,8.05.93-.45,1.16-1.69.68-3.72-.43-1.86-1.39-4.33-2.87-7.41Z"/>
        <path class="cls-1" d="M418.16,577.02c2.94-1.81,6.86-.5,9.17,3.26,2.19,3.56,1.64,7.89-1.22,9.66-2.94,1.81-6.85.49-9.16-3.27-2.19-3.56-1.66-7.88,1.21-9.65ZM425.79,582.52c-2.24-3.64-5.03-5.7-7.3-4.31-1.44.89-1.77,3.34-.1,6.06,2.34,3.79,5.25,5.81,7.33,4.53,1.7-1.05,1.61-3.77.07-6.28Z"/>
        <path class="cls-1" d="M426.81,573.8c-.32-.46-.59-.5-1.6-.07-.13.04-.25-.04-.38-.23-.08-.11-.17-.24-.21-.37.89-.51,1.56-.95,2.02-1.26l3.03-2.11c.9-.63,1.5-1.21,1.73-1.36.12-.08.23-.08.35,0,.2.16.64.73,1.13,1.24.34.37.66.67,1.21,1.14-.04.11-.15.26-.26.35-.09.06-.2.09-.34-.01-1.37-.96-2.08-1.19-3.17-.43l-1.95,1.36,3.25,4.67,2.04-1.42c.33-.23.16-.71-.3-1.6-.1-.21-.02-.34.11-.44.06-.04.23-.14.31-.16.36.58.91,1.47,1.27,1.99.31.44.75,1.04,1.33,1.76-.03.08-.17.2-.23.24-.18.12-.32.11-.47-.05-.61-.73-1.06-1.05-1.38-.82l-2.04,1.42,2.87,4.14c.33.48,1.02.2,1.81-.16.15-.07.25-.01.4.19.05.07.19.31.24.41-.28.2-.56.36-.85.54-.53.31-1.15.71-1.72,1.12-.53.37-1.35,1.02-1.9,1.46-.09-.07-.24-.28-.29-.35-.12-.17-.16-.3-.06-.4.52-.64.84-1.03.5-1.52l-6.43-9.26Z"/>
        <path class="cls-1" d="M455.46,567.88c.11.14.03.32-.25.56l-.23.19-.73.61c-.49.4-.98.81-1.47,1.23-.88.73-1.44,1.2-1.68,1.4s-.43.36-.57.48c-.31.26-.52.31-.63.18-.12-.14-.08-.28.1-.43.28-.24.58-.49.88-.78.38-.35.5-.64.35-.89s-.54-.74-1.15-1.48l-9.01-10.82c-.41-.49-.66-.77-.77-.84-.1-.07-.23-.04-.39.09-.07.05-.45.44-1.16,1.17-.14.14-.24.24-.29.28-.16.13-.28.14-.37.03-.1-.12-.08-.26.06-.4.54-.58.96-1.3,1.27-2.17.31-.87.45-1.71.41-2.51.02-.25.06-.4.11-.45.1-.08.22-.05.35.1l.36.44c.1.12.22.26.35.42l11.48,13.78c.46.55.75.86.87.91.12.05.32-.02.61-.23l.44-.37.33-.27.29-.24c.18-.15.33-.15.46,0Z"/>
        <path class="cls-1" d="M461.79,548.6c1.23,1.29,2.24,2.65,3.01,4.1.78,1.45,1.22,2.78,1.33,4,.13,1.32-.26,2.41-1.18,3.29-1.25,1.2-2.99,1.45-5.21.76s-4.44-2.19-6.64-4.48c-2.55-2.66-3.98-5.3-4.31-7.92-.2-1.58.2-2.85,1.2-3.81,1.18-1.13,2.73-1.39,4.66-.77,2.39.76,4.77,2.37,7.13,4.84ZM459.1,549.69c-2.06-2.15-3.96-3.74-5.7-4.75-1.33-.78-2.37-.81-3.12-.08-1.52,1.45.05,4.6,4.68,9.43,4.86,5.07,8.09,6.83,9.69,5.3.75-.71.58-1.96-.51-3.75-.99-1.63-2.66-3.68-5.03-6.15Z"/>
      </g>
    </g>
  </g>
</svg>